%TF.GenerationSoftware,KiCad,Pcbnew,8.0.2*%
%TF.CreationDate,2024-06-21T23:47:16-04:00*%
%TF.ProjectId,RP2040 Custom,52503230-3430-4204-9375-73746f6d2e6b,rev?*%
%TF.SameCoordinates,Original*%
%TF.FileFunction,Soldermask,Bot*%
%TF.FilePolarity,Negative*%
%FSLAX46Y46*%
G04 Gerber Fmt 4.6, Leading zero omitted, Abs format (unit mm)*
G04 Created by KiCad (PCBNEW 8.0.2) date 2024-06-21 23:47:16*
%MOMM*%
%LPD*%
G01*
G04 APERTURE LIST*
%ADD10R,1.700000X1.700000*%
%ADD11O,1.700000X1.700000*%
%ADD12C,0.650000*%
%ADD13O,1.000000X2.100000*%
%ADD14O,1.000000X1.800000*%
G04 APERTURE END LIST*
D10*
%TO.C,J5*%
X146558000Y-94996000D03*
D11*
X144018000Y-94996000D03*
%TD*%
D10*
%TO.C,J4*%
X130556000Y-49276000D03*
D11*
X130556000Y-46736000D03*
%TD*%
D10*
%TO.C,J2*%
X124460000Y-48260000D03*
D11*
X124460000Y-50800000D03*
X124460000Y-53340000D03*
X124460000Y-55880000D03*
X124460000Y-58420000D03*
X124460000Y-60960000D03*
X124460000Y-63500000D03*
X124460000Y-66040000D03*
X124460000Y-68580000D03*
X124460000Y-71120000D03*
X124460000Y-73660000D03*
X124460000Y-76200000D03*
X124460000Y-78740000D03*
X124460000Y-81280000D03*
X124460000Y-83820000D03*
X124460000Y-86360000D03*
X124460000Y-88900000D03*
X124460000Y-91440000D03*
X124460000Y-93980000D03*
X124460000Y-96520000D03*
%TD*%
D10*
%TO.C,J1*%
X154940000Y-48133000D03*
D11*
X154940000Y-50673000D03*
X154940000Y-53213000D03*
X154940000Y-55753000D03*
X154940000Y-58293000D03*
X154940000Y-60833000D03*
X154940000Y-63373000D03*
X154940000Y-65913000D03*
X154940000Y-68453000D03*
X154940000Y-70993000D03*
X154940000Y-73533000D03*
X154940000Y-76073000D03*
X154940000Y-78613000D03*
X154940000Y-81153000D03*
X154940000Y-83693000D03*
X154940000Y-86233000D03*
X154940000Y-88773000D03*
X154940000Y-91313000D03*
X154940000Y-93853000D03*
X154940000Y-96393000D03*
%TD*%
D12*
%TO.C,J1*%
X142590000Y-48325000D03*
X136810000Y-48325000D03*
D13*
X144020000Y-48845000D03*
D14*
X144020000Y-44645000D03*
D13*
X135380000Y-48845000D03*
D14*
X135380000Y-44645000D03*
%TD*%
M02*
