%TF.GenerationSoftware,KiCad,Pcbnew,8.0.2*%
%TF.CreationDate,2024-06-21T23:47:15-04:00*%
%TF.ProjectId,RP2040 Custom,52503230-3430-4204-9375-73746f6d2e6b,rev?*%
%TF.SameCoordinates,Original*%
%TF.FileFunction,Copper,L1,Top*%
%TF.FilePolarity,Positive*%
%FSLAX46Y46*%
G04 Gerber Fmt 4.6, Leading zero omitted, Abs format (unit mm)*
G04 Created by KiCad (PCBNEW 8.0.2) date 2024-06-21 23:47:15*
%MOMM*%
%LPD*%
G01*
G04 APERTURE LIST*
G04 Aperture macros list*
%AMRoundRect*
0 Rectangle with rounded corners*
0 $1 Rounding radius*
0 $2 $3 $4 $5 $6 $7 $8 $9 X,Y pos of 4 corners*
0 Add a 4 corners polygon primitive as box body*
4,1,4,$2,$3,$4,$5,$6,$7,$8,$9,$2,$3,0*
0 Add four circle primitives for the rounded corners*
1,1,$1+$1,$2,$3*
1,1,$1+$1,$4,$5*
1,1,$1+$1,$6,$7*
1,1,$1+$1,$8,$9*
0 Add four rect primitives between the rounded corners*
20,1,$1+$1,$2,$3,$4,$5,0*
20,1,$1+$1,$4,$5,$6,$7,0*
20,1,$1+$1,$6,$7,$8,$9,0*
20,1,$1+$1,$8,$9,$2,$3,0*%
%AMFreePoly0*
4,1,6,0.230000,0.054289,0.020711,-0.155000,-0.230000,-0.155000,-0.230000,0.155000,0.230000,0.155000,0.230000,0.054289,0.230000,0.054289,$1*%
%AMFreePoly1*
4,1,6,0.230000,-0.054289,0.230000,-0.155000,-0.230000,-0.155000,-0.230000,0.155000,0.020711,0.155000,0.230000,-0.054289,0.230000,-0.054289,$1*%
%AMFreePoly2*
4,1,6,0.230000,-0.155000,-0.230000,-0.155000,-0.230000,-0.054289,-0.020711,0.155000,0.230000,0.155000,0.230000,-0.155000,0.230000,-0.155000,$1*%
%AMFreePoly3*
4,1,6,0.230000,-0.155000,-0.020711,-0.155000,-0.230000,0.054289,-0.230000,0.155000,0.230000,0.155000,0.230000,-0.155000,0.230000,-0.155000,$1*%
G04 Aperture macros list end*
%TA.AperFunction,SMDPad,CuDef*%
%ADD10RoundRect,0.050000X-0.387500X-0.050000X0.387500X-0.050000X0.387500X0.050000X-0.387500X0.050000X0*%
%TD*%
%TA.AperFunction,SMDPad,CuDef*%
%ADD11RoundRect,0.050000X-0.050000X-0.387500X0.050000X-0.387500X0.050000X0.387500X-0.050000X0.387500X0*%
%TD*%
%TA.AperFunction,HeatsinkPad*%
%ADD12R,3.200000X3.200000*%
%TD*%
%TA.AperFunction,ComponentPad*%
%ADD13R,1.700000X1.700000*%
%TD*%
%TA.AperFunction,ComponentPad*%
%ADD14O,1.700000X1.700000*%
%TD*%
%TA.AperFunction,SMDPad,CuDef*%
%ADD15RoundRect,0.140000X-0.170000X0.140000X-0.170000X-0.140000X0.170000X-0.140000X0.170000X0.140000X0*%
%TD*%
%TA.AperFunction,SMDPad,CuDef*%
%ADD16RoundRect,0.140000X0.140000X0.170000X-0.140000X0.170000X-0.140000X-0.170000X0.140000X-0.170000X0*%
%TD*%
%TA.AperFunction,SMDPad,CuDef*%
%ADD17RoundRect,0.140000X0.170000X-0.140000X0.170000X0.140000X-0.170000X0.140000X-0.170000X-0.140000X0*%
%TD*%
%TA.AperFunction,SMDPad,CuDef*%
%ADD18R,1.400000X1.200000*%
%TD*%
%TA.AperFunction,SMDPad,CuDef*%
%ADD19RoundRect,0.100000X0.100000X-0.130000X0.100000X0.130000X-0.100000X0.130000X-0.100000X-0.130000X0*%
%TD*%
%TA.AperFunction,SMDPad,CuDef*%
%ADD20RoundRect,0.250000X-0.450000X0.262500X-0.450000X-0.262500X0.450000X-0.262500X0.450000X0.262500X0*%
%TD*%
%TA.AperFunction,SMDPad,CuDef*%
%ADD21RoundRect,0.225000X-0.225000X-0.250000X0.225000X-0.250000X0.225000X0.250000X-0.225000X0.250000X0*%
%TD*%
%TA.AperFunction,SMDPad,CuDef*%
%ADD22RoundRect,0.200000X-0.275000X0.200000X-0.275000X-0.200000X0.275000X-0.200000X0.275000X0.200000X0*%
%TD*%
%TA.AperFunction,SMDPad,CuDef*%
%ADD23FreePoly0,90.000000*%
%TD*%
%TA.AperFunction,SMDPad,CuDef*%
%ADD24FreePoly1,90.000000*%
%TD*%
%TA.AperFunction,SMDPad,CuDef*%
%ADD25FreePoly2,90.000000*%
%TD*%
%TA.AperFunction,SMDPad,CuDef*%
%ADD26FreePoly3,90.000000*%
%TD*%
%TA.AperFunction,SMDPad,CuDef*%
%ADD27RoundRect,0.145000X0.205061X0.000000X0.000000X0.205061X-0.205061X0.000000X0.000000X-0.205061X0*%
%TD*%
%TA.AperFunction,SMDPad,CuDef*%
%ADD28RoundRect,0.150000X-0.650000X-0.150000X0.650000X-0.150000X0.650000X0.150000X-0.650000X0.150000X0*%
%TD*%
%TA.AperFunction,SMDPad,CuDef*%
%ADD29R,0.600000X1.240000*%
%TD*%
%TA.AperFunction,SMDPad,CuDef*%
%ADD30R,0.300000X1.240000*%
%TD*%
%TA.AperFunction,ComponentPad*%
%ADD31O,1.000000X2.100000*%
%TD*%
%TA.AperFunction,ComponentPad*%
%ADD32O,1.000000X1.800000*%
%TD*%
%TA.AperFunction,SMDPad,CuDef*%
%ADD33RoundRect,0.200000X-0.200000X-0.275000X0.200000X-0.275000X0.200000X0.275000X-0.200000X0.275000X0*%
%TD*%
%TA.AperFunction,ViaPad*%
%ADD34C,0.600000*%
%TD*%
%TA.AperFunction,Conductor*%
%ADD35C,0.300000*%
%TD*%
%TA.AperFunction,Conductor*%
%ADD36C,0.200000*%
%TD*%
G04 APERTURE END LIST*
D10*
%TO.P,U1,1,IOVDD*%
%TO.N,3.3V*%
X137160000Y-81960000D03*
%TO.P,U1,2,GPIO0*%
%TO.N,GPIO0*%
X137160000Y-82360000D03*
%TO.P,U1,3,GPIO1*%
%TO.N,GPIO1*%
X137160000Y-82760000D03*
%TO.P,U1,4,GPIO2*%
%TO.N,GPIO2*%
X137160000Y-83160000D03*
%TO.P,U1,5,GPIO3*%
%TO.N,GPIO3*%
X137160000Y-83560000D03*
%TO.P,U1,6,GPIO4*%
%TO.N,GPIO4*%
X137160000Y-83960000D03*
%TO.P,U1,7,GPIO5*%
%TO.N,GPIO5*%
X137160000Y-84360000D03*
%TO.P,U1,8,GPIO6*%
%TO.N,GPIO6*%
X137160000Y-84760000D03*
%TO.P,U1,9,GPIO7*%
%TO.N,GPIO7*%
X137160000Y-85160000D03*
%TO.P,U1,10,IOVDD*%
%TO.N,3.3V*%
X137160000Y-85560000D03*
%TO.P,U1,11,GPIO8*%
%TO.N,GPIO8*%
X137160000Y-85960000D03*
%TO.P,U1,12,GPIO9*%
%TO.N,GPIO9*%
X137160000Y-86360000D03*
%TO.P,U1,13,GPIO10*%
%TO.N,GPIO10*%
X137160000Y-86760000D03*
%TO.P,U1,14,GPIO11*%
%TO.N,GPIO11*%
X137160000Y-87160000D03*
D11*
%TO.P,U1,15,GPIO12*%
%TO.N,GPIO12*%
X137997500Y-87997500D03*
%TO.P,U1,16,GPIO13*%
%TO.N,GPIO13*%
X138397500Y-87997500D03*
%TO.P,U1,17,GPIO14*%
%TO.N,GPIO14*%
X138797500Y-87997500D03*
%TO.P,U1,18,GPIO15*%
%TO.N,GPIO15*%
X139197500Y-87997500D03*
%TO.P,U1,19,TESTEN*%
%TO.N,GND*%
X139597500Y-87997500D03*
%TO.P,U1,20,XIN*%
%TO.N,Net-(U1-XIN)*%
X139997500Y-87997500D03*
%TO.P,U1,21,XOUT*%
%TO.N,Net-(U1-XOUT)*%
X140397500Y-87997500D03*
%TO.P,U1,22,IOVDD*%
%TO.N,3.3V*%
X140797500Y-87997500D03*
%TO.P,U1,23,DVDD*%
%TO.N,Net-(U1-VREG_VOUT)*%
X141197500Y-87997500D03*
%TO.P,U1,24,SWCLK*%
%TO.N,SWCLK*%
X141597500Y-87997500D03*
%TO.P,U1,25,SWD*%
%TO.N,SWDIO*%
X141997500Y-87997500D03*
%TO.P,U1,26,RUN*%
%TO.N,3.3V*%
X142397500Y-87997500D03*
%TO.P,U1,27,GPIO16*%
%TO.N,GPIO16*%
X142797500Y-87997500D03*
%TO.P,U1,28,GPIO17*%
%TO.N,GPIO17*%
X143197500Y-87997500D03*
D10*
%TO.P,U1,29,GPIO18*%
%TO.N,GPIO18*%
X144035000Y-87160000D03*
%TO.P,U1,30,GPIO19*%
%TO.N,GPIO19*%
X144035000Y-86760000D03*
%TO.P,U1,31,GPIO20*%
%TO.N,GPIO20*%
X144035000Y-86360000D03*
%TO.P,U1,32,GPIO21*%
%TO.N,GPIO21*%
X144035000Y-85960000D03*
%TO.P,U1,33,IOVDD*%
%TO.N,3.3V*%
X144035000Y-85560000D03*
%TO.P,U1,34,GPIO22*%
%TO.N,GPIO22*%
X144035000Y-85160000D03*
%TO.P,U1,35,GPIO23*%
%TO.N,GPIO23*%
X144035000Y-84760000D03*
%TO.P,U1,36,GPIO24*%
%TO.N,GPIO24*%
X144035000Y-84360000D03*
%TO.P,U1,37,GPIO25*%
%TO.N,GPIO25*%
X144035000Y-83960000D03*
%TO.P,U1,38,GPIO26_ADC0*%
%TO.N,GPIO26*%
X144035000Y-83560000D03*
%TO.P,U1,39,GPIO27_ADC1*%
%TO.N,GPIO27*%
X144035000Y-83160000D03*
%TO.P,U1,40,GPIO28_ADC2*%
%TO.N,GPIO28*%
X144035000Y-82760000D03*
%TO.P,U1,41,GPIO29_ADC3*%
%TO.N,GPIO29*%
X144035000Y-82360000D03*
%TO.P,U1,42,IOVDD*%
%TO.N,3.3V*%
X144035000Y-81960000D03*
D11*
%TO.P,U1,43,ADC_AVDD*%
X143197500Y-81122500D03*
%TO.P,U1,44,VREG_IN*%
X142797500Y-81122500D03*
%TO.P,U1,45,VREG_VOUT*%
%TO.N,Net-(U1-VREG_VOUT)*%
X142397500Y-81122500D03*
%TO.P,U1,46,USB_DM*%
%TO.N,Net-(U1-USB_D-*%
X141997500Y-81122500D03*
%TO.P,U1,47,USB_DP*%
%TO.N,Net-(U1-USB_D+*%
X141597500Y-81122500D03*
%TO.P,U1,48,USB_VDD*%
%TO.N,3.3V*%
X141197500Y-81122500D03*
%TO.P,U1,49,IOVDD*%
X140797500Y-81122500D03*
%TO.P,U1,50,DVDD*%
%TO.N,Net-(U1-VREG_VOUT)*%
X140397500Y-81122500D03*
%TO.P,U1,51,QSPI_SD3*%
%TO.N,Net-(U1-QSPI_SD3)*%
X139997500Y-81122500D03*
%TO.P,U1,52,QSPI_SCLK*%
%TO.N,Net-(U1-QSPI_SCLK)*%
X139597500Y-81122500D03*
%TO.P,U1,53,QSPI_SD0*%
%TO.N,Net-(U1-QSPI_SD0)*%
X139197500Y-81122500D03*
%TO.P,U1,54,QSPI_SD2*%
%TO.N,Net-(U1-QSPI_SD2)*%
X138797500Y-81122500D03*
%TO.P,U1,55,QSPI_SD1*%
%TO.N,Net-(U1-QSPI_SD1)*%
X138397500Y-81122500D03*
%TO.P,U1,56,QSPI_SS*%
%TO.N,Net-(U1-QSPI_SS)*%
X137997500Y-81122500D03*
D12*
%TO.P,U1,57,GND*%
%TO.N,GND*%
X140597500Y-84560000D03*
%TD*%
D13*
%TO.P,J5,1*%
%TO.N,SWDIO*%
X146558000Y-94996000D03*
D14*
%TO.P,J5,2*%
%TO.N,SWCLK*%
X144018000Y-94996000D03*
%TD*%
D15*
%TO.P,C5,1*%
%TO.N,3.3V*%
X140970000Y-90960000D03*
%TO.P,C5,2*%
%TO.N,GND*%
X140970000Y-91920000D03*
%TD*%
D13*
%TO.P,J4,1*%
%TO.N,Load*%
X130556000Y-49276000D03*
D14*
%TO.P,J4,2*%
%TO.N,GND*%
X130556000Y-46736000D03*
%TD*%
D13*
%TO.P,J2,1,Pin_1*%
%TO.N,GND*%
X124460000Y-48260000D03*
D14*
%TO.P,J2,2,Pin_2*%
%TO.N,GPIO0*%
X124460000Y-50800000D03*
%TO.P,J2,3,Pin_3*%
%TO.N,GPIO1*%
X124460000Y-53340000D03*
%TO.P,J2,4,Pin_4*%
%TO.N,GPIO2*%
X124460000Y-55880000D03*
%TO.P,J2,5,Pin_5*%
%TO.N,GPIO3*%
X124460000Y-58420000D03*
%TO.P,J2,6,Pin_6*%
%TO.N,GND*%
X124460000Y-60960000D03*
%TO.P,J2,7,Pin_7*%
%TO.N,GPIO4*%
X124460000Y-63500000D03*
%TO.P,J2,8,Pin_8*%
%TO.N,GPIO5*%
X124460000Y-66040000D03*
%TO.P,J2,9,Pin_9*%
%TO.N,GPIO6*%
X124460000Y-68580000D03*
%TO.P,J2,10,Pin_10*%
%TO.N,GPIO7*%
X124460000Y-71120000D03*
%TO.P,J2,11,Pin_11*%
%TO.N,GND*%
X124460000Y-73660000D03*
%TO.P,J2,12,Pin_12*%
%TO.N,GPIO8*%
X124460000Y-76200000D03*
%TO.P,J2,13,Pin_13*%
%TO.N,GPIO9*%
X124460000Y-78740000D03*
%TO.P,J2,14,Pin_14*%
%TO.N,GPIO10*%
X124460000Y-81280000D03*
%TO.P,J2,15,Pin_15*%
%TO.N,GPIO11*%
X124460000Y-83820000D03*
%TO.P,J2,16,Pin_16*%
%TO.N,GND*%
X124460000Y-86360000D03*
%TO.P,J2,17,Pin_17*%
%TO.N,GPIO12*%
X124460000Y-88900000D03*
%TO.P,J2,18,Pin_18*%
%TO.N,GPIO13*%
X124460000Y-91440000D03*
%TO.P,J2,19,Pin_19*%
%TO.N,GPIO14*%
X124460000Y-93980000D03*
%TO.P,J2,20,Pin_20*%
%TO.N,GPIO15*%
X124460000Y-96520000D03*
%TD*%
D16*
%TO.P,C6,1*%
%TO.N,3.3V*%
X133982400Y-85267800D03*
%TO.P,C6,2*%
%TO.N,GND*%
X133022400Y-85267800D03*
%TD*%
D17*
%TO.P,C12,1*%
%TO.N,GND*%
X141986000Y-91920000D03*
%TO.P,C12,2*%
%TO.N,Net-(U1-VREG_VOUT)*%
X141986000Y-90960000D03*
%TD*%
D13*
%TO.P,J1,1,Pin_1*%
%TO.N,GND*%
X154940000Y-48133000D03*
D14*
%TO.P,J1,2,Pin_2*%
%TO.N,GPIO29*%
X154940000Y-50673000D03*
%TO.P,J1,3,Pin_3*%
%TO.N,GPIO28*%
X154940000Y-53213000D03*
%TO.P,J1,4,Pin_4*%
%TO.N,GPIO27*%
X154940000Y-55753000D03*
%TO.P,J1,5,Pin_5*%
%TO.N,GPIO26*%
X154940000Y-58293000D03*
%TO.P,J1,6,Pin_6*%
%TO.N,GND*%
X154940000Y-60833000D03*
%TO.P,J1,7,Pin_7*%
%TO.N,GPIO25*%
X154940000Y-63373000D03*
%TO.P,J1,8,Pin_8*%
%TO.N,GPIO24*%
X154940000Y-65913000D03*
%TO.P,J1,9,Pin_9*%
%TO.N,GPIO23*%
X154940000Y-68453000D03*
%TO.P,J1,10,Pin_10*%
%TO.N,GPIO22*%
X154940000Y-70993000D03*
%TO.P,J1,11,Pin_11*%
%TO.N,GND*%
X154940000Y-73533000D03*
%TO.P,J1,12,Pin_12*%
%TO.N,GPIO21*%
X154940000Y-76073000D03*
%TO.P,J1,13,Pin_13*%
%TO.N,GPIO20*%
X154940000Y-78613000D03*
%TO.P,J1,14,Pin_14*%
%TO.N,GPIO19*%
X154940000Y-81153000D03*
%TO.P,J1,15,Pin_15*%
%TO.N,GPIO18*%
X154940000Y-83693000D03*
%TO.P,J1,16,Pin_16*%
%TO.N,GND*%
X154940000Y-86233000D03*
%TO.P,J1,17,Pin_17*%
%TO.N,GPIO17*%
X154940000Y-88773000D03*
%TO.P,J1,18,Pin_18*%
%TO.N,GPIO16*%
X154940000Y-91313000D03*
%TO.P,J1,19,Pin_19*%
%TO.N,GND*%
X154940000Y-93853000D03*
%TO.P,J1,20,Pin_20*%
X154940000Y-96393000D03*
%TD*%
D15*
%TO.P,C3,1*%
%TO.N,GND*%
X138836400Y-77269400D03*
%TO.P,C3,2*%
%TO.N,Net-(U1-VREG_VOUT)*%
X138836400Y-78229400D03*
%TD*%
D18*
%TO.P,Y1,1,1*%
%TO.N,Net-(U1-XOUT)*%
X140038000Y-93638000D03*
%TO.P,Y1,2,2*%
%TO.N,GND*%
X137838000Y-93638000D03*
%TO.P,Y1,3,3*%
%TO.N,Net-(U1-XIN)*%
X137838000Y-95338000D03*
%TO.P,Y1,4,4*%
%TO.N,GND*%
X140038000Y-95338000D03*
%TD*%
D15*
%TO.P,C8,1*%
%TO.N,GND*%
X139446000Y-58194000D03*
%TO.P,C8,2*%
%TO.N,3.3V*%
X139446000Y-59154000D03*
%TD*%
D19*
%TO.P,R5,1*%
%TO.N,Net-(U1-QSPI_SS)*%
X130810000Y-60264000D03*
%TO.P,R5,2*%
%TO.N,Load*%
X130810000Y-59624000D03*
%TD*%
D20*
%TO.P,R1,1*%
%TO.N,Net-(J3-D+*%
X140716000Y-76303500D03*
%TO.P,R1,2*%
%TO.N,Net-(U1-USB_D+*%
X140716000Y-78128500D03*
%TD*%
D16*
%TO.P,C11,1*%
%TO.N,GND*%
X145768000Y-79756000D03*
%TO.P,C11,2*%
%TO.N,3.3V*%
X144808000Y-79756000D03*
%TD*%
D21*
%TO.P,C2,1*%
%TO.N,GND*%
X131800000Y-57150000D03*
%TO.P,C2,2*%
%TO.N,3.3V*%
X133350000Y-57150000D03*
%TD*%
D22*
%TO.P,R3,1*%
%TO.N,Net-(J3-CC2)*%
X137922000Y-52261000D03*
%TO.P,R3,2*%
%TO.N,GND*%
X137922000Y-53911000D03*
%TD*%
D21*
%TO.P,C1,1*%
%TO.N,GND*%
X131813000Y-55626000D03*
%TO.P,C1,2*%
%TO.N,Net-(U3-EN)*%
X133363000Y-55626000D03*
%TD*%
D16*
%TO.P,C7,1*%
%TO.N,GND*%
X145336200Y-89916000D03*
%TO.P,C7,2*%
%TO.N,3.3V*%
X144376200Y-89916000D03*
%TD*%
D23*
%TO.P,U3,1,VOUT*%
%TO.N,3.3V*%
X134620000Y-56740000D03*
D24*
%TO.P,U3,2,GND*%
%TO.N,GND*%
X135270000Y-56740000D03*
D25*
%TO.P,U3,3,EN*%
%TO.N,Net-(U3-EN)*%
X135270000Y-55880000D03*
D26*
%TO.P,U3,4,VIN*%
X134620000Y-55880000D03*
D27*
%TO.P,U3,5,THERM*%
%TO.N,GND*%
X134945000Y-56310000D03*
%TD*%
D28*
%TO.P,U2,1,~{CS}*%
%TO.N,Net-(U1-QSPI_SS)*%
X132036000Y-62611000D03*
%TO.P,U2,2,DO(IO1)*%
%TO.N,Net-(U1-QSPI_SD1)*%
X132036000Y-63881000D03*
%TO.P,U2,3,IO2*%
%TO.N,Net-(U1-QSPI_SD2)*%
X132036000Y-65151000D03*
%TO.P,U2,4,GND*%
%TO.N,GND*%
X132036000Y-66421000D03*
%TO.P,U2,5,DI(IO0)*%
%TO.N,Net-(U1-QSPI_SD0)*%
X139236000Y-66421000D03*
%TO.P,U2,6,CLK*%
%TO.N,Net-(U1-QSPI_SCLK)*%
X139236000Y-65151000D03*
%TO.P,U2,7,IO3*%
%TO.N,Net-(U1-QSPI_SD3)*%
X139236000Y-63881000D03*
%TO.P,U2,8,VCC*%
%TO.N,3.3V*%
X139236000Y-62611000D03*
%TD*%
D29*
%TO.P,J1,A1,GND*%
%TO.N,GND*%
X142900000Y-49445000D03*
%TO.P,J1,A4,VBUS*%
%TO.N,Net-(U3-EN)*%
X142100000Y-49445000D03*
D30*
%TO.P,J1,A5,CC1*%
%TO.N,Net-(J3-CC1)*%
X140950000Y-49445000D03*
%TO.P,J1,A6,D+*%
%TO.N,Net-(J3-D+*%
X139950000Y-49445000D03*
%TO.P,J1,A7,D-*%
%TO.N,Net-(J3-D-*%
X139450000Y-49445000D03*
%TO.P,J1,A8,SBU1*%
%TO.N,unconnected-(J3-SBU1-PadA8)*%
X138450000Y-49445000D03*
D29*
%TO.P,J1,A9,VBUS*%
%TO.N,Net-(U3-EN)*%
X137300000Y-49445000D03*
%TO.P,J1,A12,GND*%
%TO.N,GND*%
X136500000Y-49445000D03*
%TO.P,J1,B1,GND*%
X136500000Y-49445000D03*
%TO.P,J1,B4,VBUS*%
%TO.N,Net-(U3-EN)*%
X137300000Y-49445000D03*
D30*
%TO.P,J1,B5,CC2*%
%TO.N,Net-(J3-CC2)*%
X137950000Y-49445000D03*
%TO.P,J1,B6,D+*%
%TO.N,Net-(J3-D+*%
X138950000Y-49445000D03*
%TO.P,J1,B7,D-*%
%TO.N,Net-(J3-D-*%
X140450000Y-49445000D03*
%TO.P,J1,B8,SBU2*%
%TO.N,unconnected-(J3-SBU2-PadB8)*%
X141450000Y-49445000D03*
D29*
%TO.P,J1,B9,VBUS*%
%TO.N,Net-(U3-EN)*%
X142100000Y-49445000D03*
%TO.P,J1,B12,GND*%
%TO.N,GND*%
X142900000Y-49445000D03*
D31*
%TO.P,J1,S1,SHIELD*%
X144020000Y-48845000D03*
D32*
X144020000Y-44645000D03*
D31*
X135380000Y-48845000D03*
D32*
X135380000Y-44645000D03*
%TD*%
D16*
%TO.P,C4,1*%
%TO.N,GND*%
X149070000Y-85267800D03*
%TO.P,C4,2*%
%TO.N,3.3V*%
X148110000Y-85267800D03*
%TD*%
%TO.P,C3,1*%
%TO.N,GND*%
X145717200Y-78282800D03*
%TO.P,C3,2*%
%TO.N,Net-(U1-VREG_VOUT)*%
X144757200Y-78282800D03*
%TD*%
D20*
%TO.P,R2,1*%
%TO.N,Net-(J3-D-*%
X143002000Y-76303500D03*
%TO.P,R2,2*%
%TO.N,Net-(U1-USB_D-*%
X143002000Y-78128500D03*
%TD*%
D33*
%TO.P,R4,1*%
%TO.N,Net-(J3-CC1)*%
X141923000Y-52070000D03*
%TO.P,R4,2*%
%TO.N,GND*%
X143573000Y-52070000D03*
%TD*%
D34*
%TO.N,GND*%
X128778000Y-95250000D03*
X123952000Y-44450000D03*
X128778000Y-92456000D03*
X131826000Y-76454000D03*
X140597500Y-84560000D03*
X138430000Y-45974000D03*
X150368000Y-85090000D03*
X151892000Y-88138000D03*
X128778000Y-88138000D03*
X133858000Y-70104000D03*
X154686000Y-44450000D03*
X128778000Y-90170000D03*
X127762000Y-49276000D03*
X149860000Y-90170000D03*
X127000000Y-63246000D03*
X150114000Y-95758000D03*
X128524000Y-80518000D03*
%TO.N,Net-(U1-VREG_VOUT)*%
X142392400Y-82042000D03*
X140379436Y-82039894D03*
X141198600Y-86944200D03*
%TD*%
D35*
%TO.N,3.3V*%
X140797500Y-87997500D02*
X140797500Y-90787500D01*
X140797500Y-90787500D02*
X140970000Y-90960000D01*
%TO.N,SWDIO*%
X141997500Y-87997500D02*
X141997500Y-89540390D01*
X141997500Y-89540390D02*
X146558000Y-94100890D01*
X146558000Y-94100890D02*
X146558000Y-94996000D01*
%TO.N,SWCLK*%
X141597500Y-87997500D02*
X141597500Y-89706076D01*
X141597500Y-89706076D02*
X144018000Y-92126576D01*
X144018000Y-92126576D02*
X144018000Y-94996000D01*
D36*
%TO.N,Net-(U1-VREG_VOUT)*%
X141986000Y-90960000D02*
X141197500Y-90171500D01*
X141197500Y-90171500D02*
X141197500Y-87997500D01*
D35*
%TO.N,GPIO25*%
X144035000Y-83960000D02*
X146498942Y-83960000D01*
X146498942Y-83960000D02*
X147203942Y-83255000D01*
X150984000Y-67710000D02*
X154940000Y-63754000D01*
X150984000Y-83255000D02*
X150984000Y-67710000D01*
X147203942Y-83255000D02*
X150984000Y-83255000D01*
X154940000Y-63754000D02*
X154940000Y-63373000D01*
%TO.N,GPIO19*%
X144035000Y-86760000D02*
X151307314Y-86760000D01*
X151307314Y-86760000D02*
X153416000Y-84651314D01*
X153416000Y-82677000D02*
X154940000Y-81153000D01*
X153416000Y-84651314D02*
X153416000Y-82677000D01*
%TO.N,GPIO27*%
X146872570Y-82455000D02*
X150181256Y-82455000D01*
X146167570Y-83160000D02*
X146872570Y-82455000D01*
X144035000Y-83160000D02*
X146167570Y-83160000D01*
X150184000Y-60509000D02*
X154940000Y-55753000D01*
X150184000Y-82452256D02*
X150184000Y-60509000D01*
X150181256Y-82455000D02*
X150184000Y-82452256D01*
%TO.N,GPIO26*%
X147038256Y-82855000D02*
X150346942Y-82855000D01*
X150346942Y-82855000D02*
X150584000Y-82617942D01*
X150584000Y-82617942D02*
X150584000Y-62649000D01*
X150584000Y-62649000D02*
X154940000Y-58293000D01*
X146333256Y-83560000D02*
X147038256Y-82855000D01*
X144035000Y-83560000D02*
X146333256Y-83560000D01*
%TO.N,GPIO16*%
X142797500Y-88460650D02*
X142797500Y-87997500D01*
X151606200Y-89173000D02*
X143509850Y-89173000D01*
X154940000Y-91313000D02*
X153746200Y-91313000D01*
X153746200Y-91313000D02*
X151606200Y-89173000D01*
X143509850Y-89173000D02*
X142797500Y-88460650D01*
%TO.N,GPIO24*%
X144035000Y-84360000D02*
X146664628Y-84360000D01*
X146664628Y-84360000D02*
X147369628Y-83655000D01*
X151384000Y-69469000D02*
X154940000Y-65913000D01*
X151384000Y-83655000D02*
X151384000Y-69469000D01*
X147369628Y-83655000D02*
X151384000Y-83655000D01*
%TO.N,GPIO23*%
X151737942Y-84055000D02*
X151816000Y-83976942D01*
X146830314Y-84760000D02*
X147535314Y-84055000D01*
X151816000Y-71577000D02*
X154940000Y-68453000D01*
X144035000Y-84760000D02*
X146830314Y-84760000D01*
X151816000Y-83976942D02*
X151816000Y-71577000D01*
X147535314Y-84055000D02*
X151737942Y-84055000D01*
%TO.N,GPIO21*%
X152616000Y-84308314D02*
X152616000Y-78397000D01*
X152616000Y-78397000D02*
X154940000Y-76073000D01*
X144035000Y-85960000D02*
X150964314Y-85960000D01*
X150964314Y-85960000D02*
X152616000Y-84308314D01*
D36*
%TO.N,Net-(U1-QSPI_SCLK)*%
X134920000Y-73697736D02*
X134920000Y-75651472D01*
X140716000Y-67901736D02*
X134920000Y-73697736D01*
X134920000Y-75651472D02*
X139597500Y-80328972D01*
X140035999Y-65151000D02*
X140716000Y-65831001D01*
X139236000Y-65151000D02*
X140035999Y-65151000D01*
X139597500Y-80328972D02*
X139597500Y-81122500D01*
X140716000Y-65831001D02*
X140716000Y-67901736D01*
D35*
%TO.N,GPIO20*%
X144035000Y-86360000D02*
X151130000Y-86360000D01*
X153016000Y-80537000D02*
X154940000Y-78613000D01*
X153016000Y-84474000D02*
X153016000Y-80537000D01*
X151130000Y-86360000D02*
X153016000Y-84474000D01*
%TO.N,GPIO22*%
X151903628Y-84455000D02*
X147701000Y-84455000D01*
X152216000Y-73717000D02*
X152216000Y-84142628D01*
X146996000Y-85160000D02*
X144035000Y-85160000D01*
X152216000Y-84142628D02*
X151903628Y-84455000D01*
X154940000Y-70993000D02*
X152216000Y-73717000D01*
X147701000Y-84455000D02*
X146996000Y-85160000D01*
%TO.N,GPIO28*%
X149784000Y-82055000D02*
X149784000Y-58369000D01*
X146001884Y-82760000D02*
X146706884Y-82055000D01*
X149784000Y-58369000D02*
X154940000Y-53213000D01*
X144035000Y-82760000D02*
X146001884Y-82760000D01*
X146706884Y-82055000D02*
X149784000Y-82055000D01*
D36*
%TO.N,Net-(U1-QSPI_SS)*%
X132014000Y-62589000D02*
X132036000Y-62611000D01*
X132036000Y-62611000D02*
X131236001Y-62611000D01*
X130436000Y-72864528D02*
X137997500Y-80426028D01*
X131236001Y-62611000D02*
X130436000Y-63411001D01*
X132014000Y-61214000D02*
X132014000Y-62589000D01*
X137997500Y-80426028D02*
X137997500Y-81122500D01*
X131064000Y-60264000D02*
X130810000Y-60264000D01*
X130436000Y-63411001D02*
X130436000Y-72864528D01*
X132014000Y-61214000D02*
X131064000Y-60264000D01*
D35*
%TO.N,GPIO29*%
X144035000Y-82360000D02*
X145836198Y-82360000D01*
X149384000Y-81655000D02*
X149384000Y-56229000D01*
X149384000Y-56229000D02*
X154940000Y-50673000D01*
X145836198Y-82360000D02*
X146541198Y-81655000D01*
X146541198Y-81655000D02*
X149384000Y-81655000D01*
%TO.N,GPIO18*%
X151473000Y-87160000D02*
X154940000Y-83693000D01*
X144035000Y-87160000D02*
X151473000Y-87160000D01*
%TO.N,GPIO17*%
X143197500Y-87997500D02*
X143197500Y-88294964D01*
X143197500Y-88294964D02*
X143675536Y-88773000D01*
X143675536Y-88773000D02*
X154940000Y-88773000D01*
%TO.N,GPIO5*%
X135275372Y-84360000D02*
X127292000Y-76376628D01*
X137160000Y-84360000D02*
X135275372Y-84360000D01*
X127292000Y-76376628D02*
X127292000Y-68872000D01*
X127292000Y-68872000D02*
X124460000Y-66040000D01*
%TO.N,GPIO9*%
X127038000Y-80048000D02*
X125730000Y-78740000D01*
X125730000Y-78740000D02*
X124460000Y-78740000D01*
X127038000Y-86360000D02*
X127038000Y-80048000D01*
X137160000Y-86360000D02*
X127038000Y-86360000D01*
%TO.N,GPIO0*%
X129292000Y-75548198D02*
X129292000Y-55632000D01*
X136103802Y-82360000D02*
X129292000Y-75548198D01*
X137160000Y-82360000D02*
X136103802Y-82360000D01*
X129292000Y-55632000D02*
X124460000Y-50800000D01*
%TO.N,GPIO2*%
X128492000Y-59912000D02*
X124460000Y-55880000D01*
X135772430Y-83160000D02*
X128492000Y-75879570D01*
X137160000Y-83160000D02*
X135772430Y-83160000D01*
X128492000Y-75879570D02*
X128492000Y-59912000D01*
%TO.N,GPIO14*%
X138797500Y-89040500D02*
X133858000Y-93980000D01*
X138797500Y-87997500D02*
X138797500Y-89040500D01*
X133858000Y-93980000D02*
X124460000Y-93980000D01*
%TO.N,GPIO7*%
X134944000Y-85160000D02*
X126492000Y-76708000D01*
X137160000Y-85160000D02*
X134944000Y-85160000D01*
X126492000Y-76708000D02*
X126492000Y-73152000D01*
X126492000Y-73152000D02*
X124460000Y-71120000D01*
%TO.N,GPIO15*%
X132334000Y-96520000D02*
X124460000Y-96520000D01*
X139197500Y-87997500D02*
X139197500Y-89656500D01*
X139197500Y-89656500D02*
X132334000Y-96520000D01*
%TO.N,GPIO11*%
X126238000Y-84328000D02*
X125730000Y-83820000D01*
X126238000Y-86868000D02*
X126238000Y-84328000D01*
X137160000Y-87160000D02*
X126530000Y-87160000D01*
X126530000Y-87160000D02*
X126238000Y-86868000D01*
X125730000Y-83820000D02*
X124460000Y-83820000D01*
%TO.N,GPIO1*%
X128892000Y-75713884D02*
X128892000Y-57772000D01*
X135938116Y-82760000D02*
X128892000Y-75713884D01*
X137160000Y-82760000D02*
X135938116Y-82760000D01*
X128892000Y-57772000D02*
X124460000Y-53340000D01*
%TO.N,GPIO10*%
X125730000Y-81280000D02*
X124460000Y-81280000D01*
X126638000Y-82188000D02*
X125730000Y-81280000D01*
X126695686Y-86760000D02*
X126638000Y-86702314D01*
X137160000Y-86760000D02*
X126695686Y-86760000D01*
X126638000Y-86702314D02*
X126638000Y-82188000D01*
%TO.N,GPIO4*%
X137160000Y-83960000D02*
X135441058Y-83960000D01*
X127692000Y-66732000D02*
X124460000Y-63500000D01*
X135441058Y-83960000D02*
X127692000Y-76210942D01*
X127692000Y-76210942D02*
X127692000Y-66732000D01*
%TO.N,GPIO6*%
X135109686Y-84760000D02*
X126892000Y-76542314D01*
X137160000Y-84760000D02*
X135109686Y-84760000D01*
X126892000Y-71012000D02*
X124460000Y-68580000D01*
X126892000Y-76542314D02*
X126892000Y-71012000D01*
%TO.N,GPIO12*%
X137997500Y-87997500D02*
X137095000Y-88900000D01*
X137095000Y-88900000D02*
X124460000Y-88900000D01*
%TO.N,GPIO8*%
X127438000Y-85960000D02*
X127438000Y-79178000D01*
X127438000Y-79178000D02*
X124460000Y-76200000D01*
X137160000Y-85960000D02*
X127438000Y-85960000D01*
D36*
%TO.N,Net-(U1-QSPI_SD0)*%
X134620000Y-75775736D02*
X139197500Y-80353236D01*
X139236000Y-66421000D02*
X139236000Y-68957472D01*
X139197500Y-80353236D02*
X139197500Y-81122500D01*
X134620000Y-73573472D02*
X134620000Y-75775736D01*
X139236000Y-68957472D02*
X134620000Y-73573472D01*
%TO.N,Net-(U1-QSPI_SD1)*%
X130863000Y-63881000D02*
X132036000Y-63881000D01*
X138397500Y-80401764D02*
X130736000Y-72740264D01*
X130736000Y-64008000D02*
X130863000Y-63881000D01*
X130736000Y-72740264D02*
X130736000Y-64008000D01*
X138397500Y-81122500D02*
X138397500Y-80401764D01*
D35*
%TO.N,GPIO3*%
X128092000Y-76045256D02*
X128092000Y-62052000D01*
X135606744Y-83560000D02*
X128092000Y-76045256D01*
X137160000Y-83560000D02*
X135606744Y-83560000D01*
X128092000Y-62052000D02*
X124460000Y-58420000D01*
%TO.N,GPIO13*%
X138397500Y-88460650D02*
X135418150Y-91440000D01*
X138397500Y-87997500D02*
X138397500Y-88460650D01*
X135418150Y-91440000D02*
X124460000Y-91440000D01*
%TO.N,Net-(J3-CC2)*%
X137950000Y-49445000D02*
X137950000Y-52233000D01*
X137950000Y-52233000D02*
X137922000Y-52261000D01*
D36*
%TO.N,Net-(J3-D+*%
X141023000Y-75086500D02*
X141023000Y-72084412D01*
X139061000Y-48514000D02*
X139839000Y-48514000D01*
X141023000Y-72084412D02*
X143718000Y-69389412D01*
X139839000Y-48514000D02*
X139950000Y-48625000D01*
X143718000Y-55335490D02*
X138950000Y-50567490D01*
X138950000Y-48625000D02*
X139061000Y-48514000D01*
X143718000Y-69389412D02*
X143718000Y-55335490D01*
X138950000Y-50567490D02*
X138950000Y-49445000D01*
X139950000Y-48625000D02*
X139950000Y-49445000D01*
X138950000Y-49445000D02*
X138950000Y-48625000D01*
X140716000Y-76303500D02*
X141478000Y-75541500D01*
X141478000Y-75541500D02*
X141023000Y-75086500D01*
%TO.N,Net-(J3-D-*%
X139954000Y-50265000D02*
X139954000Y-50694736D01*
X141323000Y-74428676D02*
X141323000Y-74624500D01*
X140300000Y-50265000D02*
X140450000Y-50115000D01*
X139954000Y-50694736D02*
X141323000Y-52063736D01*
X141323000Y-74624500D02*
X141553250Y-74854750D01*
X141323000Y-74124748D02*
X141323000Y-74428676D01*
X141323000Y-52063736D02*
X141323000Y-52516226D01*
X144018000Y-55211226D02*
X144018000Y-69513676D01*
X139450000Y-49445000D02*
X139450000Y-50115000D01*
X139954000Y-50265000D02*
X140300000Y-50265000D01*
X141553250Y-74854750D02*
X143002000Y-76303500D01*
X141563838Y-71967838D02*
X141323000Y-72208676D01*
X140450000Y-50115000D02*
X140450000Y-49445000D01*
X144018000Y-69513676D02*
X141563838Y-71967838D01*
X142129072Y-73014748D02*
X142129072Y-73318676D01*
X139600000Y-50265000D02*
X139954000Y-50265000D01*
X141323000Y-52516226D02*
X144018000Y-55211226D01*
X139450000Y-50115000D02*
X139600000Y-50265000D01*
X141726036Y-73721712D02*
G75*
G03*
X141323012Y-74124748I-36J-402988D01*
G01*
X142129072Y-73318676D02*
G75*
G02*
X141726036Y-73721772I-403072J-24D01*
G01*
X141726036Y-72611712D02*
G75*
G02*
X142128988Y-73014748I-36J-402988D01*
G01*
X141323000Y-72208676D02*
G75*
G03*
X141726036Y-72611700I403000J-24D01*
G01*
D35*
%TO.N,Net-(J3-CC1)*%
X140950000Y-49445000D02*
X140950000Y-51097000D01*
X140950000Y-51097000D02*
X141923000Y-52070000D01*
%TO.N,3.3V*%
X134274600Y-85560000D02*
X133982400Y-85267800D01*
X142397500Y-88754500D02*
X143559000Y-89916000D01*
X137160000Y-85560000D02*
X134274600Y-85560000D01*
X142397500Y-87997500D02*
X142397500Y-88754500D01*
X147817800Y-85560000D02*
X148110000Y-85267800D01*
X143559000Y-89916000D02*
X144376200Y-89916000D01*
X144035000Y-85560000D02*
X147817800Y-85560000D01*
D36*
%TO.N,Net-(U1-QSPI_SD2)*%
X132036000Y-65151000D02*
X131236001Y-65151000D01*
X131236001Y-65151000D02*
X131036000Y-65351001D01*
X131036000Y-72616000D02*
X138797500Y-80377500D01*
X131036000Y-65351001D02*
X131036000Y-72616000D01*
X138797500Y-80377500D02*
X138797500Y-81122500D01*
%TO.N,Net-(U1-USB_D-*%
X141997500Y-81122500D02*
X141997500Y-79133000D01*
X141997500Y-79133000D02*
X143002000Y-78128500D01*
%TO.N,Net-(U1-XIN)*%
X136687500Y-95031500D02*
X136994000Y-95338000D01*
X139997500Y-87997500D02*
X139997500Y-89778500D01*
X136994000Y-95338000D02*
X137838000Y-95338000D01*
X139997500Y-89778500D02*
X136687500Y-93088500D01*
X136687500Y-93088500D02*
X136687500Y-95031500D01*
%TO.N,Net-(U1-USB_D+*%
X141697500Y-81022500D02*
X141597500Y-81122500D01*
X140716000Y-78128500D02*
X141697500Y-79110000D01*
X141697500Y-79110000D02*
X141697500Y-81022500D01*
%TO.N,Net-(U1-QSPI_SD3)*%
X140035999Y-63881000D02*
X141016000Y-64861001D01*
X141016000Y-64861001D02*
X141016000Y-68026000D01*
X139236000Y-63881000D02*
X140035999Y-63881000D01*
X135220000Y-73822000D02*
X135220000Y-75527208D01*
X135220000Y-75527208D02*
X139997500Y-80304708D01*
X141016000Y-68026000D02*
X135220000Y-73822000D01*
X139997500Y-80304708D02*
X139997500Y-81122500D01*
%TO.N,Net-(U1-VREG_VOUT)*%
X140379436Y-82039894D02*
X140379436Y-81140564D01*
X142397500Y-82036900D02*
X142392400Y-82042000D01*
X141198600Y-86944200D02*
X141198600Y-87996400D01*
X140379436Y-81140564D02*
X140397500Y-81122500D01*
X142397500Y-80685000D02*
X144757200Y-78325300D01*
X140411200Y-80159800D02*
X140411200Y-81108800D01*
X140411200Y-81108800D02*
X140397500Y-81122500D01*
X144757200Y-78325300D02*
X144757200Y-78282800D01*
X138836400Y-78585000D02*
X140411200Y-80159800D01*
X138836400Y-78229400D02*
X138836400Y-78585000D01*
X141198600Y-87996400D02*
X141197500Y-87997500D01*
X142397500Y-81122500D02*
X142397500Y-80685000D01*
X142397500Y-81122500D02*
X142397500Y-82036900D01*
%TO.N,Net-(U1-XOUT)*%
X140397500Y-93278500D02*
X140038000Y-93638000D01*
X140397500Y-87997500D02*
X140397500Y-93278500D01*
D35*
%TO.N,Load*%
X130810000Y-59624000D02*
X130810000Y-49530000D01*
X130810000Y-49530000D02*
X130556000Y-49276000D01*
%TD*%
%TA.AperFunction,Conductor*%
%TO.N,3.3V*%
G36*
X144513888Y-79337087D02*
G01*
X144526775Y-79368200D01*
X144513888Y-79399313D01*
X144507221Y-79404784D01*
X144494972Y-79412968D01*
X144494969Y-79412971D01*
X144441924Y-79492358D01*
X144441923Y-79492359D01*
X144439210Y-79505999D01*
X144439211Y-79506000D01*
X145176788Y-79506000D01*
X145181626Y-79500103D01*
X145173035Y-79490802D01*
X145121030Y-79412971D01*
X145121027Y-79412968D01*
X145108779Y-79404784D01*
X145090070Y-79376783D01*
X145096641Y-79343754D01*
X145124642Y-79325045D01*
X145133225Y-79324200D01*
X145198073Y-79324200D01*
X145229186Y-79337087D01*
X145241771Y-79363058D01*
X145243386Y-79376783D01*
X145253319Y-79461216D01*
X145244436Y-79492627D01*
X145244631Y-79492687D01*
X145260418Y-79521560D01*
X145287395Y-79750859D01*
X145287395Y-79761141D01*
X145260418Y-79990439D01*
X145243983Y-80019833D01*
X145241696Y-80020479D01*
X145252774Y-80037058D01*
X145253319Y-80050783D01*
X145238403Y-80177566D01*
X145231576Y-80196435D01*
X144526000Y-81279999D01*
X144526000Y-81724034D01*
X144513113Y-81755147D01*
X144482000Y-81768034D01*
X144473417Y-81767189D01*
X144437273Y-81760000D01*
X144135001Y-81760000D01*
X144135000Y-81760001D01*
X144135000Y-82016000D01*
X144122113Y-82047113D01*
X144091000Y-82060000D01*
X143504507Y-82060000D01*
X143506203Y-82068526D01*
X143506203Y-82068527D01*
X143539355Y-82118142D01*
X143539357Y-82118144D01*
X143546794Y-82123113D01*
X143565505Y-82151113D01*
X143558937Y-82184142D01*
X143546798Y-82196282D01*
X143538996Y-82201496D01*
X143505733Y-82251278D01*
X143497000Y-82295180D01*
X143497000Y-82424820D01*
X143505733Y-82468722D01*
X143538996Y-82518504D01*
X143543153Y-82521281D01*
X143546347Y-82523416D01*
X143565056Y-82551417D01*
X143558485Y-82584446D01*
X143546347Y-82596584D01*
X143538998Y-82601494D01*
X143538995Y-82601497D01*
X143505733Y-82651278D01*
X143497000Y-82695180D01*
X143497000Y-82824820D01*
X143505733Y-82868722D01*
X143538996Y-82918504D01*
X143542410Y-82920785D01*
X143546347Y-82923416D01*
X143565056Y-82951417D01*
X143558485Y-82984446D01*
X143546347Y-82996584D01*
X143538998Y-83001494D01*
X143538995Y-83001497D01*
X143505733Y-83051278D01*
X143497000Y-83095180D01*
X143497000Y-83224820D01*
X143505733Y-83268722D01*
X143538996Y-83318504D01*
X143543153Y-83321281D01*
X143546347Y-83323416D01*
X143565056Y-83351417D01*
X143558485Y-83384446D01*
X143546347Y-83396584D01*
X143538998Y-83401494D01*
X143538995Y-83401497D01*
X143505733Y-83451278D01*
X143497000Y-83495180D01*
X143497000Y-83624820D01*
X143505733Y-83668722D01*
X143538996Y-83718504D01*
X143543153Y-83721281D01*
X143546347Y-83723416D01*
X143565056Y-83751417D01*
X143558485Y-83784446D01*
X143546347Y-83796584D01*
X143538998Y-83801494D01*
X143538995Y-83801497D01*
X143505733Y-83851278D01*
X143497000Y-83895180D01*
X143497000Y-84024820D01*
X143505733Y-84068722D01*
X143538996Y-84118504D01*
X143543153Y-84121281D01*
X143546347Y-84123416D01*
X143565056Y-84151417D01*
X143558485Y-84184446D01*
X143546347Y-84196584D01*
X143538998Y-84201494D01*
X143538995Y-84201497D01*
X143505733Y-84251278D01*
X143497000Y-84295180D01*
X143497000Y-84424820D01*
X143505733Y-84468722D01*
X143538996Y-84518504D01*
X143543153Y-84521281D01*
X143546347Y-84523416D01*
X143565056Y-84551417D01*
X143558485Y-84584446D01*
X143546347Y-84596584D01*
X143538998Y-84601494D01*
X143538995Y-84601497D01*
X143505733Y-84651278D01*
X143497000Y-84695180D01*
X143497000Y-84824820D01*
X143505733Y-84868722D01*
X143538996Y-84918504D01*
X143543153Y-84921281D01*
X143546347Y-84923416D01*
X143565056Y-84951417D01*
X143558485Y-84984446D01*
X143546347Y-84996584D01*
X143538998Y-85001494D01*
X143538995Y-85001497D01*
X143505733Y-85051278D01*
X143497000Y-85095180D01*
X143497000Y-85224820D01*
X143505733Y-85268722D01*
X143538996Y-85318504D01*
X143546796Y-85323716D01*
X143565505Y-85351715D01*
X143558936Y-85384745D01*
X143546797Y-85396884D01*
X143539358Y-85401854D01*
X143539355Y-85401857D01*
X143506203Y-85451472D01*
X143506203Y-85451473D01*
X143504507Y-85460000D01*
X144091000Y-85460000D01*
X144122113Y-85472887D01*
X144135000Y-85504000D01*
X144135000Y-85616000D01*
X144122113Y-85647113D01*
X144091000Y-85660000D01*
X143504507Y-85660000D01*
X143506203Y-85668526D01*
X143506203Y-85668527D01*
X143539355Y-85718142D01*
X143539357Y-85718144D01*
X143546794Y-85723113D01*
X143565505Y-85751113D01*
X143558937Y-85784142D01*
X143546798Y-85796282D01*
X143545168Y-85797371D01*
X143538997Y-85801495D01*
X143538995Y-85801497D01*
X143505733Y-85851278D01*
X143497000Y-85895180D01*
X143497000Y-85895183D01*
X143496579Y-85897300D01*
X143496433Y-85897271D01*
X143495636Y-85901372D01*
X143034031Y-87488136D01*
X143012966Y-87514410D01*
X142979491Y-87518094D01*
X142959897Y-87503731D01*
X142959068Y-87504561D01*
X142956005Y-87501498D01*
X142956004Y-87501496D01*
X142906222Y-87468233D01*
X142862320Y-87459500D01*
X142732680Y-87459500D01*
X142688783Y-87468232D01*
X142688778Y-87468233D01*
X142638997Y-87501495D01*
X142638995Y-87501497D01*
X142633783Y-87509298D01*
X142605781Y-87528006D01*
X142572752Y-87521435D01*
X142560613Y-87509294D01*
X142555644Y-87501857D01*
X142555639Y-87501852D01*
X142506030Y-87468704D01*
X142497500Y-87467006D01*
X142497500Y-88053500D01*
X142484613Y-88084613D01*
X142453500Y-88097500D01*
X142341500Y-88097500D01*
X142310387Y-88084613D01*
X142297500Y-88053500D01*
X142297500Y-87467007D01*
X142288973Y-87468703D01*
X142288972Y-87468703D01*
X142239357Y-87501855D01*
X142239354Y-87501858D01*
X142234384Y-87509297D01*
X142206383Y-87528006D01*
X142173354Y-87521435D01*
X142161216Y-87509297D01*
X142156004Y-87501496D01*
X142106222Y-87468233D01*
X142062320Y-87459500D01*
X141932680Y-87459500D01*
X141888783Y-87468232D01*
X141888778Y-87468233D01*
X141838997Y-87501495D01*
X141838994Y-87501498D01*
X141834084Y-87508847D01*
X141806083Y-87527556D01*
X141773054Y-87520985D01*
X141760916Y-87508847D01*
X141756005Y-87501498D01*
X141756004Y-87501496D01*
X141706222Y-87468233D01*
X141662320Y-87459500D01*
X141532680Y-87459500D01*
X141503412Y-87465322D01*
X141488776Y-87468233D01*
X141467544Y-87482420D01*
X141434515Y-87488989D01*
X141406515Y-87470279D01*
X141399100Y-87445835D01*
X141399100Y-87318494D01*
X141411987Y-87287381D01*
X141423120Y-87279292D01*
X141436942Y-87272250D01*
X141526650Y-87182542D01*
X141584246Y-87069504D01*
X141595018Y-87001496D01*
X141604092Y-86944202D01*
X141604092Y-86944197D01*
X141584247Y-86818899D01*
X141584246Y-86818898D01*
X141584246Y-86818896D01*
X141526650Y-86705858D01*
X141436942Y-86616150D01*
X141323904Y-86558554D01*
X141323902Y-86558553D01*
X141323901Y-86558553D01*
X141323900Y-86558552D01*
X141198602Y-86538708D01*
X141198598Y-86538708D01*
X141073299Y-86558552D01*
X141073298Y-86558553D01*
X140960259Y-86616149D01*
X140870549Y-86705859D01*
X140812953Y-86818898D01*
X140812952Y-86818899D01*
X140793108Y-86944197D01*
X140793108Y-86944202D01*
X140812952Y-87069500D01*
X140812953Y-87069501D01*
X140812953Y-87069502D01*
X140812954Y-87069504D01*
X140870550Y-87182542D01*
X140960258Y-87272250D01*
X140974076Y-87279290D01*
X140995946Y-87304896D01*
X140998100Y-87318494D01*
X140998100Y-87447905D01*
X140985213Y-87479018D01*
X140954100Y-87491905D01*
X140929655Y-87484490D01*
X140906028Y-87468703D01*
X140897500Y-87467006D01*
X140897500Y-88053500D01*
X140884613Y-88084613D01*
X140853500Y-88097500D01*
X140741500Y-88097500D01*
X140710387Y-88084613D01*
X140697500Y-88053500D01*
X140697500Y-87467007D01*
X140688973Y-87468703D01*
X140688972Y-87468703D01*
X140639357Y-87501855D01*
X140639354Y-87501858D01*
X140634384Y-87509297D01*
X140606383Y-87528006D01*
X140573354Y-87521435D01*
X140561216Y-87509297D01*
X140556004Y-87501496D01*
X140506222Y-87468233D01*
X140506221Y-87468232D01*
X140506220Y-87468232D01*
X140499318Y-87466859D01*
X140471318Y-87448148D01*
X140463938Y-87425429D01*
X140462000Y-87376000D01*
X137922000Y-87376000D01*
X137699904Y-87376000D01*
X137668791Y-87363113D01*
X137655904Y-87332000D01*
X137663318Y-87307557D01*
X137689267Y-87268722D01*
X137698000Y-87224820D01*
X137698000Y-87095180D01*
X137689267Y-87051278D01*
X137656004Y-87001496D01*
X137648652Y-86996583D01*
X137629944Y-86968585D01*
X137636513Y-86935555D01*
X137648650Y-86923417D01*
X137656004Y-86918504D01*
X137689267Y-86868722D01*
X137698000Y-86824820D01*
X137698000Y-86695180D01*
X137689267Y-86651278D01*
X137656004Y-86601496D01*
X137648652Y-86596583D01*
X137629944Y-86568585D01*
X137636513Y-86535555D01*
X137648650Y-86523417D01*
X137656004Y-86518504D01*
X137689267Y-86468722D01*
X137698000Y-86424820D01*
X137698000Y-86295180D01*
X137689267Y-86251278D01*
X137656004Y-86201496D01*
X137648652Y-86196583D01*
X137629944Y-86168585D01*
X137636513Y-86135555D01*
X137648650Y-86123417D01*
X137656004Y-86118504D01*
X137689267Y-86068722D01*
X137698000Y-86024820D01*
X137698000Y-85895180D01*
X137689267Y-85851278D01*
X137656004Y-85801496D01*
X137648202Y-85796283D01*
X137629493Y-85768283D01*
X137636063Y-85735254D01*
X137648206Y-85723112D01*
X137655643Y-85718143D01*
X137655644Y-85718142D01*
X137688796Y-85668527D01*
X137688796Y-85668526D01*
X137690493Y-85660000D01*
X136629507Y-85660000D01*
X136627888Y-85661971D01*
X136622323Y-85689946D01*
X136594322Y-85708655D01*
X136585739Y-85709500D01*
X136442000Y-85709500D01*
X136410887Y-85696613D01*
X136398000Y-85665500D01*
X136398000Y-85454500D01*
X136410887Y-85423387D01*
X136442000Y-85410500D01*
X136585739Y-85410500D01*
X136616852Y-85423387D01*
X136629739Y-85454500D01*
X136629230Y-85459663D01*
X136629507Y-85460000D01*
X137690492Y-85460000D01*
X137688796Y-85451473D01*
X137688796Y-85451472D01*
X137655644Y-85401857D01*
X137655640Y-85401853D01*
X137648204Y-85396885D01*
X137629494Y-85368885D01*
X137636063Y-85335856D01*
X137648201Y-85323717D01*
X137656004Y-85318504D01*
X137689267Y-85268722D01*
X137698000Y-85224820D01*
X137698000Y-85095180D01*
X137689267Y-85051278D01*
X137656004Y-85001496D01*
X137648652Y-84996583D01*
X137629944Y-84968585D01*
X137636513Y-84935555D01*
X137648650Y-84923417D01*
X137656004Y-84918504D01*
X137689267Y-84868722D01*
X137698000Y-84824820D01*
X137698000Y-84695180D01*
X137689267Y-84651278D01*
X137656004Y-84601496D01*
X137648652Y-84596583D01*
X137629944Y-84568585D01*
X137636513Y-84535555D01*
X137648650Y-84523417D01*
X137656004Y-84518504D01*
X137689267Y-84468722D01*
X137698000Y-84424820D01*
X137698000Y-84295180D01*
X137689267Y-84251278D01*
X137656004Y-84201496D01*
X137648652Y-84196583D01*
X137629944Y-84168585D01*
X137636513Y-84135555D01*
X137648650Y-84123417D01*
X137656004Y-84118504D01*
X137689267Y-84068722D01*
X137698000Y-84024820D01*
X137698000Y-83895180D01*
X137689267Y-83851278D01*
X137656004Y-83801496D01*
X137648652Y-83796583D01*
X137629944Y-83768585D01*
X137636513Y-83735555D01*
X137648650Y-83723417D01*
X137656004Y-83718504D01*
X137689267Y-83668722D01*
X137698000Y-83624820D01*
X137698000Y-83495180D01*
X137689267Y-83451278D01*
X137656004Y-83401496D01*
X137648652Y-83396583D01*
X137629944Y-83368585D01*
X137636513Y-83335555D01*
X137648650Y-83323417D01*
X137656004Y-83318504D01*
X137689267Y-83268722D01*
X137698000Y-83224820D01*
X137698000Y-83095180D01*
X137689267Y-83051278D01*
X137656004Y-83001496D01*
X137648652Y-82996583D01*
X137629944Y-82968585D01*
X137633620Y-82950101D01*
X138897000Y-82950101D01*
X138897000Y-82950102D01*
X138897000Y-82950104D01*
X138897000Y-86169893D01*
X138897001Y-86169900D01*
X138902830Y-86199211D01*
X138902830Y-86199212D01*
X138904356Y-86201496D01*
X138925043Y-86232457D01*
X138947155Y-86247231D01*
X138958285Y-86254668D01*
X138958287Y-86254669D01*
X138987601Y-86260500D01*
X142207398Y-86260499D01*
X142236713Y-86254669D01*
X142269957Y-86232457D01*
X142292169Y-86199213D01*
X142298000Y-86169899D01*
X142297999Y-82950102D01*
X142292169Y-82920787D01*
X142269957Y-82887543D01*
X142258825Y-82880105D01*
X142236714Y-82865331D01*
X142230850Y-82864164D01*
X142207399Y-82859500D01*
X142207395Y-82859500D01*
X138987606Y-82859500D01*
X138987599Y-82859501D01*
X138958288Y-82865330D01*
X138958287Y-82865330D01*
X138925044Y-82887542D01*
X138925042Y-82887544D01*
X138902831Y-82920785D01*
X138902308Y-82923415D01*
X138897000Y-82950101D01*
X137633620Y-82950101D01*
X137636513Y-82935555D01*
X137648650Y-82923417D01*
X137656004Y-82918504D01*
X137689267Y-82868722D01*
X137698000Y-82824820D01*
X137698000Y-82695180D01*
X137689267Y-82651278D01*
X137656004Y-82601496D01*
X137648652Y-82596583D01*
X137629944Y-82568585D01*
X137636513Y-82535555D01*
X137648650Y-82523417D01*
X137656004Y-82518504D01*
X137689267Y-82468722D01*
X137698000Y-82424820D01*
X137698000Y-82295180D01*
X137689267Y-82251278D01*
X137656004Y-82201496D01*
X137648202Y-82196283D01*
X137629493Y-82168283D01*
X137636063Y-82135254D01*
X137648206Y-82123112D01*
X137655643Y-82118143D01*
X137655644Y-82118142D01*
X137688796Y-82068527D01*
X137688796Y-82068526D01*
X137690493Y-82060000D01*
X136629507Y-82060000D01*
X136627888Y-82061971D01*
X136622323Y-82089946D01*
X136594322Y-82108655D01*
X136585739Y-82109500D01*
X136442000Y-82109500D01*
X136410887Y-82096613D01*
X136398000Y-82065500D01*
X136398000Y-81860000D01*
X136629507Y-81860000D01*
X137059999Y-81860000D01*
X137060000Y-81859999D01*
X137060000Y-81760001D01*
X137260000Y-81760001D01*
X137260000Y-81859999D01*
X137260001Y-81860000D01*
X137690492Y-81860000D01*
X137688796Y-81851473D01*
X137688796Y-81851472D01*
X137655644Y-81801857D01*
X137655642Y-81801855D01*
X137606027Y-81768703D01*
X137562271Y-81760000D01*
X137260001Y-81760000D01*
X137260000Y-81760001D01*
X137060000Y-81760001D01*
X137059999Y-81760000D01*
X136757730Y-81760000D01*
X136757728Y-81760001D01*
X136713972Y-81768703D01*
X136664357Y-81801855D01*
X136664355Y-81801857D01*
X136631203Y-81851472D01*
X136631203Y-81851473D01*
X136629507Y-81860000D01*
X136398000Y-81860000D01*
X136398000Y-81578000D01*
X136410887Y-81546887D01*
X136442000Y-81534000D01*
X137667999Y-81534000D01*
X137668000Y-81534000D01*
X137668000Y-80562000D01*
X137680887Y-80530887D01*
X137712000Y-80518000D01*
X137753000Y-80518000D01*
X137784113Y-80530887D01*
X137797000Y-80562000D01*
X137797000Y-80720180D01*
X137797000Y-81524820D01*
X137805733Y-81568722D01*
X137838996Y-81618504D01*
X137888778Y-81651767D01*
X137932680Y-81660500D01*
X137932684Y-81660500D01*
X138062316Y-81660500D01*
X138062320Y-81660500D01*
X138106222Y-81651767D01*
X138156004Y-81618504D01*
X138160916Y-81611152D01*
X138188915Y-81592444D01*
X138221945Y-81599013D01*
X138234082Y-81611150D01*
X138238996Y-81618504D01*
X138288778Y-81651767D01*
X138332680Y-81660500D01*
X138332684Y-81660500D01*
X138462316Y-81660500D01*
X138462320Y-81660500D01*
X138506222Y-81651767D01*
X138556004Y-81618504D01*
X138560916Y-81611152D01*
X138588915Y-81592444D01*
X138621945Y-81599013D01*
X138634082Y-81611150D01*
X138638996Y-81618504D01*
X138688778Y-81651767D01*
X138732680Y-81660500D01*
X138732684Y-81660500D01*
X138862316Y-81660500D01*
X138862320Y-81660500D01*
X138906222Y-81651767D01*
X138956004Y-81618504D01*
X138960916Y-81611152D01*
X138988915Y-81592444D01*
X139021945Y-81599013D01*
X139034082Y-81611150D01*
X139038996Y-81618504D01*
X139088778Y-81651767D01*
X139132680Y-81660500D01*
X139132684Y-81660500D01*
X139262316Y-81660500D01*
X139262320Y-81660500D01*
X139306222Y-81651767D01*
X139356004Y-81618504D01*
X139360916Y-81611152D01*
X139388915Y-81592444D01*
X139421945Y-81599013D01*
X139434082Y-81611150D01*
X139438996Y-81618504D01*
X139488778Y-81651767D01*
X139532680Y-81660500D01*
X139532684Y-81660500D01*
X139662316Y-81660500D01*
X139662320Y-81660500D01*
X139706222Y-81651767D01*
X139756004Y-81618504D01*
X139760916Y-81611152D01*
X139788915Y-81592444D01*
X139821945Y-81599013D01*
X139834082Y-81611150D01*
X139838996Y-81618504D01*
X139888778Y-81651767D01*
X139932680Y-81660500D01*
X139932684Y-81660500D01*
X140062317Y-81660500D01*
X140062320Y-81660500D01*
X140062790Y-81660406D01*
X140082485Y-81656489D01*
X140115514Y-81663058D01*
X140134223Y-81691059D01*
X140127654Y-81724088D01*
X140122182Y-81730755D01*
X140051386Y-81801551D01*
X139993789Y-81914592D01*
X139993788Y-81914593D01*
X139973944Y-82039891D01*
X139973944Y-82039896D01*
X139993788Y-82165194D01*
X139993789Y-82165195D01*
X139993789Y-82165196D01*
X139993790Y-82165198D01*
X140051386Y-82278236D01*
X140141094Y-82367944D01*
X140254132Y-82425540D01*
X140254134Y-82425540D01*
X140254135Y-82425541D01*
X140379434Y-82445386D01*
X140379436Y-82445386D01*
X140379438Y-82445386D01*
X140504736Y-82425541D01*
X140504736Y-82425540D01*
X140504740Y-82425540D01*
X140617778Y-82367944D01*
X140707486Y-82278236D01*
X140765082Y-82165198D01*
X140765985Y-82159500D01*
X140784928Y-82039896D01*
X140784928Y-82039891D01*
X140765083Y-81914593D01*
X140765082Y-81914592D01*
X140765082Y-81914590D01*
X140707486Y-81801552D01*
X140617778Y-81711844D01*
X140603960Y-81704803D01*
X140582089Y-81679195D01*
X140579936Y-81665599D01*
X140579936Y-81660758D01*
X140592823Y-81629645D01*
X140623936Y-81616758D01*
X140648382Y-81624174D01*
X140688971Y-81651295D01*
X140688973Y-81651296D01*
X140697500Y-81652992D01*
X140697500Y-81222501D01*
X140897500Y-81222501D01*
X140897500Y-81652992D01*
X140906025Y-81651297D01*
X140906028Y-81651296D01*
X140955642Y-81618144D01*
X140955646Y-81618140D01*
X140960915Y-81610255D01*
X140988915Y-81591545D01*
X141021944Y-81598114D01*
X141034085Y-81610255D01*
X141039353Y-81618140D01*
X141039357Y-81618144D01*
X141088972Y-81651296D01*
X141097500Y-81652992D01*
X141097500Y-81222501D01*
X141097499Y-81222500D01*
X140897501Y-81222500D01*
X140897500Y-81222501D01*
X140697500Y-81222501D01*
X140697500Y-81066500D01*
X140710387Y-81035387D01*
X140741500Y-81022500D01*
X141253500Y-81022500D01*
X141284613Y-81035387D01*
X141297500Y-81066500D01*
X141297500Y-81652992D01*
X141306025Y-81651297D01*
X141306028Y-81651296D01*
X141355642Y-81618144D01*
X141355643Y-81618143D01*
X141360612Y-81610706D01*
X141388611Y-81591994D01*
X141421641Y-81598561D01*
X141433782Y-81610701D01*
X141438996Y-81618504D01*
X141488778Y-81651767D01*
X141532680Y-81660500D01*
X141532684Y-81660500D01*
X141662316Y-81660500D01*
X141662320Y-81660500D01*
X141706222Y-81651767D01*
X141756004Y-81618504D01*
X141760916Y-81611152D01*
X141788915Y-81592444D01*
X141821945Y-81599013D01*
X141834082Y-81611150D01*
X141838996Y-81618504D01*
X141888778Y-81651767D01*
X141932680Y-81660500D01*
X141932684Y-81660500D01*
X142062317Y-81660500D01*
X142062320Y-81660500D01*
X142068272Y-81659316D01*
X142101297Y-81652747D01*
X142134326Y-81659316D01*
X142153035Y-81687317D01*
X142146466Y-81720346D01*
X142140994Y-81727014D01*
X142064349Y-81803659D01*
X142006753Y-81916698D01*
X142006752Y-81916699D01*
X141986908Y-82041997D01*
X141986908Y-82042002D01*
X142006752Y-82167300D01*
X142006753Y-82167301D01*
X142006753Y-82167302D01*
X142006754Y-82167304D01*
X142064350Y-82280342D01*
X142154058Y-82370050D01*
X142267096Y-82427646D01*
X142267098Y-82427646D01*
X142267099Y-82427647D01*
X142392398Y-82447492D01*
X142392400Y-82447492D01*
X142392402Y-82447492D01*
X142517700Y-82427647D01*
X142517700Y-82427646D01*
X142517704Y-82427646D01*
X142630742Y-82370050D01*
X142720450Y-82280342D01*
X142778046Y-82167304D01*
X142778381Y-82165194D01*
X142797892Y-82042002D01*
X142797892Y-82041997D01*
X142778047Y-81916699D01*
X142778046Y-81916698D01*
X142778046Y-81916696D01*
X142749158Y-81860000D01*
X143504507Y-81860000D01*
X143934999Y-81860000D01*
X143935000Y-81859999D01*
X143935000Y-81760001D01*
X143934999Y-81760000D01*
X143632730Y-81760000D01*
X143632728Y-81760001D01*
X143588972Y-81768703D01*
X143539357Y-81801855D01*
X143539355Y-81801857D01*
X143506203Y-81851472D01*
X143506203Y-81851473D01*
X143504507Y-81860000D01*
X142749158Y-81860000D01*
X142720450Y-81803658D01*
X142639022Y-81722230D01*
X142626136Y-81691119D01*
X142639023Y-81660006D01*
X142670136Y-81647119D01*
X142686977Y-81650469D01*
X142688975Y-81651297D01*
X142697500Y-81652992D01*
X142697500Y-81222501D01*
X142897500Y-81222501D01*
X142897500Y-81652992D01*
X142906025Y-81651297D01*
X142906028Y-81651296D01*
X142955642Y-81618144D01*
X142955646Y-81618140D01*
X142960915Y-81610255D01*
X142988915Y-81591545D01*
X143021944Y-81598114D01*
X143034085Y-81610255D01*
X143039353Y-81618140D01*
X143039357Y-81618144D01*
X143088972Y-81651296D01*
X143097500Y-81652992D01*
X143097500Y-81222501D01*
X143297500Y-81222501D01*
X143297500Y-81652992D01*
X143306025Y-81651297D01*
X143306028Y-81651296D01*
X143355642Y-81618144D01*
X143355644Y-81618142D01*
X143388796Y-81568527D01*
X143397500Y-81524771D01*
X143397500Y-81222501D01*
X143397499Y-81222500D01*
X143297501Y-81222500D01*
X143297500Y-81222501D01*
X143097500Y-81222501D01*
X143097499Y-81222500D01*
X142897501Y-81222500D01*
X142897500Y-81222501D01*
X142697500Y-81222501D01*
X142697500Y-81066500D01*
X142710387Y-81035387D01*
X142741500Y-81022500D01*
X143097499Y-81022500D01*
X143097500Y-81022499D01*
X143297500Y-81022499D01*
X143297501Y-81022500D01*
X143397498Y-81022500D01*
X143397499Y-81022499D01*
X143397499Y-80720230D01*
X143397498Y-80720228D01*
X143388796Y-80676472D01*
X143355644Y-80626857D01*
X143355639Y-80626852D01*
X143306030Y-80593704D01*
X143297500Y-80592006D01*
X143297500Y-81022499D01*
X143097500Y-81022499D01*
X143097500Y-80592007D01*
X143088973Y-80593703D01*
X143088972Y-80593703D01*
X143039357Y-80626855D01*
X143039354Y-80626858D01*
X143034084Y-80634746D01*
X143006083Y-80653455D01*
X142973054Y-80646884D01*
X142960916Y-80634746D01*
X142955645Y-80626858D01*
X142955642Y-80626855D01*
X142906027Y-80593703D01*
X142875261Y-80587584D01*
X142847260Y-80568874D01*
X142840690Y-80535845D01*
X142852729Y-80513320D01*
X143092958Y-80273091D01*
X143098521Y-80268385D01*
X143466977Y-80006000D01*
X144439210Y-80006000D01*
X144441923Y-80019640D01*
X144441924Y-80019641D01*
X144494969Y-80099028D01*
X144494971Y-80099030D01*
X144558000Y-80141144D01*
X144558000Y-80006001D01*
X145058000Y-80006001D01*
X145058000Y-80141143D01*
X145121028Y-80099030D01*
X145121030Y-80099028D01*
X145173035Y-80021197D01*
X145183961Y-80013896D01*
X145182706Y-80013210D01*
X145176789Y-80006000D01*
X145058001Y-80006000D01*
X145058000Y-80006001D01*
X144558000Y-80006001D01*
X144557999Y-80006000D01*
X144439210Y-80006000D01*
X143466977Y-80006000D01*
X144299747Y-79412968D01*
X144412943Y-79332359D01*
X144438466Y-79324200D01*
X144482775Y-79324200D01*
X144513888Y-79337087D01*
G37*
%TD.AperFunction*%
%TD*%
%TA.AperFunction,Conductor*%
%TO.N,Net-(U3-EN)*%
G36*
X141489733Y-47506800D02*
G01*
X141610233Y-47597175D01*
X142092237Y-47958677D01*
X142109394Y-47987653D01*
X142103941Y-48015876D01*
X142053721Y-48102860D01*
X142053719Y-48102865D01*
X142014500Y-48249234D01*
X142014500Y-48400766D01*
X142029038Y-48455024D01*
X142053718Y-48547132D01*
X142053721Y-48547139D01*
X142129482Y-48678361D01*
X142129483Y-48678362D01*
X142129485Y-48678365D01*
X142236635Y-48785515D01*
X142367865Y-48861281D01*
X142461390Y-48886340D01*
X142488105Y-48906840D01*
X142494000Y-48928840D01*
X142494000Y-50248000D01*
X142481113Y-50279113D01*
X142450000Y-50292000D01*
X141776000Y-50292000D01*
X141744887Y-50279113D01*
X141732000Y-50248000D01*
X141732000Y-48514000D01*
X140208001Y-48006000D01*
X140208000Y-48006000D01*
X138938000Y-48006000D01*
X138937999Y-48006000D01*
X137668000Y-48768000D01*
X137668000Y-50284860D01*
X137665742Y-50298774D01*
X137160000Y-51815998D01*
X135899502Y-56227740D01*
X135878563Y-56254115D01*
X135855436Y-56259617D01*
X135420575Y-56242222D01*
X135390003Y-56228101D01*
X135381683Y-56215094D01*
X135381317Y-56214211D01*
X135381317Y-56214210D01*
X135340754Y-56153504D01*
X135101496Y-55914247D01*
X135040790Y-55873683D01*
X134945000Y-55854629D01*
X134849209Y-55873683D01*
X134788508Y-55914242D01*
X134549244Y-56153507D01*
X134527890Y-56185463D01*
X134499889Y-56204171D01*
X134489548Y-56204981D01*
X132762839Y-56135913D01*
X132732267Y-56121792D01*
X132720633Y-56090189D01*
X132720936Y-56086507D01*
X132840385Y-55130919D01*
X132850386Y-55108040D01*
X136906000Y-50292000D01*
X136906000Y-48928840D01*
X136918887Y-48897727D01*
X136938609Y-48886340D01*
X137032135Y-48861281D01*
X137163365Y-48785515D01*
X137270515Y-48678365D01*
X137346281Y-48547135D01*
X137385500Y-48400766D01*
X137385500Y-48249234D01*
X137346281Y-48102865D01*
X137270515Y-47971635D01*
X137263551Y-47964671D01*
X137250665Y-47933560D01*
X137263551Y-47902448D01*
X137655113Y-47510887D01*
X137686226Y-47498000D01*
X141463333Y-47498000D01*
X141489733Y-47506800D01*
G37*
%TD.AperFunction*%
%TD*%
%TA.AperFunction,Conductor*%
%TO.N,3.3V*%
G36*
X134512734Y-56416341D02*
G01*
X134522919Y-56427096D01*
X134549242Y-56466491D01*
X134549243Y-56466492D01*
X134549246Y-56466496D01*
X134719354Y-56636603D01*
X134764201Y-56681450D01*
X134772443Y-56692886D01*
X135128000Y-57404000D01*
X137922000Y-59436000D01*
X140926000Y-59436000D01*
X140957113Y-59448887D01*
X140970000Y-59480000D01*
X140970000Y-62948000D01*
X140957113Y-62979113D01*
X140926000Y-62992000D01*
X138193600Y-62992000D01*
X138163255Y-62979862D01*
X132855655Y-57925004D01*
X132842013Y-57894215D01*
X132842000Y-57893142D01*
X132842000Y-56680161D01*
X132854887Y-56649048D01*
X132879776Y-56636603D01*
X134480113Y-56407983D01*
X134512734Y-56416341D01*
G37*
%TD.AperFunction*%
%TD*%
%TA.AperFunction,Conductor*%
%TO.N,GND*%
G36*
X155190000Y-95959988D02*
G01*
X155132993Y-95927075D01*
X155005826Y-95893000D01*
X154874174Y-95893000D01*
X154747007Y-95927075D01*
X154690000Y-95959988D01*
X154690000Y-94286012D01*
X154747007Y-94318925D01*
X154874174Y-94353000D01*
X155005826Y-94353000D01*
X155132993Y-94318925D01*
X155190000Y-94286012D01*
X155190000Y-95959988D01*
G37*
%TD.AperFunction*%
%TA.AperFunction,Conductor*%
G36*
X140182648Y-89946198D02*
G01*
X140197000Y-89980846D01*
X140197000Y-91554585D01*
X140195054Y-91568255D01*
X140165494Y-91669999D01*
X140173392Y-91680518D01*
X140182648Y-91684352D01*
X140197000Y-91719000D01*
X140197000Y-92121000D01*
X140182648Y-92155648D01*
X140173392Y-92159481D01*
X140165494Y-92170000D01*
X140195054Y-92271742D01*
X140197000Y-92285413D01*
X140197000Y-92888500D01*
X140182648Y-92923148D01*
X140148000Y-92937500D01*
X139328105Y-92937500D01*
X139328104Y-92937500D01*
X139328102Y-92937501D01*
X139298787Y-92943331D01*
X139298786Y-92943331D01*
X139298784Y-92943332D01*
X139298783Y-92943332D01*
X139265543Y-92965542D01*
X139243330Y-92998786D01*
X139243330Y-92998787D01*
X139237500Y-93028095D01*
X139237500Y-94207816D01*
X139223148Y-94242464D01*
X139205624Y-94253727D01*
X139104124Y-94291584D01*
X139066644Y-94290245D01*
X139041089Y-94262797D01*
X139038000Y-94245673D01*
X139038000Y-93888000D01*
X137637000Y-93888000D01*
X137602352Y-93873648D01*
X137588000Y-93839000D01*
X137588000Y-93388000D01*
X138088000Y-93388000D01*
X139038000Y-93388000D01*
X139038000Y-92990165D01*
X139031598Y-92930627D01*
X139031598Y-92930626D01*
X138981351Y-92795908D01*
X138895188Y-92680811D01*
X138780091Y-92594648D01*
X138645373Y-92544401D01*
X138585834Y-92538000D01*
X138088000Y-92538000D01*
X138088000Y-93388000D01*
X137588000Y-93388000D01*
X137588000Y-92535987D01*
X137575071Y-92504775D01*
X137589423Y-92470127D01*
X140113352Y-89946198D01*
X140148000Y-89931846D01*
X140182648Y-89946198D01*
G37*
%TD.AperFunction*%
%TA.AperFunction,Conductor*%
G36*
X142178147Y-82979352D02*
G01*
X142192499Y-83014000D01*
X142192499Y-86105999D01*
X142178147Y-86140647D01*
X142143499Y-86154999D01*
X139051500Y-86154999D01*
X139016852Y-86140647D01*
X139002500Y-86105999D01*
X139002500Y-83014000D01*
X139016852Y-82979352D01*
X139051500Y-82965000D01*
X142143499Y-82965000D01*
X142178147Y-82979352D01*
G37*
%TD.AperFunction*%
%TA.AperFunction,Conductor*%
G36*
X151780906Y-84719852D02*
G01*
X151795258Y-84754500D01*
X151780906Y-84789147D01*
X151309553Y-85260500D01*
X150874905Y-85695148D01*
X150840257Y-85709500D01*
X149862789Y-85709500D01*
X149828141Y-85695148D01*
X149813789Y-85660500D01*
X149815735Y-85646829D01*
X149847145Y-85538714D01*
X149847145Y-85538713D01*
X149848791Y-85517800D01*
X148869000Y-85517800D01*
X148834352Y-85503448D01*
X148820000Y-85468800D01*
X148820000Y-85066800D01*
X148834352Y-85032152D01*
X148869000Y-85017800D01*
X149848790Y-85017800D01*
X149848790Y-85017799D01*
X149847145Y-84996886D01*
X149802030Y-84841601D01*
X149765270Y-84779443D01*
X149759985Y-84742314D01*
X149782503Y-84712324D01*
X149807446Y-84705500D01*
X151746258Y-84705500D01*
X151780906Y-84719852D01*
G37*
%TD.AperFunction*%
%TA.AperFunction,Conductor*%
G36*
X136333648Y-48654273D02*
G01*
X136341432Y-48664417D01*
X136349485Y-48678365D01*
X136456635Y-48785515D01*
X136503530Y-48812590D01*
X136587862Y-48861280D01*
X136587865Y-48861281D01*
X136713682Y-48894993D01*
X136743435Y-48917823D01*
X136750000Y-48942323D01*
X136750000Y-49646000D01*
X136735648Y-49680648D01*
X136701000Y-49695000D01*
X135706000Y-49695000D01*
X135671352Y-49680648D01*
X135657000Y-49646000D01*
X135657000Y-49515223D01*
X135659556Y-49510796D01*
X135680000Y-49434496D01*
X135680000Y-49205769D01*
X135706000Y-49195000D01*
X136250000Y-49195000D01*
X136250000Y-48688921D01*
X136264352Y-48654273D01*
X136299000Y-48639921D01*
X136333648Y-48654273D01*
G37*
%TD.AperFunction*%
%TA.AperFunction,Conductor*%
G36*
X134497472Y-43694852D02*
G01*
X134511824Y-43729500D01*
X134503566Y-43756723D01*
X134493810Y-43771323D01*
X134418429Y-43953309D01*
X134418429Y-43953310D01*
X134380000Y-44146512D01*
X134380000Y-44395000D01*
X135080000Y-44395000D01*
X135080000Y-44895000D01*
X134380000Y-44895000D01*
X134380000Y-45143487D01*
X134418429Y-45336689D01*
X134418429Y-45336690D01*
X134493809Y-45518674D01*
X134603246Y-45682460D01*
X134742539Y-45821753D01*
X134906325Y-45931190D01*
X135088310Y-46006570D01*
X135130000Y-46014862D01*
X135130000Y-45211988D01*
X135139940Y-45229205D01*
X135195795Y-45285060D01*
X135264204Y-45324556D01*
X135340504Y-45345000D01*
X135419496Y-45345000D01*
X135495796Y-45324556D01*
X135564205Y-45285060D01*
X135620060Y-45229205D01*
X135630000Y-45211988D01*
X135630000Y-46014862D01*
X135671689Y-46006570D01*
X135671690Y-46006570D01*
X135853674Y-45931190D01*
X136017460Y-45821753D01*
X136156753Y-45682460D01*
X136266190Y-45518674D01*
X136341570Y-45336690D01*
X136341570Y-45336689D01*
X136380000Y-45143487D01*
X136380000Y-44895000D01*
X135680000Y-44895000D01*
X135680000Y-44395000D01*
X136380000Y-44395000D01*
X136380000Y-44146512D01*
X136341570Y-43953310D01*
X136341570Y-43953309D01*
X136266189Y-43771323D01*
X136256434Y-43756723D01*
X136249117Y-43719941D01*
X136269953Y-43688758D01*
X136297176Y-43680500D01*
X143102824Y-43680500D01*
X143137472Y-43694852D01*
X143151824Y-43729500D01*
X143143566Y-43756723D01*
X143133810Y-43771323D01*
X143058429Y-43953309D01*
X143058429Y-43953310D01*
X143020000Y-44146512D01*
X143020000Y-44395000D01*
X143720000Y-44395000D01*
X143720000Y-44895000D01*
X143020000Y-44895000D01*
X143020000Y-45143487D01*
X143058429Y-45336689D01*
X143058429Y-45336690D01*
X143133809Y-45518674D01*
X143243246Y-45682460D01*
X143382539Y-45821753D01*
X143546325Y-45931190D01*
X143728310Y-46006570D01*
X143770000Y-46014862D01*
X143770000Y-45211988D01*
X143779940Y-45229205D01*
X143835795Y-45285060D01*
X143904204Y-45324556D01*
X143980504Y-45345000D01*
X144059496Y-45345000D01*
X144135796Y-45324556D01*
X144204205Y-45285060D01*
X144260060Y-45229205D01*
X144270000Y-45211988D01*
X144270000Y-46014862D01*
X144311689Y-46006570D01*
X144311690Y-46006570D01*
X144493674Y-45931190D01*
X144657460Y-45821753D01*
X144796753Y-45682460D01*
X144906190Y-45518674D01*
X144981570Y-45336690D01*
X144981570Y-45336689D01*
X145020000Y-45143487D01*
X145020000Y-44895000D01*
X144320000Y-44895000D01*
X144320000Y-44395000D01*
X145020000Y-44395000D01*
X145020000Y-44146512D01*
X144981570Y-43953310D01*
X144981570Y-43953309D01*
X144906189Y-43771323D01*
X144896434Y-43756723D01*
X144889117Y-43719941D01*
X144909953Y-43688758D01*
X144937176Y-43680500D01*
X156930500Y-43680500D01*
X156965148Y-43694852D01*
X156979500Y-43729500D01*
X156979500Y-98510500D01*
X156965148Y-98545148D01*
X156930500Y-98559500D01*
X122469500Y-98559500D01*
X122434852Y-98545148D01*
X122420500Y-98510500D01*
X122420500Y-86109999D01*
X123129363Y-86109999D01*
X123129364Y-86110000D01*
X124026988Y-86110000D01*
X123994075Y-86167007D01*
X123960000Y-86294174D01*
X123960000Y-86425826D01*
X123994075Y-86552993D01*
X124026988Y-86610000D01*
X123129363Y-86610000D01*
X123186566Y-86823483D01*
X123186568Y-86823488D01*
X123286398Y-87037577D01*
X123286405Y-87037589D01*
X123421885Y-87231072D01*
X123421891Y-87231079D01*
X123588920Y-87398108D01*
X123588927Y-87398114D01*
X123782410Y-87533594D01*
X123782422Y-87533601D01*
X123996511Y-87633431D01*
X123996516Y-87633433D01*
X124210000Y-87690634D01*
X124210000Y-86793012D01*
X124267007Y-86825925D01*
X124394174Y-86860000D01*
X124525826Y-86860000D01*
X124652993Y-86825925D01*
X124710000Y-86793012D01*
X124710000Y-87690634D01*
X124923483Y-87633433D01*
X124923488Y-87633431D01*
X125137577Y-87533601D01*
X125137589Y-87533594D01*
X125331072Y-87398114D01*
X125331079Y-87398108D01*
X125498108Y-87231079D01*
X125498114Y-87231072D01*
X125633594Y-87037589D01*
X125633601Y-87037577D01*
X125733431Y-86823488D01*
X125733433Y-86823483D01*
X125790636Y-86610000D01*
X124893012Y-86610000D01*
X124925925Y-86552993D01*
X124960000Y-86425826D01*
X124960000Y-86294174D01*
X124925925Y-86167007D01*
X124893012Y-86110000D01*
X125790636Y-86110000D01*
X125790636Y-86109999D01*
X125733433Y-85896516D01*
X125733432Y-85896511D01*
X125633601Y-85682423D01*
X125633594Y-85682411D01*
X125498114Y-85488927D01*
X125498108Y-85488920D01*
X125331079Y-85321891D01*
X125331072Y-85321885D01*
X125137589Y-85186405D01*
X125137577Y-85186398D01*
X124923488Y-85086568D01*
X124923483Y-85086566D01*
X124710000Y-85029363D01*
X124710000Y-85926988D01*
X124652993Y-85894075D01*
X124525826Y-85860000D01*
X124394174Y-85860000D01*
X124267007Y-85894075D01*
X124210000Y-85926988D01*
X124210000Y-85029363D01*
X124209999Y-85029363D01*
X123996516Y-85086566D01*
X123996511Y-85086567D01*
X123782423Y-85186398D01*
X123782411Y-85186405D01*
X123588927Y-85321885D01*
X123588920Y-85321891D01*
X123421891Y-85488920D01*
X123421885Y-85488927D01*
X123286405Y-85682411D01*
X123286398Y-85682423D01*
X123186567Y-85896511D01*
X123186566Y-85896516D01*
X123129363Y-86109999D01*
X122420500Y-86109999D01*
X122420500Y-73409999D01*
X123129363Y-73409999D01*
X123129364Y-73410000D01*
X124026988Y-73410000D01*
X123994075Y-73467007D01*
X123960000Y-73594174D01*
X123960000Y-73725826D01*
X123994075Y-73852993D01*
X124026988Y-73910000D01*
X123129363Y-73910000D01*
X123186566Y-74123483D01*
X123186568Y-74123488D01*
X123286398Y-74337577D01*
X123286405Y-74337589D01*
X123421885Y-74531072D01*
X123421891Y-74531079D01*
X123588920Y-74698108D01*
X123588927Y-74698114D01*
X123782410Y-74833594D01*
X123782422Y-74833601D01*
X123996511Y-74933431D01*
X123996516Y-74933433D01*
X124210000Y-74990634D01*
X124210000Y-74093012D01*
X124267007Y-74125925D01*
X124394174Y-74160000D01*
X124525826Y-74160000D01*
X124652993Y-74125925D01*
X124710000Y-74093012D01*
X124710000Y-74990634D01*
X124923483Y-74933433D01*
X124923488Y-74933431D01*
X125137577Y-74833601D01*
X125137589Y-74833594D01*
X125331072Y-74698114D01*
X125331079Y-74698108D01*
X125498108Y-74531079D01*
X125498114Y-74531072D01*
X125633594Y-74337589D01*
X125633601Y-74337577D01*
X125733431Y-74123488D01*
X125733433Y-74123483D01*
X125790636Y-73910000D01*
X124893012Y-73910000D01*
X124925925Y-73852993D01*
X124960000Y-73725826D01*
X124960000Y-73594174D01*
X124925925Y-73467007D01*
X124893012Y-73410000D01*
X125790636Y-73410000D01*
X125790636Y-73409999D01*
X125733433Y-73196516D01*
X125733432Y-73196511D01*
X125633601Y-72982423D01*
X125633594Y-72982411D01*
X125498114Y-72788927D01*
X125498108Y-72788920D01*
X125331079Y-72621891D01*
X125331072Y-72621885D01*
X125137589Y-72486405D01*
X125137577Y-72486398D01*
X124923488Y-72386568D01*
X124923483Y-72386566D01*
X124710000Y-72329363D01*
X124710000Y-73226988D01*
X124652993Y-73194075D01*
X124525826Y-73160000D01*
X124394174Y-73160000D01*
X124267007Y-73194075D01*
X124210000Y-73226988D01*
X124210000Y-72329363D01*
X124209999Y-72329363D01*
X123996516Y-72386566D01*
X123996511Y-72386567D01*
X123782423Y-72486398D01*
X123782411Y-72486405D01*
X123588927Y-72621885D01*
X123588920Y-72621891D01*
X123421891Y-72788920D01*
X123421885Y-72788927D01*
X123286405Y-72982411D01*
X123286398Y-72982423D01*
X123186567Y-73196511D01*
X123186566Y-73196516D01*
X123129363Y-73409999D01*
X122420500Y-73409999D01*
X122420500Y-60709999D01*
X123129363Y-60709999D01*
X123129364Y-60710000D01*
X124026988Y-60710000D01*
X123994075Y-60767007D01*
X123960000Y-60894174D01*
X123960000Y-61025826D01*
X123994075Y-61152993D01*
X124026988Y-61210000D01*
X123129363Y-61210000D01*
X123186566Y-61423483D01*
X123186568Y-61423488D01*
X123286398Y-61637577D01*
X123286405Y-61637589D01*
X123421885Y-61831072D01*
X123421891Y-61831079D01*
X123588920Y-61998108D01*
X123588927Y-61998114D01*
X123782410Y-62133594D01*
X123782422Y-62133601D01*
X123996511Y-62233431D01*
X123996516Y-62233433D01*
X124210000Y-62290634D01*
X124210000Y-61393012D01*
X124267007Y-61425925D01*
X124394174Y-61460000D01*
X124525826Y-61460000D01*
X124652993Y-61425925D01*
X124710000Y-61393012D01*
X124710000Y-62290634D01*
X124923483Y-62233433D01*
X124923488Y-62233431D01*
X125137577Y-62133601D01*
X125137589Y-62133594D01*
X125331072Y-61998114D01*
X125331079Y-61998108D01*
X125498108Y-61831079D01*
X125498114Y-61831072D01*
X125633594Y-61637589D01*
X125633601Y-61637577D01*
X125733431Y-61423488D01*
X125733433Y-61423483D01*
X125790636Y-61210000D01*
X124893012Y-61210000D01*
X124925925Y-61152993D01*
X124960000Y-61025826D01*
X124960000Y-60894174D01*
X124925925Y-60767007D01*
X124893012Y-60710000D01*
X125790636Y-60710000D01*
X125790636Y-60709999D01*
X125733433Y-60496516D01*
X125733432Y-60496511D01*
X125633601Y-60282423D01*
X125633594Y-60282411D01*
X125498114Y-60088927D01*
X125498108Y-60088920D01*
X125331079Y-59921891D01*
X125331072Y-59921885D01*
X125137589Y-59786405D01*
X125137577Y-59786398D01*
X124923488Y-59686568D01*
X124923483Y-59686566D01*
X124710000Y-59629363D01*
X124710000Y-60526988D01*
X124652993Y-60494075D01*
X124525826Y-60460000D01*
X124394174Y-60460000D01*
X124267007Y-60494075D01*
X124210000Y-60526988D01*
X124210000Y-59629363D01*
X124209999Y-59629363D01*
X123996516Y-59686566D01*
X123996511Y-59686567D01*
X123782423Y-59786398D01*
X123782411Y-59786405D01*
X123588927Y-59921885D01*
X123588920Y-59921891D01*
X123421891Y-60088920D01*
X123421885Y-60088927D01*
X123286405Y-60282411D01*
X123286398Y-60282423D01*
X123186567Y-60496511D01*
X123186566Y-60496516D01*
X123129363Y-60709999D01*
X122420500Y-60709999D01*
X122420500Y-50799999D01*
X123504901Y-50799999D01*
X123504901Y-50800000D01*
X123523253Y-50986331D01*
X123523253Y-50986332D01*
X123577604Y-51165502D01*
X123665863Y-51330624D01*
X123665868Y-51330631D01*
X123728775Y-51407282D01*
X123784643Y-51475357D01*
X123844453Y-51524442D01*
X123929368Y-51594131D01*
X123929375Y-51594136D01*
X124067365Y-51667893D01*
X124094499Y-51682396D01*
X124273669Y-51736747D01*
X124460000Y-51755099D01*
X124646331Y-51736747D01*
X124825501Y-51682396D01*
X124899435Y-51642876D01*
X124936758Y-51639201D01*
X124957182Y-51651443D01*
X129027148Y-55721408D01*
X129041500Y-55756056D01*
X129041500Y-57448943D01*
X129027148Y-57483591D01*
X128992500Y-57497943D01*
X128957852Y-57483591D01*
X125311443Y-53837182D01*
X125297091Y-53802534D01*
X125302877Y-53779435D01*
X125342396Y-53705501D01*
X125396747Y-53526331D01*
X125415099Y-53340000D01*
X125396747Y-53153669D01*
X125342396Y-52974499D01*
X125274512Y-52847497D01*
X125254136Y-52809375D01*
X125254131Y-52809368D01*
X125188294Y-52729147D01*
X125135357Y-52664643D01*
X125053184Y-52597205D01*
X124990631Y-52545868D01*
X124990624Y-52545863D01*
X124825502Y-52457604D01*
X124646331Y-52403253D01*
X124460000Y-52384901D01*
X124273668Y-52403253D01*
X124273667Y-52403253D01*
X124094497Y-52457604D01*
X123929375Y-52545863D01*
X123929368Y-52545868D01*
X123784643Y-52664643D01*
X123665868Y-52809368D01*
X123665863Y-52809375D01*
X123577604Y-52974497D01*
X123523253Y-53153667D01*
X123523253Y-53153668D01*
X123504901Y-53339999D01*
X123504901Y-53340000D01*
X123523253Y-53526331D01*
X123523253Y-53526332D01*
X123577604Y-53705502D01*
X123665863Y-53870624D01*
X123665868Y-53870631D01*
X123680416Y-53888357D01*
X123784643Y-54015357D01*
X123844453Y-54064442D01*
X123929368Y-54134131D01*
X123929375Y-54134136D01*
X124094499Y-54222396D01*
X124273669Y-54276747D01*
X124460000Y-54295099D01*
X124646331Y-54276747D01*
X124825501Y-54222396D01*
X124899435Y-54182876D01*
X124936758Y-54179201D01*
X124957182Y-54191443D01*
X128627148Y-57861408D01*
X128641500Y-57896056D01*
X128641500Y-59588943D01*
X128627148Y-59623591D01*
X128592500Y-59637943D01*
X128557852Y-59623591D01*
X125311443Y-56377182D01*
X125297091Y-56342534D01*
X125302877Y-56319435D01*
X125342396Y-56245501D01*
X125396747Y-56066331D01*
X125415099Y-55880000D01*
X125396747Y-55693669D01*
X125342396Y-55514499D01*
X125291690Y-55419635D01*
X125254136Y-55349375D01*
X125254131Y-55349368D01*
X125149909Y-55222375D01*
X125135357Y-55204643D01*
X125067282Y-55148775D01*
X124990631Y-55085868D01*
X124990624Y-55085863D01*
X124825502Y-54997604D01*
X124646331Y-54943253D01*
X124460000Y-54924901D01*
X124273668Y-54943253D01*
X124273667Y-54943253D01*
X124094497Y-54997604D01*
X123929375Y-55085863D01*
X123929368Y-55085868D01*
X123784643Y-55204643D01*
X123665868Y-55349368D01*
X123665863Y-55349375D01*
X123577604Y-55514497D01*
X123523253Y-55693667D01*
X123523253Y-55693668D01*
X123504901Y-55879999D01*
X123504901Y-55880000D01*
X123523253Y-56066331D01*
X123523253Y-56066332D01*
X123577604Y-56245502D01*
X123665863Y-56410624D01*
X123665868Y-56410631D01*
X123728775Y-56487282D01*
X123784643Y-56555357D01*
X123843879Y-56603971D01*
X123929368Y-56674131D01*
X123929375Y-56674136D01*
X124094499Y-56762396D01*
X124273669Y-56816747D01*
X124460000Y-56835099D01*
X124646331Y-56816747D01*
X124825501Y-56762396D01*
X124899435Y-56722876D01*
X124936758Y-56719201D01*
X124957182Y-56731443D01*
X128227148Y-60001409D01*
X128241500Y-60036057D01*
X128241500Y-61728943D01*
X128227148Y-61763591D01*
X128192500Y-61777943D01*
X128157852Y-61763591D01*
X125311443Y-58917182D01*
X125297091Y-58882534D01*
X125302877Y-58859435D01*
X125312940Y-58840609D01*
X125342396Y-58785501D01*
X125396747Y-58606331D01*
X125415099Y-58420000D01*
X125396747Y-58233669D01*
X125342396Y-58054499D01*
X125274512Y-57927497D01*
X125254136Y-57889375D01*
X125254131Y-57889368D01*
X125181013Y-57800275D01*
X125135357Y-57744643D01*
X125067282Y-57688775D01*
X124990631Y-57625868D01*
X124990624Y-57625863D01*
X124825502Y-57537604D01*
X124646331Y-57483253D01*
X124460000Y-57464901D01*
X124273668Y-57483253D01*
X124273667Y-57483253D01*
X124094497Y-57537604D01*
X123929375Y-57625863D01*
X123929368Y-57625868D01*
X123784643Y-57744643D01*
X123665868Y-57889368D01*
X123665863Y-57889375D01*
X123577604Y-58054497D01*
X123523253Y-58233667D01*
X123523253Y-58233668D01*
X123504901Y-58419999D01*
X123504901Y-58420000D01*
X123523253Y-58606331D01*
X123523253Y-58606332D01*
X123577604Y-58785502D01*
X123665863Y-58950624D01*
X123665868Y-58950631D01*
X123698434Y-58990312D01*
X123784643Y-59095357D01*
X123844453Y-59144442D01*
X123929368Y-59214131D01*
X123929375Y-59214136D01*
X124094499Y-59302396D01*
X124273669Y-59356747D01*
X124460000Y-59375099D01*
X124646331Y-59356747D01*
X124825501Y-59302396D01*
X124899435Y-59262876D01*
X124936758Y-59259201D01*
X124957182Y-59271443D01*
X127827148Y-62141408D01*
X127841500Y-62176056D01*
X127841500Y-66408943D01*
X127827148Y-66443591D01*
X127792500Y-66457943D01*
X127757852Y-66443591D01*
X125311443Y-63997182D01*
X125297091Y-63962534D01*
X125302877Y-63939435D01*
X125342396Y-63865501D01*
X125396747Y-63686331D01*
X125415099Y-63500000D01*
X125396747Y-63313669D01*
X125342396Y-63134499D01*
X125311439Y-63076583D01*
X125254136Y-62969375D01*
X125254131Y-62969368D01*
X125203430Y-62907590D01*
X125135357Y-62824643D01*
X125030280Y-62738408D01*
X124990631Y-62705868D01*
X124990624Y-62705863D01*
X124825502Y-62617604D01*
X124646331Y-62563253D01*
X124460000Y-62544901D01*
X124273668Y-62563253D01*
X124273667Y-62563253D01*
X124094497Y-62617604D01*
X123929375Y-62705863D01*
X123929368Y-62705868D01*
X123784643Y-62824643D01*
X123665868Y-62969368D01*
X123665863Y-62969375D01*
X123577604Y-63134497D01*
X123523253Y-63313667D01*
X123523253Y-63313668D01*
X123504901Y-63499999D01*
X123504901Y-63500000D01*
X123523253Y-63686331D01*
X123523253Y-63686332D01*
X123577604Y-63865502D01*
X123665863Y-64030624D01*
X123665868Y-64030631D01*
X123707616Y-64081500D01*
X123784643Y-64175357D01*
X123839086Y-64220037D01*
X123929368Y-64294131D01*
X123929375Y-64294136D01*
X124094499Y-64382396D01*
X124273669Y-64436747D01*
X124460000Y-64455099D01*
X124646331Y-64436747D01*
X124825501Y-64382396D01*
X124899435Y-64342876D01*
X124936758Y-64339201D01*
X124957182Y-64351443D01*
X127427148Y-66821409D01*
X127441500Y-66856057D01*
X127441500Y-68548943D01*
X127427148Y-68583591D01*
X127392500Y-68597943D01*
X127357852Y-68583591D01*
X125311443Y-66537182D01*
X125297091Y-66502534D01*
X125302877Y-66479435D01*
X125314365Y-66457943D01*
X125342396Y-66405501D01*
X125396747Y-66226331D01*
X125415099Y-66040000D01*
X125396747Y-65853669D01*
X125342396Y-65674499D01*
X125274512Y-65547497D01*
X125254136Y-65509375D01*
X125254131Y-65509368D01*
X125203430Y-65447590D01*
X125135357Y-65364643D01*
X125067282Y-65308775D01*
X124990631Y-65245868D01*
X124990624Y-65245863D01*
X124825502Y-65157604D01*
X124646331Y-65103253D01*
X124460000Y-65084901D01*
X124273668Y-65103253D01*
X124273667Y-65103253D01*
X124094497Y-65157604D01*
X123929375Y-65245863D01*
X123929368Y-65245868D01*
X123784643Y-65364643D01*
X123665868Y-65509368D01*
X123665863Y-65509375D01*
X123577604Y-65674497D01*
X123523253Y-65853667D01*
X123523253Y-65853668D01*
X123504901Y-66039999D01*
X123504901Y-66040000D01*
X123523253Y-66226331D01*
X123523253Y-66226332D01*
X123577604Y-66405502D01*
X123665863Y-66570624D01*
X123665868Y-66570631D01*
X123728775Y-66647282D01*
X123784643Y-66715357D01*
X123844453Y-66764442D01*
X123929368Y-66834131D01*
X123929375Y-66834136D01*
X124094499Y-66922396D01*
X124273669Y-66976747D01*
X124460000Y-66995099D01*
X124646331Y-66976747D01*
X124825501Y-66922396D01*
X124899435Y-66882876D01*
X124936758Y-66879201D01*
X124957182Y-66891443D01*
X127027148Y-68961408D01*
X127041500Y-68996056D01*
X127041500Y-70688943D01*
X127027148Y-70723591D01*
X126992500Y-70737943D01*
X126957852Y-70723591D01*
X125311443Y-69077182D01*
X125297091Y-69042534D01*
X125302877Y-69019435D01*
X125342396Y-68945501D01*
X125396747Y-68766331D01*
X125415099Y-68580000D01*
X125396747Y-68393669D01*
X125342396Y-68214499D01*
X125274512Y-68087497D01*
X125254136Y-68049375D01*
X125254131Y-68049368D01*
X125149909Y-67922375D01*
X125135357Y-67904643D01*
X125049346Y-67834055D01*
X124990631Y-67785868D01*
X124990624Y-67785863D01*
X124825502Y-67697604D01*
X124646331Y-67643253D01*
X124460000Y-67624901D01*
X124273668Y-67643253D01*
X124273667Y-67643253D01*
X124094497Y-67697604D01*
X123929375Y-67785863D01*
X123929368Y-67785868D01*
X123784643Y-67904643D01*
X123665868Y-68049368D01*
X123665863Y-68049375D01*
X123577604Y-68214497D01*
X123523253Y-68393667D01*
X123523253Y-68393668D01*
X123504901Y-68579999D01*
X123504901Y-68580000D01*
X123523253Y-68766331D01*
X123523253Y-68766332D01*
X123577604Y-68945502D01*
X123665863Y-69110624D01*
X123665868Y-69110631D01*
X123680416Y-69128357D01*
X123784643Y-69255357D01*
X123844453Y-69304442D01*
X123929368Y-69374131D01*
X123929375Y-69374136D01*
X124094499Y-69462396D01*
X124273669Y-69516747D01*
X124460000Y-69535099D01*
X124646331Y-69516747D01*
X124825501Y-69462396D01*
X124899435Y-69422876D01*
X124936758Y-69419201D01*
X124957182Y-69431443D01*
X126627148Y-71101409D01*
X126641500Y-71136057D01*
X126641500Y-72828943D01*
X126627148Y-72863591D01*
X126592500Y-72877943D01*
X126557852Y-72863591D01*
X125311443Y-71617182D01*
X125297091Y-71582534D01*
X125302877Y-71559435D01*
X125342396Y-71485501D01*
X125396747Y-71306331D01*
X125415099Y-71120000D01*
X125414681Y-71115761D01*
X125413268Y-71101409D01*
X125396747Y-70933669D01*
X125342396Y-70754499D01*
X125325875Y-70723591D01*
X125254136Y-70589375D01*
X125254131Y-70589368D01*
X125149909Y-70462375D01*
X125135357Y-70444643D01*
X125067282Y-70388775D01*
X124990631Y-70325868D01*
X124990624Y-70325863D01*
X124825502Y-70237604D01*
X124646331Y-70183253D01*
X124460000Y-70164901D01*
X124273668Y-70183253D01*
X124273667Y-70183253D01*
X124094497Y-70237604D01*
X123929375Y-70325863D01*
X123929368Y-70325868D01*
X123784643Y-70444643D01*
X123665868Y-70589368D01*
X123665863Y-70589375D01*
X123577604Y-70754497D01*
X123523253Y-70933667D01*
X123523253Y-70933668D01*
X123504901Y-71119999D01*
X123504901Y-71120000D01*
X123523253Y-71306331D01*
X123523253Y-71306332D01*
X123577604Y-71485502D01*
X123665863Y-71650624D01*
X123665868Y-71650631D01*
X123680416Y-71668357D01*
X123784643Y-71795357D01*
X123844453Y-71844442D01*
X123929368Y-71914131D01*
X123929375Y-71914136D01*
X124094499Y-72002396D01*
X124273669Y-72056747D01*
X124460000Y-72075099D01*
X124646331Y-72056747D01*
X124825501Y-72002396D01*
X124899435Y-71962876D01*
X124936758Y-71959201D01*
X124957182Y-71971443D01*
X126227148Y-73241409D01*
X126241500Y-73276057D01*
X126241500Y-76757829D01*
X126257296Y-76795965D01*
X126279636Y-76849897D01*
X126279637Y-76849898D01*
X126279637Y-76849899D01*
X134207817Y-84778078D01*
X134222169Y-84812726D01*
X134207817Y-84847374D01*
X134173169Y-84861726D01*
X134163611Y-84860785D01*
X134150643Y-84858206D01*
X134146088Y-84857300D01*
X133818712Y-84857300D01*
X133803560Y-84860314D01*
X133766778Y-84852996D01*
X133751826Y-84837198D01*
X133672122Y-84702426D01*
X133672118Y-84702421D01*
X133557778Y-84588081D01*
X133557773Y-84588077D01*
X133418598Y-84505769D01*
X133272400Y-84463293D01*
X133272400Y-85468800D01*
X133258048Y-85503448D01*
X133223400Y-85517800D01*
X132243610Y-85517800D01*
X132245254Y-85538713D01*
X132276665Y-85646829D01*
X132272550Y-85684106D01*
X132243282Y-85707554D01*
X132229611Y-85709500D01*
X127737500Y-85709500D01*
X127702852Y-85695148D01*
X127688500Y-85660500D01*
X127688500Y-85017799D01*
X132243608Y-85017799D01*
X132243609Y-85017800D01*
X132772400Y-85017800D01*
X132772400Y-84463294D01*
X132772399Y-84463293D01*
X132626201Y-84505769D01*
X132487026Y-84588077D01*
X132487021Y-84588081D01*
X132372681Y-84702421D01*
X132372677Y-84702426D01*
X132290369Y-84841601D01*
X132245254Y-84996885D01*
X132245254Y-84996886D01*
X132243608Y-85017799D01*
X127688500Y-85017799D01*
X127688500Y-79128174D01*
X127688499Y-79128170D01*
X127681048Y-79110181D01*
X127650364Y-79036103D01*
X127650362Y-79036101D01*
X127650362Y-79036100D01*
X127579897Y-78965636D01*
X125311443Y-76697182D01*
X125297091Y-76662534D01*
X125302877Y-76639435D01*
X125313438Y-76619677D01*
X125342396Y-76565501D01*
X125396747Y-76386331D01*
X125415099Y-76200000D01*
X125396747Y-76013669D01*
X125342396Y-75834499D01*
X125333969Y-75818734D01*
X125254136Y-75669375D01*
X125254131Y-75669368D01*
X125195276Y-75597654D01*
X125135357Y-75524643D01*
X125054774Y-75458510D01*
X124990631Y-75405868D01*
X124990624Y-75405863D01*
X124825502Y-75317604D01*
X124646331Y-75263253D01*
X124460000Y-75244901D01*
X124273668Y-75263253D01*
X124273667Y-75263253D01*
X124094497Y-75317604D01*
X123929375Y-75405863D01*
X123929368Y-75405868D01*
X123784643Y-75524643D01*
X123665868Y-75669368D01*
X123665863Y-75669375D01*
X123577604Y-75834497D01*
X123523253Y-76013667D01*
X123523253Y-76013668D01*
X123504901Y-76199999D01*
X123504901Y-76200000D01*
X123523253Y-76386331D01*
X123523253Y-76386332D01*
X123577604Y-76565502D01*
X123665863Y-76730624D01*
X123665868Y-76730631D01*
X123700216Y-76772483D01*
X123784643Y-76875357D01*
X123834776Y-76916500D01*
X123929368Y-76994131D01*
X123929375Y-76994136D01*
X124094499Y-77082396D01*
X124273669Y-77136747D01*
X124460000Y-77155099D01*
X124646331Y-77136747D01*
X124825501Y-77082396D01*
X124899435Y-77042876D01*
X124936758Y-77039201D01*
X124957182Y-77051443D01*
X127173148Y-79267409D01*
X127187500Y-79302057D01*
X127187500Y-79724942D01*
X127173148Y-79759590D01*
X127138500Y-79773942D01*
X127103852Y-79759590D01*
X125871900Y-78527638D01*
X125871898Y-78527637D01*
X125871897Y-78527636D01*
X125807015Y-78500761D01*
X125779829Y-78489500D01*
X125779828Y-78489500D01*
X125413622Y-78489500D01*
X125378974Y-78475148D01*
X125366732Y-78454724D01*
X125361235Y-78436602D01*
X125342396Y-78374499D01*
X125254136Y-78209375D01*
X125254131Y-78209368D01*
X125183202Y-78122942D01*
X125135357Y-78064643D01*
X125051181Y-77995561D01*
X124990631Y-77945868D01*
X124990624Y-77945863D01*
X124825502Y-77857604D01*
X124646331Y-77803253D01*
X124460000Y-77784901D01*
X124273668Y-77803253D01*
X124273667Y-77803253D01*
X124094497Y-77857604D01*
X123929375Y-77945863D01*
X123929368Y-77945868D01*
X123784643Y-78064643D01*
X123665868Y-78209368D01*
X123665863Y-78209375D01*
X123577604Y-78374497D01*
X123523253Y-78553667D01*
X123523253Y-78553668D01*
X123504901Y-78739999D01*
X123504901Y-78740000D01*
X123523253Y-78926331D01*
X123523253Y-78926332D01*
X123577604Y-79105502D01*
X123665863Y-79270624D01*
X123665868Y-79270631D01*
X123715534Y-79331148D01*
X123784643Y-79415357D01*
X123844453Y-79464442D01*
X123929368Y-79534131D01*
X123929375Y-79534136D01*
X124094499Y-79622396D01*
X124273669Y-79676747D01*
X124460000Y-79695099D01*
X124646331Y-79676747D01*
X124825501Y-79622396D01*
X124990625Y-79534136D01*
X125135357Y-79415357D01*
X125254136Y-79270625D01*
X125342396Y-79105501D01*
X125366732Y-79025276D01*
X125390524Y-78996286D01*
X125413622Y-78990500D01*
X125605943Y-78990500D01*
X125640591Y-79004852D01*
X126773148Y-80137409D01*
X126787500Y-80172057D01*
X126787500Y-81864943D01*
X126773148Y-81899591D01*
X126738500Y-81913943D01*
X126703852Y-81899591D01*
X125871899Y-81067637D01*
X125779829Y-81029500D01*
X125779828Y-81029500D01*
X125413622Y-81029500D01*
X125378974Y-81015148D01*
X125366732Y-80994724D01*
X125363643Y-80984543D01*
X125342396Y-80914499D01*
X125254136Y-80749375D01*
X125254131Y-80749368D01*
X125203430Y-80687590D01*
X125135357Y-80604643D01*
X125034205Y-80521629D01*
X124990631Y-80485868D01*
X124990624Y-80485863D01*
X124825502Y-80397604D01*
X124646331Y-80343253D01*
X124460000Y-80324901D01*
X124273668Y-80343253D01*
X124273667Y-80343253D01*
X124094497Y-80397604D01*
X123929375Y-80485863D01*
X123929368Y-80485868D01*
X123784643Y-80604643D01*
X123665868Y-80749368D01*
X123665863Y-80749375D01*
X123577604Y-80914497D01*
X123523253Y-81093667D01*
X123523253Y-81093668D01*
X123504901Y-81279999D01*
X123504901Y-81280000D01*
X123523253Y-81466331D01*
X123523253Y-81466332D01*
X123577604Y-81645502D01*
X123665863Y-81810624D01*
X123665868Y-81810631D01*
X123680416Y-81828357D01*
X123784643Y-81955357D01*
X123844453Y-82004442D01*
X123929368Y-82074131D01*
X123929375Y-82074136D01*
X124094499Y-82162396D01*
X124273669Y-82216747D01*
X124460000Y-82235099D01*
X124646331Y-82216747D01*
X124825501Y-82162396D01*
X124990625Y-82074136D01*
X125135357Y-81955357D01*
X125254136Y-81810625D01*
X125342396Y-81645501D01*
X125366732Y-81565276D01*
X125390524Y-81536286D01*
X125413622Y-81530500D01*
X125605943Y-81530500D01*
X125640591Y-81544852D01*
X126373148Y-82277408D01*
X126387500Y-82312056D01*
X126387500Y-84004942D01*
X126373148Y-84039590D01*
X126338500Y-84053942D01*
X126303852Y-84039590D01*
X125871900Y-83607638D01*
X125871898Y-83607637D01*
X125871897Y-83607636D01*
X125817965Y-83585296D01*
X125779829Y-83569500D01*
X125779828Y-83569500D01*
X125413622Y-83569500D01*
X125378974Y-83555148D01*
X125366732Y-83534724D01*
X125363643Y-83524543D01*
X125342396Y-83454499D01*
X125254136Y-83289375D01*
X125254131Y-83289368D01*
X125149909Y-83162375D01*
X125135357Y-83144643D01*
X125067282Y-83088775D01*
X124990631Y-83025868D01*
X124990624Y-83025863D01*
X124825502Y-82937604D01*
X124646331Y-82883253D01*
X124460000Y-82864901D01*
X124273668Y-82883253D01*
X124273667Y-82883253D01*
X124094497Y-82937604D01*
X123929375Y-83025863D01*
X123929368Y-83025868D01*
X123784643Y-83144643D01*
X123665868Y-83289368D01*
X123665863Y-83289375D01*
X123577604Y-83454497D01*
X123523253Y-83633667D01*
X123523253Y-83633668D01*
X123504901Y-83819999D01*
X123504901Y-83820000D01*
X123523253Y-84006331D01*
X123523253Y-84006332D01*
X123577604Y-84185502D01*
X123665863Y-84350624D01*
X123665868Y-84350631D01*
X123680416Y-84368357D01*
X123784643Y-84495357D01*
X123844453Y-84544442D01*
X123929368Y-84614131D01*
X123929375Y-84614136D01*
X124094499Y-84702396D01*
X124273669Y-84756747D01*
X124460000Y-84775099D01*
X124646331Y-84756747D01*
X124825501Y-84702396D01*
X124990625Y-84614136D01*
X125135357Y-84495357D01*
X125254136Y-84350625D01*
X125342396Y-84185501D01*
X125366732Y-84105276D01*
X125390524Y-84076286D01*
X125413622Y-84070500D01*
X125605943Y-84070500D01*
X125640591Y-84084852D01*
X125973148Y-84417409D01*
X125987500Y-84452057D01*
X125987500Y-86917829D01*
X125989319Y-86922220D01*
X126025636Y-87009897D01*
X126025637Y-87009898D01*
X126025638Y-87009900D01*
X126388100Y-87372362D01*
X126388101Y-87372362D01*
X126388103Y-87372364D01*
X126480172Y-87410500D01*
X126480174Y-87410500D01*
X137209826Y-87410500D01*
X137209828Y-87410500D01*
X137301897Y-87372364D01*
X137301901Y-87372359D01*
X137305913Y-87369681D01*
X137307209Y-87371621D01*
X137334058Y-87360500D01*
X137520776Y-87360500D01*
X137555424Y-87374852D01*
X137566044Y-87390746D01*
X137571321Y-87403485D01*
X137571324Y-87403492D01*
X137574895Y-87410500D01*
X137578838Y-87418238D01*
X137628419Y-87460583D01*
X137659532Y-87473470D01*
X137699904Y-87481500D01*
X137761303Y-87481500D01*
X137795951Y-87495852D01*
X137810303Y-87530500D01*
X137806571Y-87549256D01*
X137805731Y-87551281D01*
X137797000Y-87595176D01*
X137797000Y-87823443D01*
X137782648Y-87858091D01*
X137005591Y-88635148D01*
X136970943Y-88649500D01*
X125413622Y-88649500D01*
X125378974Y-88635148D01*
X125366732Y-88614724D01*
X125361340Y-88596948D01*
X125342396Y-88534499D01*
X125254136Y-88369375D01*
X125254131Y-88369368D01*
X125149909Y-88242375D01*
X125135357Y-88224643D01*
X125067282Y-88168775D01*
X124990631Y-88105868D01*
X124990624Y-88105863D01*
X124825502Y-88017604D01*
X124646331Y-87963253D01*
X124460000Y-87944901D01*
X124273668Y-87963253D01*
X124273667Y-87963253D01*
X124094497Y-88017604D01*
X123929375Y-88105863D01*
X123929368Y-88105868D01*
X123784643Y-88224643D01*
X123665868Y-88369368D01*
X123665863Y-88369375D01*
X123577604Y-88534497D01*
X123523253Y-88713667D01*
X123523253Y-88713668D01*
X123504901Y-88899999D01*
X123504901Y-88900000D01*
X123523253Y-89086331D01*
X123523253Y-89086332D01*
X123577604Y-89265502D01*
X123665863Y-89430624D01*
X123665868Y-89430631D01*
X123685442Y-89454481D01*
X123784643Y-89575357D01*
X123867590Y-89643430D01*
X123929368Y-89694131D01*
X123929375Y-89694136D01*
X124094499Y-89782396D01*
X124273669Y-89836747D01*
X124460000Y-89855099D01*
X124646331Y-89836747D01*
X124825501Y-89782396D01*
X124990625Y-89694136D01*
X125135357Y-89575357D01*
X125254136Y-89430625D01*
X125342396Y-89265501D01*
X125366732Y-89185276D01*
X125390524Y-89156286D01*
X125413622Y-89150500D01*
X137144826Y-89150500D01*
X137144828Y-89150500D01*
X137236897Y-89112364D01*
X137820609Y-88528650D01*
X137855256Y-88514299D01*
X137882479Y-88522558D01*
X137888259Y-88526420D01*
X137892094Y-88528983D01*
X137912928Y-88560166D01*
X137905609Y-88596948D01*
X137899517Y-88604371D01*
X135328741Y-91175148D01*
X135294093Y-91189500D01*
X125413622Y-91189500D01*
X125378974Y-91175148D01*
X125366732Y-91154724D01*
X125361912Y-91138835D01*
X125342396Y-91074499D01*
X125254136Y-90909375D01*
X125254131Y-90909368D01*
X125203430Y-90847590D01*
X125135357Y-90764643D01*
X125056055Y-90699561D01*
X124990631Y-90645868D01*
X124990624Y-90645863D01*
X124825502Y-90557604D01*
X124646331Y-90503253D01*
X124460000Y-90484901D01*
X124273668Y-90503253D01*
X124273667Y-90503253D01*
X124094497Y-90557604D01*
X123929375Y-90645863D01*
X123929368Y-90645868D01*
X123784643Y-90764643D01*
X123665868Y-90909368D01*
X123665863Y-90909375D01*
X123577604Y-91074497D01*
X123523253Y-91253667D01*
X123523253Y-91253668D01*
X123504901Y-91439999D01*
X123504901Y-91440000D01*
X123523253Y-91626331D01*
X123523253Y-91626332D01*
X123577604Y-91805502D01*
X123665863Y-91970624D01*
X123665868Y-91970631D01*
X123680416Y-91988357D01*
X123784643Y-92115357D01*
X123867590Y-92183430D01*
X123929368Y-92234131D01*
X123929375Y-92234136D01*
X124094499Y-92322396D01*
X124273669Y-92376747D01*
X124460000Y-92395099D01*
X124646331Y-92376747D01*
X124825501Y-92322396D01*
X124990625Y-92234136D01*
X125135357Y-92115357D01*
X125254136Y-91970625D01*
X125342396Y-91805501D01*
X125366732Y-91725276D01*
X125390524Y-91696286D01*
X125413622Y-91690500D01*
X135467976Y-91690500D01*
X135467978Y-91690500D01*
X135560047Y-91652364D01*
X138463352Y-88749059D01*
X138498000Y-88734707D01*
X138532648Y-88749059D01*
X138547000Y-88783707D01*
X138547000Y-88916443D01*
X138532648Y-88951091D01*
X133768591Y-93715148D01*
X133733943Y-93729500D01*
X125413622Y-93729500D01*
X125378974Y-93715148D01*
X125366732Y-93694724D01*
X125363643Y-93684543D01*
X125342396Y-93614499D01*
X125254136Y-93449375D01*
X125254131Y-93449368D01*
X125203007Y-93387075D01*
X125135357Y-93304643D01*
X125067282Y-93248775D01*
X124990631Y-93185868D01*
X124990624Y-93185863D01*
X124825502Y-93097604D01*
X124646331Y-93043253D01*
X124460000Y-93024901D01*
X124273668Y-93043253D01*
X124273667Y-93043253D01*
X124094497Y-93097604D01*
X123929375Y-93185863D01*
X123929368Y-93185868D01*
X123784643Y-93304643D01*
X123665868Y-93449368D01*
X123665863Y-93449375D01*
X123577604Y-93614497D01*
X123523253Y-93793667D01*
X123523253Y-93793668D01*
X123504901Y-93979999D01*
X123504901Y-93980000D01*
X123523253Y-94166331D01*
X123523253Y-94166332D01*
X123577604Y-94345502D01*
X123665863Y-94510624D01*
X123665868Y-94510631D01*
X123728775Y-94587282D01*
X123784643Y-94655357D01*
X123839010Y-94699975D01*
X123929368Y-94774131D01*
X123929375Y-94774136D01*
X124094499Y-94862396D01*
X124273669Y-94916747D01*
X124460000Y-94935099D01*
X124646331Y-94916747D01*
X124825501Y-94862396D01*
X124990625Y-94774136D01*
X125135357Y-94655357D01*
X125254136Y-94510625D01*
X125342396Y-94345501D01*
X125366732Y-94265276D01*
X125390524Y-94236286D01*
X125413622Y-94230500D01*
X133907826Y-94230500D01*
X133907828Y-94230500D01*
X133999897Y-94192364D01*
X138863352Y-89328906D01*
X138898000Y-89314555D01*
X138932648Y-89328907D01*
X138947000Y-89363555D01*
X138947000Y-89532443D01*
X138932648Y-89567091D01*
X132244591Y-96255148D01*
X132209943Y-96269500D01*
X125413622Y-96269500D01*
X125378974Y-96255148D01*
X125366732Y-96234724D01*
X125363643Y-96224543D01*
X125342396Y-96154499D01*
X125254136Y-95989375D01*
X125254131Y-95989368D01*
X125195934Y-95918456D01*
X125135357Y-95844643D01*
X125067282Y-95788775D01*
X124990631Y-95725868D01*
X124990624Y-95725863D01*
X124825502Y-95637604D01*
X124646331Y-95583253D01*
X124460000Y-95564901D01*
X124273668Y-95583253D01*
X124273667Y-95583253D01*
X124094497Y-95637604D01*
X123929375Y-95725863D01*
X123929368Y-95725868D01*
X123784643Y-95844643D01*
X123665868Y-95989368D01*
X123665863Y-95989375D01*
X123577604Y-96154497D01*
X123523253Y-96333667D01*
X123523253Y-96333668D01*
X123504901Y-96519999D01*
X123504901Y-96520000D01*
X123523253Y-96706331D01*
X123523253Y-96706332D01*
X123577604Y-96885502D01*
X123665863Y-97050624D01*
X123665868Y-97050631D01*
X123728775Y-97127282D01*
X123784643Y-97195357D01*
X123867590Y-97263430D01*
X123929368Y-97314131D01*
X123929375Y-97314136D01*
X124094499Y-97402396D01*
X124273669Y-97456747D01*
X124460000Y-97475099D01*
X124646331Y-97456747D01*
X124825501Y-97402396D01*
X124990625Y-97314136D01*
X125135357Y-97195357D01*
X125254136Y-97050625D01*
X125342396Y-96885501D01*
X125366732Y-96805276D01*
X125390524Y-96776286D01*
X125413622Y-96770500D01*
X132383826Y-96770500D01*
X132383828Y-96770500D01*
X132475897Y-96732364D01*
X139332504Y-89875754D01*
X139332507Y-89875753D01*
X139339396Y-89868864D01*
X139339397Y-89868864D01*
X139409864Y-89798397D01*
X139428770Y-89752754D01*
X139448001Y-89706328D01*
X139448001Y-89606672D01*
X139448001Y-89602729D01*
X139448000Y-89602715D01*
X139448000Y-88983457D01*
X139462352Y-88948809D01*
X139497000Y-88934457D01*
X139497161Y-88934466D01*
X139497500Y-88934166D01*
X139497500Y-87946500D01*
X139511852Y-87911852D01*
X139546500Y-87897500D01*
X139648500Y-87897500D01*
X139683148Y-87911852D01*
X139697500Y-87946500D01*
X139697500Y-88934165D01*
X139742158Y-88928803D01*
X139778270Y-88938921D01*
X139796650Y-88971611D01*
X139797000Y-88977453D01*
X139797000Y-89675153D01*
X139782648Y-89709801D01*
X136905057Y-92587391D01*
X136898520Y-92592287D01*
X136898715Y-92592548D01*
X136780811Y-92680811D01*
X136692548Y-92798715D01*
X136692287Y-92798520D01*
X136687392Y-92805057D01*
X136630659Y-92861790D01*
X136573926Y-92918524D01*
X136554950Y-92937500D01*
X136517524Y-92974925D01*
X136487000Y-93048616D01*
X136487000Y-93048618D01*
X136487000Y-94991618D01*
X136487000Y-95071382D01*
X136517524Y-95145074D01*
X136517525Y-95145075D01*
X136517525Y-95145076D01*
X136821228Y-95448777D01*
X136821231Y-95448781D01*
X136821232Y-95448781D01*
X136824023Y-95451572D01*
X136824024Y-95451574D01*
X136880426Y-95507976D01*
X136925449Y-95526625D01*
X136954117Y-95538500D01*
X136954118Y-95538500D01*
X136988501Y-95538500D01*
X137023149Y-95552852D01*
X137037501Y-95587500D01*
X137037501Y-95947898D01*
X137043331Y-95977213D01*
X137043331Y-95977214D01*
X137043332Y-95977215D01*
X137043332Y-95977216D01*
X137065542Y-96010456D01*
X137065543Y-96010457D01*
X137098787Y-96032669D01*
X137128101Y-96038500D01*
X138547898Y-96038499D01*
X138577213Y-96032669D01*
X138610457Y-96010457D01*
X138626909Y-95985834D01*
X138838000Y-95985834D01*
X138844401Y-96045372D01*
X138844401Y-96045373D01*
X138894648Y-96180091D01*
X138980811Y-96295188D01*
X139095908Y-96381351D01*
X139230626Y-96431598D01*
X139290166Y-96438000D01*
X139788000Y-96438000D01*
X140288000Y-96438000D01*
X140785834Y-96438000D01*
X140845372Y-96431598D01*
X140845373Y-96431598D01*
X140980091Y-96381351D01*
X141095188Y-96295188D01*
X141181351Y-96180091D01*
X141231598Y-96045373D01*
X141231598Y-96045372D01*
X141238000Y-95985834D01*
X141238000Y-95588000D01*
X140288000Y-95588000D01*
X140288000Y-96438000D01*
X139788000Y-96438000D01*
X139788000Y-95588000D01*
X138838000Y-95588000D01*
X138838000Y-95985834D01*
X138626909Y-95985834D01*
X138632669Y-95977213D01*
X138638500Y-95947899D01*
X138638499Y-94768183D01*
X138652851Y-94733536D01*
X138670375Y-94722273D01*
X138771876Y-94684415D01*
X138809355Y-94685754D01*
X138834911Y-94713202D01*
X138838000Y-94730326D01*
X138838000Y-95088000D01*
X141238000Y-95088000D01*
X141238000Y-94690165D01*
X141231598Y-94630627D01*
X141231598Y-94630626D01*
X141181351Y-94495908D01*
X141095188Y-94380811D01*
X140980090Y-94294647D01*
X140980086Y-94294645D01*
X140870375Y-94253725D01*
X140842927Y-94228170D01*
X140838499Y-94207819D01*
X140838499Y-93028102D01*
X140832669Y-92998787D01*
X140832667Y-92998784D01*
X140832667Y-92998783D01*
X140810457Y-92965543D01*
X140777212Y-92943330D01*
X140747904Y-92937500D01*
X140747899Y-92937500D01*
X140647000Y-92937500D01*
X140612352Y-92923148D01*
X140598000Y-92888500D01*
X140598000Y-92733038D01*
X140612352Y-92698390D01*
X140647000Y-92684038D01*
X140660671Y-92685984D01*
X140699086Y-92697145D01*
X140719999Y-92698790D01*
X140720000Y-92698790D01*
X141220000Y-92698790D01*
X141240913Y-92697145D01*
X141396196Y-92652031D01*
X141453056Y-92618403D01*
X141490185Y-92613118D01*
X141502944Y-92618403D01*
X141559803Y-92652031D01*
X141715088Y-92697145D01*
X141715084Y-92697145D01*
X141735999Y-92698790D01*
X141736000Y-92698790D01*
X142236000Y-92698790D01*
X142256913Y-92697145D01*
X142412198Y-92652030D01*
X142551373Y-92569722D01*
X142551378Y-92569718D01*
X142665718Y-92455378D01*
X142665722Y-92455373D01*
X142748031Y-92316197D01*
X142790505Y-92170000D01*
X142236000Y-92170000D01*
X142236000Y-92698790D01*
X141736000Y-92698790D01*
X141736000Y-92170000D01*
X141220000Y-92170000D01*
X141220000Y-92698790D01*
X140720000Y-92698790D01*
X140720000Y-92170000D01*
X140647000Y-92170000D01*
X140612352Y-92155648D01*
X140598000Y-92121000D01*
X140598000Y-91719000D01*
X140612352Y-91684352D01*
X140647000Y-91670000D01*
X142790505Y-91670000D01*
X142790505Y-91669999D01*
X142748031Y-91523802D01*
X142665722Y-91384626D01*
X142665718Y-91384621D01*
X142551378Y-91270281D01*
X142551373Y-91270277D01*
X142416601Y-91190573D01*
X142394083Y-91160583D01*
X142393486Y-91138838D01*
X142396500Y-91123688D01*
X142396500Y-90977632D01*
X142410852Y-90942984D01*
X142445500Y-90928632D01*
X142480148Y-90942984D01*
X143753148Y-92215984D01*
X143767500Y-92250632D01*
X143767500Y-94042377D01*
X143753148Y-94077025D01*
X143732725Y-94089267D01*
X143652496Y-94113605D01*
X143487375Y-94201863D01*
X143487368Y-94201868D01*
X143342643Y-94320643D01*
X143223868Y-94465368D01*
X143223863Y-94465375D01*
X143135604Y-94630497D01*
X143081253Y-94809667D01*
X143081253Y-94809668D01*
X143062901Y-94995999D01*
X143062901Y-94996000D01*
X143081253Y-95182331D01*
X143081253Y-95182332D01*
X143135604Y-95361502D01*
X143223863Y-95526624D01*
X143223868Y-95526631D01*
X143273823Y-95587500D01*
X143342643Y-95671357D01*
X143409060Y-95725864D01*
X143487368Y-95790131D01*
X143487375Y-95790136D01*
X143652499Y-95878396D01*
X143831669Y-95932747D01*
X144018000Y-95951099D01*
X144204331Y-95932747D01*
X144383501Y-95878396D01*
X144548625Y-95790136D01*
X144693357Y-95671357D01*
X144812136Y-95526625D01*
X144900396Y-95361501D01*
X144954747Y-95182331D01*
X144973099Y-94996000D01*
X144954747Y-94809669D01*
X144900396Y-94630499D01*
X144812136Y-94465375D01*
X144812131Y-94465368D01*
X144742736Y-94380811D01*
X144693357Y-94320643D01*
X144604719Y-94247899D01*
X144548631Y-94201868D01*
X144548624Y-94201863D01*
X144383503Y-94113605D01*
X144383502Y-94113604D01*
X144383501Y-94113604D01*
X144303275Y-94089267D01*
X144274286Y-94065475D01*
X144268500Y-94042377D01*
X144268500Y-92283946D01*
X144282852Y-92249298D01*
X144317500Y-92234946D01*
X144352148Y-92249298D01*
X146064702Y-93961852D01*
X146079054Y-93996500D01*
X146064702Y-94031148D01*
X146030054Y-94045500D01*
X145698105Y-94045500D01*
X145698104Y-94045500D01*
X145698102Y-94045501D01*
X145668787Y-94051331D01*
X145668786Y-94051331D01*
X145668784Y-94051332D01*
X145668783Y-94051332D01*
X145635543Y-94073542D01*
X145613330Y-94106786D01*
X145613330Y-94106787D01*
X145607500Y-94136095D01*
X145607500Y-95855894D01*
X145607501Y-95855898D01*
X145613331Y-95885213D01*
X145613331Y-95885214D01*
X145613332Y-95885215D01*
X145613332Y-95885216D01*
X145635542Y-95918456D01*
X145635543Y-95918457D01*
X145668787Y-95940669D01*
X145698101Y-95946500D01*
X147417898Y-95946499D01*
X147447213Y-95940669D01*
X147480457Y-95918457D01*
X147502669Y-95885213D01*
X147508500Y-95855899D01*
X147508499Y-94136102D01*
X147502669Y-94106787D01*
X147502667Y-94106784D01*
X147502667Y-94106783D01*
X147480457Y-94073543D01*
X147447212Y-94051330D01*
X147417904Y-94045500D01*
X147417899Y-94045500D01*
X146838937Y-94045500D01*
X146804289Y-94031148D01*
X146793667Y-94015252D01*
X146793636Y-94015178D01*
X146770364Y-93958993D01*
X146770362Y-93958991D01*
X146770362Y-93958990D01*
X146697107Y-93885736D01*
X146697100Y-93885730D01*
X146414369Y-93602999D01*
X153609363Y-93602999D01*
X153609364Y-93603000D01*
X154506988Y-93603000D01*
X154474075Y-93660007D01*
X154440000Y-93787174D01*
X154440000Y-93918826D01*
X154474075Y-94045993D01*
X154506988Y-94103000D01*
X153609363Y-94103000D01*
X153666566Y-94316483D01*
X153666568Y-94316488D01*
X153766398Y-94530577D01*
X153766405Y-94530589D01*
X153901885Y-94724072D01*
X153901891Y-94724079D01*
X154068920Y-94891108D01*
X154068927Y-94891114D01*
X154262410Y-95026594D01*
X154262422Y-95026601D01*
X154373915Y-95078591D01*
X154399252Y-95106241D01*
X154397616Y-95143708D01*
X154373916Y-95167409D01*
X154262419Y-95219401D01*
X154262411Y-95219405D01*
X154068927Y-95354885D01*
X154068920Y-95354891D01*
X153901891Y-95521920D01*
X153901885Y-95521927D01*
X153766405Y-95715411D01*
X153766398Y-95715423D01*
X153666567Y-95929511D01*
X153666566Y-95929516D01*
X153609363Y-96142999D01*
X153609364Y-96143000D01*
X154506988Y-96143000D01*
X154474075Y-96200007D01*
X154440000Y-96327174D01*
X154440000Y-96458826D01*
X154474075Y-96585993D01*
X154506988Y-96643000D01*
X153609363Y-96643000D01*
X153666566Y-96856483D01*
X153666568Y-96856488D01*
X153766398Y-97070577D01*
X153766405Y-97070589D01*
X153901885Y-97264072D01*
X153901891Y-97264079D01*
X154068920Y-97431108D01*
X154068927Y-97431114D01*
X154262410Y-97566594D01*
X154262422Y-97566601D01*
X154476511Y-97666431D01*
X154476516Y-97666433D01*
X154690000Y-97723634D01*
X154690000Y-96826012D01*
X154747007Y-96858925D01*
X154874174Y-96893000D01*
X155005826Y-96893000D01*
X155132993Y-96858925D01*
X155190000Y-96826012D01*
X155190000Y-97723634D01*
X155403483Y-97666433D01*
X155403488Y-97666431D01*
X155617577Y-97566601D01*
X155617589Y-97566594D01*
X155811072Y-97431114D01*
X155811079Y-97431108D01*
X155978108Y-97264079D01*
X155978114Y-97264072D01*
X156113594Y-97070589D01*
X156113601Y-97070577D01*
X156213431Y-96856488D01*
X156213433Y-96856483D01*
X156270636Y-96643000D01*
X155373012Y-96643000D01*
X155405925Y-96585993D01*
X155440000Y-96458826D01*
X155440000Y-96327174D01*
X155405925Y-96200007D01*
X155373012Y-96143000D01*
X156270636Y-96143000D01*
X156270636Y-96142999D01*
X156213433Y-95929516D01*
X156213432Y-95929511D01*
X156113601Y-95715423D01*
X156113594Y-95715411D01*
X155978114Y-95521927D01*
X155978108Y-95521920D01*
X155811079Y-95354891D01*
X155811072Y-95354885D01*
X155617589Y-95219405D01*
X155617577Y-95219399D01*
X155506083Y-95167409D01*
X155480746Y-95139759D01*
X155482382Y-95102292D01*
X155506083Y-95078591D01*
X155617577Y-95026600D01*
X155617589Y-95026594D01*
X155811072Y-94891114D01*
X155811079Y-94891108D01*
X155978108Y-94724079D01*
X155978114Y-94724072D01*
X156113594Y-94530589D01*
X156113601Y-94530577D01*
X156213431Y-94316488D01*
X156213433Y-94316483D01*
X156270636Y-94103000D01*
X155373012Y-94103000D01*
X155405925Y-94045993D01*
X155440000Y-93918826D01*
X155440000Y-93787174D01*
X155405925Y-93660007D01*
X155373012Y-93603000D01*
X156270636Y-93603000D01*
X156270636Y-93602999D01*
X156213433Y-93389516D01*
X156213432Y-93389511D01*
X156113601Y-93175423D01*
X156113594Y-93175411D01*
X155978114Y-92981927D01*
X155978108Y-92981920D01*
X155811079Y-92814891D01*
X155811072Y-92814885D01*
X155617589Y-92679405D01*
X155617577Y-92679398D01*
X155403488Y-92579568D01*
X155403483Y-92579566D01*
X155190000Y-92522363D01*
X155190000Y-93419988D01*
X155132993Y-93387075D01*
X155005826Y-93353000D01*
X154874174Y-93353000D01*
X154747007Y-93387075D01*
X154690000Y-93419988D01*
X154690000Y-92522363D01*
X154689999Y-92522363D01*
X154476516Y-92579566D01*
X154476511Y-92579567D01*
X154262423Y-92679398D01*
X154262411Y-92679405D01*
X154068927Y-92814885D01*
X154068920Y-92814891D01*
X153901891Y-92981920D01*
X153901885Y-92981927D01*
X153766405Y-93175411D01*
X153766398Y-93175423D01*
X153666567Y-93389511D01*
X153666566Y-93389516D01*
X153609363Y-93602999D01*
X146414369Y-93602999D01*
X142262352Y-89450981D01*
X142248000Y-89416333D01*
X142248000Y-89077557D01*
X142262352Y-89042909D01*
X142297000Y-89028557D01*
X142331648Y-89042909D01*
X143346636Y-90057897D01*
X143417100Y-90128362D01*
X143417101Y-90128362D01*
X143417103Y-90128364D01*
X143509172Y-90166500D01*
X143974550Y-90166500D01*
X144009198Y-90180852D01*
X144015292Y-90188277D01*
X144062808Y-90259391D01*
X144115724Y-90294748D01*
X144142361Y-90312546D01*
X144142363Y-90312547D01*
X144212506Y-90326499D01*
X144212512Y-90326500D01*
X144539887Y-90326500D01*
X144539888Y-90326500D01*
X144555037Y-90323486D01*
X144591818Y-90330800D01*
X144606773Y-90346601D01*
X144686477Y-90481373D01*
X144686481Y-90481378D01*
X144800821Y-90595718D01*
X144800826Y-90595722D01*
X144940002Y-90678031D01*
X145086199Y-90720505D01*
X145586200Y-90720505D01*
X145732397Y-90678031D01*
X145871573Y-90595722D01*
X145871578Y-90595718D01*
X145985918Y-90481378D01*
X145985922Y-90481373D01*
X146068230Y-90342198D01*
X146113345Y-90186914D01*
X146113345Y-90186913D01*
X146114991Y-90166000D01*
X145586200Y-90166000D01*
X145586200Y-90720505D01*
X145086199Y-90720505D01*
X145086200Y-90720504D01*
X145086200Y-89715000D01*
X145100552Y-89680352D01*
X145135200Y-89666000D01*
X146114990Y-89666000D01*
X146114990Y-89665999D01*
X146113345Y-89645086D01*
X146067372Y-89486845D01*
X146069081Y-89486348D01*
X146068567Y-89454481D01*
X146094655Y-89427538D01*
X146114134Y-89423500D01*
X151482143Y-89423500D01*
X151516791Y-89437852D01*
X153604300Y-91525362D01*
X153604301Y-91525362D01*
X153604303Y-91525364D01*
X153696372Y-91563500D01*
X153796028Y-91563500D01*
X153986378Y-91563500D01*
X154021026Y-91577852D01*
X154033268Y-91598276D01*
X154057604Y-91678501D01*
X154057605Y-91678502D01*
X154057608Y-91678509D01*
X154145863Y-91843624D01*
X154145868Y-91843631D01*
X154208775Y-91920282D01*
X154264643Y-91988357D01*
X154347590Y-92056430D01*
X154409368Y-92107131D01*
X154409375Y-92107136D01*
X154574499Y-92195396D01*
X154753669Y-92249747D01*
X154940000Y-92268099D01*
X155126331Y-92249747D01*
X155305501Y-92195396D01*
X155470625Y-92107136D01*
X155615357Y-91988357D01*
X155734136Y-91843625D01*
X155822396Y-91678501D01*
X155876747Y-91499331D01*
X155895099Y-91313000D01*
X155876747Y-91126669D01*
X155822396Y-90947499D01*
X155812311Y-90928632D01*
X155734136Y-90782375D01*
X155734131Y-90782368D01*
X155666172Y-90699561D01*
X155615357Y-90637643D01*
X155544510Y-90579500D01*
X155470631Y-90518868D01*
X155470624Y-90518863D01*
X155305502Y-90430604D01*
X155126331Y-90376253D01*
X154940000Y-90357901D01*
X154753668Y-90376253D01*
X154753667Y-90376253D01*
X154574497Y-90430604D01*
X154409375Y-90518863D01*
X154409368Y-90518868D01*
X154264643Y-90637643D01*
X154145868Y-90782368D01*
X154145863Y-90782375D01*
X154057608Y-90947490D01*
X154057603Y-90947502D01*
X154033268Y-91027724D01*
X154009476Y-91056714D01*
X153986378Y-91062500D01*
X153870257Y-91062500D01*
X153835609Y-91048148D01*
X151894609Y-89107148D01*
X151880257Y-89072500D01*
X151894609Y-89037852D01*
X151929257Y-89023500D01*
X153986378Y-89023500D01*
X154021026Y-89037852D01*
X154033268Y-89058276D01*
X154057604Y-89138501D01*
X154057605Y-89138502D01*
X154057608Y-89138509D01*
X154145863Y-89303624D01*
X154145868Y-89303631D01*
X154166612Y-89328907D01*
X154264643Y-89448357D01*
X154311541Y-89486845D01*
X154409368Y-89567131D01*
X154409375Y-89567136D01*
X154483336Y-89606669D01*
X154574499Y-89655396D01*
X154753669Y-89709747D01*
X154940000Y-89728099D01*
X155126331Y-89709747D01*
X155305501Y-89655396D01*
X155470625Y-89567136D01*
X155615357Y-89448357D01*
X155734136Y-89303625D01*
X155822396Y-89138501D01*
X155876747Y-88959331D01*
X155895099Y-88773000D01*
X155876747Y-88586669D01*
X155822396Y-88407499D01*
X155734136Y-88242375D01*
X155734131Y-88242368D01*
X155675483Y-88170907D01*
X155615357Y-88097643D01*
X155517830Y-88017604D01*
X155470631Y-87978868D01*
X155470624Y-87978863D01*
X155305502Y-87890604D01*
X155126331Y-87836253D01*
X154940000Y-87817901D01*
X154753668Y-87836253D01*
X154753667Y-87836253D01*
X154574497Y-87890604D01*
X154409375Y-87978863D01*
X154409368Y-87978868D01*
X154264643Y-88097643D01*
X154145868Y-88242368D01*
X154145863Y-88242375D01*
X154057608Y-88407490D01*
X154057603Y-88407502D01*
X154033268Y-88487724D01*
X154009476Y-88516714D01*
X153986378Y-88522500D01*
X143799593Y-88522500D01*
X143764945Y-88508148D01*
X143462352Y-88205555D01*
X143448000Y-88170907D01*
X143448000Y-87947674D01*
X143447999Y-87947670D01*
X143409864Y-87855603D01*
X143409862Y-87855601D01*
X143407181Y-87851587D01*
X143409121Y-87850290D01*
X143398000Y-87823442D01*
X143398000Y-87595180D01*
X143397999Y-87595176D01*
X143389267Y-87551278D01*
X143356004Y-87501495D01*
X143306221Y-87468232D01*
X143262323Y-87459500D01*
X143262320Y-87459500D01*
X143217521Y-87459500D01*
X143182873Y-87445148D01*
X143168521Y-87410500D01*
X143170471Y-87396813D01*
X143177581Y-87372372D01*
X143430888Y-86501631D01*
X143454346Y-86472373D01*
X143491624Y-86468270D01*
X143518679Y-86488098D01*
X143538995Y-86518504D01*
X143540126Y-86519260D01*
X143540880Y-86520389D01*
X143542408Y-86521917D01*
X143542104Y-86522220D01*
X143560959Y-86550444D01*
X143553640Y-86587226D01*
X143540126Y-86600740D01*
X143538995Y-86601495D01*
X143505732Y-86651278D01*
X143497000Y-86695176D01*
X143497000Y-86824823D01*
X143505732Y-86868721D01*
X143538995Y-86918504D01*
X143540126Y-86919260D01*
X143540880Y-86920389D01*
X143542408Y-86921917D01*
X143542104Y-86922220D01*
X143560959Y-86950444D01*
X143553640Y-86987226D01*
X143540126Y-87000740D01*
X143538995Y-87001495D01*
X143505732Y-87051278D01*
X143497000Y-87095176D01*
X143497000Y-87224823D01*
X143505732Y-87268721D01*
X143538995Y-87318504D01*
X143588778Y-87351767D01*
X143632680Y-87360500D01*
X143860942Y-87360500D01*
X143887790Y-87371621D01*
X143889087Y-87369681D01*
X143893101Y-87372362D01*
X143893103Y-87372364D01*
X143985172Y-87410500D01*
X143985174Y-87410500D01*
X151522826Y-87410500D01*
X151522828Y-87410500D01*
X151614897Y-87372364D01*
X153004261Y-85982999D01*
X153609363Y-85982999D01*
X153609364Y-85983000D01*
X154506988Y-85983000D01*
X154474075Y-86040007D01*
X154440000Y-86167174D01*
X154440000Y-86298826D01*
X154474075Y-86425993D01*
X154506988Y-86483000D01*
X153609363Y-86483000D01*
X153666566Y-86696483D01*
X153666568Y-86696488D01*
X153766398Y-86910577D01*
X153766405Y-86910589D01*
X153901885Y-87104072D01*
X153901891Y-87104079D01*
X154068920Y-87271108D01*
X154068927Y-87271114D01*
X154262410Y-87406594D01*
X154262422Y-87406601D01*
X154476511Y-87506431D01*
X154476516Y-87506433D01*
X154690000Y-87563634D01*
X154690000Y-86666012D01*
X154747007Y-86698925D01*
X154874174Y-86733000D01*
X155005826Y-86733000D01*
X155132993Y-86698925D01*
X155190000Y-86666012D01*
X155190000Y-87563634D01*
X155403483Y-87506433D01*
X155403488Y-87506431D01*
X155617577Y-87406601D01*
X155617589Y-87406594D01*
X155811072Y-87271114D01*
X155811079Y-87271108D01*
X155978108Y-87104079D01*
X155978114Y-87104072D01*
X156113594Y-86910589D01*
X156113601Y-86910577D01*
X156213431Y-86696488D01*
X156213433Y-86696483D01*
X156270636Y-86483000D01*
X155373012Y-86483000D01*
X155405925Y-86425993D01*
X155440000Y-86298826D01*
X155440000Y-86167174D01*
X155405925Y-86040007D01*
X155373012Y-85983000D01*
X156270636Y-85983000D01*
X156270636Y-85982999D01*
X156213433Y-85769516D01*
X156213432Y-85769511D01*
X156113601Y-85555423D01*
X156113594Y-85555411D01*
X155978114Y-85361927D01*
X155978108Y-85361920D01*
X155811079Y-85194891D01*
X155811072Y-85194885D01*
X155617589Y-85059405D01*
X155617577Y-85059398D01*
X155403488Y-84959568D01*
X155403483Y-84959566D01*
X155190000Y-84902363D01*
X155190000Y-85799988D01*
X155132993Y-85767075D01*
X155005826Y-85733000D01*
X154874174Y-85733000D01*
X154747007Y-85767075D01*
X154690000Y-85799988D01*
X154690000Y-84902363D01*
X154689999Y-84902363D01*
X154476516Y-84959566D01*
X154476511Y-84959567D01*
X154262423Y-85059398D01*
X154262411Y-85059405D01*
X154068927Y-85194885D01*
X154068920Y-85194891D01*
X153901891Y-85361920D01*
X153901885Y-85361927D01*
X153766405Y-85555411D01*
X153766398Y-85555423D01*
X153666567Y-85769511D01*
X153666566Y-85769516D01*
X153609363Y-85982999D01*
X153004261Y-85982999D01*
X154442818Y-84544441D01*
X154477465Y-84530090D01*
X154500560Y-84535875D01*
X154574499Y-84575396D01*
X154753669Y-84629747D01*
X154940000Y-84648099D01*
X155126331Y-84629747D01*
X155305501Y-84575396D01*
X155470625Y-84487136D01*
X155615357Y-84368357D01*
X155734136Y-84223625D01*
X155822396Y-84058501D01*
X155876747Y-83879331D01*
X155895099Y-83693000D01*
X155876747Y-83506669D01*
X155822396Y-83327499D01*
X155734136Y-83162375D01*
X155734131Y-83162368D01*
X155683430Y-83100590D01*
X155615357Y-83017643D01*
X155517830Y-82937604D01*
X155470631Y-82898868D01*
X155470624Y-82898863D01*
X155305502Y-82810604D01*
X155126331Y-82756253D01*
X154940000Y-82737901D01*
X154753668Y-82756253D01*
X154753667Y-82756253D01*
X154574497Y-82810604D01*
X154409375Y-82898863D01*
X154409368Y-82898868D01*
X154264643Y-83017643D01*
X154145868Y-83162368D01*
X154145863Y-83162375D01*
X154057604Y-83327497D01*
X154003253Y-83506667D01*
X154003253Y-83506668D01*
X153984901Y-83692999D01*
X153984901Y-83693000D01*
X154003253Y-83879331D01*
X154003253Y-83879332D01*
X154057604Y-84058502D01*
X154097122Y-84132435D01*
X154100798Y-84169757D01*
X154088556Y-84190181D01*
X153750148Y-84528590D01*
X153715500Y-84542942D01*
X153680852Y-84528590D01*
X153666500Y-84493942D01*
X153666500Y-82801056D01*
X153680851Y-82766409D01*
X154442818Y-82004441D01*
X154477465Y-81990090D01*
X154500560Y-81995875D01*
X154574499Y-82035396D01*
X154753669Y-82089747D01*
X154940000Y-82108099D01*
X155126331Y-82089747D01*
X155305501Y-82035396D01*
X155470625Y-81947136D01*
X155615357Y-81828357D01*
X155734136Y-81683625D01*
X155822396Y-81518501D01*
X155876747Y-81339331D01*
X155895099Y-81153000D01*
X155876747Y-80966669D01*
X155822396Y-80787499D01*
X155734136Y-80622375D01*
X155734131Y-80622368D01*
X155659682Y-80531653D01*
X155615357Y-80477643D01*
X155536596Y-80413005D01*
X155470631Y-80358868D01*
X155470624Y-80358863D01*
X155305502Y-80270604D01*
X155126331Y-80216253D01*
X154940000Y-80197901D01*
X154753668Y-80216253D01*
X154753667Y-80216253D01*
X154574497Y-80270604D01*
X154409375Y-80358863D01*
X154409368Y-80358868D01*
X154264643Y-80477643D01*
X154145868Y-80622368D01*
X154145863Y-80622375D01*
X154057604Y-80787497D01*
X154003253Y-80966667D01*
X154003253Y-80966668D01*
X153984901Y-81152999D01*
X153984901Y-81153000D01*
X154003253Y-81339331D01*
X154003253Y-81339332D01*
X154057604Y-81518502D01*
X154097122Y-81592435D01*
X154100798Y-81629757D01*
X154088556Y-81650181D01*
X153350148Y-82388590D01*
X153315500Y-82402942D01*
X153280852Y-82388590D01*
X153266500Y-82353942D01*
X153266500Y-80661056D01*
X153280852Y-80626408D01*
X153861035Y-80046225D01*
X154442818Y-79464441D01*
X154477465Y-79450090D01*
X154500560Y-79455875D01*
X154574499Y-79495396D01*
X154753669Y-79549747D01*
X154940000Y-79568099D01*
X155126331Y-79549747D01*
X155305501Y-79495396D01*
X155470625Y-79407136D01*
X155615357Y-79288357D01*
X155734136Y-79143625D01*
X155822396Y-78978501D01*
X155876747Y-78799331D01*
X155895099Y-78613000D01*
X155876747Y-78426669D01*
X155822396Y-78247499D01*
X155734136Y-78082375D01*
X155734131Y-78082368D01*
X155662889Y-77995561D01*
X155615357Y-77937643D01*
X155517830Y-77857604D01*
X155470631Y-77818868D01*
X155470624Y-77818863D01*
X155305502Y-77730604D01*
X155126331Y-77676253D01*
X154940000Y-77657901D01*
X154753668Y-77676253D01*
X154753667Y-77676253D01*
X154574497Y-77730604D01*
X154409375Y-77818863D01*
X154409368Y-77818868D01*
X154264643Y-77937643D01*
X154145868Y-78082368D01*
X154145863Y-78082375D01*
X154057604Y-78247497D01*
X154003253Y-78426667D01*
X154003253Y-78426668D01*
X153984901Y-78612999D01*
X153984901Y-78613000D01*
X154003253Y-78799331D01*
X154003253Y-78799332D01*
X154057604Y-78978502D01*
X154097122Y-79052435D01*
X154100798Y-79089757D01*
X154088556Y-79110181D01*
X152950148Y-80248590D01*
X152915500Y-80262942D01*
X152880852Y-80248590D01*
X152866500Y-80213942D01*
X152866500Y-78521056D01*
X152880851Y-78486409D01*
X154442818Y-76924441D01*
X154477465Y-76910090D01*
X154500560Y-76915875D01*
X154574499Y-76955396D01*
X154753669Y-77009747D01*
X154940000Y-77028099D01*
X155126331Y-77009747D01*
X155305501Y-76955396D01*
X155470625Y-76867136D01*
X155615357Y-76748357D01*
X155734136Y-76603625D01*
X155822396Y-76438501D01*
X155876747Y-76259331D01*
X155895099Y-76073000D01*
X155876747Y-75886669D01*
X155822396Y-75707499D01*
X155818616Y-75700428D01*
X155734136Y-75542375D01*
X155734131Y-75542368D01*
X155653531Y-75444158D01*
X155615357Y-75397643D01*
X155517830Y-75317604D01*
X155470631Y-75278868D01*
X155470624Y-75278863D01*
X155305502Y-75190604D01*
X155126331Y-75136253D01*
X154940000Y-75117901D01*
X154753668Y-75136253D01*
X154753667Y-75136253D01*
X154574497Y-75190604D01*
X154409375Y-75278863D01*
X154409368Y-75278868D01*
X154264643Y-75397643D01*
X154145868Y-75542368D01*
X154145863Y-75542375D01*
X154057604Y-75707497D01*
X154003253Y-75886667D01*
X154003253Y-75886668D01*
X153984901Y-76072999D01*
X153984901Y-76073000D01*
X154003253Y-76259331D01*
X154003253Y-76259332D01*
X154057604Y-76438502D01*
X154097122Y-76512435D01*
X154100798Y-76549757D01*
X154088556Y-76570181D01*
X152550148Y-78108590D01*
X152515500Y-78122942D01*
X152480852Y-78108590D01*
X152466500Y-78073942D01*
X152466500Y-73841056D01*
X152480852Y-73806408D01*
X153004261Y-73282999D01*
X153609363Y-73282999D01*
X153609364Y-73283000D01*
X154506988Y-73283000D01*
X154474075Y-73340007D01*
X154440000Y-73467174D01*
X154440000Y-73598826D01*
X154474075Y-73725993D01*
X154506988Y-73783000D01*
X153609363Y-73783000D01*
X153666566Y-73996483D01*
X153666568Y-73996488D01*
X153766398Y-74210577D01*
X153766405Y-74210589D01*
X153901885Y-74404072D01*
X153901891Y-74404079D01*
X154068920Y-74571108D01*
X154068927Y-74571114D01*
X154262410Y-74706594D01*
X154262422Y-74706601D01*
X154476511Y-74806431D01*
X154476516Y-74806433D01*
X154690000Y-74863634D01*
X154690000Y-73966012D01*
X154747007Y-73998925D01*
X154874174Y-74033000D01*
X155005826Y-74033000D01*
X155132993Y-73998925D01*
X155190000Y-73966012D01*
X155190000Y-74863634D01*
X155403483Y-74806433D01*
X155403488Y-74806431D01*
X155617577Y-74706601D01*
X155617589Y-74706594D01*
X155811072Y-74571114D01*
X155811079Y-74571108D01*
X155978108Y-74404079D01*
X155978114Y-74404072D01*
X156113594Y-74210589D01*
X156113601Y-74210577D01*
X156213431Y-73996488D01*
X156213433Y-73996483D01*
X156270636Y-73783000D01*
X155373012Y-73783000D01*
X155405925Y-73725993D01*
X155440000Y-73598826D01*
X155440000Y-73467174D01*
X155405925Y-73340007D01*
X155373012Y-73283000D01*
X156270636Y-73283000D01*
X156270636Y-73282999D01*
X156213433Y-73069516D01*
X156213432Y-73069511D01*
X156113601Y-72855423D01*
X156113594Y-72855411D01*
X155978114Y-72661927D01*
X155978108Y-72661920D01*
X155811079Y-72494891D01*
X155811072Y-72494885D01*
X155617589Y-72359405D01*
X155617577Y-72359398D01*
X155403488Y-72259568D01*
X155403483Y-72259566D01*
X155190000Y-72202363D01*
X155190000Y-73099988D01*
X155132993Y-73067075D01*
X155005826Y-73033000D01*
X154874174Y-73033000D01*
X154747007Y-73067075D01*
X154690000Y-73099988D01*
X154690000Y-72202363D01*
X154689999Y-72202363D01*
X154476516Y-72259566D01*
X154476511Y-72259567D01*
X154262423Y-72359398D01*
X154262411Y-72359405D01*
X154068927Y-72494885D01*
X154068920Y-72494891D01*
X153901891Y-72661920D01*
X153901885Y-72661927D01*
X153766405Y-72855411D01*
X153766398Y-72855423D01*
X153666567Y-73069511D01*
X153666566Y-73069516D01*
X153609363Y-73282999D01*
X153004261Y-73282999D01*
X153461608Y-72825652D01*
X154442818Y-71844441D01*
X154477465Y-71830090D01*
X154500560Y-71835875D01*
X154574499Y-71875396D01*
X154753669Y-71929747D01*
X154940000Y-71948099D01*
X155126331Y-71929747D01*
X155305501Y-71875396D01*
X155470625Y-71787136D01*
X155615357Y-71668357D01*
X155734136Y-71523625D01*
X155822396Y-71358501D01*
X155876747Y-71179331D01*
X155895099Y-70993000D01*
X155876747Y-70806669D01*
X155822396Y-70627499D01*
X155734136Y-70462375D01*
X155734131Y-70462368D01*
X155683430Y-70400590D01*
X155615357Y-70317643D01*
X155517830Y-70237604D01*
X155470631Y-70198868D01*
X155470624Y-70198863D01*
X155305502Y-70110604D01*
X155126331Y-70056253D01*
X154940000Y-70037901D01*
X154753668Y-70056253D01*
X154753667Y-70056253D01*
X154574497Y-70110604D01*
X154409375Y-70198863D01*
X154409368Y-70198868D01*
X154264643Y-70317643D01*
X154145868Y-70462368D01*
X154145863Y-70462375D01*
X154057604Y-70627497D01*
X154003253Y-70806667D01*
X154003253Y-70806668D01*
X153984901Y-70992999D01*
X153984901Y-70993000D01*
X154003253Y-71179331D01*
X154003253Y-71179332D01*
X154057604Y-71358502D01*
X154097122Y-71432435D01*
X154100798Y-71469757D01*
X154088556Y-71490181D01*
X152150148Y-73428590D01*
X152115500Y-73442942D01*
X152080852Y-73428590D01*
X152066500Y-73393942D01*
X152066500Y-71701056D01*
X152080851Y-71666409D01*
X154442818Y-69304441D01*
X154477465Y-69290090D01*
X154500560Y-69295875D01*
X154574499Y-69335396D01*
X154753669Y-69389747D01*
X154940000Y-69408099D01*
X155126331Y-69389747D01*
X155305501Y-69335396D01*
X155470625Y-69247136D01*
X155615357Y-69128357D01*
X155734136Y-68983625D01*
X155822396Y-68818501D01*
X155876747Y-68639331D01*
X155895099Y-68453000D01*
X155876747Y-68266669D01*
X155822396Y-68087499D01*
X155734136Y-67922375D01*
X155734131Y-67922368D01*
X155661653Y-67834055D01*
X155615357Y-67777643D01*
X155517830Y-67697604D01*
X155470631Y-67658868D01*
X155470624Y-67658863D01*
X155305502Y-67570604D01*
X155126331Y-67516253D01*
X154940000Y-67497901D01*
X154753668Y-67516253D01*
X154753667Y-67516253D01*
X154574497Y-67570604D01*
X154409375Y-67658863D01*
X154409368Y-67658868D01*
X154264643Y-67777643D01*
X154145868Y-67922368D01*
X154145863Y-67922375D01*
X154057604Y-68087497D01*
X154003253Y-68266667D01*
X154003253Y-68266668D01*
X153984901Y-68452999D01*
X153984901Y-68453000D01*
X154003253Y-68639331D01*
X154003253Y-68639332D01*
X154057604Y-68818502D01*
X154097122Y-68892435D01*
X154100798Y-68929757D01*
X154088556Y-68950181D01*
X151718148Y-71320590D01*
X151683500Y-71334942D01*
X151648852Y-71320590D01*
X151634500Y-71285942D01*
X151634500Y-69593056D01*
X151648851Y-69558409D01*
X154442818Y-66764441D01*
X154477465Y-66750090D01*
X154500560Y-66755875D01*
X154574499Y-66795396D01*
X154753669Y-66849747D01*
X154940000Y-66868099D01*
X155126331Y-66849747D01*
X155305501Y-66795396D01*
X155470625Y-66707136D01*
X155615357Y-66588357D01*
X155734136Y-66443625D01*
X155822396Y-66278501D01*
X155876747Y-66099331D01*
X155895099Y-65913000D01*
X155876747Y-65726669D01*
X155822396Y-65547499D01*
X155734136Y-65382375D01*
X155734131Y-65382368D01*
X155683430Y-65320590D01*
X155615357Y-65237643D01*
X155517830Y-65157604D01*
X155470631Y-65118868D01*
X155470624Y-65118863D01*
X155305502Y-65030604D01*
X155126331Y-64976253D01*
X154940000Y-64957901D01*
X154753668Y-64976253D01*
X154753667Y-64976253D01*
X154574497Y-65030604D01*
X154409375Y-65118863D01*
X154409368Y-65118868D01*
X154264643Y-65237643D01*
X154145868Y-65382368D01*
X154145863Y-65382375D01*
X154057604Y-65547497D01*
X154003253Y-65726667D01*
X154003253Y-65726668D01*
X153984901Y-65912999D01*
X153984901Y-65913000D01*
X154003253Y-66099331D01*
X154003253Y-66099332D01*
X154057604Y-66278502D01*
X154097122Y-66352435D01*
X154100798Y-66389757D01*
X154088556Y-66410181D01*
X151318148Y-69180590D01*
X151283500Y-69194942D01*
X151248852Y-69180590D01*
X151234500Y-69145942D01*
X151234500Y-67834055D01*
X151248851Y-67799408D01*
X154723484Y-64324774D01*
X154758131Y-64310423D01*
X154762923Y-64310658D01*
X154940000Y-64328099D01*
X155126331Y-64309747D01*
X155305501Y-64255396D01*
X155470625Y-64167136D01*
X155615357Y-64048357D01*
X155734136Y-63903625D01*
X155822396Y-63738501D01*
X155876747Y-63559331D01*
X155895099Y-63373000D01*
X155876747Y-63186669D01*
X155822396Y-63007499D01*
X155812172Y-62988372D01*
X155734136Y-62842375D01*
X155734131Y-62842368D01*
X155648812Y-62738408D01*
X155615357Y-62697643D01*
X155517830Y-62617604D01*
X155470631Y-62578868D01*
X155470624Y-62578863D01*
X155305502Y-62490604D01*
X155126331Y-62436253D01*
X154940000Y-62417901D01*
X154753668Y-62436253D01*
X154753667Y-62436253D01*
X154574497Y-62490604D01*
X154409375Y-62578863D01*
X154409368Y-62578868D01*
X154264643Y-62697643D01*
X154145868Y-62842368D01*
X154145863Y-62842375D01*
X154057604Y-63007497D01*
X154003253Y-63186667D01*
X154003253Y-63186668D01*
X153984901Y-63372999D01*
X153984901Y-63373000D01*
X154003253Y-63559331D01*
X154003253Y-63559332D01*
X154057604Y-63738502D01*
X154145863Y-63903624D01*
X154145868Y-63903631D01*
X154248521Y-64028712D01*
X154259408Y-64064601D01*
X154245292Y-64094446D01*
X150918148Y-67421590D01*
X150883500Y-67435942D01*
X150848852Y-67421590D01*
X150834500Y-67386942D01*
X150834500Y-62773056D01*
X150848851Y-62738409D01*
X153004260Y-60582999D01*
X153609363Y-60582999D01*
X153609364Y-60583000D01*
X154506988Y-60583000D01*
X154474075Y-60640007D01*
X154440000Y-60767174D01*
X154440000Y-60898826D01*
X154474075Y-61025993D01*
X154506988Y-61083000D01*
X153609363Y-61083000D01*
X153666566Y-61296483D01*
X153666568Y-61296488D01*
X153766398Y-61510577D01*
X153766405Y-61510589D01*
X153901885Y-61704072D01*
X153901891Y-61704079D01*
X154068920Y-61871108D01*
X154068927Y-61871114D01*
X154262410Y-62006594D01*
X154262422Y-62006601D01*
X154476511Y-62106431D01*
X154476516Y-62106433D01*
X154690000Y-62163634D01*
X154690000Y-61266012D01*
X154747007Y-61298925D01*
X154874174Y-61333000D01*
X155005826Y-61333000D01*
X155132993Y-61298925D01*
X155190000Y-61266012D01*
X155190000Y-62163634D01*
X155403483Y-62106433D01*
X155403488Y-62106431D01*
X155617577Y-62006601D01*
X155617589Y-62006594D01*
X155811072Y-61871114D01*
X155811079Y-61871108D01*
X155978108Y-61704079D01*
X155978114Y-61704072D01*
X156113594Y-61510589D01*
X156113601Y-61510577D01*
X156213431Y-61296488D01*
X156213433Y-61296483D01*
X156270636Y-61083000D01*
X155373012Y-61083000D01*
X155405925Y-61025993D01*
X155440000Y-60898826D01*
X155440000Y-60767174D01*
X155405925Y-60640007D01*
X155373012Y-60583000D01*
X156270636Y-60583000D01*
X156270636Y-60582999D01*
X156213433Y-60369516D01*
X156213432Y-60369511D01*
X156113601Y-60155423D01*
X156113594Y-60155411D01*
X155978114Y-59961927D01*
X155978108Y-59961920D01*
X155811079Y-59794891D01*
X155811072Y-59794885D01*
X155617589Y-59659405D01*
X155617577Y-59659398D01*
X155403488Y-59559568D01*
X155403483Y-59559566D01*
X155190000Y-59502363D01*
X155190000Y-60399988D01*
X155132993Y-60367075D01*
X155005826Y-60333000D01*
X154874174Y-60333000D01*
X154747007Y-60367075D01*
X154690000Y-60399988D01*
X154690000Y-59502363D01*
X154689999Y-59502363D01*
X154476516Y-59559566D01*
X154476511Y-59559567D01*
X154262423Y-59659398D01*
X154262411Y-59659405D01*
X154068927Y-59794885D01*
X154068920Y-59794891D01*
X153901891Y-59961920D01*
X153901885Y-59961927D01*
X153766405Y-60155411D01*
X153766398Y-60155423D01*
X153666567Y-60369511D01*
X153666566Y-60369516D01*
X153609363Y-60582999D01*
X153004260Y-60582999D01*
X154442818Y-59144441D01*
X154477465Y-59130090D01*
X154500560Y-59135875D01*
X154574499Y-59175396D01*
X154753669Y-59229747D01*
X154940000Y-59248099D01*
X155126331Y-59229747D01*
X155305501Y-59175396D01*
X155470625Y-59087136D01*
X155615357Y-58968357D01*
X155734136Y-58823625D01*
X155822396Y-58658501D01*
X155876747Y-58479331D01*
X155895099Y-58293000D01*
X155876747Y-58106669D01*
X155822396Y-57927499D01*
X155805589Y-57896056D01*
X155734136Y-57762375D01*
X155734131Y-57762368D01*
X155648991Y-57658626D01*
X155615357Y-57617643D01*
X155517830Y-57537604D01*
X155470631Y-57498868D01*
X155470624Y-57498863D01*
X155305502Y-57410604D01*
X155126331Y-57356253D01*
X154940000Y-57337901D01*
X154753668Y-57356253D01*
X154753667Y-57356253D01*
X154574497Y-57410604D01*
X154409375Y-57498863D01*
X154409368Y-57498868D01*
X154264643Y-57617643D01*
X154145868Y-57762368D01*
X154145863Y-57762375D01*
X154057604Y-57927497D01*
X154003253Y-58106667D01*
X154003253Y-58106668D01*
X153984901Y-58292999D01*
X153984901Y-58293000D01*
X154003253Y-58479331D01*
X154003253Y-58479332D01*
X154057604Y-58658502D01*
X154097122Y-58732435D01*
X154100798Y-58769757D01*
X154088556Y-58790181D01*
X150518148Y-62360590D01*
X150483500Y-62374942D01*
X150448852Y-62360590D01*
X150434500Y-62325942D01*
X150434500Y-60633055D01*
X150448851Y-60598408D01*
X154442817Y-56604441D01*
X154477464Y-56590090D01*
X154500560Y-56595875D01*
X154574499Y-56635396D01*
X154753669Y-56689747D01*
X154940000Y-56708099D01*
X155126331Y-56689747D01*
X155305501Y-56635396D01*
X155470625Y-56547136D01*
X155615357Y-56428357D01*
X155734136Y-56283625D01*
X155822396Y-56118501D01*
X155876747Y-55939331D01*
X155895099Y-55753000D01*
X155876747Y-55566669D01*
X155822396Y-55387499D01*
X155734136Y-55222375D01*
X155734131Y-55222368D01*
X155648340Y-55117833D01*
X155615357Y-55077643D01*
X155517830Y-54997604D01*
X155470631Y-54958868D01*
X155470624Y-54958863D01*
X155305502Y-54870604D01*
X155126331Y-54816253D01*
X154940000Y-54797901D01*
X154753668Y-54816253D01*
X154753667Y-54816253D01*
X154574497Y-54870604D01*
X154409375Y-54958863D01*
X154409368Y-54958868D01*
X154264643Y-55077643D01*
X154145868Y-55222368D01*
X154145863Y-55222375D01*
X154057604Y-55387497D01*
X154003253Y-55566667D01*
X154003253Y-55566668D01*
X153984901Y-55752999D01*
X153984901Y-55753000D01*
X154003253Y-55939331D01*
X154003253Y-55939332D01*
X154020502Y-55996192D01*
X154057604Y-56118501D01*
X154057605Y-56118502D01*
X154057608Y-56118509D01*
X154097122Y-56192436D01*
X154100798Y-56229758D01*
X154088556Y-56250182D01*
X150118148Y-60220590D01*
X150083500Y-60234942D01*
X150048852Y-60220590D01*
X150034500Y-60185942D01*
X150034500Y-58493056D01*
X150048851Y-58458409D01*
X154442818Y-54064441D01*
X154477465Y-54050090D01*
X154500560Y-54055875D01*
X154574499Y-54095396D01*
X154753669Y-54149747D01*
X154940000Y-54168099D01*
X155126331Y-54149747D01*
X155305501Y-54095396D01*
X155470625Y-54007136D01*
X155615357Y-53888357D01*
X155734136Y-53743625D01*
X155822396Y-53578501D01*
X155876747Y-53399331D01*
X155895099Y-53213000D01*
X155876747Y-53026669D01*
X155822396Y-52847499D01*
X155734136Y-52682375D01*
X155734131Y-52682368D01*
X155664238Y-52597205D01*
X155615357Y-52537643D01*
X155547282Y-52481775D01*
X155470631Y-52418868D01*
X155470624Y-52418863D01*
X155305502Y-52330604D01*
X155126331Y-52276253D01*
X154940000Y-52257901D01*
X154753668Y-52276253D01*
X154753667Y-52276253D01*
X154574497Y-52330604D01*
X154409375Y-52418863D01*
X154409368Y-52418868D01*
X154264643Y-52537643D01*
X154145868Y-52682368D01*
X154145863Y-52682375D01*
X154057604Y-52847497D01*
X154003253Y-53026667D01*
X154003253Y-53026668D01*
X153984901Y-53212999D01*
X153984901Y-53213000D01*
X154003253Y-53399331D01*
X154003253Y-53399332D01*
X154057604Y-53578502D01*
X154097122Y-53652435D01*
X154100798Y-53689757D01*
X154088556Y-53710181D01*
X149718148Y-58080590D01*
X149683500Y-58094942D01*
X149648852Y-58080590D01*
X149634500Y-58045942D01*
X149634500Y-56353055D01*
X149648851Y-56318408D01*
X154442817Y-51524441D01*
X154477464Y-51510090D01*
X154500560Y-51515875D01*
X154574499Y-51555396D01*
X154753669Y-51609747D01*
X154940000Y-51628099D01*
X155126331Y-51609747D01*
X155305501Y-51555396D01*
X155470625Y-51467136D01*
X155615357Y-51348357D01*
X155734136Y-51203625D01*
X155822396Y-51038501D01*
X155876747Y-50859331D01*
X155895099Y-50673000D01*
X155876747Y-50486669D01*
X155822396Y-50307499D01*
X155812172Y-50288372D01*
X155734136Y-50142375D01*
X155734131Y-50142368D01*
X155680820Y-50077409D01*
X155615357Y-49997643D01*
X155517830Y-49917604D01*
X155470631Y-49878868D01*
X155470624Y-49878863D01*
X155305502Y-49790604D01*
X155126331Y-49736253D01*
X154940000Y-49717901D01*
X154753668Y-49736253D01*
X154753667Y-49736253D01*
X154574497Y-49790604D01*
X154409375Y-49878863D01*
X154409368Y-49878868D01*
X154264643Y-49997643D01*
X154145868Y-50142368D01*
X154145863Y-50142375D01*
X154057604Y-50307497D01*
X154003253Y-50486667D01*
X154003253Y-50486668D01*
X153990745Y-50613669D01*
X153984901Y-50673000D01*
X154003253Y-50859331D01*
X154057604Y-51038501D01*
X154057605Y-51038502D01*
X154057608Y-51038509D01*
X154097122Y-51112436D01*
X154100798Y-51149758D01*
X154088556Y-51170182D01*
X149171637Y-56087101D01*
X149133500Y-56179170D01*
X149133500Y-81355500D01*
X149119148Y-81390148D01*
X149084500Y-81404500D01*
X146596735Y-81404500D01*
X146596727Y-81404499D01*
X146591026Y-81404499D01*
X146491371Y-81404499D01*
X146491369Y-81404499D01*
X146437438Y-81426839D01*
X146399299Y-81442636D01*
X146399298Y-81442637D01*
X146328834Y-81513103D01*
X145746789Y-82095148D01*
X145712141Y-82109500D01*
X144615863Y-82109500D01*
X144581215Y-82095148D01*
X144566863Y-82060500D01*
X144567804Y-82050941D01*
X144570896Y-82035395D01*
X144573000Y-82024820D01*
X144573000Y-81895180D01*
X144568657Y-81873348D01*
X144575972Y-81836566D01*
X144579446Y-81831975D01*
X144610583Y-81795519D01*
X144623470Y-81764406D01*
X144631500Y-81724034D01*
X144631500Y-81325867D01*
X144639438Y-81299129D01*
X144651895Y-81279999D01*
X145184659Y-80461824D01*
X145215590Y-80440622D01*
X145250662Y-80446388D01*
X145371802Y-80518031D01*
X145517999Y-80560505D01*
X146018000Y-80560505D01*
X146164197Y-80518031D01*
X146303373Y-80435722D01*
X146303378Y-80435718D01*
X146417718Y-80321378D01*
X146417722Y-80321373D01*
X146500030Y-80182198D01*
X146545145Y-80026914D01*
X146545145Y-80026913D01*
X146546791Y-80006000D01*
X146018000Y-80006000D01*
X146018000Y-80560505D01*
X145517999Y-80560505D01*
X145518000Y-80560504D01*
X145518000Y-79135800D01*
X145516200Y-79135800D01*
X145481552Y-79121448D01*
X145467200Y-79086800D01*
X145467200Y-78903000D01*
X145967200Y-78903000D01*
X145969000Y-78903000D01*
X146003648Y-78917352D01*
X146018000Y-78952000D01*
X146018000Y-79506000D01*
X146546790Y-79506000D01*
X146546790Y-79505999D01*
X146545145Y-79485086D01*
X146500030Y-79329801D01*
X146417722Y-79190626D01*
X146417718Y-79190621D01*
X146303378Y-79076281D01*
X146303373Y-79076277D01*
X146253113Y-79046554D01*
X146230595Y-79016564D01*
X146235880Y-78979435D01*
X146250477Y-78964840D01*
X146250142Y-78964408D01*
X146252580Y-78962516D01*
X146366918Y-78848178D01*
X146366922Y-78848173D01*
X146449230Y-78708998D01*
X146494345Y-78553714D01*
X146494345Y-78553713D01*
X146495991Y-78532800D01*
X145967200Y-78532800D01*
X145967200Y-78903000D01*
X145467200Y-78903000D01*
X145467200Y-78032800D01*
X145967200Y-78032800D01*
X146495990Y-78032800D01*
X146495990Y-78032799D01*
X146494345Y-78011886D01*
X146449230Y-77856601D01*
X146366922Y-77717426D01*
X146366918Y-77717421D01*
X146252578Y-77603081D01*
X146252573Y-77603077D01*
X146113398Y-77520769D01*
X145967200Y-77478293D01*
X145967200Y-78032800D01*
X145467200Y-78032800D01*
X145467200Y-77478294D01*
X145467199Y-77478293D01*
X145321001Y-77520769D01*
X145181826Y-77603077D01*
X145181821Y-77603081D01*
X145067481Y-77717421D01*
X145067477Y-77717426D01*
X144987773Y-77852198D01*
X144957783Y-77874716D01*
X144936040Y-77875313D01*
X144920888Y-77872300D01*
X144593512Y-77872300D01*
X144593506Y-77872300D01*
X144523363Y-77886252D01*
X144443808Y-77939408D01*
X144390652Y-78018963D01*
X144376700Y-78089106D01*
X144376700Y-78401954D01*
X144362348Y-78436602D01*
X142283926Y-80515024D01*
X142281978Y-80516972D01*
X142281641Y-80517309D01*
X142246989Y-80531653D01*
X142212344Y-80517294D01*
X142198000Y-80482653D01*
X142198000Y-79236346D01*
X142212352Y-79201698D01*
X142658198Y-78755852D01*
X142692846Y-78741500D01*
X143485262Y-78741500D01*
X143502590Y-78738974D01*
X143553393Y-78731573D01*
X143658483Y-78680198D01*
X143741198Y-78597483D01*
X143792573Y-78492393D01*
X143802500Y-78424260D01*
X143802500Y-77832740D01*
X143792573Y-77764607D01*
X143741198Y-77659517D01*
X143658483Y-77576802D01*
X143605938Y-77551114D01*
X143553396Y-77525428D01*
X143553394Y-77525427D01*
X143485262Y-77515500D01*
X143485260Y-77515500D01*
X142518740Y-77515500D01*
X142518738Y-77515500D01*
X142450605Y-77525427D01*
X142450603Y-77525428D01*
X142345519Y-77576801D01*
X142345515Y-77576803D01*
X142262803Y-77659515D01*
X142262801Y-77659519D01*
X142211428Y-77764603D01*
X142211427Y-77764605D01*
X142201500Y-77832738D01*
X142201500Y-78424261D01*
X142211427Y-78492394D01*
X142211429Y-78492399D01*
X142243057Y-78557096D01*
X142245381Y-78594526D01*
X142233684Y-78613264D01*
X141893647Y-78953301D01*
X141858999Y-78967653D01*
X141824351Y-78953301D01*
X141484314Y-78613264D01*
X141469962Y-78578616D01*
X141474941Y-78557096D01*
X141506573Y-78492393D01*
X141516500Y-78424260D01*
X141516500Y-77832740D01*
X141506573Y-77764607D01*
X141455198Y-77659517D01*
X141372483Y-77576802D01*
X141319938Y-77551114D01*
X141267396Y-77525428D01*
X141267394Y-77525427D01*
X141199262Y-77515500D01*
X141199260Y-77515500D01*
X140232740Y-77515500D01*
X140232738Y-77515500D01*
X140164605Y-77525427D01*
X140164603Y-77525428D01*
X140059519Y-77576801D01*
X140059515Y-77576803D01*
X139976803Y-77659515D01*
X139976801Y-77659519D01*
X139925428Y-77764603D01*
X139925427Y-77764605D01*
X139915500Y-77832738D01*
X139915500Y-78424261D01*
X139925427Y-78492394D01*
X139925428Y-78492396D01*
X139942657Y-78527638D01*
X139976802Y-78597483D01*
X140059517Y-78680198D01*
X140164607Y-78731573D01*
X140212884Y-78738606D01*
X140232738Y-78741500D01*
X140232740Y-78741500D01*
X141025154Y-78741500D01*
X141059802Y-78755852D01*
X141482648Y-79178698D01*
X141497000Y-79213346D01*
X141497000Y-80363500D01*
X141482648Y-80398148D01*
X141448000Y-80412500D01*
X141337752Y-80412500D01*
X141327467Y-80413005D01*
X141327436Y-80413007D01*
X141318861Y-80413851D01*
X141318855Y-80413853D01*
X141270588Y-80431122D01*
X141270578Y-80431126D01*
X141242587Y-80449829D01*
X141242573Y-80449839D01*
X141225792Y-80463071D01*
X141224289Y-80461165D01*
X141198594Y-80474247D01*
X141162943Y-80462657D01*
X141128707Y-80433417D01*
X141128706Y-80433416D01*
X141115006Y-80427742D01*
X141097594Y-80420530D01*
X141057222Y-80412500D01*
X140937778Y-80412500D01*
X140937752Y-80412500D01*
X140927467Y-80413005D01*
X140927436Y-80413007D01*
X140918861Y-80413851D01*
X140918855Y-80413853D01*
X140870588Y-80431122D01*
X140870578Y-80431126D01*
X140842587Y-80449829D01*
X140842573Y-80449839D01*
X140829580Y-80460084D01*
X140829579Y-80460084D01*
X140797720Y-80516972D01*
X140797410Y-80518532D01*
X140792132Y-80545060D01*
X140771298Y-80576242D01*
X140744075Y-80584500D01*
X140732676Y-80584500D01*
X140688779Y-80593232D01*
X140687919Y-80593807D01*
X140686904Y-80594008D01*
X140684321Y-80595079D01*
X140684107Y-80594564D01*
X140651136Y-80601120D01*
X140619955Y-80580281D01*
X140611700Y-80553062D01*
X140611700Y-80119920D01*
X140611699Y-80119916D01*
X140581176Y-80046226D01*
X140524774Y-79989824D01*
X139160835Y-78625885D01*
X139146483Y-78591237D01*
X139160835Y-78556589D01*
X139168254Y-78550499D01*
X139179791Y-78542791D01*
X139232946Y-78463239D01*
X139238245Y-78436602D01*
X139246899Y-78393093D01*
X139246900Y-78393088D01*
X139246900Y-78065712D01*
X139246687Y-78064643D01*
X139243886Y-78050561D01*
X139251201Y-78013781D01*
X139267001Y-77998826D01*
X139401773Y-77919122D01*
X139401778Y-77919118D01*
X139516118Y-77804778D01*
X139516122Y-77804773D01*
X139598431Y-77665597D01*
X139640905Y-77519400D01*
X138031895Y-77519400D01*
X138074368Y-77665597D01*
X138156677Y-77804773D01*
X138156681Y-77804778D01*
X138271021Y-77919118D01*
X138271026Y-77919122D01*
X138405798Y-77998826D01*
X138428316Y-78028816D01*
X138428914Y-78050560D01*
X138425900Y-78065713D01*
X138425900Y-78331262D01*
X138411548Y-78365910D01*
X138376900Y-78380262D01*
X138342252Y-78365910D01*
X136995741Y-77019399D01*
X138031894Y-77019399D01*
X138031895Y-77019400D01*
X138586400Y-77019400D01*
X139086400Y-77019400D01*
X139640905Y-77019400D01*
X139640905Y-77019399D01*
X139598431Y-76873202D01*
X139516122Y-76734026D01*
X139516118Y-76734021D01*
X139401778Y-76619681D01*
X139401773Y-76619677D01*
X139262598Y-76537369D01*
X139107313Y-76492254D01*
X139086400Y-76490608D01*
X139086400Y-77019400D01*
X138586400Y-77019400D01*
X138586400Y-76490609D01*
X138586399Y-76490608D01*
X138565486Y-76492254D01*
X138565485Y-76492254D01*
X138410201Y-76537369D01*
X138271026Y-76619677D01*
X138271021Y-76619681D01*
X138156681Y-76734021D01*
X138156677Y-76734026D01*
X138074368Y-76873202D01*
X138031894Y-77019399D01*
X136995741Y-77019399D01*
X135434852Y-75458510D01*
X135420500Y-75423862D01*
X135420500Y-73925346D01*
X135434852Y-73890698D01*
X141185974Y-68139576D01*
X141185976Y-68139574D01*
X141216500Y-68065882D01*
X141216500Y-67986118D01*
X141216500Y-64821119D01*
X141185976Y-64747427D01*
X141129574Y-64691025D01*
X140640289Y-64201740D01*
X140146161Y-63707611D01*
X140147792Y-63705979D01*
X140131613Y-63681763D01*
X140121966Y-63633260D01*
X140072570Y-63559332D01*
X140066601Y-63550398D01*
X139983739Y-63495033D01*
X139910677Y-63480500D01*
X139910674Y-63480500D01*
X138561326Y-63480500D01*
X138561322Y-63480500D01*
X138488260Y-63495033D01*
X138405398Y-63550398D01*
X138350033Y-63633260D01*
X138335500Y-63706322D01*
X138335500Y-64055677D01*
X138350033Y-64128739D01*
X138405398Y-64211601D01*
X138438094Y-64233447D01*
X138488260Y-64266966D01*
X138561326Y-64281500D01*
X139910674Y-64281500D01*
X139983740Y-64266966D01*
X140043026Y-64227352D01*
X140079808Y-64220037D01*
X140104896Y-64233447D01*
X140801148Y-64929699D01*
X140815500Y-64964347D01*
X140815500Y-65528654D01*
X140801148Y-65563302D01*
X140766500Y-65577654D01*
X140731852Y-65563302D01*
X140146161Y-64977611D01*
X140147792Y-64975979D01*
X140131613Y-64951763D01*
X140121966Y-64903260D01*
X140121965Y-64903258D01*
X140066601Y-64820398D01*
X139983739Y-64765033D01*
X139910677Y-64750500D01*
X139910674Y-64750500D01*
X138561326Y-64750500D01*
X138561322Y-64750500D01*
X138488260Y-64765033D01*
X138405398Y-64820398D01*
X138350033Y-64903260D01*
X138335500Y-64976322D01*
X138335500Y-65325677D01*
X138350033Y-65398739D01*
X138405398Y-65481601D01*
X138446966Y-65509375D01*
X138488260Y-65536966D01*
X138561326Y-65551500D01*
X139910674Y-65551500D01*
X139983740Y-65536966D01*
X140043026Y-65497352D01*
X140079808Y-65490037D01*
X140104896Y-65503447D01*
X140501148Y-65899699D01*
X140515500Y-65934347D01*
X140515500Y-67798390D01*
X140501148Y-67833038D01*
X139520148Y-68814038D01*
X139485500Y-68828390D01*
X139450852Y-68814038D01*
X139436500Y-68779390D01*
X139436500Y-66870500D01*
X139450852Y-66835852D01*
X139485500Y-66821500D01*
X139910674Y-66821500D01*
X139983740Y-66806966D01*
X140066601Y-66751601D01*
X140121966Y-66668740D01*
X140136500Y-66595674D01*
X140136500Y-66246326D01*
X140121966Y-66173260D01*
X140072570Y-66099332D01*
X140066601Y-66090398D01*
X139983739Y-66035033D01*
X139910677Y-66020500D01*
X139910674Y-66020500D01*
X138561326Y-66020500D01*
X138561322Y-66020500D01*
X138488260Y-66035033D01*
X138405398Y-66090398D01*
X138350033Y-66173260D01*
X138335500Y-66246322D01*
X138335500Y-66595677D01*
X138350033Y-66668739D01*
X138405398Y-66751601D01*
X138470942Y-66795395D01*
X138488260Y-66806966D01*
X138561326Y-66821500D01*
X138986500Y-66821500D01*
X139021148Y-66835852D01*
X139035500Y-66870500D01*
X139035500Y-68854126D01*
X139021148Y-68888774D01*
X134506426Y-73403496D01*
X134481332Y-73428590D01*
X134450024Y-73459897D01*
X134419500Y-73533588D01*
X134419500Y-75597654D01*
X134405148Y-75632302D01*
X134370500Y-75646654D01*
X134335852Y-75632302D01*
X131250852Y-72547302D01*
X131236500Y-72512654D01*
X131236500Y-67267408D01*
X131250852Y-67232760D01*
X131285500Y-67218408D01*
X131289344Y-67218559D01*
X131320358Y-67220999D01*
X131320369Y-67221000D01*
X131786000Y-67221000D01*
X132286000Y-67221000D01*
X132751631Y-67221000D01*
X132751644Y-67220999D01*
X132788489Y-67218100D01*
X132788491Y-67218100D01*
X132946201Y-67172280D01*
X133087551Y-67088686D01*
X133087556Y-67088682D01*
X133203682Y-66972556D01*
X133203686Y-66972551D01*
X133287280Y-66831201D01*
X133333100Y-66673491D01*
X133333100Y-66673488D01*
X133333296Y-66671000D01*
X132286000Y-66671000D01*
X132286000Y-67221000D01*
X131786000Y-67221000D01*
X131786000Y-66220000D01*
X131800352Y-66185352D01*
X131835000Y-66171000D01*
X133333296Y-66171000D01*
X133333296Y-66170999D01*
X133333100Y-66168511D01*
X133333100Y-66168508D01*
X133287280Y-66010798D01*
X133203686Y-65869448D01*
X133203682Y-65869443D01*
X133087556Y-65753317D01*
X133087551Y-65753313D01*
X132946201Y-65669719D01*
X132795523Y-65625942D01*
X132766255Y-65602494D01*
X132762140Y-65565217D01*
X132781972Y-65538145D01*
X132783735Y-65536966D01*
X132783740Y-65536966D01*
X132866601Y-65481601D01*
X132921966Y-65398740D01*
X132936500Y-65325674D01*
X132936500Y-64976326D01*
X132921966Y-64903260D01*
X132921965Y-64903258D01*
X132866601Y-64820398D01*
X132783739Y-64765033D01*
X132710677Y-64750500D01*
X132710674Y-64750500D01*
X131361326Y-64750500D01*
X131361322Y-64750500D01*
X131288260Y-64765033D01*
X131205398Y-64820398D01*
X131150033Y-64903260D01*
X131140385Y-64951764D01*
X131124211Y-64975984D01*
X131125839Y-64977612D01*
X131020148Y-65083303D01*
X130985500Y-65097655D01*
X130950852Y-65083303D01*
X130936500Y-65048655D01*
X130936500Y-64130500D01*
X130950852Y-64095852D01*
X130985500Y-64081500D01*
X131100424Y-64081500D01*
X131135072Y-64095852D01*
X131148482Y-64120940D01*
X131150033Y-64128739D01*
X131205398Y-64211601D01*
X131238094Y-64233447D01*
X131288260Y-64266966D01*
X131361326Y-64281500D01*
X132710674Y-64281500D01*
X132783740Y-64266966D01*
X132866601Y-64211601D01*
X132921966Y-64128740D01*
X132936500Y-64055674D01*
X132936500Y-63706326D01*
X132921966Y-63633260D01*
X132872570Y-63559332D01*
X132866601Y-63550398D01*
X132783739Y-63495033D01*
X132710677Y-63480500D01*
X132710674Y-63480500D01*
X131361326Y-63480500D01*
X131361322Y-63480500D01*
X131288260Y-63495033D01*
X131205398Y-63550398D01*
X131150033Y-63633260D01*
X131148482Y-63641060D01*
X131127647Y-63672242D01*
X131100424Y-63680500D01*
X130823116Y-63680500D01*
X130749424Y-63711025D01*
X130720148Y-63740301D01*
X130685500Y-63754653D01*
X130650852Y-63740301D01*
X130636500Y-63705653D01*
X130636500Y-63514346D01*
X130650851Y-63479699D01*
X131167104Y-62963445D01*
X131201751Y-62949094D01*
X131228971Y-62957351D01*
X131288260Y-62996966D01*
X131361326Y-63011500D01*
X132710674Y-63011500D01*
X132783740Y-62996966D01*
X132866601Y-62941601D01*
X132921966Y-62858740D01*
X132936500Y-62785674D01*
X132936500Y-62436326D01*
X132921966Y-62363260D01*
X132920182Y-62360590D01*
X132866601Y-62280398D01*
X132783739Y-62225033D01*
X132710677Y-62210500D01*
X132710674Y-62210500D01*
X132263500Y-62210500D01*
X132228852Y-62196148D01*
X132214500Y-62161500D01*
X132214500Y-61174120D01*
X132214499Y-61174116D01*
X132200371Y-61140007D01*
X132183976Y-61100426D01*
X132127574Y-61044024D01*
X131666416Y-60582866D01*
X131177576Y-60094025D01*
X131165268Y-60088927D01*
X131117822Y-60069274D01*
X131095832Y-60051227D01*
X131054552Y-59989448D01*
X131047509Y-59984742D01*
X131026674Y-59953561D01*
X131033989Y-59916778D01*
X131047508Y-59903258D01*
X131054552Y-59898552D01*
X131098867Y-59832231D01*
X131110500Y-59773748D01*
X131110500Y-59474252D01*
X131098867Y-59415769D01*
X131068757Y-59370707D01*
X131060500Y-59343485D01*
X131060500Y-58022268D01*
X131074852Y-57987620D01*
X131109500Y-57973268D01*
X131135224Y-57980564D01*
X131266509Y-58061543D01*
X131266515Y-58061546D01*
X131427396Y-58114856D01*
X131526670Y-58124998D01*
X131526694Y-58124999D01*
X131549999Y-58124998D01*
X131550000Y-58124998D01*
X131550000Y-56642088D01*
X132050000Y-56642088D01*
X132050000Y-58124999D01*
X132073316Y-58124999D01*
X132172603Y-58114856D01*
X132333484Y-58061546D01*
X132477733Y-57972571D01*
X132597570Y-57852734D01*
X132645795Y-57774551D01*
X132676200Y-57752596D01*
X132713224Y-57758570D01*
X132735179Y-57788975D01*
X132736500Y-57800275D01*
X132736500Y-57893067D01*
X132736508Y-57894478D01*
X132736520Y-57895492D01*
X132736520Y-57895493D01*
X132742298Y-57922001D01*
X132745557Y-57936953D01*
X132745558Y-57936955D01*
X132759197Y-57967738D01*
X132759201Y-57967746D01*
X132782893Y-58001398D01*
X132782895Y-58001400D01*
X132782896Y-58001401D01*
X138090496Y-63056259D01*
X138124073Y-63077816D01*
X138154418Y-63089954D01*
X138193600Y-63097500D01*
X138193604Y-63097500D01*
X140925997Y-63097500D01*
X140926000Y-63097500D01*
X140966372Y-63089470D01*
X140997485Y-63076583D01*
X141012238Y-63069066D01*
X141054583Y-63019485D01*
X141067470Y-62988372D01*
X141075500Y-62948000D01*
X141075500Y-59480000D01*
X141067470Y-59439628D01*
X141054583Y-59408515D01*
X141047066Y-59393762D01*
X140997485Y-59351417D01*
X140997484Y-59351416D01*
X140984595Y-59346078D01*
X140966372Y-59338530D01*
X140926000Y-59330500D01*
X140925997Y-59330500D01*
X139905500Y-59330500D01*
X139870852Y-59316148D01*
X139856500Y-59281500D01*
X139856500Y-58990312D01*
X139853486Y-58975161D01*
X139860801Y-58938381D01*
X139876601Y-58923426D01*
X140011373Y-58843722D01*
X140011378Y-58843718D01*
X140125718Y-58729378D01*
X140125722Y-58729373D01*
X140208031Y-58590197D01*
X140250505Y-58444000D01*
X138641495Y-58444000D01*
X138683968Y-58590197D01*
X138766277Y-58729373D01*
X138766281Y-58729378D01*
X138880621Y-58843718D01*
X138880626Y-58843722D01*
X139015398Y-58923426D01*
X139037916Y-58953416D01*
X139038514Y-58975160D01*
X139035500Y-58990313D01*
X139035500Y-59281500D01*
X139021148Y-59316148D01*
X138986500Y-59330500D01*
X137972241Y-59330500D01*
X137943421Y-59321128D01*
X136237681Y-58080590D01*
X136049868Y-57943999D01*
X138641494Y-57943999D01*
X138641495Y-57944000D01*
X139196000Y-57944000D01*
X139696000Y-57944000D01*
X140250505Y-57944000D01*
X140250505Y-57943999D01*
X140208031Y-57797802D01*
X140125722Y-57658626D01*
X140125718Y-57658621D01*
X140011378Y-57544281D01*
X140011373Y-57544277D01*
X139872198Y-57461969D01*
X139716913Y-57416854D01*
X139696000Y-57415208D01*
X139696000Y-57944000D01*
X139196000Y-57944000D01*
X139196000Y-57415209D01*
X139195999Y-57415208D01*
X139175086Y-57416854D01*
X139175085Y-57416854D01*
X139019801Y-57461969D01*
X138880626Y-57544277D01*
X138880621Y-57544281D01*
X138766281Y-57658621D01*
X138766277Y-57658626D01*
X138683968Y-57797802D01*
X138641494Y-57943999D01*
X136049868Y-57943999D01*
X135220518Y-57340835D01*
X135205513Y-57323122D01*
X135140028Y-57192153D01*
X135137371Y-57154747D01*
X135161943Y-57126415D01*
X135171674Y-57122781D01*
X135184321Y-57119534D01*
X135184327Y-57119532D01*
X135324123Y-57042678D01*
X135324124Y-57042677D01*
X134626094Y-56344647D01*
X134611742Y-56309999D01*
X134626094Y-56275351D01*
X134910351Y-55991094D01*
X134944999Y-55976742D01*
X134979647Y-55991094D01*
X135677677Y-56689124D01*
X135677678Y-56689123D01*
X135754532Y-56549328D01*
X135754533Y-56549326D01*
X135792503Y-56401437D01*
X135815021Y-56371446D01*
X135841922Y-56364661D01*
X135851219Y-56365033D01*
X135879853Y-56362252D01*
X135896395Y-56358316D01*
X135902985Y-56356749D01*
X135904916Y-56356250D01*
X135906853Y-56355751D01*
X135961190Y-56319712D01*
X135982129Y-56293337D01*
X136000943Y-56256723D01*
X136597844Y-54167568D01*
X136947001Y-54167568D01*
X136953409Y-54238106D01*
X136953410Y-54238111D01*
X137003981Y-54400398D01*
X137091924Y-54545873D01*
X137212126Y-54666075D01*
X137357601Y-54754018D01*
X137519888Y-54804589D01*
X137519894Y-54804590D01*
X137590430Y-54810999D01*
X137671999Y-54810999D01*
X138172000Y-54810999D01*
X138253569Y-54810999D01*
X138324106Y-54804590D01*
X138324111Y-54804589D01*
X138486398Y-54754018D01*
X138631873Y-54666075D01*
X138752075Y-54545873D01*
X138840018Y-54400398D01*
X138890589Y-54238111D01*
X138890590Y-54238105D01*
X138897000Y-54167570D01*
X138897000Y-54161000D01*
X138172000Y-54161000D01*
X138172000Y-54810999D01*
X137671999Y-54810999D01*
X137672000Y-54810998D01*
X137672000Y-54161000D01*
X136947001Y-54161000D01*
X136947001Y-54167568D01*
X136597844Y-54167568D01*
X136744455Y-53654429D01*
X136947000Y-53654429D01*
X136947000Y-53661000D01*
X137672000Y-53661000D01*
X138172000Y-53661000D01*
X138896999Y-53661000D01*
X138896999Y-53654431D01*
X138890590Y-53583893D01*
X138890589Y-53583888D01*
X138840018Y-53421601D01*
X138752075Y-53276126D01*
X138631873Y-53155924D01*
X138486398Y-53067981D01*
X138324111Y-53017410D01*
X138324105Y-53017409D01*
X138253570Y-53011000D01*
X138172000Y-53011000D01*
X138172000Y-53661000D01*
X137672000Y-53661000D01*
X137672000Y-53011000D01*
X137590431Y-53011000D01*
X137519893Y-53017409D01*
X137519888Y-53017410D01*
X137357601Y-53067981D01*
X137212126Y-53155924D01*
X137091924Y-53276126D01*
X137003981Y-53421601D01*
X136953410Y-53583888D01*
X136953409Y-53583894D01*
X136947000Y-53654429D01*
X136744455Y-53654429D01*
X137260535Y-51848145D01*
X137261139Y-51846195D01*
X137604015Y-50817572D01*
X137628587Y-50789241D01*
X137665995Y-50786583D01*
X137694327Y-50811155D01*
X137699500Y-50833068D01*
X137699500Y-51711500D01*
X137685148Y-51746148D01*
X137650501Y-51760500D01*
X137602140Y-51760500D01*
X137602133Y-51760501D01*
X137577007Y-51763415D01*
X137474233Y-51808794D01*
X137394794Y-51888233D01*
X137349415Y-51991006D01*
X137346500Y-52016134D01*
X137346500Y-52505858D01*
X137346501Y-52505868D01*
X137349415Y-52530992D01*
X137394794Y-52633766D01*
X137474233Y-52713205D01*
X137577006Y-52758584D01*
X137577009Y-52758585D01*
X137602135Y-52761500D01*
X138241864Y-52761499D01*
X138266991Y-52758585D01*
X138369765Y-52713206D01*
X138449206Y-52633765D01*
X138494585Y-52530991D01*
X138497500Y-52505865D01*
X138497499Y-52016136D01*
X138494585Y-51991009D01*
X138449206Y-51888235D01*
X138449205Y-51888234D01*
X138449205Y-51888233D01*
X138369766Y-51808794D01*
X138369767Y-51808794D01*
X138266993Y-51763415D01*
X138266987Y-51763413D01*
X138243852Y-51760729D01*
X138211089Y-51742479D01*
X138200500Y-51712056D01*
X138200500Y-50207383D01*
X138214852Y-50172735D01*
X138249500Y-50158383D01*
X138259061Y-50159325D01*
X138260785Y-50159668D01*
X138260787Y-50159669D01*
X138290101Y-50165500D01*
X138609898Y-50165499D01*
X138639213Y-50159669D01*
X138672457Y-50137457D01*
X138672458Y-50137455D01*
X138672776Y-50137243D01*
X138709559Y-50129927D01*
X138727179Y-50137215D01*
X138727680Y-50137549D01*
X138748548Y-50168709D01*
X138749500Y-50178319D01*
X138749500Y-50607373D01*
X138762143Y-50637897D01*
X138780024Y-50681064D01*
X138780025Y-50681065D01*
X138780025Y-50681066D01*
X143503148Y-55404188D01*
X143517500Y-55438836D01*
X143517500Y-69286066D01*
X143503148Y-69320714D01*
X140909426Y-71914436D01*
X140894116Y-71929746D01*
X140853024Y-71970837D01*
X140822500Y-72044528D01*
X140822500Y-75126383D01*
X140835143Y-75156907D01*
X140853024Y-75200074D01*
X140853025Y-75200075D01*
X140853026Y-75200077D01*
X141159801Y-75506852D01*
X141174153Y-75541500D01*
X141159801Y-75576148D01*
X141059802Y-75676148D01*
X141025154Y-75690500D01*
X140232738Y-75690500D01*
X140164605Y-75700427D01*
X140164603Y-75700428D01*
X140059519Y-75751801D01*
X140059515Y-75751803D01*
X139976803Y-75834515D01*
X139976801Y-75834519D01*
X139925428Y-75939603D01*
X139925427Y-75939605D01*
X139915500Y-76007738D01*
X139915500Y-76599261D01*
X139921354Y-76639435D01*
X139925427Y-76667393D01*
X139976802Y-76772483D01*
X140059517Y-76855198D01*
X140164607Y-76906573D01*
X140212884Y-76913606D01*
X140232738Y-76916500D01*
X140232740Y-76916500D01*
X141199262Y-76916500D01*
X141216590Y-76913974D01*
X141267393Y-76906573D01*
X141372483Y-76855198D01*
X141455198Y-76772483D01*
X141506573Y-76667393D01*
X141516500Y-76599260D01*
X141516500Y-76007740D01*
X141506573Y-75939607D01*
X141474941Y-75874902D01*
X141472617Y-75837472D01*
X141484310Y-75818738D01*
X141647976Y-75655074D01*
X141678500Y-75581382D01*
X141678500Y-75501618D01*
X141647976Y-75427926D01*
X141591574Y-75371524D01*
X141237852Y-75017802D01*
X141223500Y-74983154D01*
X141223500Y-74926846D01*
X141237852Y-74892198D01*
X141272500Y-74877846D01*
X141307148Y-74892198D01*
X142233684Y-75818734D01*
X142248036Y-75853382D01*
X142243057Y-75874902D01*
X142211429Y-75939600D01*
X142211427Y-75939605D01*
X142201500Y-76007738D01*
X142201500Y-76599261D01*
X142207354Y-76639435D01*
X142211427Y-76667393D01*
X142262802Y-76772483D01*
X142345517Y-76855198D01*
X142450607Y-76906573D01*
X142498884Y-76913606D01*
X142518738Y-76916500D01*
X142518740Y-76916500D01*
X143485262Y-76916500D01*
X143502590Y-76913974D01*
X143553393Y-76906573D01*
X143658483Y-76855198D01*
X143741198Y-76772483D01*
X143792573Y-76667393D01*
X143802500Y-76599260D01*
X143802500Y-76007740D01*
X143792573Y-75939607D01*
X143741198Y-75834517D01*
X143658483Y-75751802D01*
X143585146Y-75715950D01*
X143553396Y-75700428D01*
X143553394Y-75700427D01*
X143485262Y-75690500D01*
X143485260Y-75690500D01*
X142692846Y-75690500D01*
X142658198Y-75676148D01*
X141537852Y-74555802D01*
X141523500Y-74521154D01*
X141523500Y-74169483D01*
X141523505Y-74169422D01*
X141523504Y-74164607D01*
X141523505Y-74164606D01*
X141523500Y-74128577D01*
X141524101Y-74120924D01*
X141532193Y-74069801D01*
X141536930Y-74055222D01*
X141558648Y-74012593D01*
X141567656Y-74000191D01*
X141601488Y-73966358D01*
X141613884Y-73957352D01*
X141656520Y-73935629D01*
X141671094Y-73930895D01*
X141721767Y-73922872D01*
X141729403Y-73922271D01*
X141794059Y-73922266D01*
X141926656Y-73891990D01*
X142049192Y-73832967D01*
X142155522Y-73748158D01*
X142240315Y-73641815D01*
X142299319Y-73519271D01*
X142329576Y-73386669D01*
X142329572Y-73318664D01*
X142329572Y-72974866D01*
X142329572Y-72970411D01*
X142329492Y-72969616D01*
X142329496Y-72946774D01*
X142299250Y-72814184D01*
X142240257Y-72691649D01*
X142155476Y-72585314D01*
X142049158Y-72500511D01*
X142049157Y-72500510D01*
X141926640Y-72441493D01*
X141926636Y-72441492D01*
X141794052Y-72411218D01*
X141794049Y-72411217D01*
X141794050Y-72411217D01*
X141770487Y-72411215D01*
X141770408Y-72411208D01*
X141765900Y-72411208D01*
X141757319Y-72411208D01*
X141729869Y-72411210D01*
X141722206Y-72410607D01*
X141671097Y-72402517D01*
X141656516Y-72397780D01*
X141613885Y-72376061D01*
X141601483Y-72367051D01*
X141567653Y-72333223D01*
X141558642Y-72320823D01*
X141553119Y-72309982D01*
X141550178Y-72272597D01*
X141562130Y-72253094D01*
X141670519Y-72144704D01*
X141670522Y-72144703D01*
X141677411Y-72137814D01*
X141677412Y-72137814D01*
X144187976Y-69627250D01*
X144218500Y-69553558D01*
X144218500Y-69473794D01*
X144218500Y-55171344D01*
X144187976Y-55097652D01*
X144131574Y-55041250D01*
X141819471Y-52729147D01*
X141805119Y-52694499D01*
X141819471Y-52659851D01*
X141854119Y-52645499D01*
X142167858Y-52645499D01*
X142167864Y-52645499D01*
X142192991Y-52642585D01*
X142295765Y-52597206D01*
X142375206Y-52517765D01*
X142420585Y-52414991D01*
X142422142Y-52401568D01*
X142673001Y-52401568D01*
X142679409Y-52472106D01*
X142679410Y-52472111D01*
X142729981Y-52634398D01*
X142817924Y-52779873D01*
X142938126Y-52900075D01*
X143083601Y-52988018D01*
X143245888Y-53038589D01*
X143245893Y-53038590D01*
X143316419Y-53044999D01*
X143823000Y-53044999D01*
X143829569Y-53044999D01*
X143900106Y-53038590D01*
X143900111Y-53038589D01*
X144062398Y-52988018D01*
X144207873Y-52900075D01*
X144328075Y-52779873D01*
X144416018Y-52634398D01*
X144466589Y-52472111D01*
X144466590Y-52472105D01*
X144473000Y-52401570D01*
X144473000Y-52320000D01*
X143823000Y-52320000D01*
X143823000Y-53044999D01*
X143316419Y-53044999D01*
X143323000Y-53044998D01*
X143323000Y-52320000D01*
X142673001Y-52320000D01*
X142673001Y-52401568D01*
X142422142Y-52401568D01*
X142423500Y-52389865D01*
X142423499Y-51750136D01*
X142422141Y-51738429D01*
X142673000Y-51738429D01*
X142673000Y-51820000D01*
X143323000Y-51820000D01*
X143823000Y-51820000D01*
X144472999Y-51820000D01*
X144472999Y-51738431D01*
X144466590Y-51667893D01*
X144466589Y-51667888D01*
X144416018Y-51505601D01*
X144328075Y-51360126D01*
X144207873Y-51239924D01*
X144062398Y-51151981D01*
X143900111Y-51101410D01*
X143900105Y-51101409D01*
X143829570Y-51095000D01*
X143823000Y-51095000D01*
X143823000Y-51820000D01*
X143323000Y-51820000D01*
X143323000Y-51094999D01*
X143316431Y-51095000D01*
X143245894Y-51101409D01*
X143245888Y-51101410D01*
X143083601Y-51151981D01*
X142938126Y-51239924D01*
X142817924Y-51360126D01*
X142729981Y-51505601D01*
X142679410Y-51667888D01*
X142679409Y-51667894D01*
X142673000Y-51738429D01*
X142422141Y-51738429D01*
X142420585Y-51725009D01*
X142375206Y-51622235D01*
X142375205Y-51622234D01*
X142375205Y-51622233D01*
X142295766Y-51542794D01*
X142295767Y-51542794D01*
X142192993Y-51497415D01*
X142167865Y-51494500D01*
X141722057Y-51494500D01*
X141687409Y-51480148D01*
X141214852Y-51007591D01*
X141200500Y-50972943D01*
X141200500Y-50207383D01*
X141214852Y-50172735D01*
X141249500Y-50158383D01*
X141259061Y-50159325D01*
X141260785Y-50159668D01*
X141260787Y-50159669D01*
X141290101Y-50165500D01*
X141577500Y-50165499D01*
X141612148Y-50179851D01*
X141626500Y-50214499D01*
X141626500Y-50248000D01*
X141634530Y-50288372D01*
X141647417Y-50319485D01*
X141647422Y-50319496D01*
X141654931Y-50334233D01*
X141654934Y-50334238D01*
X141704515Y-50376583D01*
X141735628Y-50389470D01*
X141776000Y-50397500D01*
X141776003Y-50397500D01*
X142199802Y-50397500D01*
X142234450Y-50411852D01*
X142239029Y-50417136D01*
X142242811Y-50422189D01*
X142357908Y-50508351D01*
X142492626Y-50558598D01*
X142552166Y-50565000D01*
X142650000Y-50565000D01*
X142650000Y-49695000D01*
X142648500Y-49695000D01*
X142613852Y-49680648D01*
X142599500Y-49646000D01*
X142599500Y-49244000D01*
X142613852Y-49209352D01*
X142648500Y-49195000D01*
X142650000Y-49195000D01*
X142650000Y-48942323D01*
X142664352Y-48907675D01*
X142686317Y-48894993D01*
X142812135Y-48861281D01*
X142943365Y-48785515D01*
X143050515Y-48678365D01*
X143058566Y-48664420D01*
X143088317Y-48641591D01*
X143125500Y-48646486D01*
X143148330Y-48676238D01*
X143150000Y-48688921D01*
X143150000Y-50565000D01*
X143247834Y-50565000D01*
X143307372Y-50558598D01*
X143307373Y-50558598D01*
X143442091Y-50508351D01*
X143557188Y-50422189D01*
X143612374Y-50348469D01*
X143644627Y-50329332D01*
X143670353Y-50332563D01*
X143728307Y-50356569D01*
X143728313Y-50356571D01*
X143770000Y-50364862D01*
X143770000Y-49561988D01*
X143779940Y-49579205D01*
X143835795Y-49635060D01*
X143904204Y-49674556D01*
X143980504Y-49695000D01*
X144059496Y-49695000D01*
X144135796Y-49674556D01*
X144204205Y-49635060D01*
X144260060Y-49579205D01*
X144270000Y-49561988D01*
X144270000Y-50364862D01*
X144311689Y-50356570D01*
X144311690Y-50356570D01*
X144493674Y-50281190D01*
X144657460Y-50171753D01*
X144796753Y-50032460D01*
X144906190Y-49868674D01*
X144981570Y-49686690D01*
X144981570Y-49686689D01*
X145020000Y-49493487D01*
X145020000Y-49095000D01*
X144320000Y-49095000D01*
X144320000Y-48595000D01*
X145020000Y-48595000D01*
X145020000Y-48196512D01*
X144981570Y-48003310D01*
X144981570Y-48003309D01*
X144906190Y-47821325D01*
X144796753Y-47657539D01*
X144657460Y-47518246D01*
X144493674Y-47408809D01*
X144311691Y-47333429D01*
X144311682Y-47333426D01*
X144270000Y-47325135D01*
X144270000Y-48128011D01*
X144260060Y-48110795D01*
X144204205Y-48054940D01*
X144135796Y-48015444D01*
X144059496Y-47995000D01*
X143980504Y-47995000D01*
X143904204Y-48015444D01*
X143835795Y-48054940D01*
X143779940Y-48110795D01*
X143770000Y-48128011D01*
X143770000Y-47325135D01*
X143769999Y-47325135D01*
X143728317Y-47333426D01*
X143728308Y-47333429D01*
X143546325Y-47408809D01*
X143382539Y-47518246D01*
X143243246Y-47657539D01*
X143133809Y-47821325D01*
X143093451Y-47918757D01*
X143066932Y-47945275D01*
X143029429Y-47945275D01*
X143013533Y-47934653D01*
X142943365Y-47864485D01*
X142812137Y-47788719D01*
X142812133Y-47788718D01*
X142665769Y-47749500D01*
X142665766Y-47749500D01*
X142514234Y-47749500D01*
X142514231Y-47749500D01*
X142367866Y-47788718D01*
X142367862Y-47788719D01*
X142236635Y-47864484D01*
X142225832Y-47875287D01*
X142191182Y-47889636D01*
X142157505Y-47875684D01*
X142157308Y-47875900D01*
X142156714Y-47875356D01*
X142156535Y-47875282D01*
X142155890Y-47874600D01*
X142155539Y-47874280D01*
X142155537Y-47874277D01*
X142093631Y-47827848D01*
X141673533Y-47512775D01*
X141553032Y-47422399D01*
X141523101Y-47406717D01*
X141523099Y-47406716D01*
X141523095Y-47406714D01*
X141523089Y-47406712D01*
X141523082Y-47406709D01*
X141496705Y-47397916D01*
X141496695Y-47397914D01*
X141463333Y-47392500D01*
X137686226Y-47392500D01*
X137655947Y-47398522D01*
X137645853Y-47400530D01*
X137645852Y-47400530D01*
X137614740Y-47413417D01*
X137580513Y-47436286D01*
X137188954Y-47827843D01*
X137187430Y-47829702D01*
X137186477Y-47828920D01*
X137158457Y-47847627D01*
X137124418Y-47841999D01*
X137032137Y-47788719D01*
X137032133Y-47788718D01*
X136885769Y-47749500D01*
X136885766Y-47749500D01*
X136734234Y-47749500D01*
X136734231Y-47749500D01*
X136587866Y-47788718D01*
X136587862Y-47788719D01*
X136456634Y-47864485D01*
X136386465Y-47934654D01*
X136351817Y-47949006D01*
X136317169Y-47934654D01*
X136306547Y-47918757D01*
X136266190Y-47821325D01*
X136156753Y-47657539D01*
X136017460Y-47518246D01*
X135853674Y-47408809D01*
X135671691Y-47333429D01*
X135671682Y-47333426D01*
X135630000Y-47325135D01*
X135630000Y-48128011D01*
X135620060Y-48110795D01*
X135564205Y-48054940D01*
X135495796Y-48015444D01*
X135419496Y-47995000D01*
X135340504Y-47995000D01*
X135264204Y-48015444D01*
X135195795Y-48054940D01*
X135139940Y-48110795D01*
X135130000Y-48128011D01*
X135130000Y-47325135D01*
X135129999Y-47325135D01*
X135088317Y-47333426D01*
X135088308Y-47333429D01*
X134906325Y-47408809D01*
X134742539Y-47518246D01*
X134603246Y-47657539D01*
X134493809Y-47821325D01*
X134418429Y-48003309D01*
X134418429Y-48003310D01*
X134380000Y-48196512D01*
X134380000Y-48595000D01*
X135080000Y-48595000D01*
X135080000Y-49095000D01*
X134380000Y-49095000D01*
X134380000Y-49493487D01*
X134418429Y-49686689D01*
X134418429Y-49686690D01*
X134493809Y-49868674D01*
X134603246Y-50032460D01*
X134742539Y-50171753D01*
X134906325Y-50281190D01*
X135088310Y-50356570D01*
X135130000Y-50364862D01*
X135130000Y-49561988D01*
X135139940Y-49579205D01*
X135195795Y-49635060D01*
X135264204Y-49674556D01*
X135340504Y-49695000D01*
X135419496Y-49695000D01*
X135495796Y-49674556D01*
X135564205Y-49635060D01*
X135620060Y-49579205D01*
X135630000Y-49561988D01*
X135630000Y-50364862D01*
X135671686Y-50356571D01*
X135671692Y-50356569D01*
X135729646Y-50332563D01*
X135767149Y-50332563D01*
X135787624Y-50348468D01*
X135842811Y-50422188D01*
X135957908Y-50508351D01*
X136092626Y-50558598D01*
X136152166Y-50565000D01*
X136432857Y-50565000D01*
X136467505Y-50579352D01*
X136481857Y-50614000D01*
X136470338Y-50645563D01*
X132769687Y-55040085D01*
X132767766Y-55043177D01*
X132737285Y-55065027D01*
X132700282Y-55058925D01*
X132684445Y-55043033D01*
X132610571Y-54923266D01*
X132490733Y-54803428D01*
X132346484Y-54714453D01*
X132185603Y-54661143D01*
X132086317Y-54651000D01*
X132063000Y-54651000D01*
X132063000Y-56610704D01*
X132050000Y-56642088D01*
X131550000Y-56642088D01*
X131550000Y-56165296D01*
X131563000Y-56133911D01*
X131563000Y-54651000D01*
X131562999Y-54650999D01*
X131539684Y-54651000D01*
X131440396Y-54661143D01*
X131279515Y-54714453D01*
X131135224Y-54803454D01*
X131098200Y-54809428D01*
X131067795Y-54787473D01*
X131060500Y-54761749D01*
X131060500Y-50275499D01*
X131074852Y-50240851D01*
X131109500Y-50226499D01*
X131415895Y-50226499D01*
X131415898Y-50226499D01*
X131445213Y-50220669D01*
X131478457Y-50198457D01*
X131500669Y-50165213D01*
X131506500Y-50135899D01*
X131506499Y-48416102D01*
X131500669Y-48386787D01*
X131500667Y-48386784D01*
X131500667Y-48386783D01*
X131478457Y-48353543D01*
X131445212Y-48331330D01*
X131415901Y-48325500D01*
X129696105Y-48325500D01*
X129696104Y-48325500D01*
X129696102Y-48325501D01*
X129666787Y-48331331D01*
X129666786Y-48331331D01*
X129666784Y-48331332D01*
X129666783Y-48331332D01*
X129633543Y-48353542D01*
X129611330Y-48386786D01*
X129611330Y-48386787D01*
X129605500Y-48416095D01*
X129605500Y-50135894D01*
X129605501Y-50135898D01*
X129611331Y-50165213D01*
X129611331Y-50165214D01*
X129611332Y-50165215D01*
X129611332Y-50165216D01*
X129621111Y-50179851D01*
X129633543Y-50198457D01*
X129666787Y-50220669D01*
X129696101Y-50226500D01*
X130510500Y-50226499D01*
X130545148Y-50240851D01*
X130559500Y-50275499D01*
X130559500Y-59343485D01*
X130551242Y-59370707D01*
X130521133Y-59415769D01*
X130509500Y-59474252D01*
X130509500Y-59773748D01*
X130521133Y-59832231D01*
X130565448Y-59898552D01*
X130572491Y-59903258D01*
X130593326Y-59934441D01*
X130586009Y-59971224D01*
X130572491Y-59984741D01*
X130571918Y-59985124D01*
X130565447Y-59989448D01*
X130534304Y-60036057D01*
X130521133Y-60055769D01*
X130509500Y-60114252D01*
X130509500Y-60413748D01*
X130521133Y-60472231D01*
X130535729Y-60494075D01*
X130565447Y-60538552D01*
X130587662Y-60553395D01*
X130631769Y-60582867D01*
X130690252Y-60594500D01*
X130690255Y-60594500D01*
X130929745Y-60594500D01*
X130929748Y-60594500D01*
X130988231Y-60582867D01*
X131021387Y-60560712D01*
X131058166Y-60553395D01*
X131083256Y-60566806D01*
X131799148Y-61282698D01*
X131813500Y-61317346D01*
X131813500Y-62161500D01*
X131799148Y-62196148D01*
X131764500Y-62210500D01*
X131361322Y-62210500D01*
X131288260Y-62225033D01*
X131205398Y-62280398D01*
X131150033Y-62363260D01*
X131140385Y-62411764D01*
X131124211Y-62435984D01*
X131125839Y-62437612D01*
X131122427Y-62441024D01*
X130322426Y-63241025D01*
X130294225Y-63269226D01*
X130266024Y-63297426D01*
X130235500Y-63371117D01*
X130235500Y-63371119D01*
X130235500Y-72824646D01*
X130235500Y-72904410D01*
X130266024Y-72978102D01*
X130266025Y-72978103D01*
X130266025Y-72978104D01*
X137646368Y-80358446D01*
X137660720Y-80393094D01*
X137646368Y-80427742D01*
X137633968Y-80436752D01*
X137625765Y-80440931D01*
X137625761Y-80440935D01*
X137583416Y-80490515D01*
X137574304Y-80512516D01*
X137570530Y-80521628D01*
X137562798Y-80560505D01*
X137562500Y-80562002D01*
X137562500Y-81379500D01*
X137548148Y-81414148D01*
X137513500Y-81428500D01*
X136442000Y-81428500D01*
X136417913Y-81433290D01*
X136401631Y-81436529D01*
X136401629Y-81436529D01*
X136401628Y-81436530D01*
X136386884Y-81442637D01*
X136370503Y-81449422D01*
X136355766Y-81456931D01*
X136355761Y-81456935D01*
X136313416Y-81506515D01*
X136308452Y-81518501D01*
X136300530Y-81537628D01*
X136293425Y-81573352D01*
X136292500Y-81578002D01*
X136292500Y-82060500D01*
X136278148Y-82095148D01*
X136243500Y-82109500D01*
X136227858Y-82109500D01*
X136193210Y-82095148D01*
X129556852Y-75458789D01*
X129542500Y-75424141D01*
X129542500Y-55582174D01*
X129542499Y-55582170D01*
X129536078Y-55566668D01*
X129504364Y-55490103D01*
X129504362Y-55490101D01*
X129504362Y-55490100D01*
X129431107Y-55416846D01*
X129431100Y-55416840D01*
X125311443Y-51297182D01*
X125297091Y-51262534D01*
X125302877Y-51239435D01*
X125342396Y-51165501D01*
X125396747Y-50986331D01*
X125415099Y-50800000D01*
X125396747Y-50613669D01*
X125342396Y-50434499D01*
X125311439Y-50376583D01*
X125254136Y-50269375D01*
X125254131Y-50269368D01*
X125171521Y-50168709D01*
X125135357Y-50124643D01*
X125067282Y-50068775D01*
X124990631Y-50005868D01*
X124990624Y-50005863D01*
X124825502Y-49917604D01*
X124646331Y-49863253D01*
X124460000Y-49844901D01*
X124273668Y-49863253D01*
X124273667Y-49863253D01*
X124094497Y-49917604D01*
X123929375Y-50005863D01*
X123929368Y-50005868D01*
X123784643Y-50124643D01*
X123665868Y-50269368D01*
X123665863Y-50269375D01*
X123577604Y-50434497D01*
X123523253Y-50613667D01*
X123523253Y-50613668D01*
X123504901Y-50799999D01*
X122420500Y-50799999D01*
X122420500Y-47362165D01*
X123110000Y-47362165D01*
X123110000Y-48010000D01*
X124026988Y-48010000D01*
X123994075Y-48067007D01*
X123960000Y-48194174D01*
X123960000Y-48325826D01*
X123994075Y-48452993D01*
X124026988Y-48510000D01*
X123110000Y-48510000D01*
X123110000Y-49157834D01*
X123116401Y-49217372D01*
X123116401Y-49217373D01*
X123166648Y-49352091D01*
X123252811Y-49467188D01*
X123367908Y-49553351D01*
X123502626Y-49603598D01*
X123562166Y-49610000D01*
X124210000Y-49610000D01*
X124210000Y-48693012D01*
X124267007Y-48725925D01*
X124394174Y-48760000D01*
X124525826Y-48760000D01*
X124652993Y-48725925D01*
X124710000Y-48693012D01*
X124710000Y-49610000D01*
X125357834Y-49610000D01*
X125417372Y-49603598D01*
X125417373Y-49603598D01*
X125552091Y-49553351D01*
X125667188Y-49467188D01*
X125753351Y-49352091D01*
X125803598Y-49217373D01*
X125803598Y-49217372D01*
X125810000Y-49157834D01*
X125810000Y-48510000D01*
X124893012Y-48510000D01*
X124925925Y-48452993D01*
X124960000Y-48325826D01*
X124960000Y-48194174D01*
X124925925Y-48067007D01*
X124893012Y-48010000D01*
X125810000Y-48010000D01*
X125810000Y-47362165D01*
X125803598Y-47302627D01*
X125803598Y-47302626D01*
X125753351Y-47167908D01*
X125667188Y-47052811D01*
X125552091Y-46966648D01*
X125417373Y-46916401D01*
X125357834Y-46910000D01*
X124710000Y-46910000D01*
X124710000Y-47826988D01*
X124652993Y-47794075D01*
X124525826Y-47760000D01*
X124394174Y-47760000D01*
X124267007Y-47794075D01*
X124210000Y-47826988D01*
X124210000Y-46910000D01*
X123562166Y-46910000D01*
X123502627Y-46916401D01*
X123502626Y-46916401D01*
X123367908Y-46966648D01*
X123252811Y-47052811D01*
X123166648Y-47167908D01*
X123116401Y-47302626D01*
X123116401Y-47302627D01*
X123110000Y-47362165D01*
X122420500Y-47362165D01*
X122420500Y-46485999D01*
X129225363Y-46485999D01*
X129225364Y-46486000D01*
X130122988Y-46486000D01*
X130090075Y-46543007D01*
X130056000Y-46670174D01*
X130056000Y-46801826D01*
X130090075Y-46928993D01*
X130122988Y-46986000D01*
X129225363Y-46986000D01*
X129282566Y-47199483D01*
X129282568Y-47199488D01*
X129382398Y-47413577D01*
X129382405Y-47413589D01*
X129517885Y-47607072D01*
X129517891Y-47607079D01*
X129684920Y-47774108D01*
X129684927Y-47774114D01*
X129878410Y-47909594D01*
X129878422Y-47909601D01*
X130092511Y-48009431D01*
X130092516Y-48009433D01*
X130306000Y-48066634D01*
X130306000Y-47169012D01*
X130363007Y-47201925D01*
X130490174Y-47236000D01*
X130621826Y-47236000D01*
X130748993Y-47201925D01*
X130806000Y-47169012D01*
X130806000Y-48066634D01*
X131019483Y-48009433D01*
X131019488Y-48009431D01*
X131233577Y-47909601D01*
X131233589Y-47909594D01*
X131427072Y-47774114D01*
X131427079Y-47774108D01*
X131594108Y-47607079D01*
X131594114Y-47607072D01*
X131729594Y-47413589D01*
X131729601Y-47413577D01*
X131812795Y-47235165D01*
X153590000Y-47235165D01*
X153590000Y-47883000D01*
X154506988Y-47883000D01*
X154474075Y-47940007D01*
X154440000Y-48067174D01*
X154440000Y-48198826D01*
X154474075Y-48325993D01*
X154506988Y-48383000D01*
X153590000Y-48383000D01*
X153590000Y-49030834D01*
X153596401Y-49090372D01*
X153596401Y-49090373D01*
X153646648Y-49225091D01*
X153732811Y-49340188D01*
X153847908Y-49426351D01*
X153982626Y-49476598D01*
X154042166Y-49483000D01*
X154690000Y-49483000D01*
X154690000Y-48566012D01*
X154747007Y-48598925D01*
X154874174Y-48633000D01*
X155005826Y-48633000D01*
X155132993Y-48598925D01*
X155190000Y-48566012D01*
X155190000Y-49483000D01*
X155837834Y-49483000D01*
X155897372Y-49476598D01*
X155897373Y-49476598D01*
X156032091Y-49426351D01*
X156147188Y-49340188D01*
X156233351Y-49225091D01*
X156283598Y-49090373D01*
X156283598Y-49090372D01*
X156290000Y-49030834D01*
X156290000Y-48383000D01*
X155373012Y-48383000D01*
X155405925Y-48325993D01*
X155440000Y-48198826D01*
X155440000Y-48067174D01*
X155405925Y-47940007D01*
X155373012Y-47883000D01*
X156290000Y-47883000D01*
X156290000Y-47235165D01*
X156283598Y-47175627D01*
X156283598Y-47175626D01*
X156233351Y-47040908D01*
X156147188Y-46925811D01*
X156032091Y-46839648D01*
X155897373Y-46789401D01*
X155837834Y-46783000D01*
X155190000Y-46783000D01*
X155190000Y-47699988D01*
X155132993Y-47667075D01*
X155005826Y-47633000D01*
X154874174Y-47633000D01*
X154747007Y-47667075D01*
X154690000Y-47699988D01*
X154690000Y-46783000D01*
X154042166Y-46783000D01*
X153982627Y-46789401D01*
X153982626Y-46789401D01*
X153847908Y-46839648D01*
X153732811Y-46925811D01*
X153646648Y-47040908D01*
X153596401Y-47175626D01*
X153596401Y-47175627D01*
X153590000Y-47235165D01*
X131812795Y-47235165D01*
X131829431Y-47199488D01*
X131829433Y-47199483D01*
X131886636Y-46986000D01*
X130989012Y-46986000D01*
X131021925Y-46928993D01*
X131056000Y-46801826D01*
X131056000Y-46670174D01*
X131021925Y-46543007D01*
X130989012Y-46486000D01*
X131886636Y-46486000D01*
X131886636Y-46485999D01*
X131829433Y-46272516D01*
X131829432Y-46272511D01*
X131729601Y-46058423D01*
X131729594Y-46058411D01*
X131594114Y-45864927D01*
X131594108Y-45864920D01*
X131427079Y-45697891D01*
X131427072Y-45697885D01*
X131233589Y-45562405D01*
X131233577Y-45562398D01*
X131019488Y-45462568D01*
X131019483Y-45462566D01*
X130806000Y-45405363D01*
X130806000Y-46302988D01*
X130748993Y-46270075D01*
X130621826Y-46236000D01*
X130490174Y-46236000D01*
X130363007Y-46270075D01*
X130306000Y-46302988D01*
X130306000Y-45405363D01*
X130305999Y-45405363D01*
X130092516Y-45462566D01*
X130092511Y-45462567D01*
X129878423Y-45562398D01*
X129878411Y-45562405D01*
X129684927Y-45697885D01*
X129684920Y-45697891D01*
X129517891Y-45864920D01*
X129517885Y-45864927D01*
X129382405Y-46058411D01*
X129382398Y-46058423D01*
X129282567Y-46272511D01*
X129282566Y-46272516D01*
X129225363Y-46485999D01*
X122420500Y-46485999D01*
X122420500Y-43729500D01*
X122434852Y-43694852D01*
X122469500Y-43680500D01*
X134462824Y-43680500D01*
X134497472Y-43694852D01*
G37*
%TD.AperFunction*%
%TD*%
M02*
