%TF.GenerationSoftware,KiCad,Pcbnew,8.0.2*%
%TF.CreationDate,2024-06-21T23:47:16-04:00*%
%TF.ProjectId,RP2040 Custom,52503230-3430-4204-9375-73746f6d2e6b,rev?*%
%TF.SameCoordinates,Original*%
%TF.FileFunction,Legend,Top*%
%TF.FilePolarity,Positive*%
%FSLAX46Y46*%
G04 Gerber Fmt 4.6, Leading zero omitted, Abs format (unit mm)*
G04 Created by KiCad (PCBNEW 8.0.2) date 2024-06-21 23:47:16*
%MOMM*%
%LPD*%
G01*
G04 APERTURE LIST*
%ADD10C,0.150000*%
%ADD11C,0.120000*%
%ADD12C,0.140357*%
G04 APERTURE END LIST*
D10*
X139835595Y-79184819D02*
X139835595Y-79994342D01*
X139835595Y-79994342D02*
X139883214Y-80089580D01*
X139883214Y-80089580D02*
X139930833Y-80137200D01*
X139930833Y-80137200D02*
X140026071Y-80184819D01*
X140026071Y-80184819D02*
X140216547Y-80184819D01*
X140216547Y-80184819D02*
X140311785Y-80137200D01*
X140311785Y-80137200D02*
X140359404Y-80089580D01*
X140359404Y-80089580D02*
X140407023Y-79994342D01*
X140407023Y-79994342D02*
X140407023Y-79184819D01*
X141407023Y-80184819D02*
X140835595Y-80184819D01*
X141121309Y-80184819D02*
X141121309Y-79184819D01*
X141121309Y-79184819D02*
X141026071Y-79327676D01*
X141026071Y-79327676D02*
X140930833Y-79422914D01*
X140930833Y-79422914D02*
X140835595Y-79470533D01*
X148342819Y-95329333D02*
X149057104Y-95329333D01*
X149057104Y-95329333D02*
X149199961Y-95376952D01*
X149199961Y-95376952D02*
X149295200Y-95472190D01*
X149295200Y-95472190D02*
X149342819Y-95615047D01*
X149342819Y-95615047D02*
X149342819Y-95710285D01*
X148342819Y-94376952D02*
X148342819Y-94853142D01*
X148342819Y-94853142D02*
X148819009Y-94900761D01*
X148819009Y-94900761D02*
X148771390Y-94853142D01*
X148771390Y-94853142D02*
X148723771Y-94757904D01*
X148723771Y-94757904D02*
X148723771Y-94519809D01*
X148723771Y-94519809D02*
X148771390Y-94424571D01*
X148771390Y-94424571D02*
X148819009Y-94376952D01*
X148819009Y-94376952D02*
X148914247Y-94329333D01*
X148914247Y-94329333D02*
X149152342Y-94329333D01*
X149152342Y-94329333D02*
X149247580Y-94376952D01*
X149247580Y-94376952D02*
X149295200Y-94424571D01*
X149295200Y-94424571D02*
X149342819Y-94519809D01*
X149342819Y-94519809D02*
X149342819Y-94757904D01*
X149342819Y-94757904D02*
X149295200Y-94853142D01*
X149295200Y-94853142D02*
X149247580Y-94900761D01*
X140313580Y-91682866D02*
X140361200Y-91730485D01*
X140361200Y-91730485D02*
X140408819Y-91873342D01*
X140408819Y-91873342D02*
X140408819Y-91968580D01*
X140408819Y-91968580D02*
X140361200Y-92111437D01*
X140361200Y-92111437D02*
X140265961Y-92206675D01*
X140265961Y-92206675D02*
X140170723Y-92254294D01*
X140170723Y-92254294D02*
X139980247Y-92301913D01*
X139980247Y-92301913D02*
X139837390Y-92301913D01*
X139837390Y-92301913D02*
X139646914Y-92254294D01*
X139646914Y-92254294D02*
X139551676Y-92206675D01*
X139551676Y-92206675D02*
X139456438Y-92111437D01*
X139456438Y-92111437D02*
X139408819Y-91968580D01*
X139408819Y-91968580D02*
X139408819Y-91873342D01*
X139408819Y-91873342D02*
X139456438Y-91730485D01*
X139456438Y-91730485D02*
X139504057Y-91682866D01*
X139408819Y-90778104D02*
X139408819Y-91254294D01*
X139408819Y-91254294D02*
X139885009Y-91301913D01*
X139885009Y-91301913D02*
X139837390Y-91254294D01*
X139837390Y-91254294D02*
X139789771Y-91159056D01*
X139789771Y-91159056D02*
X139789771Y-90920961D01*
X139789771Y-90920961D02*
X139837390Y-90825723D01*
X139837390Y-90825723D02*
X139885009Y-90778104D01*
X139885009Y-90778104D02*
X139980247Y-90730485D01*
X139980247Y-90730485D02*
X140218342Y-90730485D01*
X140218342Y-90730485D02*
X140313580Y-90778104D01*
X140313580Y-90778104D02*
X140361200Y-90825723D01*
X140361200Y-90825723D02*
X140408819Y-90920961D01*
X140408819Y-90920961D02*
X140408819Y-91159056D01*
X140408819Y-91159056D02*
X140361200Y-91254294D01*
X140361200Y-91254294D02*
X140313580Y-91301913D01*
X130222666Y-51060819D02*
X130222666Y-51775104D01*
X130222666Y-51775104D02*
X130175047Y-51917961D01*
X130175047Y-51917961D02*
X130079809Y-52013200D01*
X130079809Y-52013200D02*
X129936952Y-52060819D01*
X129936952Y-52060819D02*
X129841714Y-52060819D01*
X131127428Y-51394152D02*
X131127428Y-52060819D01*
X130889333Y-51013200D02*
X130651238Y-51727485D01*
X130651238Y-51727485D02*
X131270285Y-51727485D01*
X124126666Y-45384819D02*
X124126666Y-46099104D01*
X124126666Y-46099104D02*
X124079047Y-46241961D01*
X124079047Y-46241961D02*
X123983809Y-46337200D01*
X123983809Y-46337200D02*
X123840952Y-46384819D01*
X123840952Y-46384819D02*
X123745714Y-46384819D01*
X124555238Y-45480057D02*
X124602857Y-45432438D01*
X124602857Y-45432438D02*
X124698095Y-45384819D01*
X124698095Y-45384819D02*
X124936190Y-45384819D01*
X124936190Y-45384819D02*
X125031428Y-45432438D01*
X125031428Y-45432438D02*
X125079047Y-45480057D01*
X125079047Y-45480057D02*
X125126666Y-45575295D01*
X125126666Y-45575295D02*
X125126666Y-45670533D01*
X125126666Y-45670533D02*
X125079047Y-45813390D01*
X125079047Y-45813390D02*
X124507619Y-46384819D01*
X124507619Y-46384819D02*
X125126666Y-46384819D01*
X133335733Y-86787380D02*
X133288114Y-86835000D01*
X133288114Y-86835000D02*
X133145257Y-86882619D01*
X133145257Y-86882619D02*
X133050019Y-86882619D01*
X133050019Y-86882619D02*
X132907162Y-86835000D01*
X132907162Y-86835000D02*
X132811924Y-86739761D01*
X132811924Y-86739761D02*
X132764305Y-86644523D01*
X132764305Y-86644523D02*
X132716686Y-86454047D01*
X132716686Y-86454047D02*
X132716686Y-86311190D01*
X132716686Y-86311190D02*
X132764305Y-86120714D01*
X132764305Y-86120714D02*
X132811924Y-86025476D01*
X132811924Y-86025476D02*
X132907162Y-85930238D01*
X132907162Y-85930238D02*
X133050019Y-85882619D01*
X133050019Y-85882619D02*
X133145257Y-85882619D01*
X133145257Y-85882619D02*
X133288114Y-85930238D01*
X133288114Y-85930238D02*
X133335733Y-85977857D01*
X134192876Y-85882619D02*
X134002400Y-85882619D01*
X134002400Y-85882619D02*
X133907162Y-85930238D01*
X133907162Y-85930238D02*
X133859543Y-85977857D01*
X133859543Y-85977857D02*
X133764305Y-86120714D01*
X133764305Y-86120714D02*
X133716686Y-86311190D01*
X133716686Y-86311190D02*
X133716686Y-86692142D01*
X133716686Y-86692142D02*
X133764305Y-86787380D01*
X133764305Y-86787380D02*
X133811924Y-86835000D01*
X133811924Y-86835000D02*
X133907162Y-86882619D01*
X133907162Y-86882619D02*
X134097638Y-86882619D01*
X134097638Y-86882619D02*
X134192876Y-86835000D01*
X134192876Y-86835000D02*
X134240495Y-86787380D01*
X134240495Y-86787380D02*
X134288114Y-86692142D01*
X134288114Y-86692142D02*
X134288114Y-86454047D01*
X134288114Y-86454047D02*
X134240495Y-86358809D01*
X134240495Y-86358809D02*
X134192876Y-86311190D01*
X134192876Y-86311190D02*
X134097638Y-86263571D01*
X134097638Y-86263571D02*
X133907162Y-86263571D01*
X133907162Y-86263571D02*
X133811924Y-86311190D01*
X133811924Y-86311190D02*
X133764305Y-86358809D01*
X133764305Y-86358809D02*
X133716686Y-86454047D01*
X143615580Y-92082857D02*
X143663200Y-92130476D01*
X143663200Y-92130476D02*
X143710819Y-92273333D01*
X143710819Y-92273333D02*
X143710819Y-92368571D01*
X143710819Y-92368571D02*
X143663200Y-92511428D01*
X143663200Y-92511428D02*
X143567961Y-92606666D01*
X143567961Y-92606666D02*
X143472723Y-92654285D01*
X143472723Y-92654285D02*
X143282247Y-92701904D01*
X143282247Y-92701904D02*
X143139390Y-92701904D01*
X143139390Y-92701904D02*
X142948914Y-92654285D01*
X142948914Y-92654285D02*
X142853676Y-92606666D01*
X142853676Y-92606666D02*
X142758438Y-92511428D01*
X142758438Y-92511428D02*
X142710819Y-92368571D01*
X142710819Y-92368571D02*
X142710819Y-92273333D01*
X142710819Y-92273333D02*
X142758438Y-92130476D01*
X142758438Y-92130476D02*
X142806057Y-92082857D01*
X143710819Y-91130476D02*
X143710819Y-91701904D01*
X143710819Y-91416190D02*
X142710819Y-91416190D01*
X142710819Y-91416190D02*
X142853676Y-91511428D01*
X142853676Y-91511428D02*
X142948914Y-91606666D01*
X142948914Y-91606666D02*
X142996533Y-91701904D01*
X142806057Y-90749523D02*
X142758438Y-90701904D01*
X142758438Y-90701904D02*
X142710819Y-90606666D01*
X142710819Y-90606666D02*
X142710819Y-90368571D01*
X142710819Y-90368571D02*
X142758438Y-90273333D01*
X142758438Y-90273333D02*
X142806057Y-90225714D01*
X142806057Y-90225714D02*
X142901295Y-90178095D01*
X142901295Y-90178095D02*
X142996533Y-90178095D01*
X142996533Y-90178095D02*
X143139390Y-90225714D01*
X143139390Y-90225714D02*
X143710819Y-90797142D01*
X143710819Y-90797142D02*
X143710819Y-90178095D01*
X154606666Y-45257819D02*
X154606666Y-45972104D01*
X154606666Y-45972104D02*
X154559047Y-46114961D01*
X154559047Y-46114961D02*
X154463809Y-46210200D01*
X154463809Y-46210200D02*
X154320952Y-46257819D01*
X154320952Y-46257819D02*
X154225714Y-46257819D01*
X155606666Y-46257819D02*
X155035238Y-46257819D01*
X155320952Y-46257819D02*
X155320952Y-45257819D01*
X155320952Y-45257819D02*
X155225714Y-45400676D01*
X155225714Y-45400676D02*
X155130476Y-45495914D01*
X155130476Y-45495914D02*
X155035238Y-45543533D01*
X138027580Y-77916066D02*
X138075200Y-77963685D01*
X138075200Y-77963685D02*
X138122819Y-78106542D01*
X138122819Y-78106542D02*
X138122819Y-78201780D01*
X138122819Y-78201780D02*
X138075200Y-78344637D01*
X138075200Y-78344637D02*
X137979961Y-78439875D01*
X137979961Y-78439875D02*
X137884723Y-78487494D01*
X137884723Y-78487494D02*
X137694247Y-78535113D01*
X137694247Y-78535113D02*
X137551390Y-78535113D01*
X137551390Y-78535113D02*
X137360914Y-78487494D01*
X137360914Y-78487494D02*
X137265676Y-78439875D01*
X137265676Y-78439875D02*
X137170438Y-78344637D01*
X137170438Y-78344637D02*
X137122819Y-78201780D01*
X137122819Y-78201780D02*
X137122819Y-78106542D01*
X137122819Y-78106542D02*
X137170438Y-77963685D01*
X137170438Y-77963685D02*
X137218057Y-77916066D01*
X137122819Y-77582732D02*
X137122819Y-76963685D01*
X137122819Y-76963685D02*
X137503771Y-77297018D01*
X137503771Y-77297018D02*
X137503771Y-77154161D01*
X137503771Y-77154161D02*
X137551390Y-77058923D01*
X137551390Y-77058923D02*
X137599009Y-77011304D01*
X137599009Y-77011304D02*
X137694247Y-76963685D01*
X137694247Y-76963685D02*
X137932342Y-76963685D01*
X137932342Y-76963685D02*
X138027580Y-77011304D01*
X138027580Y-77011304D02*
X138075200Y-77058923D01*
X138075200Y-77058923D02*
X138122819Y-77154161D01*
X138122819Y-77154161D02*
X138122819Y-77439875D01*
X138122819Y-77439875D02*
X138075200Y-77535113D01*
X138075200Y-77535113D02*
X138027580Y-77582732D01*
X138461809Y-96916628D02*
X138461809Y-97392819D01*
X138128476Y-96392819D02*
X138461809Y-96916628D01*
X138461809Y-96916628D02*
X138795142Y-96392819D01*
X139652285Y-97392819D02*
X139080857Y-97392819D01*
X139366571Y-97392819D02*
X139366571Y-96392819D01*
X139366571Y-96392819D02*
X139271333Y-96535676D01*
X139271333Y-96535676D02*
X139176095Y-96630914D01*
X139176095Y-96630914D02*
X139080857Y-96678533D01*
X140965580Y-58840666D02*
X141013200Y-58888285D01*
X141013200Y-58888285D02*
X141060819Y-59031142D01*
X141060819Y-59031142D02*
X141060819Y-59126380D01*
X141060819Y-59126380D02*
X141013200Y-59269237D01*
X141013200Y-59269237D02*
X140917961Y-59364475D01*
X140917961Y-59364475D02*
X140822723Y-59412094D01*
X140822723Y-59412094D02*
X140632247Y-59459713D01*
X140632247Y-59459713D02*
X140489390Y-59459713D01*
X140489390Y-59459713D02*
X140298914Y-59412094D01*
X140298914Y-59412094D02*
X140203676Y-59364475D01*
X140203676Y-59364475D02*
X140108438Y-59269237D01*
X140108438Y-59269237D02*
X140060819Y-59126380D01*
X140060819Y-59126380D02*
X140060819Y-59031142D01*
X140060819Y-59031142D02*
X140108438Y-58888285D01*
X140108438Y-58888285D02*
X140156057Y-58840666D01*
X140489390Y-58269237D02*
X140441771Y-58364475D01*
X140441771Y-58364475D02*
X140394152Y-58412094D01*
X140394152Y-58412094D02*
X140298914Y-58459713D01*
X140298914Y-58459713D02*
X140251295Y-58459713D01*
X140251295Y-58459713D02*
X140156057Y-58412094D01*
X140156057Y-58412094D02*
X140108438Y-58364475D01*
X140108438Y-58364475D02*
X140060819Y-58269237D01*
X140060819Y-58269237D02*
X140060819Y-58078761D01*
X140060819Y-58078761D02*
X140108438Y-57983523D01*
X140108438Y-57983523D02*
X140156057Y-57935904D01*
X140156057Y-57935904D02*
X140251295Y-57888285D01*
X140251295Y-57888285D02*
X140298914Y-57888285D01*
X140298914Y-57888285D02*
X140394152Y-57935904D01*
X140394152Y-57935904D02*
X140441771Y-57983523D01*
X140441771Y-57983523D02*
X140489390Y-58078761D01*
X140489390Y-58078761D02*
X140489390Y-58269237D01*
X140489390Y-58269237D02*
X140537009Y-58364475D01*
X140537009Y-58364475D02*
X140584628Y-58412094D01*
X140584628Y-58412094D02*
X140679866Y-58459713D01*
X140679866Y-58459713D02*
X140870342Y-58459713D01*
X140870342Y-58459713D02*
X140965580Y-58412094D01*
X140965580Y-58412094D02*
X141013200Y-58364475D01*
X141013200Y-58364475D02*
X141060819Y-58269237D01*
X141060819Y-58269237D02*
X141060819Y-58078761D01*
X141060819Y-58078761D02*
X141013200Y-57983523D01*
X141013200Y-57983523D02*
X140965580Y-57935904D01*
X140965580Y-57935904D02*
X140870342Y-57888285D01*
X140870342Y-57888285D02*
X140679866Y-57888285D01*
X140679866Y-57888285D02*
X140584628Y-57935904D01*
X140584628Y-57935904D02*
X140537009Y-57983523D01*
X140537009Y-57983523D02*
X140489390Y-58078761D01*
X130214819Y-60110666D02*
X129738628Y-60443999D01*
X130214819Y-60682094D02*
X129214819Y-60682094D01*
X129214819Y-60682094D02*
X129214819Y-60301142D01*
X129214819Y-60301142D02*
X129262438Y-60205904D01*
X129262438Y-60205904D02*
X129310057Y-60158285D01*
X129310057Y-60158285D02*
X129405295Y-60110666D01*
X129405295Y-60110666D02*
X129548152Y-60110666D01*
X129548152Y-60110666D02*
X129643390Y-60158285D01*
X129643390Y-60158285D02*
X129691009Y-60205904D01*
X129691009Y-60205904D02*
X129738628Y-60301142D01*
X129738628Y-60301142D02*
X129738628Y-60682094D01*
X129214819Y-59205904D02*
X129214819Y-59682094D01*
X129214819Y-59682094D02*
X129691009Y-59729713D01*
X129691009Y-59729713D02*
X129643390Y-59682094D01*
X129643390Y-59682094D02*
X129595771Y-59586856D01*
X129595771Y-59586856D02*
X129595771Y-59348761D01*
X129595771Y-59348761D02*
X129643390Y-59253523D01*
X129643390Y-59253523D02*
X129691009Y-59205904D01*
X129691009Y-59205904D02*
X129786247Y-59158285D01*
X129786247Y-59158285D02*
X130024342Y-59158285D01*
X130024342Y-59158285D02*
X130119580Y-59205904D01*
X130119580Y-59205904D02*
X130167200Y-59253523D01*
X130167200Y-59253523D02*
X130214819Y-59348761D01*
X130214819Y-59348761D02*
X130214819Y-59586856D01*
X130214819Y-59586856D02*
X130167200Y-59682094D01*
X130167200Y-59682094D02*
X130119580Y-59729713D01*
X140662819Y-74588666D02*
X140186628Y-74921999D01*
X140662819Y-75160094D02*
X139662819Y-75160094D01*
X139662819Y-75160094D02*
X139662819Y-74779142D01*
X139662819Y-74779142D02*
X139710438Y-74683904D01*
X139710438Y-74683904D02*
X139758057Y-74636285D01*
X139758057Y-74636285D02*
X139853295Y-74588666D01*
X139853295Y-74588666D02*
X139996152Y-74588666D01*
X139996152Y-74588666D02*
X140091390Y-74636285D01*
X140091390Y-74636285D02*
X140139009Y-74683904D01*
X140139009Y-74683904D02*
X140186628Y-74779142D01*
X140186628Y-74779142D02*
X140186628Y-75160094D01*
X140662819Y-73636285D02*
X140662819Y-74207713D01*
X140662819Y-73921999D02*
X139662819Y-73921999D01*
X139662819Y-73921999D02*
X139805676Y-74017237D01*
X139805676Y-74017237D02*
X139900914Y-74112475D01*
X139900914Y-74112475D02*
X139948533Y-74207713D01*
X146423142Y-80115580D02*
X146375523Y-80163200D01*
X146375523Y-80163200D02*
X146232666Y-80210819D01*
X146232666Y-80210819D02*
X146137428Y-80210819D01*
X146137428Y-80210819D02*
X145994571Y-80163200D01*
X145994571Y-80163200D02*
X145899333Y-80067961D01*
X145899333Y-80067961D02*
X145851714Y-79972723D01*
X145851714Y-79972723D02*
X145804095Y-79782247D01*
X145804095Y-79782247D02*
X145804095Y-79639390D01*
X145804095Y-79639390D02*
X145851714Y-79448914D01*
X145851714Y-79448914D02*
X145899333Y-79353676D01*
X145899333Y-79353676D02*
X145994571Y-79258438D01*
X145994571Y-79258438D02*
X146137428Y-79210819D01*
X146137428Y-79210819D02*
X146232666Y-79210819D01*
X146232666Y-79210819D02*
X146375523Y-79258438D01*
X146375523Y-79258438D02*
X146423142Y-79306057D01*
X147375523Y-80210819D02*
X146804095Y-80210819D01*
X147089809Y-80210819D02*
X147089809Y-79210819D01*
X147089809Y-79210819D02*
X146994571Y-79353676D01*
X146994571Y-79353676D02*
X146899333Y-79448914D01*
X146899333Y-79448914D02*
X146804095Y-79496533D01*
X148327904Y-80210819D02*
X147756476Y-80210819D01*
X148042190Y-80210819D02*
X148042190Y-79210819D01*
X148042190Y-79210819D02*
X147946952Y-79353676D01*
X147946952Y-79353676D02*
X147851714Y-79448914D01*
X147851714Y-79448914D02*
X147756476Y-79496533D01*
X132421333Y-59033580D02*
X132373714Y-59081200D01*
X132373714Y-59081200D02*
X132230857Y-59128819D01*
X132230857Y-59128819D02*
X132135619Y-59128819D01*
X132135619Y-59128819D02*
X131992762Y-59081200D01*
X131992762Y-59081200D02*
X131897524Y-58985961D01*
X131897524Y-58985961D02*
X131849905Y-58890723D01*
X131849905Y-58890723D02*
X131802286Y-58700247D01*
X131802286Y-58700247D02*
X131802286Y-58557390D01*
X131802286Y-58557390D02*
X131849905Y-58366914D01*
X131849905Y-58366914D02*
X131897524Y-58271676D01*
X131897524Y-58271676D02*
X131992762Y-58176438D01*
X131992762Y-58176438D02*
X132135619Y-58128819D01*
X132135619Y-58128819D02*
X132230857Y-58128819D01*
X132230857Y-58128819D02*
X132373714Y-58176438D01*
X132373714Y-58176438D02*
X132421333Y-58224057D01*
X132802286Y-58224057D02*
X132849905Y-58176438D01*
X132849905Y-58176438D02*
X132945143Y-58128819D01*
X132945143Y-58128819D02*
X133183238Y-58128819D01*
X133183238Y-58128819D02*
X133278476Y-58176438D01*
X133278476Y-58176438D02*
X133326095Y-58224057D01*
X133326095Y-58224057D02*
X133373714Y-58319295D01*
X133373714Y-58319295D02*
X133373714Y-58414533D01*
X133373714Y-58414533D02*
X133326095Y-58557390D01*
X133326095Y-58557390D02*
X132754667Y-59128819D01*
X132754667Y-59128819D02*
X133373714Y-59128819D01*
X139806819Y-53252666D02*
X139330628Y-53585999D01*
X139806819Y-53824094D02*
X138806819Y-53824094D01*
X138806819Y-53824094D02*
X138806819Y-53443142D01*
X138806819Y-53443142D02*
X138854438Y-53347904D01*
X138854438Y-53347904D02*
X138902057Y-53300285D01*
X138902057Y-53300285D02*
X138997295Y-53252666D01*
X138997295Y-53252666D02*
X139140152Y-53252666D01*
X139140152Y-53252666D02*
X139235390Y-53300285D01*
X139235390Y-53300285D02*
X139283009Y-53347904D01*
X139283009Y-53347904D02*
X139330628Y-53443142D01*
X139330628Y-53443142D02*
X139330628Y-53824094D01*
X138806819Y-52919332D02*
X138806819Y-52300285D01*
X138806819Y-52300285D02*
X139187771Y-52633618D01*
X139187771Y-52633618D02*
X139187771Y-52490761D01*
X139187771Y-52490761D02*
X139235390Y-52395523D01*
X139235390Y-52395523D02*
X139283009Y-52347904D01*
X139283009Y-52347904D02*
X139378247Y-52300285D01*
X139378247Y-52300285D02*
X139616342Y-52300285D01*
X139616342Y-52300285D02*
X139711580Y-52347904D01*
X139711580Y-52347904D02*
X139759200Y-52395523D01*
X139759200Y-52395523D02*
X139806819Y-52490761D01*
X139806819Y-52490761D02*
X139806819Y-52776475D01*
X139806819Y-52776475D02*
X139759200Y-52871713D01*
X139759200Y-52871713D02*
X139711580Y-52919332D01*
X132421333Y-54555580D02*
X132373714Y-54603200D01*
X132373714Y-54603200D02*
X132230857Y-54650819D01*
X132230857Y-54650819D02*
X132135619Y-54650819D01*
X132135619Y-54650819D02*
X131992762Y-54603200D01*
X131992762Y-54603200D02*
X131897524Y-54507961D01*
X131897524Y-54507961D02*
X131849905Y-54412723D01*
X131849905Y-54412723D02*
X131802286Y-54222247D01*
X131802286Y-54222247D02*
X131802286Y-54079390D01*
X131802286Y-54079390D02*
X131849905Y-53888914D01*
X131849905Y-53888914D02*
X131897524Y-53793676D01*
X131897524Y-53793676D02*
X131992762Y-53698438D01*
X131992762Y-53698438D02*
X132135619Y-53650819D01*
X132135619Y-53650819D02*
X132230857Y-53650819D01*
X132230857Y-53650819D02*
X132373714Y-53698438D01*
X132373714Y-53698438D02*
X132421333Y-53746057D01*
X133373714Y-54650819D02*
X132802286Y-54650819D01*
X133088000Y-54650819D02*
X133088000Y-53650819D01*
X133088000Y-53650819D02*
X132992762Y-53793676D01*
X132992762Y-53793676D02*
X132897524Y-53888914D01*
X132897524Y-53888914D02*
X132802286Y-53936533D01*
X144689533Y-91435580D02*
X144641914Y-91483200D01*
X144641914Y-91483200D02*
X144499057Y-91530819D01*
X144499057Y-91530819D02*
X144403819Y-91530819D01*
X144403819Y-91530819D02*
X144260962Y-91483200D01*
X144260962Y-91483200D02*
X144165724Y-91387961D01*
X144165724Y-91387961D02*
X144118105Y-91292723D01*
X144118105Y-91292723D02*
X144070486Y-91102247D01*
X144070486Y-91102247D02*
X144070486Y-90959390D01*
X144070486Y-90959390D02*
X144118105Y-90768914D01*
X144118105Y-90768914D02*
X144165724Y-90673676D01*
X144165724Y-90673676D02*
X144260962Y-90578438D01*
X144260962Y-90578438D02*
X144403819Y-90530819D01*
X144403819Y-90530819D02*
X144499057Y-90530819D01*
X144499057Y-90530819D02*
X144641914Y-90578438D01*
X144641914Y-90578438D02*
X144689533Y-90626057D01*
X145022867Y-90530819D02*
X145689533Y-90530819D01*
X145689533Y-90530819D02*
X145260962Y-91530819D01*
X135852819Y-57071904D02*
X136662342Y-57071904D01*
X136662342Y-57071904D02*
X136757580Y-57024285D01*
X136757580Y-57024285D02*
X136805200Y-56976666D01*
X136805200Y-56976666D02*
X136852819Y-56881428D01*
X136852819Y-56881428D02*
X136852819Y-56690952D01*
X136852819Y-56690952D02*
X136805200Y-56595714D01*
X136805200Y-56595714D02*
X136757580Y-56548095D01*
X136757580Y-56548095D02*
X136662342Y-56500476D01*
X136662342Y-56500476D02*
X135852819Y-56500476D01*
X135852819Y-56119523D02*
X135852819Y-55500476D01*
X135852819Y-55500476D02*
X136233771Y-55833809D01*
X136233771Y-55833809D02*
X136233771Y-55690952D01*
X136233771Y-55690952D02*
X136281390Y-55595714D01*
X136281390Y-55595714D02*
X136329009Y-55548095D01*
X136329009Y-55548095D02*
X136424247Y-55500476D01*
X136424247Y-55500476D02*
X136662342Y-55500476D01*
X136662342Y-55500476D02*
X136757580Y-55548095D01*
X136757580Y-55548095D02*
X136805200Y-55595714D01*
X136805200Y-55595714D02*
X136852819Y-55690952D01*
X136852819Y-55690952D02*
X136852819Y-55976666D01*
X136852819Y-55976666D02*
X136805200Y-56071904D01*
X136805200Y-56071904D02*
X136757580Y-56119523D01*
X148423333Y-86787380D02*
X148375714Y-86835000D01*
X148375714Y-86835000D02*
X148232857Y-86882619D01*
X148232857Y-86882619D02*
X148137619Y-86882619D01*
X148137619Y-86882619D02*
X147994762Y-86835000D01*
X147994762Y-86835000D02*
X147899524Y-86739761D01*
X147899524Y-86739761D02*
X147851905Y-86644523D01*
X147851905Y-86644523D02*
X147804286Y-86454047D01*
X147804286Y-86454047D02*
X147804286Y-86311190D01*
X147804286Y-86311190D02*
X147851905Y-86120714D01*
X147851905Y-86120714D02*
X147899524Y-86025476D01*
X147899524Y-86025476D02*
X147994762Y-85930238D01*
X147994762Y-85930238D02*
X148137619Y-85882619D01*
X148137619Y-85882619D02*
X148232857Y-85882619D01*
X148232857Y-85882619D02*
X148375714Y-85930238D01*
X148375714Y-85930238D02*
X148423333Y-85977857D01*
X149280476Y-86215952D02*
X149280476Y-86882619D01*
X149042381Y-85835000D02*
X148804286Y-86549285D01*
X148804286Y-86549285D02*
X149423333Y-86549285D01*
X146899333Y-78591580D02*
X146851714Y-78639200D01*
X146851714Y-78639200D02*
X146708857Y-78686819D01*
X146708857Y-78686819D02*
X146613619Y-78686819D01*
X146613619Y-78686819D02*
X146470762Y-78639200D01*
X146470762Y-78639200D02*
X146375524Y-78543961D01*
X146375524Y-78543961D02*
X146327905Y-78448723D01*
X146327905Y-78448723D02*
X146280286Y-78258247D01*
X146280286Y-78258247D02*
X146280286Y-78115390D01*
X146280286Y-78115390D02*
X146327905Y-77924914D01*
X146327905Y-77924914D02*
X146375524Y-77829676D01*
X146375524Y-77829676D02*
X146470762Y-77734438D01*
X146470762Y-77734438D02*
X146613619Y-77686819D01*
X146613619Y-77686819D02*
X146708857Y-77686819D01*
X146708857Y-77686819D02*
X146851714Y-77734438D01*
X146851714Y-77734438D02*
X146899333Y-77782057D01*
X147232667Y-77686819D02*
X147851714Y-77686819D01*
X147851714Y-77686819D02*
X147518381Y-78067771D01*
X147518381Y-78067771D02*
X147661238Y-78067771D01*
X147661238Y-78067771D02*
X147756476Y-78115390D01*
X147756476Y-78115390D02*
X147804095Y-78163009D01*
X147804095Y-78163009D02*
X147851714Y-78258247D01*
X147851714Y-78258247D02*
X147851714Y-78496342D01*
X147851714Y-78496342D02*
X147804095Y-78591580D01*
X147804095Y-78591580D02*
X147756476Y-78639200D01*
X147756476Y-78639200D02*
X147661238Y-78686819D01*
X147661238Y-78686819D02*
X147375524Y-78686819D01*
X147375524Y-78686819D02*
X147280286Y-78639200D01*
X147280286Y-78639200D02*
X147232667Y-78591580D01*
X143964819Y-74588666D02*
X143488628Y-74921999D01*
X143964819Y-75160094D02*
X142964819Y-75160094D01*
X142964819Y-75160094D02*
X142964819Y-74779142D01*
X142964819Y-74779142D02*
X143012438Y-74683904D01*
X143012438Y-74683904D02*
X143060057Y-74636285D01*
X143060057Y-74636285D02*
X143155295Y-74588666D01*
X143155295Y-74588666D02*
X143298152Y-74588666D01*
X143298152Y-74588666D02*
X143393390Y-74636285D01*
X143393390Y-74636285D02*
X143441009Y-74683904D01*
X143441009Y-74683904D02*
X143488628Y-74779142D01*
X143488628Y-74779142D02*
X143488628Y-75160094D01*
X143060057Y-74207713D02*
X143012438Y-74160094D01*
X143012438Y-74160094D02*
X142964819Y-74064856D01*
X142964819Y-74064856D02*
X142964819Y-73826761D01*
X142964819Y-73826761D02*
X143012438Y-73731523D01*
X143012438Y-73731523D02*
X143060057Y-73683904D01*
X143060057Y-73683904D02*
X143155295Y-73636285D01*
X143155295Y-73636285D02*
X143250533Y-73636285D01*
X143250533Y-73636285D02*
X143393390Y-73683904D01*
X143393390Y-73683904D02*
X143964819Y-74255332D01*
X143964819Y-74255332D02*
X143964819Y-73636285D01*
X142581333Y-54048819D02*
X142248000Y-53572628D01*
X142009905Y-54048819D02*
X142009905Y-53048819D01*
X142009905Y-53048819D02*
X142390857Y-53048819D01*
X142390857Y-53048819D02*
X142486095Y-53096438D01*
X142486095Y-53096438D02*
X142533714Y-53144057D01*
X142533714Y-53144057D02*
X142581333Y-53239295D01*
X142581333Y-53239295D02*
X142581333Y-53382152D01*
X142581333Y-53382152D02*
X142533714Y-53477390D01*
X142533714Y-53477390D02*
X142486095Y-53525009D01*
X142486095Y-53525009D02*
X142390857Y-53572628D01*
X142390857Y-53572628D02*
X142009905Y-53572628D01*
X143438476Y-53382152D02*
X143438476Y-54048819D01*
X143200381Y-53001200D02*
X142962286Y-53715485D01*
X142962286Y-53715485D02*
X143581333Y-53715485D01*
D11*
%TO.C,U1*%
X136987500Y-81600000D02*
X136987500Y-81190000D01*
X136987500Y-88170000D02*
X136987500Y-87520000D01*
X137637500Y-80950000D02*
X137287500Y-80950000D01*
X137637500Y-88170000D02*
X136987500Y-88170000D01*
X143557500Y-80950000D02*
X144207500Y-80950000D01*
X143557500Y-88170000D02*
X144207500Y-88170000D01*
X144207500Y-80950000D02*
X144207500Y-81600000D01*
X144207500Y-88170000D02*
X144207500Y-87520000D01*
X136987500Y-80950000D02*
X136747500Y-80620000D01*
X137227500Y-80620000D01*
X136987500Y-80950000D01*
G36*
X136987500Y-80950000D02*
G01*
X136747500Y-80620000D01*
X137227500Y-80620000D01*
X136987500Y-80950000D01*
G37*
%TO.C,J5*%
X145288000Y-96326000D02*
X142688000Y-96326000D01*
X142688000Y-93666000D02*
X142688000Y-96326000D01*
X145288000Y-93666000D02*
X145288000Y-96326000D01*
X145288000Y-93666000D02*
X142688000Y-93666000D01*
X146558000Y-93666000D02*
X147888000Y-93666000D01*
X147888000Y-93666000D02*
X147888000Y-94996000D01*
%TO.C,C5*%
X140610000Y-91332164D02*
X140610000Y-91547836D01*
X141330000Y-91332164D02*
X141330000Y-91547836D01*
%TO.C,J4*%
X129226000Y-48006000D02*
X129226000Y-45406000D01*
X131886000Y-45406000D02*
X129226000Y-45406000D01*
X131886000Y-48006000D02*
X129226000Y-48006000D01*
X131886000Y-48006000D02*
X131886000Y-45406000D01*
X131886000Y-49276000D02*
X131886000Y-50606000D01*
X131886000Y-50606000D02*
X130556000Y-50606000D01*
%TO.C,J2*%
X123130000Y-46930000D02*
X124460000Y-46930000D01*
X123130000Y-48260000D02*
X123130000Y-46930000D01*
X123130000Y-49530000D02*
X123130000Y-97850000D01*
X123130000Y-49530000D02*
X125790000Y-49530000D01*
X123130000Y-97850000D02*
X125790000Y-97850000D01*
X125790000Y-49530000D02*
X125790000Y-97850000D01*
%TO.C,C6*%
X133610236Y-84907800D02*
X133394564Y-84907800D01*
X133610236Y-85627800D02*
X133394564Y-85627800D01*
%TO.C,C12*%
X142346000Y-91547836D02*
X142346000Y-91332164D01*
X141626000Y-91547836D02*
X141626000Y-91332164D01*
%TO.C,J1*%
X153610000Y-46803000D02*
X154940000Y-46803000D01*
X153610000Y-48133000D02*
X153610000Y-46803000D01*
X153610000Y-49403000D02*
X153610000Y-97723000D01*
X153610000Y-49403000D02*
X156270000Y-49403000D01*
X153610000Y-97723000D02*
X156270000Y-97723000D01*
X156270000Y-49403000D02*
X156270000Y-97723000D01*
%TO.C,C3*%
X138476400Y-77641564D02*
X138476400Y-77857236D01*
X139196400Y-77641564D02*
X139196400Y-77857236D01*
%TO.C,Y1*%
X140938000Y-92838000D02*
X136938000Y-92838000D01*
X140938000Y-96138000D02*
X140938000Y-92838000D01*
%TO.C,C8*%
X139086000Y-58566164D02*
X139086000Y-58781836D01*
X139806000Y-58566164D02*
X139806000Y-58781836D01*
%TO.C,R1*%
X139981000Y-76988936D02*
X139981000Y-77443064D01*
X141451000Y-76988936D02*
X141451000Y-77443064D01*
%TO.C,C11*%
X145395836Y-79396000D02*
X145180164Y-79396000D01*
X145395836Y-80116000D02*
X145180164Y-80116000D01*
%TO.C,C2*%
X132434420Y-56640000D02*
X132715580Y-56640000D01*
X132434420Y-57660000D02*
X132715580Y-57660000D01*
%TO.C,R3*%
X137399500Y-52848742D02*
X137399500Y-53323258D01*
X138444500Y-52848742D02*
X138444500Y-53323258D01*
%TO.C,C1*%
X132447420Y-55116000D02*
X132728580Y-55116000D01*
X132447420Y-56136000D02*
X132728580Y-56136000D01*
%TO.C,C7*%
X144964036Y-89556000D02*
X144748364Y-89556000D01*
X144964036Y-90276000D02*
X144748364Y-90276000D01*
%TO.C,U3*%
X134205000Y-56810000D02*
X134205000Y-55810000D01*
X135685000Y-56810000D02*
X135685000Y-55810000D01*
D12*
X134565178Y-57310000D02*
G75*
G02*
X134424822Y-57310000I-70178J0D01*
G01*
X134424822Y-57310000D02*
G75*
G02*
X134565178Y-57310000I70178J0D01*
G01*
D11*
%TO.C,U2*%
X132911000Y-61791000D02*
X132911000Y-62051000D01*
X132911000Y-67241000D02*
X132911000Y-66981000D01*
X135636000Y-61791000D02*
X132911000Y-61791000D01*
X135636000Y-61791000D02*
X138361000Y-61791000D01*
X135636000Y-67241000D02*
X132911000Y-67241000D01*
X135636000Y-67241000D02*
X138361000Y-67241000D01*
X138361000Y-61791000D02*
X138361000Y-62051000D01*
X138361000Y-67241000D02*
X138361000Y-66981000D01*
X132128500Y-62051000D02*
X131888500Y-61721000D01*
X132368500Y-61721000D01*
X132128500Y-62051000D01*
G36*
X132128500Y-62051000D02*
G01*
X131888500Y-61721000D01*
X132368500Y-61721000D01*
X132128500Y-62051000D01*
G37*
%TO.C,J1*%
X135120000Y-41935000D02*
X144280000Y-41935000D01*
X135120000Y-43640000D02*
X135120000Y-41935000D01*
X135120000Y-45650000D02*
X135120000Y-47570000D01*
X144280000Y-41935000D02*
X144280000Y-43640000D01*
X144280000Y-47570000D02*
X144280000Y-45650000D01*
%TO.C,C4*%
X148697836Y-84907800D02*
X148482164Y-84907800D01*
X148697836Y-85627800D02*
X148482164Y-85627800D01*
%TO.C,C3*%
X145345036Y-77922800D02*
X145129364Y-77922800D01*
X145345036Y-78642800D02*
X145129364Y-78642800D01*
%TO.C,R2*%
X142267000Y-76988936D02*
X142267000Y-77443064D01*
X143737000Y-76988936D02*
X143737000Y-77443064D01*
%TO.C,R4*%
X142510742Y-51547500D02*
X142985258Y-51547500D01*
X142510742Y-52592500D02*
X142985258Y-52592500D01*
%TD*%
M02*
