M48
; DRILL file {KiCad 8.0.2} date 2024-06-21T23:47:11-0400
; FORMAT={-:-/ absolute / inch / decimal}
; #@! TF.CreationDate,2024-06-21T23:47:11-04:00
; #@! TF.GenerationSoftware,Kicad,Pcbnew,8.0.2
; #@! TF.FileFunction,Plated,1,4,PTH
FMAT,2
INCH
; #@! TA.AperFunction,Plated,PTH,ViaDrill
T1C0.0118
; #@! TA.AperFunction,Plated,PTH,ComponentDrill
T2C0.0236
; #@! TA.AperFunction,Plated,PTH,ComponentDrill
T3C0.0394
%
G90
G05
T1
X4.88Y-1.75
X5.0Y-2.49
X5.03Y-1.94
X5.06Y-3.17
X5.07Y-3.47
X5.07Y-3.55
X5.07Y-3.64
X5.07Y-3.75
X5.19Y-3.01
X5.27Y-2.76
X5.45Y-1.81
X5.5267Y-3.2299
X5.5353Y-3.3291
X5.559Y-3.423
X5.606Y-3.23
X5.9Y-3.55
X5.91Y-3.77
X5.92Y-3.35
X5.98Y-3.47
X6.09Y-1.75
T3
X4.9Y-1.9
X4.9Y-2.0
X4.9Y-2.1
X4.9Y-2.2
X4.9Y-2.3
X4.9Y-2.4
X4.9Y-2.5
X4.9Y-2.6
X4.9Y-2.7
X4.9Y-2.8
X4.9Y-2.9
X4.9Y-3.0
X4.9Y-3.1
X4.9Y-3.2
X4.9Y-3.3
X4.9Y-3.4
X4.9Y-3.5
X4.9Y-3.6
X4.9Y-3.7
X4.9Y-3.8
X5.14Y-1.84
X5.14Y-1.94
X5.67Y-3.74
X5.77Y-3.74
X6.1Y-1.895
X6.1Y-1.995
X6.1Y-2.095
X6.1Y-2.195
X6.1Y-2.295
X6.1Y-2.395
X6.1Y-2.495
X6.1Y-2.595
X6.1Y-2.695
X6.1Y-2.795
X6.1Y-2.895
X6.1Y-2.995
X6.1Y-3.095
X6.1Y-3.195
X6.1Y-3.295
X6.1Y-3.395
X6.1Y-3.495
X6.1Y-3.595
X6.1Y-3.695
X6.1Y-3.795
T2
G00X5.3299Y-1.7734
M15
G01X5.3299Y-1.7419
M16
G05
G00X5.3299Y-1.9447
M15
G01X5.3299Y-1.9014
M16
G05
G00X5.6701Y-1.7734
M15
G01X5.6701Y-1.7419
M16
G05
G00X5.6701Y-1.9447
M15
G01X5.6701Y-1.9014
M16
G05
M30
