%TF.GenerationSoftware,KiCad,Pcbnew,8.0.3*%
%TF.CreationDate,2024-07-23T22:42:35-04:00*%
%TF.ProjectId,RP2040 Custom,52503230-3430-4204-9375-73746f6d2e6b,rev?*%
%TF.SameCoordinates,Original*%
%TF.FileFunction,Copper,L1,Top*%
%TF.FilePolarity,Positive*%
%FSLAX46Y46*%
G04 Gerber Fmt 4.6, Leading zero omitted, Abs format (unit mm)*
G04 Created by KiCad (PCBNEW 8.0.3) date 2024-07-23 22:42:35*
%MOMM*%
%LPD*%
G01*
G04 APERTURE LIST*
G04 Aperture macros list*
%AMRoundRect*
0 Rectangle with rounded corners*
0 $1 Rounding radius*
0 $2 $3 $4 $5 $6 $7 $8 $9 X,Y pos of 4 corners*
0 Add a 4 corners polygon primitive as box body*
4,1,4,$2,$3,$4,$5,$6,$7,$8,$9,$2,$3,0*
0 Add four circle primitives for the rounded corners*
1,1,$1+$1,$2,$3*
1,1,$1+$1,$4,$5*
1,1,$1+$1,$6,$7*
1,1,$1+$1,$8,$9*
0 Add four rect primitives between the rounded corners*
20,1,$1+$1,$2,$3,$4,$5,0*
20,1,$1+$1,$4,$5,$6,$7,0*
20,1,$1+$1,$6,$7,$8,$9,0*
20,1,$1+$1,$8,$9,$2,$3,0*%
%AMFreePoly0*
4,1,6,0.230000,0.054289,0.020711,-0.155000,-0.230000,-0.155000,-0.230000,0.155000,0.230000,0.155000,0.230000,0.054289,0.230000,0.054289,$1*%
%AMFreePoly1*
4,1,6,0.230000,-0.054289,0.230000,-0.155000,-0.230000,-0.155000,-0.230000,0.155000,0.020711,0.155000,0.230000,-0.054289,0.230000,-0.054289,$1*%
%AMFreePoly2*
4,1,6,0.230000,-0.155000,-0.230000,-0.155000,-0.230000,-0.054289,-0.020711,0.155000,0.230000,0.155000,0.230000,-0.155000,0.230000,-0.155000,$1*%
%AMFreePoly3*
4,1,6,0.230000,-0.155000,-0.020711,-0.155000,-0.230000,0.054289,-0.230000,0.155000,0.230000,0.155000,0.230000,-0.155000,0.230000,-0.155000,$1*%
G04 Aperture macros list end*
%TA.AperFunction,SMDPad,CuDef*%
%ADD10RoundRect,0.140000X-0.170000X0.140000X-0.170000X-0.140000X0.170000X-0.140000X0.170000X0.140000X0*%
%TD*%
%TA.AperFunction,ComponentPad*%
%ADD11R,1.700000X1.700000*%
%TD*%
%TA.AperFunction,ComponentPad*%
%ADD12C,1.700000*%
%TD*%
%TA.AperFunction,SMDPad,CuDef*%
%ADD13RoundRect,0.140000X0.170000X-0.140000X0.170000X0.140000X-0.170000X0.140000X-0.170000X-0.140000X0*%
%TD*%
%TA.AperFunction,SMDPad,CuDef*%
%ADD14RoundRect,0.140000X-0.140000X-0.170000X0.140000X-0.170000X0.140000X0.170000X-0.140000X0.170000X0*%
%TD*%
%TA.AperFunction,ComponentPad*%
%ADD15O,1.700000X1.700000*%
%TD*%
%TA.AperFunction,SMDPad,CuDef*%
%ADD16RoundRect,0.140000X0.140000X0.170000X-0.140000X0.170000X-0.140000X-0.170000X0.140000X-0.170000X0*%
%TD*%
%TA.AperFunction,SMDPad,CuDef*%
%ADD17R,1.400000X1.200000*%
%TD*%
%TA.AperFunction,SMDPad,CuDef*%
%ADD18RoundRect,0.050000X-0.387500X-0.050000X0.387500X-0.050000X0.387500X0.050000X-0.387500X0.050000X0*%
%TD*%
%TA.AperFunction,SMDPad,CuDef*%
%ADD19RoundRect,0.050000X-0.050000X-0.387500X0.050000X-0.387500X0.050000X0.387500X-0.050000X0.387500X0*%
%TD*%
%TA.AperFunction,HeatsinkPad*%
%ADD20R,3.200000X3.200000*%
%TD*%
%TA.AperFunction,SMDPad,CuDef*%
%ADD21RoundRect,0.100000X-0.100000X0.130000X-0.100000X-0.130000X0.100000X-0.130000X0.100000X0.130000X0*%
%TD*%
%TA.AperFunction,SMDPad,CuDef*%
%ADD22RoundRect,0.225000X-0.225000X-0.250000X0.225000X-0.250000X0.225000X0.250000X-0.225000X0.250000X0*%
%TD*%
%TA.AperFunction,SMDPad,CuDef*%
%ADD23RoundRect,0.200000X0.200000X0.275000X-0.200000X0.275000X-0.200000X-0.275000X0.200000X-0.275000X0*%
%TD*%
%TA.AperFunction,SMDPad,CuDef*%
%ADD24FreePoly0,90.000000*%
%TD*%
%TA.AperFunction,SMDPad,CuDef*%
%ADD25FreePoly1,90.000000*%
%TD*%
%TA.AperFunction,SMDPad,CuDef*%
%ADD26FreePoly2,90.000000*%
%TD*%
%TA.AperFunction,SMDPad,CuDef*%
%ADD27FreePoly3,90.000000*%
%TD*%
%TA.AperFunction,SMDPad,CuDef*%
%ADD28RoundRect,0.145000X0.205061X0.000000X0.000000X0.205061X-0.205061X0.000000X0.000000X-0.205061X0*%
%TD*%
%TA.AperFunction,SMDPad,CuDef*%
%ADD29RoundRect,0.150000X0.150000X-0.650000X0.150000X0.650000X-0.150000X0.650000X-0.150000X-0.650000X0*%
%TD*%
%TA.AperFunction,SMDPad,CuDef*%
%ADD30R,0.600000X1.240000*%
%TD*%
%TA.AperFunction,SMDPad,CuDef*%
%ADD31R,0.300000X1.240000*%
%TD*%
%TA.AperFunction,ComponentPad*%
%ADD32O,1.000000X2.100000*%
%TD*%
%TA.AperFunction,ComponentPad*%
%ADD33O,1.000000X1.800000*%
%TD*%
%TA.AperFunction,SMDPad,CuDef*%
%ADD34RoundRect,0.200000X-0.275000X0.200000X-0.275000X-0.200000X0.275000X-0.200000X0.275000X0.200000X0*%
%TD*%
%TA.AperFunction,ViaPad*%
%ADD35C,0.600000*%
%TD*%
%TA.AperFunction,Conductor*%
%ADD36C,0.200000*%
%TD*%
%TA.AperFunction,Conductor*%
%ADD37C,0.300000*%
%TD*%
G04 APERTURE END LIST*
D10*
%TO.P,C5,1*%
%TO.N,3.3V*%
X139471400Y-82857400D03*
%TO.P,C5,2*%
%TO.N,GND*%
X139471400Y-83817400D03*
%TD*%
D11*
%TO.P,J4,1,Pin_1*%
%TO.N,GND*%
X132080000Y-45720000D03*
D12*
%TO.P,J4,2,Pin_2*%
%TO.N,Net-(J4-Pin_2)*%
X132080000Y-48260000D03*
%TD*%
D13*
%TO.P,C3,1*%
%TO.N,3.3V*%
X139319000Y-71216400D03*
%TO.P,C3,2*%
%TO.N,GND*%
X139319000Y-70256400D03*
%TD*%
D14*
%TO.P,C14,1*%
%TO.N,Net-(U1-XOUT)*%
X138712000Y-85115400D03*
%TO.P,C14,2*%
%TO.N,GND*%
X139672000Y-85115400D03*
%TD*%
D11*
%TO.P,J2,1,Pin_1*%
%TO.N,GND*%
X129540000Y-48260000D03*
D15*
%TO.P,J2,2,Pin_2*%
%TO.N,GPIO0*%
X129540000Y-50800000D03*
%TO.P,J2,3,Pin_3*%
%TO.N,GPIO1*%
X129540000Y-53340000D03*
%TO.P,J2,4,Pin_4*%
%TO.N,GPIO2*%
X129540000Y-55880000D03*
%TO.P,J2,5,Pin_5*%
%TO.N,GPIO3*%
X129540000Y-58420000D03*
%TO.P,J2,6,Pin_6*%
%TO.N,GND*%
X129540000Y-60960000D03*
%TO.P,J2,7,Pin_7*%
%TO.N,GPIO4*%
X129540000Y-63500000D03*
%TO.P,J2,8,Pin_8*%
%TO.N,GPIO5*%
X129540000Y-66040000D03*
%TO.P,J2,9,Pin_9*%
%TO.N,GPIO6*%
X129540000Y-68580000D03*
%TO.P,J2,10,Pin_10*%
%TO.N,GPIO7*%
X129540000Y-71120000D03*
%TO.P,J2,11,Pin_11*%
%TO.N,GND*%
X129540000Y-73660000D03*
%TO.P,J2,12,Pin_12*%
%TO.N,GPIO8*%
X129540000Y-76200000D03*
%TO.P,J2,13,Pin_13*%
%TO.N,GPIO9*%
X129540000Y-78740000D03*
%TO.P,J2,14,Pin_14*%
%TO.N,GPIO10*%
X129540000Y-81280000D03*
%TO.P,J2,15,Pin_15*%
%TO.N,GPIO11*%
X129540000Y-83820000D03*
%TO.P,J2,16,Pin_16*%
%TO.N,GND*%
X129540000Y-86360000D03*
%TO.P,J2,17,Pin_17*%
%TO.N,GPIO12*%
X129540000Y-88900000D03*
%TO.P,J2,18,Pin_18*%
%TO.N,GPIO13*%
X129540000Y-91440000D03*
%TO.P,J2,19,Pin_19*%
%TO.N,GPIO14*%
X129540000Y-93980000D03*
%TO.P,J2,20,Pin_20*%
%TO.N,GPIO15*%
X129540000Y-96520000D03*
%TD*%
D10*
%TO.P,C16,1*%
%TO.N,GND*%
X144957800Y-70637400D03*
%TO.P,C16,2*%
%TO.N,3.3V*%
X144957800Y-71597400D03*
%TD*%
D16*
%TO.P,C6,1*%
%TO.N,3.3V*%
X134386200Y-77647800D03*
%TO.P,C6,2*%
%TO.N,GND*%
X133426200Y-77647800D03*
%TD*%
D13*
%TO.P,C12,1*%
%TO.N,GND*%
X140436600Y-83817400D03*
%TO.P,C12,2*%
%TO.N,Net-(U1-VREG_VOUT)*%
X140436600Y-82857400D03*
%TD*%
D11*
%TO.P,J1,1,Pin_1*%
%TO.N,5v*%
X149860000Y-48260000D03*
%TO.P,J1,2,Pin_2*%
X149860000Y-50800000D03*
D15*
%TO.P,J1,3,Pin_3*%
%TO.N,GND*%
X149860000Y-53340000D03*
%TO.P,J1,4,Pin_4*%
%TO.N,GPIO29*%
X149860000Y-55880000D03*
%TO.P,J1,5,Pin_5*%
%TO.N,GPIO28*%
X149860000Y-58420000D03*
%TO.P,J1,6,Pin_6*%
%TO.N,GND*%
X149860000Y-60960000D03*
%TO.P,J1,7,Pin_7*%
%TO.N,GPIO27*%
X149860000Y-63500000D03*
%TO.P,J1,8,Pin_8*%
%TO.N,GPIO26*%
X149860000Y-66040000D03*
%TO.P,J1,9,Pin_9*%
%TO.N,GPIO25*%
X149860000Y-68580000D03*
%TO.P,J1,10,Pin_10*%
%TO.N,GPIO24*%
X149860000Y-71120000D03*
%TO.P,J1,11,Pin_11*%
%TO.N,GND*%
X149860000Y-73660000D03*
%TO.P,J1,12,Pin_12*%
%TO.N,GPIO23*%
X149860000Y-76200000D03*
%TO.P,J1,13,Pin_13*%
%TO.N,GPIO22*%
X149860000Y-78740000D03*
%TO.P,J1,14,Pin_14*%
%TO.N,GPIO21*%
X149860000Y-81280000D03*
%TO.P,J1,15,Pin_15*%
%TO.N,GPIO20*%
X149860000Y-83820000D03*
%TO.P,J1,16,Pin_16*%
%TO.N,GND*%
X149860000Y-86360000D03*
%TO.P,J1,17,Pin_17*%
%TO.N,GPIO19*%
X149860000Y-88900000D03*
%TO.P,J1,18,Pin_18*%
%TO.N,GPIO18*%
X149860000Y-91440000D03*
%TO.P,J1,19,Pin_19*%
%TO.N,GPIO17*%
X149860000Y-93980000D03*
%TO.P,J1,20,Pin_20*%
%TO.N,GPIO16*%
X149860000Y-96520000D03*
%TD*%
D10*
%TO.P,C9,1*%
%TO.N,GND*%
X138379200Y-70256400D03*
%TO.P,C9,2*%
%TO.N,Net-(U1-VREG_VOUT)*%
X138379200Y-71216400D03*
%TD*%
D17*
%TO.P,Y1,1,1*%
%TO.N,Net-(U1-XOUT)*%
X138811900Y-86593700D03*
%TO.P,Y1,2,2*%
%TO.N,GND*%
X136611900Y-86593700D03*
%TO.P,Y1,3,3*%
%TO.N,Net-(U1-XIN)*%
X136611900Y-88293700D03*
%TO.P,Y1,4,4*%
%TO.N,GND*%
X138811900Y-88293700D03*
%TD*%
D16*
%TO.P,C8,1*%
%TO.N,GND*%
X134874000Y-58496200D03*
%TO.P,C8,2*%
%TO.N,3.3V*%
X133914000Y-58496200D03*
%TD*%
D10*
%TO.P,C17,1*%
%TO.N,GND*%
X143967200Y-70617200D03*
%TO.P,C17,2*%
%TO.N,3.3V*%
X143967200Y-71577200D03*
%TD*%
%TO.P,C15,1*%
%TO.N,GND*%
X135001000Y-72288400D03*
%TO.P,C15,2*%
%TO.N,3.3V*%
X135001000Y-73248400D03*
%TD*%
D18*
%TO.P,U1,1,IOVDD*%
%TO.N,3.3V*%
X136271900Y-74573700D03*
%TO.P,U1,2,GPIO0*%
%TO.N,GPIO0*%
X136271900Y-74973700D03*
%TO.P,U1,3,GPIO1*%
%TO.N,GPIO1*%
X136271900Y-75373700D03*
%TO.P,U1,4,GPIO2*%
%TO.N,GPIO2*%
X136271900Y-75773700D03*
%TO.P,U1,5,GPIO3*%
%TO.N,GPIO3*%
X136271900Y-76173700D03*
%TO.P,U1,6,GPIO4*%
%TO.N,GPIO4*%
X136271900Y-76573700D03*
%TO.P,U1,7,GPIO5*%
%TO.N,GPIO5*%
X136271900Y-76973700D03*
%TO.P,U1,8,GPIO6*%
%TO.N,GPIO6*%
X136271900Y-77373700D03*
%TO.P,U1,9,GPIO7*%
%TO.N,GPIO7*%
X136271900Y-77773700D03*
%TO.P,U1,10,IOVDD*%
%TO.N,3.3V*%
X136271900Y-78173700D03*
%TO.P,U1,11,GPIO8*%
%TO.N,GPIO8*%
X136271900Y-78573700D03*
%TO.P,U1,12,GPIO9*%
%TO.N,GPIO9*%
X136271900Y-78973700D03*
%TO.P,U1,13,GPIO10*%
%TO.N,GPIO10*%
X136271900Y-79373700D03*
%TO.P,U1,14,GPIO11*%
%TO.N,GPIO11*%
X136271900Y-79773700D03*
D19*
%TO.P,U1,15,GPIO12*%
%TO.N,GPIO12*%
X137109400Y-80611200D03*
%TO.P,U1,16,GPIO13*%
%TO.N,GPIO13*%
X137509400Y-80611200D03*
%TO.P,U1,17,GPIO14*%
%TO.N,GPIO14*%
X137909400Y-80611200D03*
%TO.P,U1,18,GPIO15*%
%TO.N,GPIO15*%
X138309400Y-80611200D03*
%TO.P,U1,19,TESTEN*%
%TO.N,GND*%
X138709400Y-80611200D03*
%TO.P,U1,20,XIN*%
%TO.N,Net-(U1-XIN)*%
X139109400Y-80611200D03*
%TO.P,U1,21,XOUT*%
%TO.N,Net-(U1-XOUT)*%
X139509400Y-80611200D03*
%TO.P,U1,22,IOVDD*%
%TO.N,3.3V*%
X139909400Y-80611200D03*
%TO.P,U1,23,DVDD*%
%TO.N,Net-(U1-VREG_VOUT)*%
X140309400Y-80611200D03*
%TO.P,U1,24,SWCLK*%
%TO.N,Net-(J5-Pin_1)*%
X140709400Y-80611200D03*
%TO.P,U1,25,SWD*%
%TO.N,Net-(J5-Pin_2)*%
X141109400Y-80611200D03*
%TO.P,U1,26,RUN*%
%TO.N,3.3V*%
X141509400Y-80611200D03*
%TO.P,U1,27,GPIO16*%
%TO.N,GPIO16*%
X141909400Y-80611200D03*
%TO.P,U1,28,GPIO17*%
%TO.N,GPIO17*%
X142309400Y-80611200D03*
D18*
%TO.P,U1,29,GPIO18*%
%TO.N,GPIO18*%
X143146900Y-79773700D03*
%TO.P,U1,30,GPIO19*%
%TO.N,GPIO19*%
X143146900Y-79373700D03*
%TO.P,U1,31,GPIO20*%
%TO.N,GPIO20*%
X143146900Y-78973700D03*
%TO.P,U1,32,GPIO21*%
%TO.N,GPIO21*%
X143146900Y-78573700D03*
%TO.P,U1,33,IOVDD*%
%TO.N,3.3V*%
X143146900Y-78173700D03*
%TO.P,U1,34,GPIO22*%
%TO.N,GPIO22*%
X143146900Y-77773700D03*
%TO.P,U1,35,GPIO23*%
%TO.N,GPIO23*%
X143146900Y-77373700D03*
%TO.P,U1,36,GPIO24*%
%TO.N,GPIO24*%
X143146900Y-76973700D03*
%TO.P,U1,37,GPIO25*%
%TO.N,GPIO25*%
X143146900Y-76573700D03*
%TO.P,U1,38,GPIO26_ADC0*%
%TO.N,GPIO26*%
X143146900Y-76173700D03*
%TO.P,U1,39,GPIO27_ADC1*%
%TO.N,GPIO27*%
X143146900Y-75773700D03*
%TO.P,U1,40,GPIO28_ADC2*%
%TO.N,GPIO28*%
X143146900Y-75373700D03*
%TO.P,U1,41,GPIO29_ADC3*%
%TO.N,GPIO29*%
X143146900Y-74973700D03*
%TO.P,U1,42,IOVDD*%
%TO.N,3.3V*%
X143146900Y-74573700D03*
D19*
%TO.P,U1,43,ADC_AVDD*%
X142309400Y-73736200D03*
%TO.P,U1,44,VREG_IN*%
X141909400Y-73736200D03*
%TO.P,U1,45,VREG_VOUT*%
%TO.N,Net-(U1-VREG_VOUT)*%
X141509400Y-73736200D03*
%TO.P,U1,46,USB_DM*%
%TO.N,Net-(U1-USB_DM)*%
X141109400Y-73736200D03*
%TO.P,U1,47,USB_DP*%
%TO.N,Net-(U1-USB_DP)*%
X140709400Y-73736200D03*
%TO.P,U1,48,USB_VDD*%
%TO.N,3.3V*%
X140309400Y-73736200D03*
%TO.P,U1,49,IOVDD*%
X139909400Y-73736200D03*
%TO.P,U1,50,DVDD*%
%TO.N,Net-(U1-VREG_VOUT)*%
X139509400Y-73736200D03*
%TO.P,U1,51,QSPI_SD3*%
%TO.N,Net-(U1-QSPI_SD3)*%
X139109400Y-73736200D03*
%TO.P,U1,52,QSPI_SCLK*%
%TO.N,Net-(U1-QSPI_SCLK)*%
X138709400Y-73736200D03*
%TO.P,U1,53,QSPI_SD0*%
%TO.N,Net-(U1-QSPI_SD0)*%
X138309400Y-73736200D03*
%TO.P,U1,54,QSPI_SD2*%
%TO.N,Net-(U1-QSPI_SD2)*%
X137909400Y-73736200D03*
%TO.P,U1,55,QSPI_SD1*%
%TO.N,Net-(U1-QSPI_SD1)*%
X137509400Y-73736200D03*
%TO.P,U1,56,QSPI_SS*%
%TO.N,Net-(U1-QSPI_SS)*%
X137109400Y-73736200D03*
D20*
%TO.P,U1,57,GND*%
%TO.N,GND*%
X139709400Y-77173700D03*
%TD*%
D21*
%TO.P,R5,1*%
%TO.N,Net-(J4-Pin_2)*%
X133375400Y-50469400D03*
%TO.P,R5,2*%
%TO.N,Net-(U1-QSPI_SS)*%
X133375400Y-51109400D03*
%TD*%
%TO.P,R1,1*%
%TO.N,Net-(R1-Pad1)*%
X140462000Y-70124800D03*
%TO.P,R1,2*%
%TO.N,Net-(U1-USB_DP)*%
X140462000Y-70764800D03*
%TD*%
D13*
%TO.P,C11,1*%
%TO.N,3.3V*%
X143002000Y-71597400D03*
%TO.P,C11,2*%
%TO.N,GND*%
X143002000Y-70637400D03*
%TD*%
D22*
%TO.P,C2,1*%
%TO.N,GND*%
X134035200Y-54737000D03*
%TO.P,C2,2*%
%TO.N,3.3V*%
X135585200Y-54737000D03*
%TD*%
D16*
%TO.P,C13,1*%
%TO.N,Net-(U1-XIN)*%
X137535800Y-85115400D03*
%TO.P,C13,2*%
%TO.N,GND*%
X136575800Y-85115400D03*
%TD*%
D23*
%TO.P,R3,1*%
%TO.N,Net-(USB1-CC2)*%
X137617200Y-51358800D03*
%TO.P,R3,2*%
%TO.N,GND*%
X135967200Y-51358800D03*
%TD*%
D22*
%TO.P,C1,1*%
%TO.N,GND*%
X134048200Y-53213000D03*
%TO.P,C1,2*%
%TO.N,5v*%
X135598200Y-53213000D03*
%TD*%
D13*
%TO.P,C7,1*%
%TO.N,GND*%
X142189200Y-84274600D03*
%TO.P,C7,2*%
%TO.N,3.3V*%
X142189200Y-83314600D03*
%TD*%
D24*
%TO.P,U3,1,VOUT*%
%TO.N,3.3V*%
X136855200Y-54327000D03*
D25*
%TO.P,U3,2,GND*%
%TO.N,GND*%
X137505200Y-54327000D03*
D26*
%TO.P,U3,3,EN*%
%TO.N,5v*%
X137505200Y-53467000D03*
D27*
%TO.P,U3,4,VIN*%
X136855200Y-53467000D03*
D28*
%TO.P,U3,5,THERM*%
%TO.N,GND*%
X137180200Y-53897000D03*
%TD*%
D11*
%TO.P,J5,1,Pin_1*%
%TO.N,Net-(J5-Pin_1)*%
X139522200Y-92964000D03*
D15*
%TO.P,J5,2,Pin_2*%
%TO.N,Net-(J5-Pin_2)*%
X142062200Y-92964000D03*
%TO.P,J5,3,Pin_3*%
%TO.N,GND*%
X144602200Y-92964000D03*
%TD*%
D29*
%TO.P,U2,1,~{CS}*%
%TO.N,Net-(U1-QSPI_SS)*%
X133832600Y-67481000D03*
%TO.P,U2,2,DO(IO1)*%
%TO.N,Net-(U1-QSPI_SD1)*%
X135102600Y-67481000D03*
%TO.P,U2,3,IO2*%
%TO.N,Net-(U1-QSPI_SD2)*%
X136372600Y-67481000D03*
%TO.P,U2,4,GND*%
%TO.N,GND*%
X137642600Y-67481000D03*
%TO.P,U2,5,DI(IO0)*%
%TO.N,Net-(U1-QSPI_SD0)*%
X137642600Y-60281000D03*
%TO.P,U2,6,CLK*%
%TO.N,Net-(U1-QSPI_SCLK)*%
X136372600Y-60281000D03*
%TO.P,U2,7,IO3*%
%TO.N,Net-(U1-QSPI_SD3)*%
X135102600Y-60281000D03*
%TO.P,U2,8,VCC*%
%TO.N,3.3V*%
X133832600Y-60281000D03*
%TD*%
D30*
%TO.P,USB1,A1,GND*%
%TO.N,GND*%
X142900000Y-49445000D03*
%TO.P,USB1,A4,VBUS*%
%TO.N,5v*%
X142100000Y-49445000D03*
D31*
%TO.P,USB1,A5,CC1*%
%TO.N,Net-(USB1-CC1)*%
X140950000Y-49445000D03*
%TO.P,USB1,A6,D+*%
%TO.N,Net-(R1-Pad1)*%
X139950000Y-49445000D03*
%TO.P,USB1,A7,D-*%
%TO.N,Net-(R2-Pad1)*%
X139450000Y-49445000D03*
%TO.P,USB1,A8,SBU1*%
%TO.N,unconnected-(USB1-SBU1-PadA8)*%
X138450000Y-49445000D03*
D30*
%TO.P,USB1,A9,VBUS*%
%TO.N,5v*%
X137300000Y-49445000D03*
%TO.P,USB1,A12,GND*%
%TO.N,GND*%
X136500000Y-49445000D03*
%TO.P,USB1,B1,GND*%
X136500000Y-49445000D03*
%TO.P,USB1,B4,VBUS*%
%TO.N,5v*%
X137300000Y-49445000D03*
D31*
%TO.P,USB1,B5,CC2*%
%TO.N,Net-(USB1-CC2)*%
X137950000Y-49445000D03*
%TO.P,USB1,B6,D+*%
%TO.N,Net-(R1-Pad1)*%
X138950000Y-49445000D03*
%TO.P,USB1,B7,D-*%
%TO.N,Net-(R2-Pad1)*%
X140450000Y-49445000D03*
%TO.P,USB1,B8,SBU2*%
%TO.N,unconnected-(USB1-SBU2-PadB8)*%
X141450000Y-49445000D03*
D30*
%TO.P,USB1,B9,VBUS*%
%TO.N,5v*%
X142100000Y-49445000D03*
%TO.P,USB1,B12,GND*%
%TO.N,GND*%
X142900000Y-49445000D03*
D32*
%TO.P,USB1,S1,SHIELD*%
X144020000Y-48845000D03*
D33*
X144020000Y-44645000D03*
D32*
X135380000Y-48845000D03*
D33*
X135380000Y-44645000D03*
%TD*%
D14*
%TO.P,C4,1*%
%TO.N,3.3V*%
X145265200Y-78333600D03*
%TO.P,C4,2*%
%TO.N,GND*%
X146225200Y-78333600D03*
%TD*%
D10*
%TO.P,C10,1*%
%TO.N,GND*%
X142062200Y-70617200D03*
%TO.P,C10,2*%
%TO.N,Net-(U1-VREG_VOUT)*%
X142062200Y-71577200D03*
%TD*%
D21*
%TO.P,R2,1*%
%TO.N,Net-(R2-Pad1)*%
X141198600Y-70124800D03*
%TO.P,R2,2*%
%TO.N,Net-(U1-USB_DM)*%
X141198600Y-70764800D03*
%TD*%
D34*
%TO.P,R4,1*%
%TO.N,Net-(USB1-CC1)*%
X141401800Y-51245000D03*
%TO.P,R4,2*%
%TO.N,GND*%
X141401800Y-52895000D03*
%TD*%
D35*
%TO.N,GND*%
X132562600Y-97612200D03*
X131597400Y-87807800D03*
X131521200Y-50927000D03*
X147167600Y-98018600D03*
X131292600Y-53924200D03*
X142062200Y-55397400D03*
X137744200Y-64592200D03*
X146558000Y-60096400D03*
X136525000Y-49453800D03*
X147548600Y-93116400D03*
X147828000Y-71882000D03*
X131902200Y-92735400D03*
X142113000Y-61645800D03*
X131572000Y-80467200D03*
X144348200Y-82067400D03*
X147396200Y-87884000D03*
X147497800Y-90170000D03*
X147250321Y-74878575D03*
X137744200Y-56819800D03*
X133553200Y-71170800D03*
X144957800Y-57378600D03*
X133756400Y-64643000D03*
X131978400Y-76073000D03*
X131699000Y-83997800D03*
X147447000Y-67233800D03*
X130962400Y-58699400D03*
X147040600Y-53467000D03*
X147193000Y-63957200D03*
X131089400Y-56261000D03*
X147853400Y-82067400D03*
X147421600Y-76962000D03*
X131648200Y-90246200D03*
X142925800Y-49453800D03*
X147320000Y-69367400D03*
X147828000Y-79451200D03*
X130810000Y-62865000D03*
X147548600Y-84175600D03*
%TO.N,3.3V*%
X141528800Y-79781400D03*
X139598400Y-79679800D03*
X136956800Y-78181200D03*
X135102600Y-62331600D03*
X140004800Y-74701400D03*
X136118600Y-73736200D03*
X142316200Y-78181200D03*
X143154400Y-73609200D03*
%TD*%
D36*
%TO.N,GPIO25*%
X143681456Y-76573700D02*
X146818200Y-73436956D01*
X143146900Y-76573700D02*
X143681456Y-76573700D01*
X146818200Y-71621800D02*
X149860000Y-68580000D01*
X146818200Y-73436956D02*
X146818200Y-71621800D01*
%TO.N,GPIO19*%
X143146900Y-79373700D02*
X143539340Y-79373700D01*
X143539340Y-79373700D02*
X145257800Y-81092160D01*
X145257800Y-81092160D02*
X145257800Y-84297800D01*
X145257800Y-84297800D02*
X149860000Y-88900000D01*
%TO.N,GPIO27*%
X143632928Y-75773700D02*
X146218200Y-73188428D01*
X146218200Y-73188428D02*
X146218200Y-67141800D01*
X146218200Y-67141800D02*
X149860000Y-63500000D01*
X143146900Y-75773700D02*
X143632928Y-75773700D01*
%TO.N,GPIO26*%
X146518200Y-69381800D02*
X149860000Y-66040000D01*
X146518200Y-73312692D02*
X146518200Y-69381800D01*
X143657192Y-76173700D02*
X146518200Y-73312692D01*
X143146900Y-76173700D02*
X143657192Y-76173700D01*
%TO.N,GPIO16*%
X144357800Y-83485853D02*
X144357800Y-91017800D01*
X141909400Y-80611200D02*
X141909400Y-81037453D01*
X144357800Y-91017800D02*
X149860000Y-96520000D01*
X141909400Y-81037453D02*
X144357800Y-83485853D01*
%TO.N,GPIO24*%
X143705720Y-76973700D02*
X149559420Y-71120000D01*
X143146900Y-76973700D02*
X143705720Y-76973700D01*
X149559420Y-71120000D02*
X149860000Y-71120000D01*
%TO.N,GPIO23*%
X143729984Y-77373700D02*
X144903684Y-76200000D01*
X143146900Y-77373700D02*
X143729984Y-77373700D01*
X144903684Y-76200000D02*
X149860000Y-76200000D01*
%TO.N,GPIO21*%
X143587868Y-78573700D02*
X145857800Y-80843632D01*
X145857800Y-80866736D02*
X146271064Y-81280000D01*
X145857800Y-80843632D02*
X145857800Y-80866736D01*
X143146900Y-78573700D02*
X143587868Y-78573700D01*
X146271064Y-81280000D02*
X149860000Y-81280000D01*
%TO.N,Net-(U1-QSPI_SCLK)*%
X137383800Y-71945368D02*
X137383800Y-69702400D01*
X137941730Y-59281000D02*
X136629200Y-59281000D01*
X138709400Y-73270968D02*
X137383800Y-71945368D01*
X136372600Y-59537600D02*
X136372600Y-60281000D01*
X138379200Y-68707000D02*
X138379200Y-59718470D01*
X138709400Y-73736200D02*
X138709400Y-73270968D01*
X138379200Y-59718470D02*
X137941730Y-59281000D01*
X137383800Y-69702400D02*
X138379200Y-68707000D01*
X136629200Y-59281000D02*
X136372600Y-59537600D01*
%TO.N,GPIO20*%
X143563604Y-78973700D02*
X145557800Y-80967896D01*
X145557800Y-80991000D02*
X148386800Y-83820000D01*
X148386800Y-83820000D02*
X149860000Y-83820000D01*
X145557800Y-80967896D02*
X145557800Y-80991000D01*
X143146900Y-78973700D02*
X143563604Y-78973700D01*
%TO.N,GPIO22*%
X143246900Y-77673700D02*
X148793700Y-77673700D01*
X148793700Y-77673700D02*
X149860000Y-78740000D01*
X143146900Y-77773700D02*
X143246900Y-77673700D01*
%TO.N,GPIO28*%
X143146900Y-75373700D02*
X143608664Y-75373700D01*
X145918200Y-73064164D02*
X145918200Y-62361800D01*
X143608664Y-75373700D02*
X145918200Y-73064164D01*
X145918200Y-62361800D02*
X149860000Y-58420000D01*
%TO.N,Net-(U1-QSPI_SS)*%
X134823200Y-56134000D02*
X133096000Y-57861200D01*
X133375400Y-51109400D02*
X134823200Y-52557200D01*
X133096000Y-66744400D02*
X133832600Y-67481000D01*
X133832600Y-67481000D02*
X133832600Y-70091224D01*
X134823200Y-52557200D02*
X134823200Y-56134000D01*
X133832600Y-70091224D02*
X137109400Y-73368024D01*
X133096000Y-57861200D02*
X133096000Y-66744400D01*
X137109400Y-73368024D02*
X137109400Y-73736200D01*
%TO.N,GPIO29*%
X143146900Y-74973700D02*
X143584400Y-74973700D01*
X145618200Y-60121800D02*
X149860000Y-55880000D01*
X145618200Y-72939900D02*
X145618200Y-60121800D01*
X143584400Y-74973700D02*
X145618200Y-72939900D01*
%TO.N,GPIO18*%
X144957800Y-86537800D02*
X149860000Y-91440000D01*
X143515076Y-79773700D02*
X144957800Y-81216424D01*
X144957800Y-81216424D02*
X144957800Y-86537800D01*
X143146900Y-79773700D02*
X143515076Y-79773700D01*
%TO.N,GPIO17*%
X142309400Y-81013189D02*
X144657800Y-83361589D01*
X144657800Y-88777800D02*
X149860000Y-93980000D01*
X144657800Y-83361589D02*
X144657800Y-88777800D01*
X142309400Y-80611200D02*
X142309400Y-81013189D01*
%TO.N,GPIO5*%
X136271900Y-76973700D02*
X135469900Y-76973700D01*
X130890000Y-72393800D02*
X130890000Y-67390000D01*
X135469900Y-76973700D02*
X130890000Y-72393800D01*
X130890000Y-67390000D02*
X129540000Y-66040000D01*
%TO.N,GPIO9*%
X129773700Y-78973700D02*
X129540000Y-78740000D01*
X136271900Y-78973700D02*
X129773700Y-78973700D01*
%TO.N,GPIO0*%
X132390000Y-53650000D02*
X129540000Y-50800000D01*
X136271900Y-74973700D02*
X135591220Y-74973700D01*
X135591220Y-74973700D02*
X132390000Y-71772480D01*
X132390000Y-71772480D02*
X132390000Y-53650000D01*
%TO.N,GPIO2*%
X136271900Y-75773700D02*
X135542692Y-75773700D01*
X131790000Y-72021008D02*
X131790000Y-58130000D01*
X131790000Y-58130000D02*
X129540000Y-55880000D01*
X135542692Y-75773700D02*
X131790000Y-72021008D01*
%TO.N,GPIO14*%
X137909400Y-80611200D02*
X137909400Y-81699000D01*
X137909400Y-81699000D02*
X134701000Y-84907400D01*
X134701000Y-84907400D02*
X134701000Y-88819000D01*
X134701000Y-88819000D02*
X129540000Y-93980000D01*
%TO.N,GPIO7*%
X135406300Y-77773700D02*
X129540000Y-71907400D01*
X136271900Y-77773700D02*
X135406300Y-77773700D01*
X129540000Y-71907400D02*
X129540000Y-71120000D01*
%TO.N,GPIO15*%
X138309400Y-81730800D02*
X135001000Y-85039200D01*
X138309400Y-80611200D02*
X138309400Y-81730800D01*
X135001000Y-91059000D02*
X129540000Y-96520000D01*
X135001000Y-85039200D02*
X135001000Y-91059000D01*
%TO.N,GPIO11*%
X136271900Y-79773700D02*
X133586300Y-79773700D01*
X133586300Y-79773700D02*
X129540000Y-83820000D01*
%TO.N,GPIO1*%
X136271900Y-75373700D02*
X135566956Y-75373700D01*
X135566956Y-75373700D02*
X132090000Y-71896744D01*
X132090000Y-71896744D02*
X132090000Y-55890000D01*
X132090000Y-55890000D02*
X129540000Y-53340000D01*
%TO.N,GPIO10*%
X136271900Y-79373700D02*
X131446300Y-79373700D01*
X131446300Y-79373700D02*
X129540000Y-81280000D01*
%TO.N,GPIO4*%
X135494164Y-76573700D02*
X131190000Y-72269536D01*
X131190000Y-72269536D02*
X131190000Y-65150000D01*
X131190000Y-65150000D02*
X129540000Y-63500000D01*
X136271900Y-76573700D02*
X135494164Y-76573700D01*
%TO.N,GPIO6*%
X130590000Y-69630000D02*
X129540000Y-68580000D01*
X130590000Y-72533136D02*
X130590000Y-69630000D01*
X135430564Y-77373700D02*
X130590000Y-72533136D01*
X136271900Y-77373700D02*
X135430564Y-77373700D01*
%TO.N,GPIO12*%
X137109400Y-80611200D02*
X137109400Y-81330600D01*
X137109400Y-81330600D02*
X129540000Y-88900000D01*
%TO.N,GPIO8*%
X131913700Y-78573700D02*
X129540000Y-76200000D01*
X136271900Y-78573700D02*
X131913700Y-78573700D01*
%TO.N,Net-(U1-QSPI_SD0)*%
X136880600Y-63271400D02*
X137642600Y-62509400D01*
X138309400Y-73295232D02*
X136880600Y-71866432D01*
X138309400Y-73736200D02*
X138309400Y-73295232D01*
X137642600Y-62509400D02*
X137642600Y-60281000D01*
X136880600Y-71866432D02*
X136880600Y-63271400D01*
%TO.N,Net-(U1-QSPI_SD1)*%
X137509400Y-73343760D02*
X137509400Y-73736200D01*
X135102600Y-70936960D02*
X137509400Y-73343760D01*
X135102600Y-67481000D02*
X135102600Y-70936960D01*
%TO.N,GPIO3*%
X135518428Y-76173700D02*
X131490000Y-72145272D01*
X136271900Y-76173700D02*
X135518428Y-76173700D01*
X131490000Y-60370000D02*
X129540000Y-58420000D01*
X131490000Y-72145272D02*
X131490000Y-60370000D01*
%TO.N,GPIO13*%
X134401000Y-86579000D02*
X134401000Y-84783136D01*
X137509400Y-81674736D02*
X137509400Y-80611200D01*
X129540000Y-91440000D02*
X134401000Y-86579000D01*
X134401000Y-84783136D02*
X137509400Y-81674736D01*
D37*
%TO.N,Net-(J4-Pin_2)*%
X132080000Y-48260000D02*
X132080000Y-49174000D01*
X132080000Y-49174000D02*
X133375400Y-50469400D01*
%TO.N,Net-(J5-Pin_1)*%
X141023200Y-81777599D02*
X141023200Y-91463000D01*
X140709400Y-81463799D02*
X141023200Y-81777599D01*
X141023200Y-91463000D02*
X139522200Y-92964000D01*
X140709400Y-80611200D02*
X140709400Y-81463799D01*
%TO.N,Net-(J5-Pin_2)*%
X141423200Y-81611913D02*
X141423200Y-92325000D01*
X141109400Y-81298113D02*
X141423200Y-81611913D01*
X141423200Y-92325000D02*
X142062200Y-92964000D01*
X141109400Y-80611200D02*
X141109400Y-81298113D01*
D36*
%TO.N,Net-(U1-USB_DP)*%
X140709400Y-71012200D02*
X140709400Y-71269380D01*
X140462000Y-70764800D02*
X140709400Y-71012200D01*
X140709400Y-71269380D02*
X140709400Y-72161400D01*
X140709400Y-72161400D02*
X140709400Y-73736200D01*
D37*
%TO.N,3.3V*%
X133832600Y-61061600D02*
X135102600Y-62331600D01*
X143139400Y-78181200D02*
X143146900Y-78173700D01*
X141528800Y-80591800D02*
X141509400Y-80611200D01*
X141528800Y-79781400D02*
X141528800Y-80591800D01*
X139909400Y-82419400D02*
X139471400Y-82857400D01*
X142316200Y-78181200D02*
X143139400Y-78181200D01*
X145105300Y-78173700D02*
X145265200Y-78333600D01*
X141823200Y-82948600D02*
X142189200Y-83314600D01*
X133832600Y-58672176D02*
X133832600Y-60281000D01*
X135585200Y-54737000D02*
X135305800Y-55016400D01*
X134912100Y-78173700D02*
X134386200Y-77647800D01*
X139598400Y-79679800D02*
X139909400Y-79990800D01*
X136271900Y-78173700D02*
X134912100Y-78173700D01*
X133832600Y-60281000D02*
X133832600Y-61061600D01*
X141509400Y-80611200D02*
X141509400Y-81132427D01*
X135305800Y-57198976D02*
X133832600Y-58672176D01*
X139909400Y-79990800D02*
X139909400Y-80611200D01*
X143146900Y-78173700D02*
X145105300Y-78173700D01*
X141823200Y-81446227D02*
X141823200Y-82948600D01*
X135305800Y-55016400D02*
X135305800Y-57198976D01*
X141509400Y-81132427D02*
X141823200Y-81446227D01*
X136956800Y-78181200D02*
X136279400Y-78181200D01*
X135585200Y-54737000D02*
X136445200Y-54737000D01*
X139909400Y-80611200D02*
X139909400Y-82419400D01*
X136445200Y-54737000D02*
X136850862Y-54331338D01*
X136279400Y-78181200D02*
X136271900Y-78173700D01*
D36*
%TO.N,Net-(U1-QSPI_SD2)*%
X136372600Y-67481000D02*
X136372600Y-71782696D01*
X137909400Y-73319496D02*
X137909400Y-73736200D01*
X136372600Y-71782696D02*
X137909400Y-73319496D01*
%TO.N,Net-(R1-Pad1)*%
X139446000Y-50871001D02*
X139446000Y-68796464D01*
X139663600Y-48488600D02*
X139192000Y-48488600D01*
X138950000Y-48730600D02*
X138950000Y-49445000D01*
X138950000Y-50375001D02*
X139446000Y-50871001D01*
X139192000Y-48488600D02*
X138950000Y-48730600D01*
X140462000Y-69812464D02*
X140462000Y-70124800D01*
X139950000Y-48775000D02*
X139663600Y-48488600D01*
X139950000Y-49445000D02*
X139950000Y-48775000D01*
X138950000Y-49445000D02*
X138950000Y-50375001D01*
X139446000Y-68796464D02*
X140462000Y-69812464D01*
%TO.N,Net-(U1-XIN)*%
X138510600Y-83129800D02*
X137545600Y-84094800D01*
X139109400Y-81413622D02*
X138510600Y-82012422D01*
X136611900Y-88293700D02*
X137545600Y-87360000D01*
X137545600Y-84094800D02*
X137545600Y-85115400D01*
X139109400Y-80611200D02*
X139109400Y-81413622D01*
X138510600Y-82012422D02*
X138510600Y-83129800D01*
X137545600Y-87360000D02*
X137545600Y-85115400D01*
%TO.N,Net-(R2-Pad1)*%
X139725400Y-50444400D02*
X140208000Y-50444400D01*
X139954000Y-68572242D02*
X139954000Y-68692242D01*
X139450000Y-49445000D02*
X139450000Y-50169000D01*
X140194000Y-67732242D02*
X140427817Y-67732242D01*
X139450000Y-50169000D02*
X139725400Y-50444400D01*
X139725400Y-50444400D02*
X139954000Y-50673000D01*
X140218252Y-69144452D02*
X141198600Y-70124800D01*
X139954000Y-68880200D02*
X140218252Y-69144452D01*
X140450000Y-50202400D02*
X140450000Y-49445000D01*
X140208000Y-50444400D02*
X140450000Y-50202400D01*
X140667817Y-67972242D02*
X140667817Y-68092242D01*
X139954000Y-68692242D02*
X139954000Y-68880200D01*
X140427817Y-68332242D02*
X140194000Y-68332242D01*
X139954000Y-50673000D02*
X139954000Y-67492242D01*
X140427817Y-67732242D02*
G75*
G02*
X140667758Y-67972242I-17J-239958D01*
G01*
X140194000Y-68332242D02*
G75*
G03*
X139954042Y-68572242I0J-239958D01*
G01*
X139954000Y-67492242D02*
G75*
G03*
X140194000Y-67732200I240000J42D01*
G01*
X140667817Y-68092242D02*
G75*
G02*
X140427817Y-68332217I-240017J42D01*
G01*
%TO.N,Net-(U1-QSPI_SD3)*%
X136601200Y-58750200D02*
X136073470Y-59277930D01*
X137683800Y-71666514D02*
X137683800Y-69826664D01*
X136073470Y-59281000D02*
X135102600Y-60251870D01*
X137835194Y-58750200D02*
X136601200Y-58750200D01*
X139109400Y-73736200D02*
X139109400Y-73092114D01*
X138679200Y-68831264D02*
X138679200Y-59594206D01*
X137683800Y-69826664D02*
X138679200Y-68831264D01*
X136073470Y-59277930D02*
X136073470Y-59281000D01*
X139109400Y-73092114D02*
X137683800Y-71666514D01*
X135102600Y-60251870D02*
X135102600Y-60281000D01*
X138679200Y-59594206D02*
X137835194Y-58750200D01*
%TO.N,Net-(U1-VREG_VOUT)*%
X139509400Y-73736200D02*
X139509400Y-73067850D01*
X140309400Y-82730200D02*
X140436600Y-82857400D01*
X138379200Y-71937650D02*
X138379200Y-71216400D01*
X141509400Y-73736200D02*
X141509400Y-72130000D01*
X140309400Y-80611200D02*
X140309400Y-82730200D01*
X141509400Y-73736200D02*
X141509400Y-74173700D01*
X141509400Y-72130000D02*
X142062200Y-71577200D01*
X139509400Y-73067850D02*
X138379200Y-71937650D01*
%TO.N,Net-(U1-XOUT)*%
X138811900Y-86593700D02*
X138811900Y-85116700D01*
X138810600Y-82136686D02*
X139509400Y-81437886D01*
X138810600Y-85115400D02*
X138810600Y-82136686D01*
X139509400Y-81437886D02*
X139509400Y-80611200D01*
X138811900Y-85116700D02*
X138810600Y-85115400D01*
%TO.N,Net-(U1-USB_DM)*%
X141109400Y-70854000D02*
X141198600Y-70764800D01*
X141109400Y-73736200D02*
X141109400Y-70854000D01*
D37*
%TO.N,Net-(USB1-CC2)*%
X137617200Y-51358800D02*
X137950000Y-51026000D01*
X137950000Y-51026000D02*
X137950000Y-49445000D01*
%TO.N,Net-(USB1-CC1)*%
X140950000Y-49445000D02*
X140950000Y-50793200D01*
X140950000Y-50793200D02*
X141401800Y-51245000D01*
%TD*%
%TA.AperFunction,Conductor*%
%TO.N,Net-(U1-VREG_VOUT)*%
G36*
X139604400Y-73765488D02*
G01*
X139604404Y-73766384D01*
X139604409Y-73766993D01*
X139604419Y-73767800D01*
X139609397Y-74076444D01*
X139609400Y-74076831D01*
X139609400Y-74322560D01*
X139613404Y-74330052D01*
X139613517Y-74332018D01*
X139617578Y-74583741D01*
X139617286Y-74587882D01*
X139599308Y-74701399D01*
X139619154Y-74826706D01*
X139676747Y-74939738D01*
X139676748Y-74939739D01*
X139676750Y-74939742D01*
X139766458Y-75029450D01*
X139766460Y-75029451D01*
X139766461Y-75029452D01*
X139879493Y-75087045D01*
X139879494Y-75087045D01*
X139879496Y-75087046D01*
X140004800Y-75106892D01*
X140130104Y-75087046D01*
X140243142Y-75029450D01*
X140332850Y-74939742D01*
X140390446Y-74826704D01*
X140410292Y-74701400D01*
X140404165Y-74662719D01*
X140405749Y-74649657D01*
X140554464Y-74296463D01*
X140556383Y-74291569D01*
X140557879Y-74287454D01*
X140559548Y-74282483D01*
X140560534Y-74279284D01*
X140561000Y-74277448D01*
X140571992Y-74262735D01*
X140590171Y-74260101D01*
X140597593Y-74263406D01*
X140600678Y-74265467D01*
X140600677Y-74265467D01*
X140643415Y-74273968D01*
X140644580Y-74274200D01*
X140644584Y-74274200D01*
X140774216Y-74274200D01*
X140774220Y-74274200D01*
X140818122Y-74265467D01*
X140843897Y-74248244D01*
X140857230Y-74244200D01*
X140961570Y-74244200D01*
X140974902Y-74248244D01*
X140977717Y-74250125D01*
X141000677Y-74265467D01*
X141043415Y-74273968D01*
X141044580Y-74274200D01*
X141044584Y-74274200D01*
X141174216Y-74274200D01*
X141174220Y-74274200D01*
X141218122Y-74265467D01*
X141247581Y-74245783D01*
X141250543Y-74244200D01*
X141299145Y-74244200D01*
X141299659Y-74244622D01*
X141315205Y-74267888D01*
X141315210Y-74267893D01*
X141381362Y-74312095D01*
X141381365Y-74312096D01*
X141409400Y-74317672D01*
X141409400Y-73685400D01*
X141604400Y-73685400D01*
X141604400Y-74209892D01*
X141604348Y-74211465D01*
X141603900Y-74218276D01*
X141603900Y-74324435D01*
X141607338Y-74361865D01*
X141607340Y-74361873D01*
X141643596Y-74445831D01*
X141643597Y-74445833D01*
X141681231Y-74478466D01*
X141689446Y-74494893D01*
X141689440Y-74498392D01*
X141634260Y-75234124D01*
X141631914Y-75242817D01*
X141621970Y-75263284D01*
X141608919Y-75275227D01*
X141587651Y-75283320D01*
X141578784Y-75284887D01*
X137997820Y-75235495D01*
X137997748Y-75235494D01*
X137997746Y-75235494D01*
X137947400Y-75234800D01*
X137947059Y-75285152D01*
X137947059Y-75285156D01*
X137922333Y-78944638D01*
X137922333Y-78944639D01*
X137922000Y-78994000D01*
X137971351Y-78994967D01*
X137971352Y-78994968D01*
X140459069Y-79043746D01*
X140468104Y-79045704D01*
X140489499Y-79054937D01*
X140502208Y-79067897D01*
X140511019Y-79089465D01*
X140512801Y-79098540D01*
X140512821Y-80040773D01*
X140505792Y-80057744D01*
X140488822Y-80064774D01*
X140475487Y-80060729D01*
X140437434Y-80035303D01*
X140409400Y-80029727D01*
X140409400Y-80655127D01*
X140209400Y-80655866D01*
X140209400Y-80029727D01*
X140188582Y-80033868D01*
X140170566Y-80030284D01*
X140160361Y-80015011D01*
X140159900Y-80010329D01*
X140159900Y-79940970D01*
X140121765Y-79848905D01*
X140121764Y-79848904D01*
X140121764Y-79848903D01*
X140113443Y-79840582D01*
X140106415Y-79823616D01*
X140106402Y-79372347D01*
X140106401Y-79372345D01*
X140106400Y-79324200D01*
X140058288Y-79322384D01*
X140058287Y-79322384D01*
X140058285Y-79322383D01*
X139762059Y-79311205D01*
X139752068Y-79308606D01*
X139723706Y-79294154D01*
X139598400Y-79274308D01*
X139473096Y-79294154D01*
X139473091Y-79294156D01*
X139467421Y-79297044D01*
X139455624Y-79299641D01*
X138031135Y-79245887D01*
X137466767Y-79224590D01*
X137457866Y-79222513D01*
X137436816Y-79213088D01*
X137424365Y-79200158D01*
X137415741Y-79178769D01*
X137414000Y-79169794D01*
X137414000Y-74968846D01*
X137415117Y-74961609D01*
X137420804Y-74943627D01*
X137429125Y-74931787D01*
X137444123Y-74920341D01*
X137450547Y-74916843D01*
X139285524Y-74256251D01*
X139303872Y-74257116D01*
X139313607Y-74265497D01*
X139315204Y-74267887D01*
X139315210Y-74267893D01*
X139381362Y-74312095D01*
X139381365Y-74312096D01*
X139409400Y-74317672D01*
X139409400Y-73685400D01*
X139604400Y-73685400D01*
X139604400Y-73765488D01*
G37*
%TD.AperFunction*%
%TD*%
%TA.AperFunction,Conductor*%
%TO.N,3.3V*%
G36*
X139734063Y-70839360D02*
G01*
X139747317Y-70841816D01*
X139756264Y-70844951D01*
X139777559Y-70860959D01*
X139783056Y-70868681D01*
X139789100Y-70880734D01*
X140459074Y-72965101D01*
X140459992Y-72968388D01*
X140460603Y-72970958D01*
X140461662Y-72977708D01*
X140461866Y-72980319D01*
X140462000Y-72983746D01*
X140462000Y-74231909D01*
X140461782Y-74236287D01*
X140461448Y-74239627D01*
X140459714Y-74248209D01*
X140458728Y-74251408D01*
X140457232Y-74255523D01*
X140274201Y-74690220D01*
X140267541Y-74701205D01*
X140261729Y-74708225D01*
X140240551Y-74722288D01*
X140231821Y-74724923D01*
X140219107Y-74726800D01*
X139783259Y-74726800D01*
X139766586Y-74723518D01*
X139756203Y-74719266D01*
X139732435Y-74695877D01*
X139728017Y-74685565D01*
X139724467Y-74668947D01*
X139717766Y-74253506D01*
X139709906Y-73766144D01*
X139709900Y-73765434D01*
X139709900Y-73027969D01*
X139709900Y-73027968D01*
X139679376Y-72954276D01*
X139679375Y-72954275D01*
X139622974Y-72897873D01*
X139622974Y-72897874D01*
X139457639Y-72732539D01*
X139450723Y-72723556D01*
X138895882Y-71769923D01*
X138893193Y-71764465D01*
X138891440Y-71760180D01*
X138888439Y-71748423D01*
X138887924Y-71743828D01*
X138887666Y-71737745D01*
X138911009Y-70874060D01*
X138914820Y-70857303D01*
X138919435Y-70846977D01*
X138943893Y-70823834D01*
X138954504Y-70819792D01*
X138971456Y-70816930D01*
X139734063Y-70839360D01*
G37*
%TD.AperFunction*%
%TD*%
%TA.AperFunction,Conductor*%
%TO.N,3.3V*%
G36*
X144590764Y-71210073D02*
G01*
X144597943Y-71226981D01*
X144591064Y-71244013D01*
X144590915Y-71244163D01*
X144544406Y-71290672D01*
X144544406Y-71290673D01*
X144519359Y-71347399D01*
X144519359Y-71347400D01*
X145183800Y-71347400D01*
X145200771Y-71354429D01*
X145207800Y-71371400D01*
X145207800Y-72019086D01*
X145277089Y-71988493D01*
X145295453Y-71988069D01*
X145308738Y-72000754D01*
X145309162Y-72019118D01*
X145307507Y-72022552D01*
X144181357Y-73950656D01*
X144177604Y-73955523D01*
X143729322Y-74403805D01*
X143712351Y-74410834D01*
X143695380Y-74403805D01*
X143692396Y-74400167D01*
X143678595Y-74379512D01*
X143678589Y-74379506D01*
X143612437Y-74335304D01*
X143612435Y-74335303D01*
X143554102Y-74323700D01*
X143246901Y-74323700D01*
X143246900Y-74323701D01*
X143246900Y-74649200D01*
X143239871Y-74666171D01*
X143222900Y-74673200D01*
X142734724Y-74673200D01*
X142734528Y-74673239D01*
X142729848Y-74673700D01*
X142565427Y-74673700D01*
X142571003Y-74701733D01*
X142579707Y-74714761D01*
X142583290Y-74732777D01*
X142573084Y-74748050D01*
X142556468Y-74751868D01*
X142548603Y-74750782D01*
X142542289Y-74749006D01*
X142540098Y-74748050D01*
X142534304Y-74745522D01*
X142531392Y-74744006D01*
X142462218Y-74701733D01*
X142089073Y-74473700D01*
X142565427Y-74473700D01*
X143046899Y-74473700D01*
X143046900Y-74473699D01*
X143046900Y-74323701D01*
X143046899Y-74323700D01*
X142739697Y-74323700D01*
X142681364Y-74335303D01*
X142681362Y-74335304D01*
X142615210Y-74379506D01*
X142615206Y-74379510D01*
X142571003Y-74445665D01*
X142565427Y-74473700D01*
X142089073Y-74473700D01*
X142088850Y-74473564D01*
X142087600Y-74472800D01*
X142086385Y-74472152D01*
X142086311Y-74472111D01*
X141888664Y-74366700D01*
X141888663Y-74366700D01*
X141874777Y-74359294D01*
X141809400Y-74324426D01*
X141809400Y-74218288D01*
X141809854Y-74214845D01*
X141809694Y-74214824D01*
X141809900Y-74213259D01*
X141809900Y-73836201D01*
X142009400Y-73836201D01*
X142009400Y-74317671D01*
X142037434Y-74312096D01*
X142037437Y-74312095D01*
X142096066Y-74272920D01*
X142114082Y-74269336D01*
X142122734Y-74272920D01*
X142181362Y-74312095D01*
X142181365Y-74312096D01*
X142209400Y-74317672D01*
X142209400Y-73836201D01*
X142409400Y-73836201D01*
X142409400Y-74317671D01*
X142437434Y-74312096D01*
X142437437Y-74312095D01*
X142503589Y-74267893D01*
X142503593Y-74267889D01*
X142547795Y-74201737D01*
X142547796Y-74201735D01*
X142559399Y-74143402D01*
X142559400Y-74143394D01*
X142559400Y-73836201D01*
X142559399Y-73836200D01*
X142409401Y-73836200D01*
X142409400Y-73836201D01*
X142209400Y-73836201D01*
X142209399Y-73836200D01*
X142009401Y-73836200D01*
X142009400Y-73836201D01*
X141809900Y-73836201D01*
X141809900Y-73154727D01*
X142009400Y-73154727D01*
X142009400Y-73636199D01*
X142009401Y-73636200D01*
X142209399Y-73636200D01*
X142209400Y-73636199D01*
X142409400Y-73636199D01*
X142409401Y-73636200D01*
X142559399Y-73636200D01*
X142559400Y-73636199D01*
X142559400Y-73329005D01*
X142559399Y-73328997D01*
X142547796Y-73270664D01*
X142547795Y-73270662D01*
X142503593Y-73204510D01*
X142503589Y-73204506D01*
X142437434Y-73160303D01*
X142409400Y-73154727D01*
X142409400Y-73636199D01*
X142209400Y-73636199D01*
X142209400Y-73154727D01*
X142181364Y-73160303D01*
X142122733Y-73199479D01*
X142104718Y-73203063D01*
X142096067Y-73199479D01*
X142037435Y-73160303D01*
X142009400Y-73154727D01*
X141809900Y-73154727D01*
X141809900Y-72959219D01*
X141811576Y-72950407D01*
X142157966Y-72072887D01*
X142170736Y-72059683D01*
X142180290Y-72057699D01*
X142272096Y-72057699D01*
X142272100Y-72057699D01*
X142321687Y-72051172D01*
X142430516Y-72000424D01*
X142515424Y-71915516D01*
X142533249Y-71877288D01*
X142546790Y-71864881D01*
X142565141Y-71865681D01*
X142576954Y-71877739D01*
X142588605Y-71904125D01*
X142665274Y-71980794D01*
X142751999Y-72019086D01*
X142752000Y-72019086D01*
X142752000Y-71847401D01*
X143252000Y-71847401D01*
X143252000Y-72019086D01*
X143338725Y-71980794D01*
X143415394Y-71904125D01*
X143440441Y-71847400D01*
X143252001Y-71847400D01*
X143252000Y-71847401D01*
X142752000Y-71847401D01*
X142752000Y-71827200D01*
X143528759Y-71827200D01*
X143553805Y-71883925D01*
X143630474Y-71960594D01*
X143717199Y-71998886D01*
X143717200Y-71998886D01*
X143717200Y-71827201D01*
X144217200Y-71827201D01*
X144217200Y-71998886D01*
X144303925Y-71960594D01*
X144380594Y-71883925D01*
X144396722Y-71847400D01*
X144519359Y-71847400D01*
X144544405Y-71904125D01*
X144621074Y-71980794D01*
X144707799Y-72019086D01*
X144707800Y-72019086D01*
X144707800Y-71847401D01*
X144707799Y-71847400D01*
X144519359Y-71847400D01*
X144396722Y-71847400D01*
X144405641Y-71827200D01*
X144217201Y-71827200D01*
X144217200Y-71827201D01*
X143717200Y-71827201D01*
X143717199Y-71827200D01*
X143528759Y-71827200D01*
X142752000Y-71827200D01*
X142752000Y-71371400D01*
X142759029Y-71354429D01*
X142776000Y-71347400D01*
X143440441Y-71347400D01*
X143440440Y-71347399D01*
X143415393Y-71290673D01*
X143415393Y-71290672D01*
X143379307Y-71254585D01*
X143372278Y-71237615D01*
X143379308Y-71220644D01*
X143396064Y-71213616D01*
X143527743Y-71212451D01*
X143553906Y-71212220D01*
X143570938Y-71219099D01*
X143578117Y-71236007D01*
X143571238Y-71253039D01*
X143571089Y-71253189D01*
X143553806Y-71270472D01*
X143553806Y-71270473D01*
X143528759Y-71327199D01*
X143528759Y-71327200D01*
X144405641Y-71327200D01*
X144405640Y-71327199D01*
X144380594Y-71270474D01*
X144356062Y-71245942D01*
X144349033Y-71228971D01*
X144356062Y-71212000D01*
X144372819Y-71204972D01*
X144573734Y-71203194D01*
X144590764Y-71210073D01*
G37*
%TD.AperFunction*%
%TD*%
%TA.AperFunction,Conductor*%
%TO.N,5v*%
G36*
X150692716Y-47040906D02*
G01*
X150695073Y-47041070D01*
X150701129Y-47041918D01*
X150703445Y-47042408D01*
X150706389Y-47043140D01*
X150837198Y-47080514D01*
X150849049Y-47085903D01*
X150856783Y-47090918D01*
X150873346Y-47110642D01*
X150876948Y-47119127D01*
X150880206Y-47131734D01*
X150899611Y-47316870D01*
X150899721Y-47318071D01*
X150899792Y-47318991D01*
X150899911Y-47321400D01*
X150899932Y-47322346D01*
X150899941Y-47323535D01*
X150899023Y-47501806D01*
X150877504Y-51676454D01*
X150877255Y-51680911D01*
X150876890Y-51684320D01*
X150875041Y-51693063D01*
X150873996Y-51696324D01*
X150872418Y-51700505D01*
X150809019Y-51845687D01*
X150805173Y-51852684D01*
X150801828Y-51857643D01*
X150790688Y-51869010D01*
X150785797Y-51872455D01*
X150778878Y-51876443D01*
X150635877Y-51942356D01*
X150630663Y-51944368D01*
X150626607Y-51945644D01*
X150615632Y-51947615D01*
X150613387Y-51947729D01*
X150611388Y-51947831D01*
X150605810Y-51947759D01*
X143575388Y-51410713D01*
X143570253Y-51410015D01*
X143567856Y-51409544D01*
X143566368Y-51409251D01*
X143556496Y-51406064D01*
X143552894Y-51404410D01*
X143548311Y-51401968D01*
X141760750Y-50309569D01*
X141752005Y-50302550D01*
X141746366Y-50296696D01*
X141735484Y-50277293D01*
X141733429Y-50269427D01*
X141732000Y-50258305D01*
X141732000Y-48550036D01*
X141732000Y-48514000D01*
X140973498Y-48261166D01*
X140215699Y-48008566D01*
X140215695Y-48008565D01*
X140208000Y-48006000D01*
X140199886Y-48006000D01*
X140199880Y-48006000D01*
X138951850Y-48006000D01*
X138951849Y-48006000D01*
X138938000Y-48006000D01*
X138926127Y-48013122D01*
X138926122Y-48013125D01*
X138926119Y-48013127D01*
X137692273Y-48753435D01*
X137692270Y-48753437D01*
X137668000Y-48768000D01*
X137668000Y-48796308D01*
X137668000Y-50265362D01*
X137667054Y-50274436D01*
X137665660Y-50281050D01*
X137658333Y-50297659D01*
X137654385Y-50303151D01*
X137648326Y-50309961D01*
X137098383Y-50812084D01*
X137098378Y-50812089D01*
X137083800Y-50825400D01*
X137082246Y-50845076D01*
X137082246Y-50845079D01*
X137016434Y-51678700D01*
X137007600Y-51790600D01*
X137018329Y-51805482D01*
X137018330Y-51805484D01*
X137120591Y-51947330D01*
X137575260Y-52578000D01*
X137641667Y-52670113D01*
X137783545Y-52866911D01*
X137787110Y-52872770D01*
X137789452Y-52877397D01*
X137793657Y-52890421D01*
X137794464Y-52895546D01*
X137795000Y-52902390D01*
X137795000Y-53764357D01*
X137791688Y-53781105D01*
X137787406Y-53791508D01*
X137763836Y-53815293D01*
X137753472Y-53819670D01*
X137736760Y-53823133D01*
X137655585Y-53823878D01*
X137624357Y-53811278D01*
X137618598Y-53804326D01*
X137616517Y-53801212D01*
X137616517Y-53801210D01*
X137575954Y-53740504D01*
X137336696Y-53501247D01*
X137275990Y-53460683D01*
X137180200Y-53441629D01*
X137084409Y-53460683D01*
X137023708Y-53501242D01*
X136784445Y-53740506D01*
X136743883Y-53801207D01*
X136742225Y-53805213D01*
X136739968Y-53804278D01*
X136725930Y-53825240D01*
X136701928Y-53832627D01*
X135084501Y-53847466D01*
X135067755Y-53844320D01*
X135057321Y-53840145D01*
X135033324Y-53816857D01*
X135028837Y-53806550D01*
X135025190Y-53789903D01*
X135023710Y-53718862D01*
X135023700Y-53717946D01*
X135023700Y-52670113D01*
X135036587Y-52639000D01*
X135065904Y-52626150D01*
X136245600Y-52578000D01*
X136345939Y-51892345D01*
X136358359Y-51867611D01*
X136419406Y-51806565D01*
X136464785Y-51703791D01*
X136467700Y-51678665D01*
X136467699Y-51063522D01*
X136468163Y-51057152D01*
X136499198Y-50845078D01*
X136550355Y-50495508D01*
X136550379Y-50495341D01*
X136552451Y-50495648D01*
X136552621Y-50495237D01*
X136550449Y-50494892D01*
X136579932Y-50309569D01*
X136596952Y-50202585D01*
X136614568Y-50173884D01*
X136640405Y-50165499D01*
X136809898Y-50165499D01*
X136839213Y-50159669D01*
X136872457Y-50137457D01*
X136894669Y-50104213D01*
X136900500Y-50074899D01*
X136900499Y-49609580D01*
X136905294Y-49589606D01*
X136910646Y-49579104D01*
X136922643Y-49503361D01*
X136930492Y-49453802D01*
X136930492Y-49453797D01*
X136910647Y-49328500D01*
X136910645Y-49328494D01*
X136905295Y-49317994D01*
X136900499Y-49298018D01*
X136900499Y-48930314D01*
X136913386Y-48899201D01*
X136933108Y-48887814D01*
X137032135Y-48861281D01*
X137163365Y-48785515D01*
X137270515Y-48678365D01*
X137346281Y-48547135D01*
X137385500Y-48400766D01*
X137385500Y-48249234D01*
X137346281Y-48102865D01*
X137294471Y-48013127D01*
X137270517Y-47971638D01*
X137270516Y-47971637D01*
X137270515Y-47971635D01*
X137263551Y-47964671D01*
X137250665Y-47933560D01*
X137263551Y-47902448D01*
X137650296Y-47515703D01*
X137656952Y-47510240D01*
X137662302Y-47506666D01*
X137678161Y-47500098D01*
X137684468Y-47498844D01*
X137693047Y-47498000D01*
X141457785Y-47498000D01*
X141464831Y-47498568D01*
X141470095Y-47499422D01*
X141483469Y-47503880D01*
X141488189Y-47506353D01*
X141494169Y-47510127D01*
X142092237Y-47958677D01*
X142109394Y-47987653D01*
X142103941Y-48015876D01*
X142053721Y-48102860D01*
X142053719Y-48102865D01*
X142014500Y-48249234D01*
X142014500Y-48400766D01*
X142043209Y-48507911D01*
X142053718Y-48547132D01*
X142053721Y-48547139D01*
X142129482Y-48678361D01*
X142129483Y-48678362D01*
X142129485Y-48678365D01*
X142236635Y-48785515D01*
X142236637Y-48785516D01*
X142236638Y-48785517D01*
X142277691Y-48809219D01*
X142367865Y-48861281D01*
X142461390Y-48886340D01*
X142488105Y-48906840D01*
X142494000Y-48928840D01*
X142494000Y-50292000D01*
X145262867Y-50292000D01*
X145262871Y-50292000D01*
X145275300Y-50292000D01*
X146761200Y-49504600D01*
X146763095Y-49503361D01*
X146763117Y-49503348D01*
X148021039Y-48681339D01*
X148021039Y-48681338D01*
X148043900Y-48666400D01*
X148042709Y-48514000D01*
X148038741Y-48006000D01*
X148034189Y-47423380D01*
X148035073Y-47414255D01*
X148035455Y-47412376D01*
X148036431Y-47407589D01*
X148043704Y-47390854D01*
X148047652Y-47385310D01*
X148053715Y-47378443D01*
X148114130Y-47322930D01*
X148300481Y-47151697D01*
X148304231Y-47148616D01*
X148307269Y-47146392D01*
X148315728Y-47141539D01*
X148319176Y-47140042D01*
X148323738Y-47138357D01*
X148632052Y-47043491D01*
X148635204Y-47042648D01*
X148637678Y-47042085D01*
X148644165Y-47041110D01*
X148646687Y-47040921D01*
X148649955Y-47040800D01*
X150689662Y-47040800D01*
X150692716Y-47040906D01*
G37*
%TD.AperFunction*%
%TD*%
%TA.AperFunction,Conductor*%
%TO.N,3.3V*%
G36*
X135418069Y-72881451D02*
G01*
X136534471Y-73222048D01*
X136544436Y-73228031D01*
X136797371Y-73480966D01*
X136804400Y-73497937D01*
X136804400Y-74335146D01*
X136797371Y-74352117D01*
X136780400Y-74359146D01*
X136767067Y-74355101D01*
X136737440Y-74335305D01*
X136737435Y-74335303D01*
X136679102Y-74323700D01*
X136371901Y-74323700D01*
X136371900Y-74323701D01*
X136371900Y-74649200D01*
X136364871Y-74666171D01*
X136347900Y-74673200D01*
X135725633Y-74673200D01*
X135708662Y-74666171D01*
X135516191Y-74473700D01*
X135690427Y-74473700D01*
X136171899Y-74473700D01*
X136171900Y-74473699D01*
X136171900Y-74323701D01*
X136171899Y-74323700D01*
X135864697Y-74323700D01*
X135806364Y-74335303D01*
X135806362Y-74335304D01*
X135740210Y-74379506D01*
X135740206Y-74379510D01*
X135696003Y-74445665D01*
X135690427Y-74473700D01*
X135516191Y-74473700D01*
X135379471Y-74336980D01*
X135377626Y-74334908D01*
X135307590Y-74246460D01*
X135307580Y-74246448D01*
X135305800Y-74244200D01*
X134751000Y-73689400D01*
X134751000Y-73684626D01*
X134752327Y-73684626D01*
X134752327Y-73683094D01*
X134751000Y-73683094D01*
X134751000Y-73498401D01*
X135251000Y-73498401D01*
X135251000Y-73670086D01*
X135337725Y-73631794D01*
X135414394Y-73555125D01*
X135439441Y-73498400D01*
X135251001Y-73498400D01*
X135251000Y-73498401D01*
X134751000Y-73498401D01*
X134751000Y-73022400D01*
X134758029Y-73005429D01*
X134775000Y-72998400D01*
X135439441Y-72998400D01*
X135439440Y-72998399D01*
X135414394Y-72941674D01*
X135394098Y-72921378D01*
X135387069Y-72904407D01*
X135394098Y-72887436D01*
X135411069Y-72880407D01*
X135418069Y-72881451D01*
G37*
%TD.AperFunction*%
%TD*%
%TA.AperFunction,Conductor*%
%TO.N,GND*%
G36*
X141857831Y-74583155D02*
G01*
X141984311Y-74650611D01*
X141986773Y-74652017D01*
X142355060Y-74877082D01*
X142424234Y-74919355D01*
X142433316Y-74924486D01*
X142436500Y-74926286D01*
X142438101Y-74927119D01*
X142439409Y-74927800D01*
X142452123Y-74933874D01*
X142456157Y-74935634D01*
X142457923Y-74936405D01*
X142457922Y-74936405D01*
X142460092Y-74937351D01*
X142460106Y-74937357D01*
X142486645Y-74946829D01*
X142486664Y-74946834D01*
X142486669Y-74946836D01*
X142492941Y-74948600D01*
X142492959Y-74948605D01*
X142520494Y-74954351D01*
X142528359Y-74955437D01*
X142557731Y-74954134D01*
X142592978Y-74966935D01*
X142608852Y-75000913D01*
X142608900Y-75003085D01*
X142608900Y-75038523D01*
X142617632Y-75082421D01*
X142650895Y-75132204D01*
X142652026Y-75132960D01*
X142652780Y-75134089D01*
X142654308Y-75135617D01*
X142654004Y-75135920D01*
X142672859Y-75164144D01*
X142665540Y-75200926D01*
X142652026Y-75214440D01*
X142650895Y-75215195D01*
X142617632Y-75264978D01*
X142608900Y-75308876D01*
X142608900Y-75438523D01*
X142617632Y-75482421D01*
X142650895Y-75532204D01*
X142652026Y-75532960D01*
X142652780Y-75534089D01*
X142654308Y-75535617D01*
X142654004Y-75535920D01*
X142672859Y-75564144D01*
X142665540Y-75600926D01*
X142652026Y-75614440D01*
X142650895Y-75615195D01*
X142617632Y-75664978D01*
X142608900Y-75708876D01*
X142608900Y-75838523D01*
X142617632Y-75882421D01*
X142650895Y-75932204D01*
X142652026Y-75932960D01*
X142652780Y-75934089D01*
X142654308Y-75935617D01*
X142654004Y-75935920D01*
X142672859Y-75964144D01*
X142665540Y-76000926D01*
X142652026Y-76014440D01*
X142650895Y-76015195D01*
X142617632Y-76064978D01*
X142608900Y-76108876D01*
X142608900Y-76238523D01*
X142617632Y-76282421D01*
X142650895Y-76332204D01*
X142652026Y-76332960D01*
X142652780Y-76334089D01*
X142654308Y-76335617D01*
X142654004Y-76335920D01*
X142672859Y-76364144D01*
X142665540Y-76400926D01*
X142652026Y-76414440D01*
X142650895Y-76415195D01*
X142617632Y-76464978D01*
X142608900Y-76508876D01*
X142608900Y-76638523D01*
X142617632Y-76682421D01*
X142650895Y-76732204D01*
X142652026Y-76732960D01*
X142652780Y-76734089D01*
X142654308Y-76735617D01*
X142654004Y-76735920D01*
X142672859Y-76764144D01*
X142665540Y-76800926D01*
X142652026Y-76814440D01*
X142650895Y-76815195D01*
X142617632Y-76864978D01*
X142608900Y-76908876D01*
X142608900Y-77038523D01*
X142617632Y-77082421D01*
X142650895Y-77132204D01*
X142652026Y-77132960D01*
X142652780Y-77134089D01*
X142654308Y-77135617D01*
X142654004Y-77135920D01*
X142672859Y-77164144D01*
X142665540Y-77200926D01*
X142652026Y-77214440D01*
X142650895Y-77215195D01*
X142617632Y-77264978D01*
X142608900Y-77308876D01*
X142608900Y-77438523D01*
X142617632Y-77482421D01*
X142650895Y-77532204D01*
X142652026Y-77532960D01*
X142652780Y-77534089D01*
X142654308Y-77535617D01*
X142654004Y-77535920D01*
X142672859Y-77564144D01*
X142665540Y-77600926D01*
X142652026Y-77614440D01*
X142650895Y-77615195D01*
X142617632Y-77664978D01*
X142608900Y-77708876D01*
X142608900Y-77800885D01*
X142594548Y-77835533D01*
X142559900Y-77849885D01*
X142537655Y-77844544D01*
X142441508Y-77795555D01*
X142441505Y-77795554D01*
X142441504Y-77795554D01*
X142316200Y-77775708D01*
X142190896Y-77795554D01*
X142190894Y-77795554D01*
X142190892Y-77795555D01*
X142190890Y-77795555D01*
X142077864Y-77853145D01*
X142077857Y-77853150D01*
X141988150Y-77942857D01*
X141988145Y-77942864D01*
X141930555Y-78055890D01*
X141930555Y-78055892D01*
X141930554Y-78055894D01*
X141930554Y-78055896D01*
X141910708Y-78181200D01*
X141930554Y-78306504D01*
X141930554Y-78306505D01*
X141930555Y-78306507D01*
X141930555Y-78306509D01*
X141988145Y-78419535D01*
X141988150Y-78419542D01*
X142077857Y-78509249D01*
X142077864Y-78509254D01*
X142190891Y-78566844D01*
X142190892Y-78566844D01*
X142190896Y-78566846D01*
X142316200Y-78586692D01*
X142441504Y-78566846D01*
X142537654Y-78517855D01*
X142575042Y-78514912D01*
X142603559Y-78539268D01*
X142608900Y-78561514D01*
X142608900Y-78638523D01*
X142617632Y-78682421D01*
X142650895Y-78732204D01*
X142652026Y-78732960D01*
X142652780Y-78734089D01*
X142654308Y-78735617D01*
X142654004Y-78735920D01*
X142672859Y-78764144D01*
X142665540Y-78800926D01*
X142652026Y-78814440D01*
X142650895Y-78815195D01*
X142617632Y-78864978D01*
X142608900Y-78908876D01*
X142608900Y-79038523D01*
X142617632Y-79082421D01*
X142650895Y-79132204D01*
X142652026Y-79132960D01*
X142652780Y-79134089D01*
X142654308Y-79135617D01*
X142654004Y-79135920D01*
X142672859Y-79164144D01*
X142665540Y-79200926D01*
X142652026Y-79214440D01*
X142650895Y-79215195D01*
X142617632Y-79264978D01*
X142608900Y-79308876D01*
X142608900Y-79438523D01*
X142617632Y-79482421D01*
X142650895Y-79532204D01*
X142652026Y-79532960D01*
X142652780Y-79534089D01*
X142654308Y-79535617D01*
X142654004Y-79535920D01*
X142672859Y-79564144D01*
X142665540Y-79600926D01*
X142652026Y-79614440D01*
X142650895Y-79615195D01*
X142617632Y-79664978D01*
X142608900Y-79708876D01*
X142608900Y-79838523D01*
X142617632Y-79882421D01*
X142650895Y-79932204D01*
X142679927Y-79951602D01*
X142700678Y-79965467D01*
X142744580Y-79974200D01*
X143107018Y-79974200D01*
X143411730Y-79974200D01*
X143446378Y-79988552D01*
X144742948Y-81285122D01*
X144757300Y-81319770D01*
X144757300Y-83059243D01*
X144742948Y-83093891D01*
X144708300Y-83108243D01*
X144673652Y-83093891D01*
X142524252Y-80944491D01*
X142509900Y-80909843D01*
X142509900Y-80208880D01*
X142509899Y-80208876D01*
X142501167Y-80164978D01*
X142467904Y-80115195D01*
X142418121Y-80081932D01*
X142374223Y-80073200D01*
X142374220Y-80073200D01*
X142244580Y-80073200D01*
X142244576Y-80073200D01*
X142200678Y-80081932D01*
X142150895Y-80115195D01*
X142150140Y-80116326D01*
X142149010Y-80117080D01*
X142147483Y-80118608D01*
X142147179Y-80118304D01*
X142118956Y-80137159D01*
X142082174Y-80129840D01*
X142068660Y-80116326D01*
X142067904Y-80115195D01*
X142018121Y-80081932D01*
X141974223Y-80073200D01*
X141974220Y-80073200D01*
X141909572Y-80073200D01*
X141874924Y-80058848D01*
X141860572Y-80024200D01*
X141865913Y-80001954D01*
X141872742Y-79988552D01*
X141914446Y-79906704D01*
X141934292Y-79781400D01*
X141914446Y-79656096D01*
X141914444Y-79656092D01*
X141914444Y-79656090D01*
X141856854Y-79543064D01*
X141856849Y-79543057D01*
X141767142Y-79453350D01*
X141767135Y-79453345D01*
X141654108Y-79395755D01*
X141654105Y-79395754D01*
X141654104Y-79395754D01*
X141528800Y-79375908D01*
X141403496Y-79395754D01*
X141403494Y-79395754D01*
X141403492Y-79395755D01*
X141403490Y-79395755D01*
X141290464Y-79453345D01*
X141290457Y-79453350D01*
X141200750Y-79543057D01*
X141200745Y-79543064D01*
X141143155Y-79656090D01*
X141143155Y-79656092D01*
X141143154Y-79656094D01*
X141143154Y-79656096D01*
X141123308Y-79781400D01*
X141143154Y-79906704D01*
X141143154Y-79906705D01*
X141143155Y-79906706D01*
X141191686Y-80001954D01*
X141194629Y-80039342D01*
X141170273Y-80067859D01*
X141148027Y-80073200D01*
X141044576Y-80073200D01*
X141000678Y-80081932D01*
X140950895Y-80115195D01*
X140950140Y-80116326D01*
X140949010Y-80117080D01*
X140947483Y-80118608D01*
X140947179Y-80118304D01*
X140918956Y-80137159D01*
X140882174Y-80129840D01*
X140868660Y-80116326D01*
X140867904Y-80115195D01*
X140818121Y-80081932D01*
X140774223Y-80073200D01*
X140774220Y-80073200D01*
X140667321Y-80073200D01*
X140632673Y-80058848D01*
X140618321Y-80024201D01*
X140618301Y-79098546D01*
X140618301Y-79098538D01*
X140616324Y-79078212D01*
X140614542Y-79069137D01*
X140608684Y-79049567D01*
X140599873Y-79027999D01*
X140577534Y-78994030D01*
X140564825Y-78981070D01*
X140531301Y-78958072D01*
X140509906Y-78948839D01*
X140509904Y-78948838D01*
X140509901Y-78948837D01*
X140490447Y-78942596D01*
X140481409Y-78940638D01*
X140481413Y-78940638D01*
X140461144Y-78938266D01*
X138076565Y-78891510D01*
X138042205Y-78876481D01*
X138028527Y-78842190D01*
X138051845Y-75391096D01*
X138066431Y-75356547D01*
X138101175Y-75342430D01*
X138101261Y-75342431D01*
X141577329Y-75390377D01*
X141597144Y-75388777D01*
X141606011Y-75387210D01*
X141625172Y-75381922D01*
X141646440Y-75373829D01*
X141680142Y-75353057D01*
X141693193Y-75341114D01*
X141716863Y-75309388D01*
X141726807Y-75288921D01*
X141733770Y-75270305D01*
X141736116Y-75261612D01*
X141739465Y-75242014D01*
X141785911Y-74622725D01*
X141802814Y-74589248D01*
X141838439Y-74577528D01*
X141857831Y-74583155D01*
G37*
%TD.AperFunction*%
%TA.AperFunction,Conductor*%
G36*
X138126748Y-59749568D02*
G01*
X138164348Y-59787168D01*
X138178700Y-59821816D01*
X138178700Y-66218270D01*
X138164348Y-66252918D01*
X138129700Y-66267270D01*
X138104757Y-66260446D01*
X138052798Y-66229718D01*
X138052800Y-66229718D01*
X137895100Y-66183901D01*
X137895089Y-66183899D01*
X137892600Y-66183703D01*
X137892600Y-68778296D01*
X137895088Y-68778100D01*
X137897550Y-68777651D01*
X137897745Y-68778718D01*
X137931550Y-68782432D01*
X137955015Y-68811688D01*
X137950920Y-68848966D01*
X137942616Y-68860032D01*
X137428519Y-69374131D01*
X137270226Y-69532424D01*
X137242025Y-69560625D01*
X137213824Y-69588825D01*
X137183300Y-69662516D01*
X137183300Y-71767286D01*
X137168948Y-71801934D01*
X137134300Y-71816286D01*
X137099652Y-71801934D01*
X137095452Y-71797734D01*
X137081100Y-71763086D01*
X137081100Y-68728708D01*
X137095452Y-68694060D01*
X137130100Y-68679708D01*
X137155043Y-68686532D01*
X137232398Y-68732280D01*
X137390110Y-68778100D01*
X137392599Y-68778296D01*
X137392600Y-68778295D01*
X137392600Y-66183703D01*
X137390110Y-66183899D01*
X137390099Y-66183901D01*
X137232398Y-66229719D01*
X137155043Y-66275467D01*
X137117914Y-66280752D01*
X137087924Y-66258234D01*
X137081100Y-66233291D01*
X137081100Y-63374746D01*
X137095452Y-63340098D01*
X137812574Y-62622976D01*
X137812576Y-62622974D01*
X137843100Y-62549282D01*
X137843100Y-62469518D01*
X137843100Y-61216575D01*
X137857452Y-61181927D01*
X137882540Y-61168517D01*
X137890340Y-61166966D01*
X137973201Y-61111601D01*
X138028566Y-61028740D01*
X138043100Y-60955674D01*
X138043100Y-59784216D01*
X138057452Y-59749568D01*
X138092100Y-59735216D01*
X138126748Y-59749568D01*
G37*
%TD.AperFunction*%
%TA.AperFunction,Conductor*%
G36*
X138727179Y-50137215D02*
G01*
X138727680Y-50137549D01*
X138748548Y-50168709D01*
X138749500Y-50178319D01*
X138749500Y-50414884D01*
X138757624Y-50434497D01*
X138780024Y-50488575D01*
X138780025Y-50488576D01*
X138780025Y-50488577D01*
X139231148Y-50939699D01*
X139245500Y-50974347D01*
X139245500Y-68756582D01*
X139245500Y-68836346D01*
X139276024Y-68910038D01*
X139276025Y-68910039D01*
X139276026Y-68910041D01*
X139826182Y-69460197D01*
X139840534Y-69494845D01*
X139826182Y-69529493D01*
X139791534Y-69543845D01*
X139766590Y-69537021D01*
X139745196Y-69524368D01*
X139589913Y-69479254D01*
X139569000Y-69477608D01*
X139569000Y-70457400D01*
X139554648Y-70492048D01*
X139520000Y-70506400D01*
X138178200Y-70506400D01*
X138143552Y-70492048D01*
X138129200Y-70457400D01*
X138129200Y-70055400D01*
X138143552Y-70020752D01*
X138178200Y-70006400D01*
X139069000Y-70006400D01*
X139069000Y-69477609D01*
X139068999Y-69477608D01*
X139048086Y-69479254D01*
X139048085Y-69479254D01*
X138892804Y-69524368D01*
X138874042Y-69535464D01*
X138836914Y-69540747D01*
X138824158Y-69535464D01*
X138805395Y-69524368D01*
X138650113Y-69479254D01*
X138613839Y-69476400D01*
X138435909Y-69476400D01*
X138401261Y-69462048D01*
X138386909Y-69427400D01*
X138401260Y-69392753D01*
X138849176Y-68944838D01*
X138879700Y-68871146D01*
X138879700Y-68791382D01*
X138879700Y-59554324D01*
X138849176Y-59480632D01*
X138792774Y-59424230D01*
X138400044Y-59031500D01*
X137948770Y-58580225D01*
X137875077Y-58549700D01*
X137875076Y-58549700D01*
X136641082Y-58549700D01*
X136561318Y-58549700D01*
X136561316Y-58549700D01*
X136487624Y-58580225D01*
X136487623Y-58580225D01*
X135959896Y-59107954D01*
X135903493Y-59164356D01*
X135900811Y-59168370D01*
X135900153Y-59167930D01*
X135894431Y-59176487D01*
X135550448Y-59520470D01*
X135515800Y-59534822D01*
X135481152Y-59520470D01*
X135475064Y-59513052D01*
X135433201Y-59450399D01*
X135433199Y-59450398D01*
X135433199Y-59450397D01*
X135350339Y-59395033D01*
X135277277Y-59380500D01*
X135277274Y-59380500D01*
X135193636Y-59380500D01*
X135158988Y-59366148D01*
X135144636Y-59331500D01*
X135158988Y-59296852D01*
X135179966Y-59284446D01*
X135270197Y-59258231D01*
X135409373Y-59175922D01*
X135409378Y-59175918D01*
X135523718Y-59061578D01*
X135523722Y-59061573D01*
X135606030Y-58922398D01*
X135651145Y-58767114D01*
X135651145Y-58767113D01*
X135652791Y-58746200D01*
X135124000Y-58746200D01*
X135124000Y-59311208D01*
X135131917Y-59324594D01*
X135122591Y-59360919D01*
X135090312Y-59380011D01*
X135083406Y-59380500D01*
X134927922Y-59380500D01*
X134854860Y-59395033D01*
X134771998Y-59450398D01*
X134716633Y-59533260D01*
X134702100Y-59606322D01*
X134702100Y-60955677D01*
X134716633Y-61028739D01*
X134771998Y-61111601D01*
X134854857Y-61166964D01*
X134854860Y-61166966D01*
X134927926Y-61181500D01*
X135277274Y-61181500D01*
X135350340Y-61166966D01*
X135433201Y-61111601D01*
X135488566Y-61028740D01*
X135503100Y-60955674D01*
X135503100Y-60155216D01*
X135517452Y-60120568D01*
X135888452Y-59749568D01*
X135923100Y-59735216D01*
X135957748Y-59749568D01*
X135972100Y-59784216D01*
X135972100Y-60955677D01*
X135986633Y-61028739D01*
X136041998Y-61111601D01*
X136124857Y-61166964D01*
X136124860Y-61166966D01*
X136197926Y-61181500D01*
X136547274Y-61181500D01*
X136620340Y-61166966D01*
X136703201Y-61111601D01*
X136758566Y-61028740D01*
X136773100Y-60955674D01*
X136773100Y-59606326D01*
X136766711Y-59574208D01*
X136759919Y-59540060D01*
X136767235Y-59503277D01*
X136798417Y-59482442D01*
X136807977Y-59481500D01*
X137207223Y-59481500D01*
X137241871Y-59495852D01*
X137256223Y-59530500D01*
X137255281Y-59540060D01*
X137242100Y-59606322D01*
X137242100Y-60955677D01*
X137256633Y-61028739D01*
X137311998Y-61111601D01*
X137394857Y-61166964D01*
X137394860Y-61166966D01*
X137402658Y-61168517D01*
X137433840Y-61189350D01*
X137442100Y-61216575D01*
X137442100Y-62406054D01*
X137427748Y-62440702D01*
X136767026Y-63101424D01*
X136738825Y-63129625D01*
X136710624Y-63157825D01*
X136680100Y-63231516D01*
X136680100Y-66547214D01*
X136665748Y-66581862D01*
X136631100Y-66596214D01*
X136621541Y-66595272D01*
X136547279Y-66580500D01*
X136547274Y-66580500D01*
X136197926Y-66580500D01*
X136197922Y-66580500D01*
X136124860Y-66595033D01*
X136041998Y-66650398D01*
X135986633Y-66733260D01*
X135972100Y-66806322D01*
X135972100Y-68155677D01*
X135986633Y-68228739D01*
X136041998Y-68311601D01*
X136118484Y-68362706D01*
X136124860Y-68366966D01*
X136132658Y-68368517D01*
X136163840Y-68389350D01*
X136172100Y-68416575D01*
X136172100Y-71604614D01*
X136157748Y-71639262D01*
X136123100Y-71653614D01*
X136088452Y-71639262D01*
X135317452Y-70868262D01*
X135303100Y-70833614D01*
X135303100Y-68416575D01*
X135317452Y-68381927D01*
X135342540Y-68368517D01*
X135350340Y-68366966D01*
X135433201Y-68311601D01*
X135488566Y-68228740D01*
X135503100Y-68155674D01*
X135503100Y-66806326D01*
X135488566Y-66733260D01*
X135450108Y-66675702D01*
X135433201Y-66650398D01*
X135350339Y-66595033D01*
X135277277Y-66580500D01*
X135277274Y-66580500D01*
X134927926Y-66580500D01*
X134927922Y-66580500D01*
X134854860Y-66595033D01*
X134771998Y-66650398D01*
X134716633Y-66733260D01*
X134702100Y-66806322D01*
X134702100Y-68155677D01*
X134716633Y-68228739D01*
X134771998Y-68311601D01*
X134848484Y-68362706D01*
X134854860Y-68366966D01*
X134862658Y-68368517D01*
X134893840Y-68389350D01*
X134902100Y-68416575D01*
X134902100Y-70758878D01*
X134887748Y-70793526D01*
X134853100Y-70807878D01*
X134818452Y-70793526D01*
X134047452Y-70022526D01*
X134033100Y-69987878D01*
X134033100Y-68416575D01*
X134047452Y-68381927D01*
X134072540Y-68368517D01*
X134080340Y-68366966D01*
X134163201Y-68311601D01*
X134218566Y-68228740D01*
X134233100Y-68155674D01*
X134233100Y-66806326D01*
X134218566Y-66733260D01*
X134180108Y-66675702D01*
X134163201Y-66650398D01*
X134080339Y-66595033D01*
X134007277Y-66580500D01*
X134007274Y-66580500D01*
X133657926Y-66580500D01*
X133657922Y-66580500D01*
X133584860Y-66595033D01*
X133501998Y-66650398D01*
X133448473Y-66730507D01*
X133417291Y-66751343D01*
X133380509Y-66744027D01*
X133373083Y-66737933D01*
X133310852Y-66675702D01*
X133296500Y-66641054D01*
X133296500Y-57964546D01*
X133310852Y-57929898D01*
X134971652Y-56269098D01*
X135006300Y-56254746D01*
X135040948Y-56269098D01*
X135055300Y-56303746D01*
X135055300Y-57074919D01*
X135040948Y-57109567D01*
X134079167Y-58071348D01*
X134044519Y-58085700D01*
X133750306Y-58085700D01*
X133680163Y-58099652D01*
X133600608Y-58152808D01*
X133547452Y-58232363D01*
X133533500Y-58302506D01*
X133533500Y-58689893D01*
X133547452Y-58760036D01*
X133547453Y-58760038D01*
X133547454Y-58760039D01*
X133573842Y-58799532D01*
X133582100Y-58826753D01*
X133582100Y-59370686D01*
X133567748Y-59405334D01*
X133560323Y-59411428D01*
X133501997Y-59450399D01*
X133446633Y-59533260D01*
X133432100Y-59606322D01*
X133432100Y-60955677D01*
X133446633Y-61028739D01*
X133501998Y-61111601D01*
X133584857Y-61166964D01*
X133584860Y-61166966D01*
X133584863Y-61166966D01*
X133589320Y-61168813D01*
X133588399Y-61171034D01*
X133612412Y-61187073D01*
X133616943Y-61195548D01*
X133620236Y-61203497D01*
X133620237Y-61203498D01*
X133620237Y-61203499D01*
X134686458Y-62269719D01*
X134700810Y-62304367D01*
X134700206Y-62312031D01*
X134697108Y-62331600D01*
X134716954Y-62456904D01*
X134716954Y-62456905D01*
X134716955Y-62456907D01*
X134716955Y-62456909D01*
X134774545Y-62569935D01*
X134774550Y-62569942D01*
X134864257Y-62659649D01*
X134864264Y-62659654D01*
X134977291Y-62717244D01*
X134977292Y-62717244D01*
X134977296Y-62717246D01*
X135102600Y-62737092D01*
X135227904Y-62717246D01*
X135227908Y-62717244D01*
X135227909Y-62717244D01*
X135340935Y-62659654D01*
X135340937Y-62659652D01*
X135340942Y-62659650D01*
X135430650Y-62569942D01*
X135430654Y-62569935D01*
X135488244Y-62456909D01*
X135488244Y-62456907D01*
X135488246Y-62456904D01*
X135508092Y-62331600D01*
X135488246Y-62206296D01*
X135488244Y-62206292D01*
X135488244Y-62206290D01*
X135430654Y-62093264D01*
X135430649Y-62093257D01*
X135340942Y-62003550D01*
X135340935Y-62003545D01*
X135227908Y-61945955D01*
X135227905Y-61945954D01*
X135227904Y-61945954D01*
X135102600Y-61926108D01*
X135102599Y-61926108D01*
X135083031Y-61929207D01*
X135046565Y-61920451D01*
X135040719Y-61915458D01*
X134221139Y-61095878D01*
X134206787Y-61061230D01*
X134215046Y-61034006D01*
X134218566Y-61028740D01*
X134233100Y-60955674D01*
X134233100Y-59606326D01*
X134218566Y-59533260D01*
X134210020Y-59520470D01*
X134163202Y-59450399D01*
X134104877Y-59411428D01*
X134084042Y-59380246D01*
X134083100Y-59370686D01*
X134083100Y-59001968D01*
X134097452Y-58967320D01*
X134132100Y-58952968D01*
X134166748Y-58967320D01*
X134174276Y-58977025D01*
X134224277Y-59061573D01*
X134224281Y-59061578D01*
X134338621Y-59175918D01*
X134338626Y-59175922D01*
X134477802Y-59258231D01*
X134623999Y-59300705D01*
X134624000Y-59300704D01*
X134624000Y-58295200D01*
X134638352Y-58260552D01*
X134673000Y-58246200D01*
X135652790Y-58246200D01*
X135652790Y-58246199D01*
X135651145Y-58225286D01*
X135606030Y-58070001D01*
X135523722Y-57930826D01*
X135523718Y-57930821D01*
X135409378Y-57816481D01*
X135409373Y-57816477D01*
X135270199Y-57734169D01*
X135237147Y-57724566D01*
X135207879Y-57701117D01*
X135203765Y-57663840D01*
X135216168Y-57642868D01*
X135518164Y-57340873D01*
X135556300Y-57248804D01*
X135556300Y-57149149D01*
X135556300Y-55361499D01*
X135570652Y-55326851D01*
X135605300Y-55312499D01*
X135848333Y-55312499D01*
X135848338Y-55312499D01*
X135895745Y-55306259D01*
X135999779Y-55257747D01*
X136080947Y-55176579D01*
X136129459Y-55072545D01*
X136135046Y-55030103D01*
X136153798Y-54997625D01*
X136183627Y-54987500D01*
X136495026Y-54987500D01*
X136495028Y-54987500D01*
X136587097Y-54949364D01*
X136843271Y-54693188D01*
X136877916Y-54678838D01*
X136901522Y-54684899D01*
X136940872Y-54706532D01*
X136940874Y-54706533D01*
X137098721Y-54747060D01*
X137261679Y-54747060D01*
X137419528Y-54706532D01*
X137559323Y-54629678D01*
X137559324Y-54629677D01*
X136861294Y-53931647D01*
X136846942Y-53896999D01*
X136861294Y-53862351D01*
X137145551Y-53578094D01*
X137180199Y-53563742D01*
X137214847Y-53578094D01*
X137912877Y-54276124D01*
X137912878Y-54276123D01*
X137989732Y-54136328D01*
X138030260Y-53978479D01*
X138030260Y-53815520D01*
X137989733Y-53657674D01*
X137989731Y-53657671D01*
X137911224Y-53514866D01*
X137909801Y-53512806D01*
X137910784Y-53512126D01*
X137900500Y-53484231D01*
X137900500Y-52902401D01*
X137900500Y-52902390D01*
X137900178Y-52894153D01*
X137899642Y-52887309D01*
X137898680Y-52879136D01*
X137897873Y-52874011D01*
X137894054Y-52858006D01*
X137889849Y-52844982D01*
X137887798Y-52840000D01*
X137883583Y-52829758D01*
X137883581Y-52829753D01*
X137881239Y-52825126D01*
X137877237Y-52817931D01*
X137873672Y-52812072D01*
X137871883Y-52809375D01*
X137869128Y-52805220D01*
X137727246Y-52608416D01*
X137660839Y-52516303D01*
X137565769Y-52384432D01*
X137293727Y-52007084D01*
X137285108Y-51970587D01*
X137304821Y-51938682D01*
X137341319Y-51930062D01*
X137346341Y-51931149D01*
X137347206Y-51931384D01*
X137347209Y-51931385D01*
X137372335Y-51934300D01*
X137862064Y-51934299D01*
X137887191Y-51931385D01*
X137989965Y-51886006D01*
X138069406Y-51806565D01*
X138114785Y-51703791D01*
X138117700Y-51678665D01*
X138117699Y-51232857D01*
X138132051Y-51198210D01*
X138132051Y-51198209D01*
X138162364Y-51167897D01*
X138200500Y-51075828D01*
X138200500Y-50976172D01*
X138200500Y-50207383D01*
X138214852Y-50172735D01*
X138249500Y-50158383D01*
X138259061Y-50159325D01*
X138260785Y-50159668D01*
X138260787Y-50159669D01*
X138290101Y-50165500D01*
X138609898Y-50165499D01*
X138639213Y-50159669D01*
X138672457Y-50137457D01*
X138672458Y-50137455D01*
X138672776Y-50137243D01*
X138709559Y-50129927D01*
X138727179Y-50137215D01*
G37*
%TD.AperFunction*%
%TA.AperFunction,Conductor*%
G36*
X136333648Y-48654273D02*
G01*
X136341432Y-48664417D01*
X136349485Y-48678365D01*
X136456635Y-48785515D01*
X136494794Y-48807546D01*
X136587862Y-48861280D01*
X136587865Y-48861281D01*
X136713682Y-48894993D01*
X136743435Y-48917823D01*
X136750000Y-48942323D01*
X136750000Y-49646000D01*
X136735648Y-49680648D01*
X136701000Y-49695000D01*
X135706000Y-49695000D01*
X135671352Y-49680648D01*
X135657000Y-49646000D01*
X135657000Y-49515223D01*
X135659556Y-49510796D01*
X135680000Y-49434496D01*
X135680000Y-49205769D01*
X135706000Y-49195000D01*
X136250000Y-49195000D01*
X136250000Y-48688921D01*
X136264352Y-48654273D01*
X136299000Y-48639921D01*
X136333648Y-48654273D01*
G37*
%TD.AperFunction*%
%TA.AperFunction,Conductor*%
G36*
X143125500Y-48646486D02*
G01*
X143148330Y-48676238D01*
X143150000Y-48688921D01*
X143150000Y-49646000D01*
X143135648Y-49680648D01*
X143101000Y-49695000D01*
X142648500Y-49695000D01*
X142613852Y-49680648D01*
X142599500Y-49646000D01*
X142599500Y-49244000D01*
X142613852Y-49209352D01*
X142648500Y-49195000D01*
X142650000Y-49195000D01*
X142650000Y-48942323D01*
X142664352Y-48907675D01*
X142686317Y-48894993D01*
X142812135Y-48861281D01*
X142943365Y-48785515D01*
X143050515Y-48678365D01*
X143058566Y-48664420D01*
X143088317Y-48641591D01*
X143125500Y-48646486D01*
G37*
%TD.AperFunction*%
%TA.AperFunction,Conductor*%
G36*
X134497472Y-43694852D02*
G01*
X134511824Y-43729500D01*
X134503566Y-43756723D01*
X134493810Y-43771323D01*
X134418429Y-43953309D01*
X134418429Y-43953310D01*
X134380000Y-44146512D01*
X134380000Y-44395000D01*
X135080000Y-44395000D01*
X135080000Y-44895000D01*
X134380000Y-44895000D01*
X134380000Y-45143487D01*
X134418429Y-45336689D01*
X134418429Y-45336690D01*
X134493809Y-45518674D01*
X134603246Y-45682460D01*
X134742539Y-45821753D01*
X134906325Y-45931190D01*
X135088310Y-46006570D01*
X135130000Y-46014862D01*
X135130000Y-45211988D01*
X135139940Y-45229205D01*
X135195795Y-45285060D01*
X135264204Y-45324556D01*
X135340504Y-45345000D01*
X135419496Y-45345000D01*
X135495796Y-45324556D01*
X135564205Y-45285060D01*
X135620060Y-45229205D01*
X135630000Y-45211988D01*
X135630000Y-46014862D01*
X135671689Y-46006570D01*
X135671690Y-46006570D01*
X135853674Y-45931190D01*
X136017460Y-45821753D01*
X136156753Y-45682460D01*
X136266190Y-45518674D01*
X136341570Y-45336690D01*
X136341570Y-45336689D01*
X136380000Y-45143487D01*
X136380000Y-44895000D01*
X135680000Y-44895000D01*
X135680000Y-44395000D01*
X136380000Y-44395000D01*
X136380000Y-44146512D01*
X136341570Y-43953310D01*
X136341570Y-43953309D01*
X136266189Y-43771323D01*
X136256434Y-43756723D01*
X136249117Y-43719941D01*
X136269953Y-43688758D01*
X136297176Y-43680500D01*
X143102824Y-43680500D01*
X143137472Y-43694852D01*
X143151824Y-43729500D01*
X143143566Y-43756723D01*
X143133810Y-43771323D01*
X143058429Y-43953309D01*
X143058429Y-43953310D01*
X143020000Y-44146512D01*
X143020000Y-44395000D01*
X143720000Y-44395000D01*
X143720000Y-44895000D01*
X143020000Y-44895000D01*
X143020000Y-45143487D01*
X143058429Y-45336689D01*
X143058429Y-45336690D01*
X143133809Y-45518674D01*
X143243246Y-45682460D01*
X143382539Y-45821753D01*
X143546325Y-45931190D01*
X143728310Y-46006570D01*
X143770000Y-46014862D01*
X143770000Y-45211988D01*
X143779940Y-45229205D01*
X143835795Y-45285060D01*
X143904204Y-45324556D01*
X143980504Y-45345000D01*
X144059496Y-45345000D01*
X144135796Y-45324556D01*
X144204205Y-45285060D01*
X144260060Y-45229205D01*
X144270000Y-45211988D01*
X144270000Y-46014862D01*
X144311689Y-46006570D01*
X144311690Y-46006570D01*
X144493674Y-45931190D01*
X144657460Y-45821753D01*
X144796753Y-45682460D01*
X144906190Y-45518674D01*
X144981570Y-45336690D01*
X144981570Y-45336689D01*
X145020000Y-45143487D01*
X145020000Y-44895000D01*
X144320000Y-44895000D01*
X144320000Y-44395000D01*
X145020000Y-44395000D01*
X145020000Y-44146512D01*
X144981570Y-43953310D01*
X144981570Y-43953309D01*
X144906189Y-43771323D01*
X144896434Y-43756723D01*
X144889117Y-43719941D01*
X144909953Y-43688758D01*
X144937176Y-43680500D01*
X151850500Y-43680500D01*
X151885148Y-43694852D01*
X151899500Y-43729500D01*
X151899500Y-98510500D01*
X151885148Y-98545148D01*
X151850500Y-98559500D01*
X127549500Y-98559500D01*
X127514852Y-98545148D01*
X127500500Y-98510500D01*
X127500500Y-86109999D01*
X128209363Y-86109999D01*
X128209364Y-86110000D01*
X129106988Y-86110000D01*
X129074075Y-86167007D01*
X129040000Y-86294174D01*
X129040000Y-86425826D01*
X129074075Y-86552993D01*
X129106988Y-86610000D01*
X128209363Y-86610000D01*
X128266566Y-86823483D01*
X128266568Y-86823488D01*
X128366398Y-87037577D01*
X128366405Y-87037589D01*
X128501885Y-87231072D01*
X128501891Y-87231079D01*
X128668920Y-87398108D01*
X128668927Y-87398114D01*
X128862410Y-87533594D01*
X128862422Y-87533601D01*
X129076511Y-87633431D01*
X129076516Y-87633433D01*
X129290000Y-87690634D01*
X129290000Y-86793012D01*
X129347007Y-86825925D01*
X129474174Y-86860000D01*
X129605826Y-86860000D01*
X129732993Y-86825925D01*
X129790000Y-86793012D01*
X129790000Y-87690634D01*
X130003483Y-87633433D01*
X130003488Y-87633431D01*
X130217577Y-87533601D01*
X130217589Y-87533594D01*
X130411072Y-87398114D01*
X130411079Y-87398108D01*
X130578108Y-87231079D01*
X130578114Y-87231072D01*
X130713594Y-87037589D01*
X130713601Y-87037577D01*
X130813431Y-86823488D01*
X130813433Y-86823483D01*
X130870636Y-86610000D01*
X129973012Y-86610000D01*
X130005925Y-86552993D01*
X130040000Y-86425826D01*
X130040000Y-86294174D01*
X130005925Y-86167007D01*
X129973012Y-86110000D01*
X130870636Y-86110000D01*
X130870636Y-86109999D01*
X130813433Y-85896516D01*
X130813432Y-85896511D01*
X130713601Y-85682423D01*
X130713594Y-85682411D01*
X130578114Y-85488927D01*
X130578108Y-85488920D01*
X130411079Y-85321891D01*
X130411072Y-85321885D01*
X130217589Y-85186405D01*
X130217577Y-85186398D01*
X130003488Y-85086568D01*
X130003483Y-85086566D01*
X129790000Y-85029363D01*
X129790000Y-85926988D01*
X129732993Y-85894075D01*
X129605826Y-85860000D01*
X129474174Y-85860000D01*
X129347007Y-85894075D01*
X129290000Y-85926988D01*
X129290000Y-85029363D01*
X129289999Y-85029363D01*
X129076516Y-85086566D01*
X129076511Y-85086567D01*
X128862423Y-85186398D01*
X128862411Y-85186405D01*
X128668927Y-85321885D01*
X128668920Y-85321891D01*
X128501891Y-85488920D01*
X128501885Y-85488927D01*
X128366405Y-85682411D01*
X128366398Y-85682423D01*
X128266567Y-85896511D01*
X128266566Y-85896516D01*
X128209363Y-86109999D01*
X127500500Y-86109999D01*
X127500500Y-73409999D01*
X128209363Y-73409999D01*
X128209364Y-73410000D01*
X129106988Y-73410000D01*
X129074075Y-73467007D01*
X129040000Y-73594174D01*
X129040000Y-73725826D01*
X129074075Y-73852993D01*
X129106988Y-73910000D01*
X128209363Y-73910000D01*
X128266566Y-74123483D01*
X128266568Y-74123488D01*
X128366398Y-74337577D01*
X128366405Y-74337589D01*
X128501885Y-74531072D01*
X128501891Y-74531079D01*
X128668920Y-74698108D01*
X128668927Y-74698114D01*
X128862410Y-74833594D01*
X128862422Y-74833601D01*
X129076511Y-74933431D01*
X129076516Y-74933433D01*
X129290000Y-74990634D01*
X129290000Y-74093012D01*
X129347007Y-74125925D01*
X129474174Y-74160000D01*
X129605826Y-74160000D01*
X129732993Y-74125925D01*
X129790000Y-74093012D01*
X129790000Y-74990634D01*
X130003483Y-74933433D01*
X130003488Y-74933431D01*
X130217577Y-74833601D01*
X130217589Y-74833594D01*
X130411072Y-74698114D01*
X130411079Y-74698108D01*
X130578108Y-74531079D01*
X130578114Y-74531072D01*
X130713594Y-74337589D01*
X130713601Y-74337577D01*
X130813431Y-74123488D01*
X130813433Y-74123483D01*
X130870636Y-73910000D01*
X129973012Y-73910000D01*
X130005925Y-73852993D01*
X130040000Y-73725826D01*
X130040000Y-73594174D01*
X130005925Y-73467007D01*
X129973012Y-73410000D01*
X130738754Y-73410000D01*
X130773402Y-73424352D01*
X134502702Y-77153652D01*
X134517054Y-77188300D01*
X134502702Y-77222948D01*
X134468054Y-77237300D01*
X134222512Y-77237300D01*
X134207360Y-77240314D01*
X134170578Y-77232996D01*
X134155626Y-77217198D01*
X134075922Y-77082426D01*
X134075918Y-77082421D01*
X133961578Y-76968081D01*
X133961573Y-76968077D01*
X133822398Y-76885769D01*
X133676200Y-76843293D01*
X133676200Y-77848800D01*
X133661848Y-77883448D01*
X133627200Y-77897800D01*
X132647410Y-77897800D01*
X132649054Y-77918713D01*
X132694169Y-78073998D01*
X132776477Y-78213173D01*
X132776481Y-78213178D01*
X132852855Y-78289552D01*
X132867207Y-78324200D01*
X132852855Y-78358848D01*
X132818207Y-78373200D01*
X132017046Y-78373200D01*
X131982398Y-78358848D01*
X131021349Y-77397799D01*
X132647408Y-77397799D01*
X132647409Y-77397800D01*
X133176200Y-77397800D01*
X133176200Y-76843294D01*
X133176199Y-76843293D01*
X133030001Y-76885769D01*
X132890826Y-76968077D01*
X132890821Y-76968081D01*
X132776481Y-77082421D01*
X132776477Y-77082426D01*
X132694169Y-77221601D01*
X132649054Y-77376885D01*
X132649054Y-77376886D01*
X132647408Y-77397799D01*
X131021349Y-77397799D01*
X130366812Y-76743262D01*
X130352460Y-76708614D01*
X130358244Y-76685520D01*
X130422396Y-76565501D01*
X130476747Y-76386331D01*
X130495099Y-76200000D01*
X130476747Y-76013669D01*
X130422396Y-75834499D01*
X130334136Y-75669375D01*
X130334131Y-75669368D01*
X130255617Y-75573700D01*
X130215357Y-75524643D01*
X130110420Y-75438523D01*
X130070631Y-75405868D01*
X130070624Y-75405863D01*
X129905502Y-75317604D01*
X129726331Y-75263253D01*
X129540000Y-75244901D01*
X129353668Y-75263253D01*
X129353667Y-75263253D01*
X129174497Y-75317604D01*
X129009375Y-75405863D01*
X129009368Y-75405868D01*
X128864643Y-75524643D01*
X128745868Y-75669368D01*
X128745863Y-75669375D01*
X128657604Y-75834497D01*
X128603253Y-76013667D01*
X128603253Y-76013668D01*
X128584901Y-76199999D01*
X128584901Y-76200000D01*
X128603253Y-76386331D01*
X128603253Y-76386332D01*
X128657604Y-76565502D01*
X128745863Y-76730624D01*
X128745868Y-76730631D01*
X128803559Y-76800926D01*
X128864643Y-76875357D01*
X128905486Y-76908876D01*
X129009368Y-76994131D01*
X129009375Y-76994136D01*
X129174499Y-77082396D01*
X129353669Y-77136747D01*
X129540000Y-77155099D01*
X129726331Y-77136747D01*
X129905501Y-77082396D01*
X130025518Y-77018245D01*
X130062838Y-77014570D01*
X130083262Y-77026812D01*
X131746002Y-78689552D01*
X131760354Y-78724200D01*
X131746002Y-78758848D01*
X131711354Y-78773200D01*
X130542780Y-78773200D01*
X130508132Y-78758848D01*
X130494016Y-78729003D01*
X130483358Y-78620796D01*
X130476747Y-78553669D01*
X130422396Y-78374499D01*
X130334136Y-78209375D01*
X130334131Y-78209368D01*
X130242693Y-78097952D01*
X130215357Y-78064643D01*
X130125856Y-77991191D01*
X130070631Y-77945868D01*
X130070624Y-77945863D01*
X129905502Y-77857604D01*
X129726331Y-77803253D01*
X129540000Y-77784901D01*
X129353668Y-77803253D01*
X129353667Y-77803253D01*
X129174497Y-77857604D01*
X129009375Y-77945863D01*
X129009368Y-77945868D01*
X128864643Y-78064643D01*
X128745868Y-78209368D01*
X128745863Y-78209375D01*
X128657604Y-78374497D01*
X128603253Y-78553667D01*
X128603253Y-78553668D01*
X128584901Y-78739999D01*
X128584901Y-78740000D01*
X128603253Y-78926331D01*
X128603253Y-78926332D01*
X128657604Y-79105502D01*
X128745863Y-79270624D01*
X128745868Y-79270631D01*
X128794604Y-79330015D01*
X128864643Y-79415357D01*
X128928006Y-79467358D01*
X129009368Y-79534131D01*
X129009375Y-79534136D01*
X129098797Y-79581933D01*
X129174499Y-79622396D01*
X129353669Y-79676747D01*
X129540000Y-79695099D01*
X129726331Y-79676747D01*
X129905501Y-79622396D01*
X130070625Y-79534136D01*
X130215357Y-79415357D01*
X130334136Y-79270625D01*
X130371831Y-79200101D01*
X130400821Y-79176310D01*
X130415045Y-79174200D01*
X131243953Y-79174200D01*
X131278601Y-79188552D01*
X131292953Y-79223200D01*
X131278601Y-79257848D01*
X130083262Y-80453186D01*
X130048614Y-80467538D01*
X130025516Y-80461752D01*
X129905509Y-80397608D01*
X129905506Y-80397607D01*
X129905501Y-80397604D01*
X129726331Y-80343253D01*
X129540000Y-80324901D01*
X129353668Y-80343253D01*
X129353667Y-80343253D01*
X129174497Y-80397604D01*
X129009375Y-80485863D01*
X129009368Y-80485868D01*
X128864643Y-80604643D01*
X128745868Y-80749368D01*
X128745863Y-80749375D01*
X128657604Y-80914497D01*
X128603253Y-81093667D01*
X128603253Y-81093668D01*
X128584901Y-81279999D01*
X128584901Y-81280000D01*
X128603253Y-81466331D01*
X128603253Y-81466332D01*
X128657604Y-81645502D01*
X128745863Y-81810624D01*
X128745868Y-81810631D01*
X128803915Y-81881360D01*
X128864643Y-81955357D01*
X128935673Y-82013650D01*
X129009368Y-82074131D01*
X129009375Y-82074136D01*
X129174499Y-82162396D01*
X129353669Y-82216747D01*
X129540000Y-82235099D01*
X129726331Y-82216747D01*
X129905501Y-82162396D01*
X130070625Y-82074136D01*
X130215357Y-81955357D01*
X130334136Y-81810625D01*
X130422396Y-81645501D01*
X130476747Y-81466331D01*
X130495099Y-81280000D01*
X130476747Y-81093669D01*
X130422396Y-80914499D01*
X130358245Y-80794481D01*
X130354570Y-80757160D01*
X130366810Y-80736738D01*
X131514998Y-79588552D01*
X131549646Y-79574200D01*
X133383953Y-79574200D01*
X133418601Y-79588552D01*
X133432953Y-79623200D01*
X133418601Y-79657848D01*
X130083262Y-82993186D01*
X130048614Y-83007538D01*
X130025516Y-83001752D01*
X129905509Y-82937608D01*
X129905506Y-82937607D01*
X129905501Y-82937604D01*
X129726331Y-82883253D01*
X129540000Y-82864901D01*
X129353668Y-82883253D01*
X129353667Y-82883253D01*
X129174497Y-82937604D01*
X129009375Y-83025863D01*
X129009368Y-83025868D01*
X128864643Y-83144643D01*
X128745868Y-83289368D01*
X128745863Y-83289375D01*
X128657604Y-83454497D01*
X128603253Y-83633667D01*
X128603253Y-83633668D01*
X128584901Y-83819999D01*
X128584901Y-83820000D01*
X128603253Y-84006331D01*
X128603253Y-84006332D01*
X128657604Y-84185502D01*
X128745863Y-84350624D01*
X128745868Y-84350631D01*
X128808775Y-84427282D01*
X128864643Y-84495357D01*
X128900276Y-84524600D01*
X129009368Y-84614131D01*
X129009375Y-84614136D01*
X129174499Y-84702396D01*
X129353669Y-84756747D01*
X129540000Y-84775099D01*
X129726331Y-84756747D01*
X129905501Y-84702396D01*
X130070625Y-84614136D01*
X130215357Y-84495357D01*
X130334136Y-84350625D01*
X130422396Y-84185501D01*
X130476747Y-84006331D01*
X130495099Y-83820000D01*
X130476747Y-83633669D01*
X130422396Y-83454499D01*
X130358245Y-83334481D01*
X130354570Y-83297160D01*
X130366810Y-83276738D01*
X133654998Y-79988552D01*
X133689646Y-79974200D01*
X136674220Y-79974200D01*
X136718122Y-79965467D01*
X136767904Y-79932204D01*
X136801167Y-79882422D01*
X136809900Y-79838520D01*
X136809900Y-79708880D01*
X136801167Y-79664978D01*
X136795228Y-79656090D01*
X136767904Y-79615195D01*
X136766777Y-79614442D01*
X136766023Y-79613314D01*
X136764492Y-79611783D01*
X136764796Y-79611478D01*
X136745941Y-79583260D01*
X136753257Y-79546478D01*
X136766777Y-79532958D01*
X136767904Y-79532204D01*
X136801167Y-79482422D01*
X136809900Y-79438520D01*
X136809900Y-79308880D01*
X136801167Y-79264978D01*
X136796403Y-79257848D01*
X136767904Y-79215195D01*
X136766777Y-79214442D01*
X136766023Y-79213314D01*
X136764492Y-79211783D01*
X136764796Y-79211478D01*
X136745941Y-79183260D01*
X136753257Y-79146478D01*
X136766777Y-79132958D01*
X136767904Y-79132204D01*
X136801167Y-79082422D01*
X136809900Y-79038520D01*
X136809900Y-78908880D01*
X136801167Y-78864978D01*
X136767904Y-78815195D01*
X136766777Y-78814442D01*
X136766023Y-78813314D01*
X136764492Y-78811783D01*
X136764796Y-78811478D01*
X136745941Y-78783260D01*
X136753257Y-78746478D01*
X136766777Y-78732958D01*
X136767904Y-78732204D01*
X136773252Y-78724200D01*
X136801167Y-78682422D01*
X136809900Y-78638520D01*
X136809900Y-78620796D01*
X136824252Y-78586148D01*
X136858900Y-78571796D01*
X136866547Y-78572397D01*
X136956800Y-78586692D01*
X137082104Y-78566846D01*
X137082108Y-78566844D01*
X137082109Y-78566844D01*
X137195135Y-78509254D01*
X137195137Y-78509252D01*
X137195142Y-78509250D01*
X137224852Y-78479540D01*
X137259500Y-78465188D01*
X137294148Y-78479540D01*
X137308500Y-78514188D01*
X137308500Y-79169799D01*
X137310431Y-79189888D01*
X137312170Y-79198854D01*
X137317896Y-79218224D01*
X137326514Y-79239601D01*
X137326520Y-79239611D01*
X137348370Y-79273336D01*
X137360820Y-79286266D01*
X137393698Y-79309374D01*
X137393700Y-79309375D01*
X137393703Y-79309377D01*
X137414753Y-79318802D01*
X137433892Y-79325253D01*
X137442793Y-79327330D01*
X137462789Y-79330015D01*
X138027157Y-79351312D01*
X139215341Y-79396148D01*
X139249423Y-79411796D01*
X139262458Y-79446961D01*
X139257152Y-79467358D01*
X139212755Y-79554490D01*
X139212755Y-79554492D01*
X139212754Y-79554494D01*
X139212754Y-79554496D01*
X139196663Y-79656090D01*
X139192908Y-79679800D01*
X139206682Y-79766767D01*
X139197927Y-79803234D01*
X139165950Y-79822829D01*
X139129483Y-79814074D01*
X139128677Y-79813475D01*
X139031497Y-79739780D01*
X138890840Y-79684312D01*
X138809400Y-79674532D01*
X138809400Y-80662200D01*
X138795048Y-80696848D01*
X138760400Y-80711200D01*
X138658400Y-80711200D01*
X138623752Y-80696848D01*
X138609400Y-80662200D01*
X138609400Y-79674533D01*
X138609399Y-79674532D01*
X138527959Y-79684312D01*
X138387302Y-79739780D01*
X138266835Y-79831135D01*
X138175480Y-79951602D01*
X138124276Y-80081448D01*
X138098214Y-80108415D01*
X138060716Y-80109056D01*
X138051470Y-80104215D01*
X138045015Y-80099902D01*
X138018122Y-80081933D01*
X138018119Y-80081932D01*
X137974223Y-80073200D01*
X137974220Y-80073200D01*
X137844580Y-80073200D01*
X137844576Y-80073200D01*
X137800678Y-80081932D01*
X137750895Y-80115195D01*
X137750140Y-80116326D01*
X137749010Y-80117080D01*
X137747483Y-80118608D01*
X137747179Y-80118304D01*
X137718956Y-80137159D01*
X137682174Y-80129840D01*
X137668660Y-80116326D01*
X137667904Y-80115195D01*
X137618121Y-80081932D01*
X137574223Y-80073200D01*
X137574220Y-80073200D01*
X137444580Y-80073200D01*
X137444576Y-80073200D01*
X137400678Y-80081932D01*
X137350895Y-80115195D01*
X137350140Y-80116326D01*
X137349010Y-80117080D01*
X137347483Y-80118608D01*
X137347179Y-80118304D01*
X137318956Y-80137159D01*
X137282174Y-80129840D01*
X137268660Y-80116326D01*
X137267904Y-80115195D01*
X137218121Y-80081932D01*
X137174223Y-80073200D01*
X137174220Y-80073200D01*
X137044580Y-80073200D01*
X137044576Y-80073200D01*
X137000678Y-80081932D01*
X136950895Y-80115195D01*
X136917632Y-80164978D01*
X136908900Y-80208876D01*
X136908900Y-81227253D01*
X136894548Y-81261901D01*
X130083262Y-88073186D01*
X130048614Y-88087538D01*
X130025516Y-88081752D01*
X129905509Y-88017608D01*
X129905506Y-88017607D01*
X129905501Y-88017604D01*
X129726331Y-87963253D01*
X129540000Y-87944901D01*
X129353668Y-87963253D01*
X129353667Y-87963253D01*
X129174497Y-88017604D01*
X129009375Y-88105863D01*
X129009368Y-88105868D01*
X128864643Y-88224643D01*
X128745868Y-88369368D01*
X128745863Y-88369375D01*
X128657604Y-88534497D01*
X128603253Y-88713667D01*
X128603253Y-88713668D01*
X128584901Y-88899999D01*
X128584901Y-88900000D01*
X128603253Y-89086331D01*
X128603253Y-89086332D01*
X128657604Y-89265502D01*
X128745863Y-89430624D01*
X128745868Y-89430631D01*
X128808775Y-89507282D01*
X128864643Y-89575357D01*
X128947590Y-89643430D01*
X129009368Y-89694131D01*
X129009375Y-89694136D01*
X129174499Y-89782396D01*
X129353669Y-89836747D01*
X129540000Y-89855099D01*
X129726331Y-89836747D01*
X129905501Y-89782396D01*
X130070625Y-89694136D01*
X130215357Y-89575357D01*
X130334136Y-89430625D01*
X130422396Y-89265501D01*
X130476747Y-89086331D01*
X130495099Y-88900000D01*
X130476747Y-88713669D01*
X130422396Y-88534499D01*
X130358245Y-88414481D01*
X130354570Y-88377160D01*
X130366810Y-88356738D01*
X137225252Y-81498298D01*
X137259900Y-81483946D01*
X137294548Y-81498298D01*
X137308900Y-81532946D01*
X137308900Y-81571389D01*
X137294548Y-81606037D01*
X134231025Y-84669560D01*
X134231024Y-84669561D01*
X134231024Y-84669562D01*
X134225787Y-84682204D01*
X134200500Y-84743252D01*
X134200500Y-86475653D01*
X134186148Y-86510301D01*
X130083262Y-90613186D01*
X130048614Y-90627538D01*
X130025516Y-90621752D01*
X129905509Y-90557608D01*
X129905506Y-90557607D01*
X129905501Y-90557604D01*
X129726331Y-90503253D01*
X129540000Y-90484901D01*
X129353668Y-90503253D01*
X129353667Y-90503253D01*
X129174497Y-90557604D01*
X129009375Y-90645863D01*
X129009368Y-90645868D01*
X128864643Y-90764643D01*
X128745868Y-90909368D01*
X128745863Y-90909375D01*
X128657604Y-91074497D01*
X128603253Y-91253667D01*
X128603253Y-91253668D01*
X128584901Y-91439999D01*
X128584901Y-91440000D01*
X128603253Y-91626331D01*
X128603253Y-91626332D01*
X128657604Y-91805502D01*
X128745863Y-91970624D01*
X128745868Y-91970631D01*
X128800120Y-92036736D01*
X128864643Y-92115357D01*
X128931060Y-92169864D01*
X129009368Y-92234131D01*
X129009375Y-92234136D01*
X129174499Y-92322396D01*
X129353669Y-92376747D01*
X129540000Y-92395099D01*
X129726331Y-92376747D01*
X129905501Y-92322396D01*
X130070625Y-92234136D01*
X130215357Y-92115357D01*
X130334136Y-91970625D01*
X130422396Y-91805501D01*
X130476747Y-91626331D01*
X130495099Y-91440000D01*
X130476747Y-91253669D01*
X130422396Y-91074499D01*
X130358245Y-90954481D01*
X130354570Y-90917160D01*
X130366810Y-90896738D01*
X134416853Y-86846696D01*
X134451500Y-86832345D01*
X134486148Y-86846697D01*
X134500500Y-86881345D01*
X134500500Y-88715653D01*
X134486148Y-88750301D01*
X130083262Y-93153186D01*
X130048614Y-93167538D01*
X130025516Y-93161752D01*
X129905509Y-93097608D01*
X129905506Y-93097607D01*
X129905501Y-93097604D01*
X129726331Y-93043253D01*
X129540000Y-93024901D01*
X129353668Y-93043253D01*
X129353667Y-93043253D01*
X129174497Y-93097604D01*
X129009375Y-93185863D01*
X129009368Y-93185868D01*
X128864643Y-93304643D01*
X128745868Y-93449368D01*
X128745863Y-93449375D01*
X128657604Y-93614497D01*
X128603253Y-93793667D01*
X128603253Y-93793668D01*
X128584901Y-93979999D01*
X128584901Y-93980000D01*
X128603253Y-94166331D01*
X128603253Y-94166332D01*
X128657604Y-94345502D01*
X128745863Y-94510624D01*
X128745868Y-94510631D01*
X128808775Y-94587282D01*
X128864643Y-94655357D01*
X128947590Y-94723430D01*
X129009368Y-94774131D01*
X129009375Y-94774136D01*
X129174499Y-94862396D01*
X129353669Y-94916747D01*
X129540000Y-94935099D01*
X129726331Y-94916747D01*
X129905501Y-94862396D01*
X130070625Y-94774136D01*
X130215357Y-94655357D01*
X130334136Y-94510625D01*
X130422396Y-94345501D01*
X130476747Y-94166331D01*
X130495099Y-93980000D01*
X130476747Y-93793669D01*
X130422396Y-93614499D01*
X130358245Y-93494481D01*
X130354570Y-93457160D01*
X130366810Y-93436738D01*
X134716853Y-89086696D01*
X134751500Y-89072345D01*
X134786148Y-89086697D01*
X134800500Y-89121345D01*
X134800500Y-90955653D01*
X134786148Y-90990301D01*
X130083262Y-95693186D01*
X130048614Y-95707538D01*
X130025516Y-95701752D01*
X129905509Y-95637608D01*
X129905506Y-95637607D01*
X129905501Y-95637604D01*
X129726331Y-95583253D01*
X129540000Y-95564901D01*
X129353668Y-95583253D01*
X129353667Y-95583253D01*
X129174497Y-95637604D01*
X129009375Y-95725863D01*
X129009368Y-95725868D01*
X128864643Y-95844643D01*
X128745868Y-95989368D01*
X128745863Y-95989375D01*
X128657604Y-96154497D01*
X128603253Y-96333667D01*
X128603253Y-96333668D01*
X128584901Y-96519999D01*
X128584901Y-96520000D01*
X128603253Y-96706331D01*
X128603253Y-96706332D01*
X128657604Y-96885502D01*
X128745863Y-97050624D01*
X128745868Y-97050631D01*
X128808775Y-97127282D01*
X128864643Y-97195357D01*
X128947590Y-97263430D01*
X129009368Y-97314131D01*
X129009375Y-97314136D01*
X129174499Y-97402396D01*
X129353669Y-97456747D01*
X129540000Y-97475099D01*
X129726331Y-97456747D01*
X129905501Y-97402396D01*
X130070625Y-97314136D01*
X130215357Y-97195357D01*
X130334136Y-97050625D01*
X130422396Y-96885501D01*
X130476747Y-96706331D01*
X130495099Y-96520000D01*
X130476747Y-96333669D01*
X130422396Y-96154499D01*
X130358245Y-96034481D01*
X130354570Y-95997160D01*
X130366810Y-95976738D01*
X135170976Y-91172574D01*
X135201500Y-91098882D01*
X135201500Y-91019118D01*
X135201500Y-85945865D01*
X135411900Y-85945865D01*
X135411900Y-86343700D01*
X136361900Y-86343700D01*
X136361900Y-85968400D01*
X136352777Y-85959277D01*
X136340152Y-85954048D01*
X136325800Y-85919400D01*
X136325800Y-85365400D01*
X135797010Y-85365400D01*
X135798654Y-85386314D01*
X135816363Y-85447268D01*
X135812248Y-85484544D01*
X135786433Y-85506848D01*
X135669813Y-85550345D01*
X135669809Y-85550347D01*
X135554711Y-85636511D01*
X135468548Y-85751608D01*
X135418301Y-85886326D01*
X135418301Y-85886327D01*
X135411900Y-85945865D01*
X135201500Y-85945865D01*
X135201500Y-85142546D01*
X135215852Y-85107898D01*
X135458351Y-84865399D01*
X135797008Y-84865399D01*
X135797009Y-84865400D01*
X136325800Y-84865400D01*
X136325800Y-84310894D01*
X136325799Y-84310893D01*
X136179601Y-84353369D01*
X136040426Y-84435677D01*
X136040421Y-84435681D01*
X135926081Y-84550021D01*
X135926077Y-84550026D01*
X135843769Y-84689201D01*
X135798654Y-84844485D01*
X135798654Y-84844486D01*
X135797008Y-84865399D01*
X135458351Y-84865399D01*
X138226452Y-82097298D01*
X138261100Y-82082946D01*
X138295748Y-82097298D01*
X138310100Y-82131946D01*
X138310100Y-83026454D01*
X138295748Y-83061102D01*
X137432026Y-83924824D01*
X137403825Y-83953025D01*
X137375624Y-83981225D01*
X137345100Y-84054916D01*
X137345100Y-84573108D01*
X137330748Y-84607756D01*
X137296100Y-84622108D01*
X137261452Y-84607756D01*
X137253924Y-84598051D01*
X137225522Y-84550026D01*
X137225518Y-84550021D01*
X137111178Y-84435681D01*
X137111173Y-84435677D01*
X136971998Y-84353369D01*
X136825800Y-84310893D01*
X136825800Y-85450700D01*
X136834922Y-85459822D01*
X136847548Y-85465052D01*
X136861900Y-85499700D01*
X136861900Y-86343700D01*
X137296100Y-86343700D01*
X137330748Y-86358052D01*
X137345100Y-86392700D01*
X137345100Y-86794700D01*
X137330748Y-86829348D01*
X137296100Y-86843700D01*
X135411900Y-86843700D01*
X135411900Y-87241534D01*
X135418301Y-87301072D01*
X135418301Y-87301073D01*
X135468548Y-87435791D01*
X135554711Y-87550888D01*
X135669808Y-87637051D01*
X135779524Y-87677973D01*
X135806972Y-87703529D01*
X135811400Y-87723884D01*
X135811400Y-88903594D01*
X135811401Y-88903598D01*
X135817231Y-88932913D01*
X135817231Y-88932914D01*
X135817232Y-88932915D01*
X135817232Y-88932916D01*
X135836565Y-88961850D01*
X135839443Y-88966157D01*
X135872687Y-88988369D01*
X135902001Y-88994200D01*
X137321798Y-88994199D01*
X137351113Y-88988369D01*
X137384357Y-88966157D01*
X137400809Y-88941534D01*
X137611900Y-88941534D01*
X137618301Y-89001072D01*
X137618301Y-89001073D01*
X137668548Y-89135791D01*
X137754711Y-89250888D01*
X137869808Y-89337051D01*
X138004526Y-89387298D01*
X138064066Y-89393700D01*
X138561900Y-89393700D01*
X139061900Y-89393700D01*
X139559734Y-89393700D01*
X139619272Y-89387298D01*
X139619273Y-89387298D01*
X139753991Y-89337051D01*
X139869088Y-89250888D01*
X139955251Y-89135791D01*
X140005498Y-89001073D01*
X140005498Y-89001072D01*
X140011900Y-88941534D01*
X140011900Y-88543700D01*
X139061900Y-88543700D01*
X139061900Y-89393700D01*
X138561900Y-89393700D01*
X138561900Y-88543700D01*
X137611900Y-88543700D01*
X137611900Y-88941534D01*
X137400809Y-88941534D01*
X137406569Y-88932913D01*
X137412400Y-88903599D01*
X137412399Y-87797044D01*
X137426750Y-87762398D01*
X137528254Y-87660895D01*
X137562900Y-87646544D01*
X137597548Y-87660896D01*
X137611900Y-87695544D01*
X137611900Y-88043700D01*
X140011900Y-88043700D01*
X140011900Y-87645865D01*
X140005498Y-87586327D01*
X140005498Y-87586326D01*
X139955251Y-87451608D01*
X139869088Y-87336511D01*
X139753990Y-87250347D01*
X139753986Y-87250345D01*
X139644275Y-87209425D01*
X139616827Y-87183870D01*
X139612399Y-87163519D01*
X139612399Y-85983802D01*
X139606569Y-85954487D01*
X139606567Y-85954484D01*
X139606567Y-85954483D01*
X139584357Y-85921243D01*
X139582354Y-85919905D01*
X139922000Y-85919905D01*
X140068197Y-85877431D01*
X140207373Y-85795122D01*
X140207378Y-85795118D01*
X140321718Y-85680778D01*
X140321722Y-85680773D01*
X140404030Y-85541598D01*
X140449145Y-85386314D01*
X140449145Y-85386313D01*
X140450791Y-85365400D01*
X139922000Y-85365400D01*
X139922000Y-85919905D01*
X139582354Y-85919905D01*
X139551112Y-85899030D01*
X139521804Y-85893200D01*
X139521799Y-85893200D01*
X139471000Y-85893200D01*
X139436352Y-85878848D01*
X139422000Y-85844200D01*
X139422000Y-84640400D01*
X139270400Y-84640400D01*
X139235752Y-84626048D01*
X139221400Y-84591400D01*
X139221400Y-84262400D01*
X139721400Y-84262400D01*
X139873000Y-84262400D01*
X139907648Y-84276752D01*
X139922000Y-84311400D01*
X139922000Y-84865400D01*
X140450790Y-84865400D01*
X140450790Y-84865399D01*
X140449145Y-84844486D01*
X140404031Y-84689203D01*
X140375169Y-84640400D01*
X140235600Y-84640400D01*
X140200952Y-84626048D01*
X140186600Y-84591400D01*
X140186600Y-84067400D01*
X139721400Y-84067400D01*
X139721400Y-84262400D01*
X139221400Y-84262400D01*
X139221400Y-83616400D01*
X139235752Y-83581752D01*
X139270400Y-83567400D01*
X140637600Y-83567400D01*
X140672248Y-83581752D01*
X140686600Y-83616400D01*
X140686600Y-84596190D01*
X140707509Y-84594545D01*
X140710024Y-84593815D01*
X140747301Y-84597926D01*
X140770753Y-84627192D01*
X140772700Y-84640868D01*
X140772700Y-91338943D01*
X140758348Y-91373591D01*
X140132790Y-91999148D01*
X140098142Y-92013500D01*
X138662305Y-92013500D01*
X138662304Y-92013500D01*
X138662302Y-92013501D01*
X138632987Y-92019331D01*
X138632986Y-92019331D01*
X138632984Y-92019332D01*
X138632983Y-92019332D01*
X138599743Y-92041542D01*
X138577530Y-92074786D01*
X138577530Y-92074787D01*
X138571700Y-92104095D01*
X138571700Y-93823894D01*
X138571701Y-93823898D01*
X138577531Y-93853213D01*
X138577531Y-93853214D01*
X138577532Y-93853215D01*
X138577532Y-93853216D01*
X138599742Y-93886456D01*
X138599743Y-93886457D01*
X138632987Y-93908669D01*
X138662301Y-93914500D01*
X140382098Y-93914499D01*
X140411413Y-93908669D01*
X140444657Y-93886457D01*
X140466869Y-93853213D01*
X140472700Y-93823899D01*
X140472699Y-92388055D01*
X140487050Y-92353409D01*
X141089052Y-91751406D01*
X141123700Y-91737055D01*
X141158348Y-91751407D01*
X141172700Y-91786055D01*
X141172700Y-92374829D01*
X141178179Y-92388056D01*
X141210836Y-92466897D01*
X141210837Y-92466898D01*
X141213519Y-92470913D01*
X141212683Y-92471471D01*
X141225108Y-92501466D01*
X141219322Y-92524564D01*
X141179808Y-92598490D01*
X141179803Y-92598502D01*
X141125453Y-92777667D01*
X141125453Y-92777668D01*
X141107101Y-92963999D01*
X141107101Y-92964000D01*
X141125453Y-93150331D01*
X141125453Y-93150332D01*
X141179804Y-93329502D01*
X141268063Y-93494624D01*
X141268068Y-93494631D01*
X141330975Y-93571282D01*
X141386843Y-93639357D01*
X141469790Y-93707430D01*
X141531568Y-93758131D01*
X141531575Y-93758136D01*
X141696699Y-93846396D01*
X141875869Y-93900747D01*
X142062200Y-93919099D01*
X142248531Y-93900747D01*
X142427701Y-93846396D01*
X142592825Y-93758136D01*
X142737557Y-93639357D01*
X142856336Y-93494625D01*
X142944596Y-93329501D01*
X142998947Y-93150331D01*
X143017299Y-92964000D01*
X142998947Y-92777669D01*
X142944596Y-92598499D01*
X142856336Y-92433375D01*
X142856331Y-92433368D01*
X142765257Y-92322396D01*
X142737557Y-92288643D01*
X142669482Y-92232775D01*
X142592831Y-92169868D01*
X142592824Y-92169863D01*
X142427702Y-92081604D01*
X142248531Y-92027253D01*
X142062200Y-92008901D01*
X141875868Y-92027253D01*
X141875867Y-92027253D01*
X141771947Y-92058777D01*
X141736923Y-92069401D01*
X141699602Y-92065726D01*
X141675810Y-92036736D01*
X141673700Y-92022512D01*
X141673700Y-85039722D01*
X141688052Y-85005074D01*
X141722700Y-84990722D01*
X141747645Y-84997547D01*
X141763002Y-85006630D01*
X141763009Y-85006633D01*
X141918288Y-85051745D01*
X141918284Y-85051745D01*
X141939199Y-85053390D01*
X141939200Y-85053390D01*
X142439200Y-85053390D01*
X142460113Y-85051745D01*
X142615398Y-85006630D01*
X142754573Y-84924322D01*
X142754578Y-84924318D01*
X142868918Y-84809978D01*
X142868922Y-84809973D01*
X142951231Y-84670797D01*
X142993705Y-84524600D01*
X142439200Y-84524600D01*
X142439200Y-85053390D01*
X141939200Y-85053390D01*
X141939200Y-84073600D01*
X141953552Y-84038952D01*
X141988200Y-84024600D01*
X142993705Y-84024600D01*
X142993705Y-84024599D01*
X142951231Y-83878402D01*
X142868922Y-83739226D01*
X142868918Y-83739221D01*
X142754578Y-83624881D01*
X142754573Y-83624877D01*
X142619801Y-83545173D01*
X142597283Y-83515183D01*
X142596686Y-83493439D01*
X142599700Y-83478288D01*
X142599700Y-83150912D01*
X142598453Y-83144643D01*
X142585747Y-83080763D01*
X142580573Y-83073020D01*
X142555995Y-83036235D01*
X142532591Y-83001208D01*
X142453036Y-82948052D01*
X142382893Y-82934100D01*
X142382888Y-82934100D01*
X142183257Y-82934100D01*
X142148609Y-82919748D01*
X142088052Y-82859191D01*
X142073700Y-82824543D01*
X142073700Y-81603598D01*
X142088052Y-81568950D01*
X142122700Y-81554598D01*
X142157348Y-81568950D01*
X144142948Y-83554550D01*
X144157300Y-83589198D01*
X144157300Y-90977918D01*
X144157300Y-91057682D01*
X144187824Y-91131374D01*
X144187825Y-91131375D01*
X144187826Y-91131377D01*
X144585913Y-91529464D01*
X144600265Y-91564112D01*
X144585913Y-91598760D01*
X144555536Y-91612926D01*
X144366876Y-91629431D01*
X144366870Y-91629432D01*
X144138716Y-91690566D01*
X144138711Y-91690567D01*
X143924623Y-91790398D01*
X143924611Y-91790405D01*
X143731127Y-91925885D01*
X143731120Y-91925891D01*
X143564091Y-92092920D01*
X143564085Y-92092927D01*
X143428605Y-92286411D01*
X143428598Y-92286423D01*
X143328767Y-92500511D01*
X143328766Y-92500516D01*
X143271563Y-92713999D01*
X143271564Y-92714000D01*
X144169188Y-92714000D01*
X144136275Y-92771007D01*
X144102200Y-92898174D01*
X144102200Y-93029826D01*
X144136275Y-93156993D01*
X144169188Y-93214000D01*
X143271563Y-93214000D01*
X143328766Y-93427483D01*
X143328768Y-93427488D01*
X143428598Y-93641577D01*
X143428605Y-93641589D01*
X143564085Y-93835072D01*
X143564091Y-93835079D01*
X143731120Y-94002108D01*
X143731127Y-94002114D01*
X143924610Y-94137594D01*
X143924622Y-94137601D01*
X144138711Y-94237431D01*
X144138716Y-94237433D01*
X144352200Y-94294634D01*
X144352200Y-93397012D01*
X144409207Y-93429925D01*
X144536374Y-93464000D01*
X144668026Y-93464000D01*
X144795193Y-93429925D01*
X144852200Y-93397012D01*
X144852200Y-94294634D01*
X145065683Y-94237433D01*
X145065688Y-94237431D01*
X145279777Y-94137601D01*
X145279789Y-94137594D01*
X145473272Y-94002114D01*
X145473279Y-94002108D01*
X145640308Y-93835079D01*
X145640314Y-93835072D01*
X145775794Y-93641589D01*
X145775801Y-93641577D01*
X145875631Y-93427488D01*
X145875633Y-93427483D01*
X145936767Y-93199329D01*
X145936768Y-93199322D01*
X145953273Y-93010663D01*
X145970590Y-92977397D01*
X146006357Y-92966119D01*
X146036735Y-92980285D01*
X149033186Y-95976736D01*
X149047538Y-96011384D01*
X149041752Y-96034482D01*
X148977608Y-96154490D01*
X148977603Y-96154502D01*
X148923253Y-96333667D01*
X148923253Y-96333668D01*
X148904901Y-96519999D01*
X148904901Y-96520000D01*
X148923253Y-96706331D01*
X148923253Y-96706332D01*
X148977604Y-96885502D01*
X149065863Y-97050624D01*
X149065868Y-97050631D01*
X149128775Y-97127282D01*
X149184643Y-97195357D01*
X149267590Y-97263430D01*
X149329368Y-97314131D01*
X149329375Y-97314136D01*
X149494499Y-97402396D01*
X149673669Y-97456747D01*
X149860000Y-97475099D01*
X150046331Y-97456747D01*
X150225501Y-97402396D01*
X150390625Y-97314136D01*
X150535357Y-97195357D01*
X150654136Y-97050625D01*
X150742396Y-96885501D01*
X150796747Y-96706331D01*
X150815099Y-96520000D01*
X150796747Y-96333669D01*
X150742396Y-96154499D01*
X150654136Y-95989375D01*
X150654131Y-95989368D01*
X150603430Y-95927590D01*
X150535357Y-95844643D01*
X150467282Y-95788775D01*
X150390631Y-95725868D01*
X150390624Y-95725863D01*
X150225502Y-95637604D01*
X150046331Y-95583253D01*
X149860000Y-95564901D01*
X149673668Y-95583253D01*
X149673667Y-95583253D01*
X149494502Y-95637603D01*
X149494499Y-95637604D01*
X149494496Y-95637605D01*
X149494490Y-95637608D01*
X149374482Y-95701752D01*
X149337159Y-95705428D01*
X149316736Y-95693186D01*
X144572652Y-90949102D01*
X144558300Y-90914454D01*
X144558300Y-89080146D01*
X144572652Y-89045498D01*
X144607300Y-89031146D01*
X144641948Y-89045498D01*
X149033186Y-93436736D01*
X149047538Y-93471384D01*
X149041752Y-93494482D01*
X148977608Y-93614490D01*
X148977603Y-93614502D01*
X148923253Y-93793667D01*
X148923253Y-93793668D01*
X148904901Y-93979999D01*
X148904901Y-93980000D01*
X148923253Y-94166331D01*
X148923253Y-94166332D01*
X148977604Y-94345502D01*
X149065863Y-94510624D01*
X149065868Y-94510631D01*
X149128775Y-94587282D01*
X149184643Y-94655357D01*
X149267590Y-94723430D01*
X149329368Y-94774131D01*
X149329375Y-94774136D01*
X149494499Y-94862396D01*
X149673669Y-94916747D01*
X149860000Y-94935099D01*
X150046331Y-94916747D01*
X150225501Y-94862396D01*
X150390625Y-94774136D01*
X150535357Y-94655357D01*
X150654136Y-94510625D01*
X150742396Y-94345501D01*
X150796747Y-94166331D01*
X150815099Y-93980000D01*
X150796747Y-93793669D01*
X150742396Y-93614499D01*
X150654136Y-93449375D01*
X150654131Y-93449368D01*
X150555758Y-93329502D01*
X150535357Y-93304643D01*
X150424909Y-93214000D01*
X150390631Y-93185868D01*
X150390624Y-93185863D01*
X150225502Y-93097604D01*
X150046331Y-93043253D01*
X149860000Y-93024901D01*
X149673668Y-93043253D01*
X149673667Y-93043253D01*
X149494502Y-93097603D01*
X149494499Y-93097604D01*
X149494496Y-93097605D01*
X149494490Y-93097608D01*
X149374482Y-93161752D01*
X149337159Y-93165428D01*
X149316736Y-93153186D01*
X144872652Y-88709102D01*
X144858300Y-88674454D01*
X144858300Y-86840146D01*
X144872652Y-86805498D01*
X144907300Y-86791146D01*
X144941948Y-86805498D01*
X149033186Y-90896736D01*
X149047538Y-90931384D01*
X149041752Y-90954482D01*
X148977608Y-91074490D01*
X148977603Y-91074502D01*
X148923253Y-91253667D01*
X148923253Y-91253668D01*
X148904901Y-91439999D01*
X148904901Y-91440000D01*
X148923253Y-91626331D01*
X148923253Y-91626332D01*
X148977604Y-91805502D01*
X149065863Y-91970624D01*
X149065868Y-91970631D01*
X149120120Y-92036736D01*
X149184643Y-92115357D01*
X149251060Y-92169864D01*
X149329368Y-92234131D01*
X149329375Y-92234136D01*
X149494499Y-92322396D01*
X149673669Y-92376747D01*
X149860000Y-92395099D01*
X150046331Y-92376747D01*
X150225501Y-92322396D01*
X150390625Y-92234136D01*
X150535357Y-92115357D01*
X150654136Y-91970625D01*
X150742396Y-91805501D01*
X150796747Y-91626331D01*
X150815099Y-91440000D01*
X150796747Y-91253669D01*
X150742396Y-91074499D01*
X150654136Y-90909375D01*
X150654131Y-90909368D01*
X150603430Y-90847590D01*
X150535357Y-90764643D01*
X150467282Y-90708775D01*
X150390631Y-90645868D01*
X150390624Y-90645863D01*
X150225502Y-90557604D01*
X150046331Y-90503253D01*
X149860000Y-90484901D01*
X149673668Y-90503253D01*
X149673667Y-90503253D01*
X149494502Y-90557603D01*
X149494499Y-90557604D01*
X149494496Y-90557605D01*
X149494490Y-90557608D01*
X149374482Y-90621752D01*
X149337159Y-90625428D01*
X149316736Y-90613186D01*
X145172652Y-86469102D01*
X145158300Y-86434454D01*
X145158300Y-84600146D01*
X145172652Y-84565498D01*
X145207300Y-84551146D01*
X145241948Y-84565498D01*
X149033186Y-88356736D01*
X149047538Y-88391384D01*
X149041752Y-88414482D01*
X148977608Y-88534490D01*
X148977603Y-88534502D01*
X148923253Y-88713667D01*
X148923253Y-88713668D01*
X148904901Y-88899999D01*
X148904901Y-88900000D01*
X148923253Y-89086331D01*
X148923253Y-89086332D01*
X148977604Y-89265502D01*
X149065863Y-89430624D01*
X149065868Y-89430631D01*
X149128775Y-89507282D01*
X149184643Y-89575357D01*
X149267590Y-89643430D01*
X149329368Y-89694131D01*
X149329375Y-89694136D01*
X149494499Y-89782396D01*
X149673669Y-89836747D01*
X149860000Y-89855099D01*
X150046331Y-89836747D01*
X150225501Y-89782396D01*
X150390625Y-89694136D01*
X150535357Y-89575357D01*
X150654136Y-89430625D01*
X150742396Y-89265501D01*
X150796747Y-89086331D01*
X150815099Y-88900000D01*
X150796747Y-88713669D01*
X150742396Y-88534499D01*
X150654136Y-88369375D01*
X150654131Y-88369368D01*
X150603430Y-88307590D01*
X150535357Y-88224643D01*
X150467282Y-88168775D01*
X150390631Y-88105868D01*
X150390624Y-88105863D01*
X150225502Y-88017604D01*
X150046331Y-87963253D01*
X149860000Y-87944901D01*
X149673668Y-87963253D01*
X149673667Y-87963253D01*
X149494502Y-88017603D01*
X149494499Y-88017604D01*
X149494496Y-88017605D01*
X149494490Y-88017608D01*
X149374482Y-88081752D01*
X149337159Y-88085428D01*
X149316736Y-88073186D01*
X147353549Y-86109999D01*
X148529363Y-86109999D01*
X148529364Y-86110000D01*
X149426988Y-86110000D01*
X149394075Y-86167007D01*
X149360000Y-86294174D01*
X149360000Y-86425826D01*
X149394075Y-86552993D01*
X149426988Y-86610000D01*
X148529363Y-86610000D01*
X148586566Y-86823483D01*
X148586568Y-86823488D01*
X148686398Y-87037577D01*
X148686405Y-87037589D01*
X148821885Y-87231072D01*
X148821891Y-87231079D01*
X148988920Y-87398108D01*
X148988927Y-87398114D01*
X149182410Y-87533594D01*
X149182422Y-87533601D01*
X149396511Y-87633431D01*
X149396516Y-87633433D01*
X149610000Y-87690634D01*
X149610000Y-86793012D01*
X149667007Y-86825925D01*
X149794174Y-86860000D01*
X149925826Y-86860000D01*
X150052993Y-86825925D01*
X150110000Y-86793012D01*
X150110000Y-87690634D01*
X150323483Y-87633433D01*
X150323488Y-87633431D01*
X150537577Y-87533601D01*
X150537589Y-87533594D01*
X150731072Y-87398114D01*
X150731079Y-87398108D01*
X150898108Y-87231079D01*
X150898114Y-87231072D01*
X151033594Y-87037589D01*
X151033601Y-87037577D01*
X151133431Y-86823488D01*
X151133433Y-86823483D01*
X151190636Y-86610000D01*
X150293012Y-86610000D01*
X150325925Y-86552993D01*
X150360000Y-86425826D01*
X150360000Y-86294174D01*
X150325925Y-86167007D01*
X150293012Y-86110000D01*
X151190636Y-86110000D01*
X151190636Y-86109999D01*
X151133433Y-85896516D01*
X151133432Y-85896511D01*
X151033601Y-85682423D01*
X151033594Y-85682411D01*
X150898114Y-85488927D01*
X150898108Y-85488920D01*
X150731079Y-85321891D01*
X150731072Y-85321885D01*
X150537589Y-85186405D01*
X150537577Y-85186398D01*
X150323488Y-85086568D01*
X150323483Y-85086566D01*
X150110000Y-85029363D01*
X150110000Y-85926988D01*
X150052993Y-85894075D01*
X149925826Y-85860000D01*
X149794174Y-85860000D01*
X149667007Y-85894075D01*
X149610000Y-85926988D01*
X149610000Y-85029363D01*
X149609999Y-85029363D01*
X149396516Y-85086566D01*
X149396511Y-85086567D01*
X149182423Y-85186398D01*
X149182411Y-85186405D01*
X148988927Y-85321885D01*
X148988920Y-85321891D01*
X148821891Y-85488920D01*
X148821885Y-85488927D01*
X148686405Y-85682411D01*
X148686398Y-85682423D01*
X148586567Y-85896511D01*
X148586566Y-85896516D01*
X148529363Y-86109999D01*
X147353549Y-86109999D01*
X145472652Y-84229102D01*
X145458300Y-84194454D01*
X145458300Y-81293346D01*
X145472652Y-81258698D01*
X145507300Y-81244346D01*
X145541948Y-81258698D01*
X148216824Y-83933574D01*
X148273226Y-83989976D01*
X148346918Y-84020500D01*
X148891210Y-84020500D01*
X148925858Y-84034852D01*
X148938100Y-84055276D01*
X148977604Y-84185502D01*
X149065863Y-84350624D01*
X149065868Y-84350631D01*
X149128775Y-84427282D01*
X149184643Y-84495357D01*
X149220276Y-84524600D01*
X149329368Y-84614131D01*
X149329375Y-84614136D01*
X149494499Y-84702396D01*
X149673669Y-84756747D01*
X149860000Y-84775099D01*
X150046331Y-84756747D01*
X150225501Y-84702396D01*
X150390625Y-84614136D01*
X150535357Y-84495357D01*
X150654136Y-84350625D01*
X150742396Y-84185501D01*
X150796747Y-84006331D01*
X150815099Y-83820000D01*
X150796747Y-83633669D01*
X150742396Y-83454499D01*
X150654136Y-83289375D01*
X150654131Y-83289368D01*
X150562354Y-83177539D01*
X150535357Y-83144643D01*
X150448085Y-83073020D01*
X150390631Y-83025868D01*
X150390624Y-83025863D01*
X150225502Y-82937604D01*
X150046331Y-82883253D01*
X149860000Y-82864901D01*
X149673668Y-82883253D01*
X149673667Y-82883253D01*
X149494497Y-82937604D01*
X149329375Y-83025863D01*
X149329368Y-83025868D01*
X149184643Y-83144643D01*
X149065868Y-83289368D01*
X149065863Y-83289375D01*
X148977604Y-83454497D01*
X148938100Y-83584724D01*
X148914308Y-83613714D01*
X148891210Y-83619500D01*
X148490146Y-83619500D01*
X148455498Y-83605148D01*
X146414498Y-81564148D01*
X146400146Y-81529500D01*
X146414498Y-81494852D01*
X146449146Y-81480500D01*
X148891210Y-81480500D01*
X148925858Y-81494852D01*
X148938100Y-81515276D01*
X148977604Y-81645502D01*
X149065863Y-81810624D01*
X149065868Y-81810631D01*
X149123915Y-81881360D01*
X149184643Y-81955357D01*
X149255673Y-82013650D01*
X149329368Y-82074131D01*
X149329375Y-82074136D01*
X149494499Y-82162396D01*
X149673669Y-82216747D01*
X149860000Y-82235099D01*
X150046331Y-82216747D01*
X150225501Y-82162396D01*
X150390625Y-82074136D01*
X150535357Y-81955357D01*
X150654136Y-81810625D01*
X150742396Y-81645501D01*
X150796747Y-81466331D01*
X150815099Y-81280000D01*
X150796747Y-81093669D01*
X150742396Y-80914499D01*
X150654136Y-80749375D01*
X150654131Y-80749368D01*
X150603430Y-80687590D01*
X150535357Y-80604643D01*
X150467282Y-80548775D01*
X150390631Y-80485868D01*
X150390624Y-80485863D01*
X150225502Y-80397604D01*
X150046331Y-80343253D01*
X149860000Y-80324901D01*
X149673668Y-80343253D01*
X149673667Y-80343253D01*
X149494497Y-80397604D01*
X149329375Y-80485863D01*
X149329368Y-80485868D01*
X149184643Y-80604643D01*
X149065868Y-80749368D01*
X149065863Y-80749375D01*
X148977604Y-80914497D01*
X148938100Y-81044724D01*
X148914308Y-81073714D01*
X148891210Y-81079500D01*
X146374410Y-81079500D01*
X146339762Y-81065148D01*
X146051004Y-80776390D01*
X146040382Y-80760493D01*
X146027776Y-80730058D01*
X145971374Y-80673656D01*
X143805566Y-78507848D01*
X143791214Y-78473200D01*
X143805566Y-78438552D01*
X143840214Y-78424200D01*
X144835700Y-78424200D01*
X144870348Y-78438552D01*
X144884700Y-78473200D01*
X144884700Y-78527293D01*
X144898652Y-78597436D01*
X144951808Y-78676991D01*
X145004724Y-78712348D01*
X145031361Y-78730146D01*
X145031363Y-78730147D01*
X145101506Y-78744099D01*
X145101512Y-78744100D01*
X145428887Y-78744100D01*
X145428888Y-78744100D01*
X145444037Y-78741086D01*
X145480818Y-78748400D01*
X145495773Y-78764201D01*
X145575477Y-78898973D01*
X145575481Y-78898978D01*
X145689821Y-79013318D01*
X145689826Y-79013322D01*
X145829002Y-79095631D01*
X145975199Y-79138105D01*
X146475200Y-79138105D01*
X146621397Y-79095631D01*
X146760573Y-79013322D01*
X146760578Y-79013318D01*
X146874918Y-78898978D01*
X146874922Y-78898973D01*
X146957230Y-78759798D01*
X147002345Y-78604514D01*
X147002345Y-78604513D01*
X147003991Y-78583600D01*
X146475200Y-78583600D01*
X146475200Y-79138105D01*
X145975199Y-79138105D01*
X145975200Y-79138104D01*
X145975200Y-78132600D01*
X145989552Y-78097952D01*
X146024200Y-78083600D01*
X147003990Y-78083600D01*
X147003990Y-78083599D01*
X147002345Y-78062685D01*
X146965793Y-77936870D01*
X146969908Y-77899594D01*
X146999177Y-77876146D01*
X147012847Y-77874200D01*
X148690354Y-77874200D01*
X148725002Y-77888552D01*
X149033186Y-78196736D01*
X149047538Y-78231384D01*
X149041752Y-78254482D01*
X148977608Y-78374490D01*
X148977603Y-78374502D01*
X148923253Y-78553667D01*
X148923253Y-78553668D01*
X148904901Y-78739999D01*
X148904901Y-78740000D01*
X148923253Y-78926331D01*
X148923253Y-78926332D01*
X148977604Y-79105502D01*
X149065863Y-79270624D01*
X149065868Y-79270631D01*
X149114604Y-79330015D01*
X149184643Y-79415357D01*
X149248006Y-79467358D01*
X149329368Y-79534131D01*
X149329375Y-79534136D01*
X149418797Y-79581933D01*
X149494499Y-79622396D01*
X149673669Y-79676747D01*
X149860000Y-79695099D01*
X150046331Y-79676747D01*
X150225501Y-79622396D01*
X150390625Y-79534136D01*
X150535357Y-79415357D01*
X150654136Y-79270625D01*
X150742396Y-79105501D01*
X150796747Y-78926331D01*
X150815099Y-78740000D01*
X150814128Y-78730146D01*
X150803358Y-78620796D01*
X150796747Y-78553669D01*
X150742396Y-78374499D01*
X150654136Y-78209375D01*
X150654131Y-78209368D01*
X150562693Y-78097952D01*
X150535357Y-78064643D01*
X150445856Y-77991191D01*
X150390631Y-77945868D01*
X150390624Y-77945863D01*
X150225502Y-77857604D01*
X150046331Y-77803253D01*
X149860000Y-77784901D01*
X149673668Y-77803253D01*
X149673667Y-77803253D01*
X149494502Y-77857603D01*
X149494499Y-77857604D01*
X149494496Y-77857605D01*
X149494490Y-77857608D01*
X149374482Y-77921752D01*
X149337159Y-77925428D01*
X149316736Y-77913186D01*
X148907276Y-77503725D01*
X148833583Y-77473200D01*
X148833582Y-77473200D01*
X144032330Y-77473200D01*
X143997682Y-77458848D01*
X143983330Y-77424200D01*
X143997682Y-77389552D01*
X144972381Y-76414852D01*
X145007029Y-76400500D01*
X148891210Y-76400500D01*
X148925858Y-76414852D01*
X148938100Y-76435276D01*
X148977604Y-76565502D01*
X149065863Y-76730624D01*
X149065868Y-76730631D01*
X149123559Y-76800926D01*
X149184643Y-76875357D01*
X149225486Y-76908876D01*
X149329368Y-76994131D01*
X149329375Y-76994136D01*
X149494499Y-77082396D01*
X149673669Y-77136747D01*
X149860000Y-77155099D01*
X150046331Y-77136747D01*
X150225501Y-77082396D01*
X150390625Y-76994136D01*
X150535357Y-76875357D01*
X150654136Y-76730625D01*
X150742396Y-76565501D01*
X150796747Y-76386331D01*
X150815099Y-76200000D01*
X150796747Y-76013669D01*
X150742396Y-75834499D01*
X150654136Y-75669375D01*
X150654131Y-75669368D01*
X150575617Y-75573700D01*
X150535357Y-75524643D01*
X150430420Y-75438523D01*
X150390631Y-75405868D01*
X150390624Y-75405863D01*
X150225502Y-75317604D01*
X150046331Y-75263253D01*
X149860000Y-75244901D01*
X149673668Y-75263253D01*
X149673667Y-75263253D01*
X149494497Y-75317604D01*
X149329375Y-75405863D01*
X149329368Y-75405868D01*
X149184643Y-75524643D01*
X149065868Y-75669368D01*
X149065863Y-75669375D01*
X148977604Y-75834497D01*
X148938100Y-75964724D01*
X148914308Y-75993714D01*
X148891210Y-75999500D01*
X145081766Y-75999500D01*
X145047118Y-75985148D01*
X145032766Y-75950500D01*
X145047118Y-75915852D01*
X146054094Y-74908876D01*
X147552970Y-73409999D01*
X148529363Y-73409999D01*
X148529364Y-73410000D01*
X149426988Y-73410000D01*
X149394075Y-73467007D01*
X149360000Y-73594174D01*
X149360000Y-73725826D01*
X149394075Y-73852993D01*
X149426988Y-73910000D01*
X148529363Y-73910000D01*
X148586566Y-74123483D01*
X148586568Y-74123488D01*
X148686398Y-74337577D01*
X148686405Y-74337589D01*
X148821885Y-74531072D01*
X148821891Y-74531079D01*
X148988920Y-74698108D01*
X148988927Y-74698114D01*
X149182410Y-74833594D01*
X149182422Y-74833601D01*
X149396511Y-74933431D01*
X149396516Y-74933433D01*
X149610000Y-74990634D01*
X149610000Y-74093012D01*
X149667007Y-74125925D01*
X149794174Y-74160000D01*
X149925826Y-74160000D01*
X150052993Y-74125925D01*
X150110000Y-74093012D01*
X150110000Y-74990634D01*
X150323483Y-74933433D01*
X150323488Y-74933431D01*
X150537577Y-74833601D01*
X150537589Y-74833594D01*
X150731072Y-74698114D01*
X150731079Y-74698108D01*
X150898108Y-74531079D01*
X150898114Y-74531072D01*
X151033594Y-74337589D01*
X151033601Y-74337577D01*
X151133431Y-74123488D01*
X151133433Y-74123483D01*
X151190636Y-73910000D01*
X150293012Y-73910000D01*
X150325925Y-73852993D01*
X150360000Y-73725826D01*
X150360000Y-73594174D01*
X150325925Y-73467007D01*
X150293012Y-73410000D01*
X151190636Y-73410000D01*
X151190636Y-73409999D01*
X151133433Y-73196516D01*
X151133432Y-73196511D01*
X151033601Y-72982423D01*
X151033594Y-72982411D01*
X150898114Y-72788927D01*
X150898108Y-72788920D01*
X150731079Y-72621891D01*
X150731072Y-72621885D01*
X150537589Y-72486405D01*
X150537577Y-72486398D01*
X150323488Y-72386568D01*
X150323483Y-72386566D01*
X150110000Y-72329363D01*
X150110000Y-73226988D01*
X150052993Y-73194075D01*
X149925826Y-73160000D01*
X149794174Y-73160000D01*
X149667007Y-73194075D01*
X149610000Y-73226988D01*
X149610000Y-72329363D01*
X149609999Y-72329363D01*
X149396516Y-72386566D01*
X149396511Y-72386567D01*
X149182423Y-72486398D01*
X149182411Y-72486405D01*
X148988927Y-72621885D01*
X148988920Y-72621891D01*
X148821891Y-72788920D01*
X148821885Y-72788927D01*
X148686405Y-72982411D01*
X148686398Y-72982423D01*
X148586567Y-73196511D01*
X148586566Y-73196516D01*
X148529363Y-73409999D01*
X147552970Y-73409999D01*
X149143886Y-71819082D01*
X149178533Y-71804731D01*
X149209618Y-71815853D01*
X149222172Y-71826156D01*
X149329368Y-71914131D01*
X149329375Y-71914136D01*
X149494499Y-72002396D01*
X149673669Y-72056747D01*
X149860000Y-72075099D01*
X150046331Y-72056747D01*
X150225501Y-72002396D01*
X150390625Y-71914136D01*
X150535357Y-71795357D01*
X150654136Y-71650625D01*
X150742396Y-71485501D01*
X150796747Y-71306331D01*
X150815099Y-71120000D01*
X150796747Y-70933669D01*
X150742396Y-70754499D01*
X150654136Y-70589375D01*
X150654131Y-70589368D01*
X150572784Y-70490248D01*
X150535357Y-70444643D01*
X150440993Y-70367200D01*
X150390631Y-70325868D01*
X150390624Y-70325863D01*
X150225502Y-70237604D01*
X150046331Y-70183253D01*
X149860000Y-70164901D01*
X149673668Y-70183253D01*
X149673667Y-70183253D01*
X149494497Y-70237604D01*
X149329375Y-70325863D01*
X149329368Y-70325868D01*
X149184643Y-70444643D01*
X149065868Y-70589368D01*
X149065863Y-70589375D01*
X148977604Y-70754497D01*
X148923253Y-70933667D01*
X148923253Y-70933668D01*
X148904901Y-71119999D01*
X148904901Y-71120000D01*
X148923253Y-71306331D01*
X148923253Y-71306332D01*
X148953429Y-71405809D01*
X148949753Y-71443132D01*
X148941187Y-71454681D01*
X147102348Y-73293521D01*
X147067700Y-73307873D01*
X147033052Y-73293521D01*
X147018700Y-73258873D01*
X147018700Y-71725145D01*
X147033051Y-71690498D01*
X149316737Y-69406811D01*
X149351384Y-69392460D01*
X149374480Y-69398245D01*
X149494499Y-69462396D01*
X149673669Y-69516747D01*
X149860000Y-69535099D01*
X150046331Y-69516747D01*
X150225501Y-69462396D01*
X150390625Y-69374136D01*
X150535357Y-69255357D01*
X150654136Y-69110625D01*
X150742396Y-68945501D01*
X150796747Y-68766331D01*
X150815099Y-68580000D01*
X150814331Y-68572207D01*
X150808626Y-68514278D01*
X150796747Y-68393669D01*
X150742396Y-68214499D01*
X150654136Y-68049375D01*
X150654131Y-68049368D01*
X150598631Y-67981742D01*
X150535357Y-67904643D01*
X150462365Y-67844740D01*
X150390631Y-67785868D01*
X150390624Y-67785863D01*
X150225502Y-67697604D01*
X150046331Y-67643253D01*
X149860000Y-67624901D01*
X149673668Y-67643253D01*
X149673667Y-67643253D01*
X149494497Y-67697604D01*
X149329375Y-67785863D01*
X149329368Y-67785868D01*
X149184643Y-67904643D01*
X149065868Y-68049368D01*
X149065863Y-68049375D01*
X148977604Y-68214497D01*
X148923253Y-68393667D01*
X148923253Y-68393668D01*
X148904901Y-68579999D01*
X148904901Y-68580000D01*
X148923253Y-68766331D01*
X148923253Y-68766332D01*
X148937012Y-68811688D01*
X148977604Y-68945501D01*
X148977605Y-68945502D01*
X148977608Y-68945509D01*
X149041752Y-69065516D01*
X149045428Y-69102838D01*
X149033186Y-69123262D01*
X146802348Y-71354101D01*
X146767700Y-71368453D01*
X146733052Y-71354101D01*
X146718700Y-71319453D01*
X146718700Y-69485145D01*
X146733051Y-69450498D01*
X149316737Y-66866811D01*
X149351384Y-66852460D01*
X149374480Y-66858245D01*
X149494499Y-66922396D01*
X149673669Y-66976747D01*
X149860000Y-66995099D01*
X150046331Y-66976747D01*
X150225501Y-66922396D01*
X150390625Y-66834136D01*
X150535357Y-66715357D01*
X150654136Y-66570625D01*
X150742396Y-66405501D01*
X150796747Y-66226331D01*
X150815099Y-66040000D01*
X150796747Y-65853669D01*
X150742396Y-65674499D01*
X150654136Y-65509375D01*
X150654131Y-65509368D01*
X150603430Y-65447590D01*
X150535357Y-65364643D01*
X150467282Y-65308775D01*
X150390631Y-65245868D01*
X150390624Y-65245863D01*
X150225502Y-65157604D01*
X150046331Y-65103253D01*
X149860000Y-65084901D01*
X149673668Y-65103253D01*
X149673667Y-65103253D01*
X149494497Y-65157604D01*
X149329375Y-65245863D01*
X149329368Y-65245868D01*
X149184643Y-65364643D01*
X149065868Y-65509368D01*
X149065863Y-65509375D01*
X148977604Y-65674497D01*
X148923253Y-65853667D01*
X148923253Y-65853668D01*
X148904901Y-66039999D01*
X148904901Y-66040000D01*
X148923253Y-66226331D01*
X148923253Y-66226332D01*
X148955158Y-66331508D01*
X148977604Y-66405501D01*
X148977605Y-66405502D01*
X148977608Y-66405509D01*
X149041752Y-66525516D01*
X149045428Y-66562838D01*
X149033186Y-66583262D01*
X146502348Y-69114101D01*
X146467700Y-69128453D01*
X146433052Y-69114101D01*
X146418700Y-69079453D01*
X146418700Y-67245145D01*
X146433051Y-67210498D01*
X149316737Y-64326811D01*
X149351384Y-64312460D01*
X149374480Y-64318245D01*
X149494499Y-64382396D01*
X149673669Y-64436747D01*
X149860000Y-64455099D01*
X150046331Y-64436747D01*
X150225501Y-64382396D01*
X150390625Y-64294136D01*
X150535357Y-64175357D01*
X150654136Y-64030625D01*
X150742396Y-63865501D01*
X150796747Y-63686331D01*
X150815099Y-63500000D01*
X150796747Y-63313669D01*
X150742396Y-63134499D01*
X150654136Y-62969375D01*
X150654131Y-62969368D01*
X150603430Y-62907590D01*
X150535357Y-62824643D01*
X150467282Y-62768775D01*
X150390631Y-62705868D01*
X150390624Y-62705863D01*
X150225502Y-62617604D01*
X150046331Y-62563253D01*
X149860000Y-62544901D01*
X149673668Y-62563253D01*
X149673667Y-62563253D01*
X149494497Y-62617604D01*
X149329375Y-62705863D01*
X149329368Y-62705868D01*
X149184643Y-62824643D01*
X149065868Y-62969368D01*
X149065863Y-62969375D01*
X148977604Y-63134497D01*
X148923253Y-63313667D01*
X148923253Y-63313668D01*
X148923253Y-63313669D01*
X148904901Y-63500000D01*
X148923253Y-63686331D01*
X148977604Y-63865501D01*
X148977605Y-63865502D01*
X148977608Y-63865509D01*
X149041752Y-63985516D01*
X149045428Y-64022838D01*
X149033186Y-64043262D01*
X146202348Y-66874101D01*
X146167700Y-66888453D01*
X146133052Y-66874101D01*
X146118700Y-66839453D01*
X146118700Y-62465145D01*
X146133051Y-62430498D01*
X147853549Y-60709999D01*
X148529363Y-60709999D01*
X148529364Y-60710000D01*
X149426988Y-60710000D01*
X149394075Y-60767007D01*
X149360000Y-60894174D01*
X149360000Y-61025826D01*
X149394075Y-61152993D01*
X149426988Y-61210000D01*
X148529363Y-61210000D01*
X148586566Y-61423483D01*
X148586568Y-61423488D01*
X148686398Y-61637577D01*
X148686405Y-61637589D01*
X148821885Y-61831072D01*
X148821891Y-61831079D01*
X148988920Y-61998108D01*
X148988927Y-61998114D01*
X149182410Y-62133594D01*
X149182422Y-62133601D01*
X149396511Y-62233431D01*
X149396516Y-62233433D01*
X149610000Y-62290634D01*
X149610000Y-61393012D01*
X149667007Y-61425925D01*
X149794174Y-61460000D01*
X149925826Y-61460000D01*
X150052993Y-61425925D01*
X150110000Y-61393012D01*
X150110000Y-62290634D01*
X150323483Y-62233433D01*
X150323488Y-62233431D01*
X150537577Y-62133601D01*
X150537589Y-62133594D01*
X150731072Y-61998114D01*
X150731079Y-61998108D01*
X150898108Y-61831079D01*
X150898114Y-61831072D01*
X151033594Y-61637589D01*
X151033601Y-61637577D01*
X151133431Y-61423488D01*
X151133433Y-61423483D01*
X151190636Y-61210000D01*
X150293012Y-61210000D01*
X150325925Y-61152993D01*
X150360000Y-61025826D01*
X150360000Y-60894174D01*
X150325925Y-60767007D01*
X150293012Y-60710000D01*
X151190636Y-60710000D01*
X151190636Y-60709999D01*
X151133433Y-60496516D01*
X151133432Y-60496511D01*
X151033601Y-60282423D01*
X151033594Y-60282411D01*
X150898114Y-60088927D01*
X150898108Y-60088920D01*
X150731079Y-59921891D01*
X150731072Y-59921885D01*
X150537589Y-59786405D01*
X150537577Y-59786398D01*
X150323488Y-59686568D01*
X150323483Y-59686566D01*
X150110000Y-59629363D01*
X150110000Y-60526988D01*
X150052993Y-60494075D01*
X149925826Y-60460000D01*
X149794174Y-60460000D01*
X149667007Y-60494075D01*
X149610000Y-60526988D01*
X149610000Y-59629363D01*
X149609999Y-59629363D01*
X149396516Y-59686566D01*
X149396511Y-59686567D01*
X149182423Y-59786398D01*
X149182411Y-59786405D01*
X148988927Y-59921885D01*
X148988920Y-59921891D01*
X148821891Y-60088920D01*
X148821885Y-60088927D01*
X148686405Y-60282411D01*
X148686398Y-60282423D01*
X148586567Y-60496511D01*
X148586566Y-60496516D01*
X148529363Y-60709999D01*
X147853549Y-60709999D01*
X149316737Y-59246811D01*
X149351384Y-59232460D01*
X149374480Y-59238245D01*
X149494499Y-59302396D01*
X149673669Y-59356747D01*
X149860000Y-59375099D01*
X150046331Y-59356747D01*
X150225501Y-59302396D01*
X150390625Y-59214136D01*
X150535357Y-59095357D01*
X150654136Y-58950625D01*
X150742396Y-58785501D01*
X150796747Y-58606331D01*
X150815099Y-58420000D01*
X150796747Y-58233669D01*
X150742396Y-58054499D01*
X150654136Y-57889375D01*
X150654131Y-57889368D01*
X150594310Y-57816477D01*
X150535357Y-57744643D01*
X150436899Y-57663840D01*
X150390631Y-57625868D01*
X150390624Y-57625863D01*
X150225502Y-57537604D01*
X150046331Y-57483253D01*
X149860000Y-57464901D01*
X149673668Y-57483253D01*
X149673667Y-57483253D01*
X149494497Y-57537604D01*
X149329375Y-57625863D01*
X149329368Y-57625868D01*
X149184643Y-57744643D01*
X149065868Y-57889368D01*
X149065863Y-57889375D01*
X148977604Y-58054497D01*
X148923253Y-58233667D01*
X148923253Y-58233668D01*
X148916473Y-58302512D01*
X148904901Y-58420000D01*
X148923253Y-58606331D01*
X148977604Y-58785501D01*
X148977605Y-58785502D01*
X148977608Y-58785509D01*
X149041752Y-58905516D01*
X149045428Y-58942838D01*
X149033186Y-58963262D01*
X145902348Y-62094101D01*
X145867700Y-62108453D01*
X145833052Y-62094101D01*
X145818700Y-62059453D01*
X145818700Y-60225145D01*
X145833051Y-60190498D01*
X149316737Y-56706811D01*
X149351384Y-56692460D01*
X149374480Y-56698245D01*
X149494499Y-56762396D01*
X149673669Y-56816747D01*
X149860000Y-56835099D01*
X150046331Y-56816747D01*
X150225501Y-56762396D01*
X150390625Y-56674136D01*
X150535357Y-56555357D01*
X150654136Y-56410625D01*
X150742396Y-56245501D01*
X150796747Y-56066331D01*
X150815099Y-55880000D01*
X150796747Y-55693669D01*
X150742396Y-55514499D01*
X150654136Y-55349375D01*
X150654131Y-55349368D01*
X150603430Y-55287590D01*
X150535357Y-55204643D01*
X150467282Y-55148775D01*
X150390631Y-55085868D01*
X150390624Y-55085863D01*
X150225502Y-54997604D01*
X150046331Y-54943253D01*
X149860000Y-54924901D01*
X149673668Y-54943253D01*
X149673667Y-54943253D01*
X149494497Y-54997604D01*
X149329375Y-55085863D01*
X149329368Y-55085868D01*
X149184643Y-55204643D01*
X149065868Y-55349368D01*
X149065863Y-55349375D01*
X148977604Y-55514497D01*
X148923253Y-55693667D01*
X148923253Y-55693668D01*
X148923253Y-55693669D01*
X148904901Y-55880000D01*
X148923253Y-56066331D01*
X148977604Y-56245501D01*
X148977605Y-56245502D01*
X148977608Y-56245509D01*
X149041752Y-56365516D01*
X149045428Y-56402838D01*
X149033186Y-56423262D01*
X146375950Y-59080500D01*
X145504626Y-59951824D01*
X145476425Y-59980025D01*
X145448224Y-60008225D01*
X145417700Y-60081916D01*
X145417700Y-69849898D01*
X145403348Y-69884546D01*
X145368700Y-69898898D01*
X145355030Y-69896952D01*
X145228716Y-69860255D01*
X145228713Y-69860254D01*
X145207800Y-69858608D01*
X145207800Y-70838400D01*
X145193448Y-70873048D01*
X145158800Y-70887400D01*
X144145296Y-70887400D01*
X144110648Y-70873048D01*
X144104800Y-70867200D01*
X143855000Y-70867200D01*
X143849152Y-70873048D01*
X143814504Y-70887400D01*
X142189496Y-70887400D01*
X142154848Y-70873048D01*
X142149000Y-70867200D01*
X141861200Y-70867200D01*
X141826552Y-70852848D01*
X141812200Y-70818200D01*
X141812200Y-70367200D01*
X142312200Y-70367200D01*
X142752000Y-70367200D01*
X142752000Y-69858609D01*
X142751999Y-69858608D01*
X143252000Y-69858608D01*
X143252000Y-70367200D01*
X143717200Y-70367200D01*
X144217200Y-70367200D01*
X144707800Y-70367200D01*
X144707800Y-69858609D01*
X144707799Y-69858608D01*
X144686886Y-69860254D01*
X144686885Y-69860254D01*
X144531602Y-69905368D01*
X144504518Y-69921385D01*
X144467389Y-69926668D01*
X144454634Y-69921384D01*
X144393395Y-69885168D01*
X144393397Y-69885168D01*
X144238113Y-69840054D01*
X144217200Y-69838408D01*
X144217200Y-70367200D01*
X143717200Y-70367200D01*
X143717200Y-69838409D01*
X143717199Y-69838408D01*
X143696286Y-69840054D01*
X143696285Y-69840054D01*
X143541004Y-69885168D01*
X143492463Y-69913874D01*
X143455334Y-69919157D01*
X143442579Y-69913874D01*
X143428195Y-69905368D01*
X143272913Y-69860254D01*
X143252000Y-69858608D01*
X142751999Y-69858608D01*
X142731086Y-69860254D01*
X142731085Y-69860254D01*
X142575803Y-69905368D01*
X142574118Y-69906365D01*
X142573197Y-69906495D01*
X142572973Y-69906593D01*
X142572946Y-69906531D01*
X142536988Y-69911647D01*
X142524235Y-69906363D01*
X142488398Y-69885169D01*
X142333113Y-69840054D01*
X142312200Y-69838408D01*
X142312200Y-70367200D01*
X141812200Y-70367200D01*
X141812200Y-69838409D01*
X141812199Y-69838408D01*
X141791286Y-69840054D01*
X141791285Y-69840054D01*
X141636006Y-69885167D01*
X141554418Y-69933418D01*
X141517289Y-69938701D01*
X141488733Y-69918464D01*
X141482886Y-69909714D01*
X141448739Y-69858609D01*
X141443152Y-69850247D01*
X141403395Y-69823682D01*
X141376831Y-69805933D01*
X141318348Y-69794300D01*
X141318345Y-69794300D01*
X141171945Y-69794300D01*
X141137297Y-69779948D01*
X140738465Y-69381116D01*
X140331826Y-68974476D01*
X140168852Y-68811502D01*
X140154500Y-68776854D01*
X140154500Y-68617191D01*
X140154507Y-68617114D01*
X140154506Y-68612090D01*
X140154507Y-68612089D01*
X140154502Y-68581750D01*
X140168848Y-68547100D01*
X140203494Y-68532742D01*
X140233882Y-68532742D01*
X140382960Y-68532742D01*
X140382990Y-68532744D01*
X140387946Y-68532743D01*
X140387949Y-68532745D01*
X140427829Y-68532742D01*
X140427832Y-68532742D01*
X140472560Y-68532742D01*
X140472835Y-68532714D01*
X140485816Y-68532714D01*
X140485817Y-68532714D01*
X140597837Y-68502695D01*
X140698273Y-68444710D01*
X140780282Y-68362709D01*
X140838277Y-68262280D01*
X140868308Y-68150263D01*
X140868309Y-68137854D01*
X140868317Y-68137793D01*
X140868317Y-68092207D01*
X140868324Y-68052395D01*
X140868323Y-68052393D01*
X140868324Y-68047642D01*
X140868317Y-68047560D01*
X140868317Y-67927716D01*
X140868265Y-67927197D01*
X140868268Y-67914286D01*
X140838268Y-67802255D01*
X140838267Y-67802251D01*
X140780290Y-67701799D01*
X140780289Y-67701798D01*
X140780288Y-67701796D01*
X140698293Y-67619781D01*
X140698289Y-67619778D01*
X140698288Y-67619777D01*
X140597850Y-67561775D01*
X140597848Y-67561774D01*
X140597846Y-67561773D01*
X140485822Y-67531745D01*
X140471657Y-67531744D01*
X140471629Y-67531742D01*
X140467699Y-67531742D01*
X140427832Y-67531742D01*
X140427822Y-67531741D01*
X140387949Y-67531739D01*
X140387948Y-67531739D01*
X140382990Y-67531739D01*
X140382960Y-67531742D01*
X140203500Y-67531742D01*
X140168852Y-67517390D01*
X140154500Y-67482742D01*
X140154500Y-53151568D01*
X140426801Y-53151568D01*
X140433209Y-53222106D01*
X140433210Y-53222111D01*
X140483781Y-53384398D01*
X140571724Y-53529873D01*
X140691926Y-53650075D01*
X140837401Y-53738018D01*
X140999688Y-53788589D01*
X140999694Y-53788590D01*
X141070230Y-53794999D01*
X141151799Y-53794999D01*
X141651800Y-53794999D01*
X141733369Y-53794999D01*
X141803906Y-53788590D01*
X141803911Y-53788589D01*
X141966198Y-53738018D01*
X142111673Y-53650075D01*
X142231875Y-53529873D01*
X142319818Y-53384398D01*
X142370389Y-53222111D01*
X142370390Y-53222105D01*
X142376800Y-53151570D01*
X142376800Y-53145000D01*
X141651800Y-53145000D01*
X141651800Y-53794999D01*
X141151799Y-53794999D01*
X141151800Y-53794998D01*
X141151800Y-53145000D01*
X140426801Y-53145000D01*
X140426801Y-53151568D01*
X140154500Y-53151568D01*
X140154500Y-52638429D01*
X140426800Y-52638429D01*
X140426800Y-52645000D01*
X141151800Y-52645000D01*
X141651800Y-52645000D01*
X142376799Y-52645000D01*
X142376799Y-52638431D01*
X142370390Y-52567893D01*
X142370389Y-52567888D01*
X142319818Y-52405601D01*
X142231875Y-52260126D01*
X142111673Y-52139924D01*
X141966198Y-52051981D01*
X141803911Y-52001410D01*
X141803905Y-52001409D01*
X141733370Y-51995000D01*
X141651800Y-51995000D01*
X141651800Y-52645000D01*
X141151800Y-52645000D01*
X141151800Y-51995000D01*
X141070231Y-51995000D01*
X140999693Y-52001409D01*
X140999688Y-52001410D01*
X140837401Y-52051981D01*
X140691926Y-52139924D01*
X140571724Y-52260126D01*
X140483781Y-52405601D01*
X140433210Y-52567888D01*
X140433209Y-52567894D01*
X140426800Y-52638429D01*
X140154500Y-52638429D01*
X140154500Y-50693900D01*
X140168852Y-50659252D01*
X140203500Y-50644900D01*
X140247880Y-50644900D01*
X140247882Y-50644900D01*
X140321574Y-50614376D01*
X140321576Y-50614374D01*
X140321577Y-50614374D01*
X140615852Y-50320099D01*
X140650500Y-50305747D01*
X140685148Y-50320099D01*
X140699500Y-50354747D01*
X140699500Y-50843029D01*
X140737636Y-50935097D01*
X140811948Y-51009408D01*
X140826300Y-51044055D01*
X140826300Y-51489858D01*
X140826301Y-51489868D01*
X140829215Y-51514992D01*
X140874594Y-51617766D01*
X140954033Y-51697205D01*
X141056806Y-51742584D01*
X141056809Y-51742585D01*
X141081935Y-51745500D01*
X141721664Y-51745499D01*
X141746791Y-51742585D01*
X141849565Y-51697206D01*
X141929006Y-51617765D01*
X141974385Y-51514991D01*
X141977300Y-51489865D01*
X141977299Y-51000136D01*
X141974385Y-50975009D01*
X141929006Y-50872235D01*
X141929005Y-50872234D01*
X141929005Y-50872233D01*
X141849566Y-50792794D01*
X141849567Y-50792794D01*
X141746793Y-50747415D01*
X141721665Y-50744500D01*
X141275857Y-50744500D01*
X141241209Y-50730148D01*
X141214852Y-50703791D01*
X141200500Y-50669143D01*
X141200500Y-50207383D01*
X141214852Y-50172735D01*
X141249500Y-50158383D01*
X141259061Y-50159325D01*
X141260785Y-50159668D01*
X141260787Y-50159669D01*
X141290101Y-50165500D01*
X141577500Y-50165499D01*
X141612148Y-50179851D01*
X141626500Y-50214499D01*
X141626500Y-50258307D01*
X141627359Y-50271737D01*
X141627360Y-50271750D01*
X141628788Y-50282864D01*
X141628791Y-50282887D01*
X141631358Y-50296109D01*
X141631359Y-50296112D01*
X141633407Y-50303953D01*
X141633408Y-50303954D01*
X141633410Y-50303960D01*
X141643468Y-50328900D01*
X141654350Y-50348303D01*
X141670384Y-50369887D01*
X141676023Y-50375741D01*
X141683255Y-50382348D01*
X141685971Y-50384829D01*
X141694710Y-50391843D01*
X141694713Y-50391845D01*
X141705737Y-50399590D01*
X143069266Y-51232858D01*
X143493293Y-51491986D01*
X143498716Y-51495084D01*
X143500991Y-51496296D01*
X143503283Y-51497517D01*
X143508869Y-51500285D01*
X143512471Y-51501939D01*
X143524084Y-51506462D01*
X143533956Y-51509649D01*
X143545986Y-51512763D01*
X143547474Y-51513056D01*
X143547515Y-51513064D01*
X143547525Y-51513066D01*
X143549896Y-51513532D01*
X143549900Y-51513532D01*
X143549912Y-51513535D01*
X143556043Y-51514554D01*
X143561178Y-51515252D01*
X143567352Y-51515907D01*
X149416236Y-51962696D01*
X149449690Y-51979645D01*
X149461361Y-52015286D01*
X149444412Y-52048741D01*
X149425186Y-52058884D01*
X149396514Y-52066566D01*
X149396511Y-52066567D01*
X149182423Y-52166398D01*
X149182411Y-52166405D01*
X148988927Y-52301885D01*
X148988920Y-52301891D01*
X148821891Y-52468920D01*
X148821885Y-52468927D01*
X148686405Y-52662411D01*
X148686398Y-52662423D01*
X148586567Y-52876511D01*
X148586566Y-52876516D01*
X148529363Y-53089999D01*
X148529364Y-53090000D01*
X149426988Y-53090000D01*
X149394075Y-53147007D01*
X149360000Y-53274174D01*
X149360000Y-53405826D01*
X149394075Y-53532993D01*
X149426988Y-53590000D01*
X148529363Y-53590000D01*
X148586566Y-53803483D01*
X148586568Y-53803488D01*
X148686398Y-54017577D01*
X148686405Y-54017589D01*
X148821885Y-54211072D01*
X148821891Y-54211079D01*
X148988920Y-54378108D01*
X148988927Y-54378114D01*
X149182410Y-54513594D01*
X149182422Y-54513601D01*
X149396511Y-54613431D01*
X149396516Y-54613433D01*
X149610000Y-54670634D01*
X149610000Y-53773012D01*
X149667007Y-53805925D01*
X149794174Y-53840000D01*
X149925826Y-53840000D01*
X150052993Y-53805925D01*
X150110000Y-53773012D01*
X150110000Y-54670634D01*
X150323483Y-54613433D01*
X150323488Y-54613431D01*
X150537577Y-54513601D01*
X150537589Y-54513594D01*
X150731072Y-54378114D01*
X150731079Y-54378108D01*
X150898108Y-54211079D01*
X150898114Y-54211072D01*
X151033594Y-54017589D01*
X151033601Y-54017577D01*
X151133431Y-53803488D01*
X151133433Y-53803483D01*
X151190636Y-53590000D01*
X150293012Y-53590000D01*
X150325925Y-53532993D01*
X150360000Y-53405826D01*
X150360000Y-53274174D01*
X150325925Y-53147007D01*
X150293012Y-53090000D01*
X151190636Y-53090000D01*
X151190636Y-53089999D01*
X151133433Y-52876516D01*
X151133432Y-52876511D01*
X151033601Y-52662423D01*
X151033594Y-52662411D01*
X150898114Y-52468927D01*
X150898108Y-52468920D01*
X150731079Y-52301891D01*
X150731072Y-52301885D01*
X150537589Y-52166405D01*
X150537581Y-52166401D01*
X150478818Y-52138999D01*
X150453482Y-52111349D01*
X150455118Y-52073881D01*
X150482768Y-52048545D01*
X150503254Y-52045732D01*
X150597774Y-52052953D01*
X150604448Y-52053250D01*
X150610026Y-52053322D01*
X150616764Y-52053194D01*
X150618763Y-52053092D01*
X150618762Y-52053091D01*
X150619018Y-52053078D01*
X150620982Y-52052979D01*
X150620988Y-52052978D01*
X150621728Y-52052941D01*
X150621750Y-52052939D01*
X150636539Y-52052185D01*
X150644512Y-52049738D01*
X150644493Y-52049645D01*
X150645248Y-52049484D01*
X150645255Y-52049483D01*
X150658267Y-52046281D01*
X150662323Y-52045005D01*
X150668644Y-52042794D01*
X150673858Y-52040782D01*
X150680039Y-52038168D01*
X150680044Y-52038166D01*
X150729682Y-52015286D01*
X150823040Y-51972255D01*
X150831562Y-51967847D01*
X150838481Y-51963859D01*
X150846549Y-51958707D01*
X150851440Y-51955262D01*
X150866036Y-51942854D01*
X150877176Y-51931487D01*
X150889291Y-51916639D01*
X150891171Y-51913850D01*
X150892619Y-51911706D01*
X150892637Y-51911678D01*
X150897623Y-51903510D01*
X150897627Y-51903503D01*
X150901473Y-51896506D01*
X150905702Y-51887907D01*
X150969101Y-51742725D01*
X150971122Y-51737758D01*
X150972700Y-51733577D01*
X150974464Y-51728519D01*
X150975509Y-51725258D01*
X150978258Y-51714892D01*
X150980107Y-51706149D01*
X150981790Y-51695552D01*
X150982155Y-51692143D01*
X150982591Y-51686796D01*
X150982840Y-51682339D01*
X150983003Y-51676998D01*
X150987561Y-50792794D01*
X151004522Y-47502476D01*
X151004522Y-47502349D01*
X151004523Y-47502097D01*
X151005440Y-47324078D01*
X151005438Y-47322736D01*
X151005438Y-47322661D01*
X151005431Y-47321718D01*
X151005429Y-47321624D01*
X151005429Y-47321547D01*
X151005406Y-47320005D01*
X151005385Y-47319059D01*
X151005283Y-47316195D01*
X151005164Y-47313786D01*
X151004979Y-47310873D01*
X151004908Y-47309953D01*
X151004781Y-47308448D01*
X151004671Y-47307247D01*
X151004536Y-47305872D01*
X150985131Y-47120736D01*
X150982350Y-47105337D01*
X150979092Y-47092730D01*
X150974060Y-47077902D01*
X150972409Y-47074013D01*
X150970461Y-47069423D01*
X150970459Y-47069420D01*
X150970458Y-47069417D01*
X150958218Y-47049452D01*
X150954137Y-47042796D01*
X150945856Y-47032936D01*
X150937575Y-47023074D01*
X150924921Y-47011890D01*
X150914185Y-47002401D01*
X150914180Y-47002398D01*
X150906456Y-46997389D01*
X150906443Y-46997381D01*
X150892735Y-46989874D01*
X150892714Y-46989863D01*
X150880860Y-46984473D01*
X150866187Y-46979075D01*
X150866178Y-46979072D01*
X150735345Y-46941691D01*
X150731876Y-46940764D01*
X150728898Y-46940024D01*
X150725270Y-46939190D01*
X150722967Y-46938703D01*
X150717592Y-46937759D01*
X150715759Y-46937437D01*
X150713910Y-46937178D01*
X150709691Y-46936587D01*
X150702426Y-46935826D01*
X150702105Y-46935803D01*
X150700039Y-46935660D01*
X150700006Y-46935658D01*
X150700002Y-46935658D01*
X150696399Y-46935469D01*
X150693330Y-46935363D01*
X150692276Y-46935345D01*
X150689662Y-46935300D01*
X148649955Y-46935300D01*
X148646051Y-46935372D01*
X148646039Y-46935372D01*
X148646008Y-46935373D01*
X148642798Y-46935492D01*
X148638831Y-46935714D01*
X148638808Y-46935715D01*
X148638803Y-46935716D01*
X148636281Y-46935905D01*
X148636274Y-46935905D01*
X148636271Y-46935906D01*
X148628483Y-46936782D01*
X148621983Y-46937759D01*
X148614275Y-46939213D01*
X148611784Y-46939780D01*
X148607980Y-46940721D01*
X148604769Y-46941579D01*
X148601023Y-46942657D01*
X148292706Y-47037523D01*
X148287182Y-47039392D01*
X148282636Y-47041071D01*
X148277171Y-47043264D01*
X148273705Y-47044769D01*
X148263236Y-47050024D01*
X148254776Y-47054877D01*
X148254763Y-47054885D01*
X148244952Y-47061263D01*
X148244945Y-47061269D01*
X148241899Y-47063498D01*
X148237279Y-47067082D01*
X148233516Y-47070174D01*
X148229091Y-47074020D01*
X148042748Y-47245245D01*
X147982331Y-47300760D01*
X147974636Y-47308609D01*
X147974609Y-47308638D01*
X147968581Y-47315466D01*
X147968545Y-47315509D01*
X147961727Y-47324097D01*
X147961702Y-47324129D01*
X147957764Y-47329661D01*
X147957761Y-47329666D01*
X147946950Y-47348796D01*
X147946949Y-47348798D01*
X147939674Y-47365537D01*
X147939671Y-47365544D01*
X147933057Y-47386517D01*
X147933056Y-47386521D01*
X147932111Y-47391158D01*
X147932093Y-47391243D01*
X147932085Y-47391279D01*
X147932086Y-47391280D01*
X147931689Y-47393229D01*
X147931688Y-47393237D01*
X147930067Y-47404060D01*
X147930067Y-47404066D01*
X147930065Y-47404082D01*
X147929181Y-47413207D01*
X147928768Y-47422511D01*
X147928692Y-47424212D01*
X147933244Y-48006824D01*
X147937212Y-48514824D01*
X147937743Y-48582842D01*
X147923662Y-48617602D01*
X147915548Y-48624244D01*
X146709418Y-49412409D01*
X146705558Y-49414687D01*
X145259837Y-50180797D01*
X145236893Y-50186500D01*
X144761010Y-50186500D01*
X144726362Y-50172148D01*
X144712010Y-50137500D01*
X144726362Y-50102852D01*
X144796752Y-50032461D01*
X144796753Y-50032460D01*
X144906190Y-49868674D01*
X144981570Y-49686690D01*
X144981570Y-49686689D01*
X145020000Y-49493487D01*
X145020000Y-49095000D01*
X144320000Y-49095000D01*
X144320000Y-48595000D01*
X145020000Y-48595000D01*
X145020000Y-48196512D01*
X144981570Y-48003310D01*
X144981570Y-48003309D01*
X144906190Y-47821325D01*
X144796753Y-47657539D01*
X144657460Y-47518246D01*
X144493674Y-47408809D01*
X144311691Y-47333429D01*
X144311682Y-47333426D01*
X144270000Y-47325135D01*
X144270000Y-48128011D01*
X144260060Y-48110795D01*
X144204205Y-48054940D01*
X144135796Y-48015444D01*
X144059496Y-47995000D01*
X143980504Y-47995000D01*
X143904204Y-48015444D01*
X143835795Y-48054940D01*
X143779940Y-48110795D01*
X143770000Y-48128011D01*
X143770000Y-47325135D01*
X143769999Y-47325135D01*
X143728317Y-47333426D01*
X143728308Y-47333429D01*
X143546325Y-47408809D01*
X143382539Y-47518246D01*
X143243246Y-47657539D01*
X143133809Y-47821325D01*
X143093451Y-47918757D01*
X143066932Y-47945275D01*
X143029429Y-47945275D01*
X143013533Y-47934653D01*
X142943365Y-47864485D01*
X142812137Y-47788719D01*
X142812133Y-47788718D01*
X142665769Y-47749500D01*
X142665766Y-47749500D01*
X142514234Y-47749500D01*
X142514231Y-47749500D01*
X142367866Y-47788718D01*
X142367862Y-47788719D01*
X142236635Y-47864484D01*
X142225832Y-47875287D01*
X142191182Y-47889636D01*
X142157505Y-47875684D01*
X142157308Y-47875900D01*
X142156714Y-47875356D01*
X142156535Y-47875282D01*
X142155890Y-47874600D01*
X142155539Y-47874280D01*
X142155537Y-47874277D01*
X142041459Y-47788719D01*
X141557465Y-47425724D01*
X141550471Y-47420905D01*
X141544508Y-47417142D01*
X141539966Y-47414525D01*
X141537151Y-47412903D01*
X141532431Y-47410430D01*
X141529528Y-47409195D01*
X141516848Y-47403800D01*
X141516829Y-47403793D01*
X141510144Y-47401565D01*
X141503457Y-47399336D01*
X141486990Y-47395284D01*
X141486984Y-47395283D01*
X141486980Y-47395282D01*
X141481738Y-47394432D01*
X141481739Y-47394432D01*
X141481726Y-47394430D01*
X141473308Y-47393409D01*
X141473300Y-47393408D01*
X141473289Y-47393407D01*
X141466258Y-47392840D01*
X141457797Y-47392500D01*
X141457785Y-47392500D01*
X137693047Y-47392500D01*
X137693025Y-47392500D01*
X137682736Y-47393005D01*
X137674135Y-47393851D01*
X137663888Y-47395369D01*
X137657595Y-47396620D01*
X137657589Y-47396622D01*
X137637792Y-47402627D01*
X137621933Y-47409194D01*
X137603700Y-47418937D01*
X137603698Y-47418939D01*
X137598351Y-47422511D01*
X137590035Y-47428678D01*
X137589997Y-47428708D01*
X137583372Y-47434145D01*
X137575697Y-47441101D01*
X137188954Y-47827843D01*
X137187430Y-47829702D01*
X137186477Y-47828920D01*
X137158457Y-47847627D01*
X137124418Y-47841999D01*
X137032137Y-47788719D01*
X137032133Y-47788718D01*
X136885769Y-47749500D01*
X136885766Y-47749500D01*
X136734234Y-47749500D01*
X136734231Y-47749500D01*
X136587866Y-47788718D01*
X136587862Y-47788719D01*
X136456634Y-47864485D01*
X136386465Y-47934654D01*
X136351817Y-47949006D01*
X136317169Y-47934654D01*
X136306547Y-47918757D01*
X136266190Y-47821325D01*
X136156753Y-47657539D01*
X136017460Y-47518246D01*
X135853674Y-47408809D01*
X135671691Y-47333429D01*
X135671682Y-47333426D01*
X135630000Y-47325135D01*
X135630000Y-48128011D01*
X135620060Y-48110795D01*
X135564205Y-48054940D01*
X135495796Y-48015444D01*
X135419496Y-47995000D01*
X135340504Y-47995000D01*
X135264204Y-48015444D01*
X135195795Y-48054940D01*
X135139940Y-48110795D01*
X135130000Y-48128011D01*
X135130000Y-47325135D01*
X135129999Y-47325135D01*
X135088317Y-47333426D01*
X135088308Y-47333429D01*
X134906325Y-47408809D01*
X134742539Y-47518246D01*
X134603246Y-47657539D01*
X134493809Y-47821325D01*
X134418429Y-48003309D01*
X134418429Y-48003310D01*
X134380000Y-48196512D01*
X134380000Y-48595000D01*
X135080000Y-48595000D01*
X135080000Y-49095000D01*
X134380000Y-49095000D01*
X134380000Y-49493487D01*
X134418429Y-49686689D01*
X134418429Y-49686690D01*
X134493809Y-49868674D01*
X134603246Y-50032460D01*
X134742539Y-50171753D01*
X134906325Y-50281190D01*
X135088310Y-50356570D01*
X135130000Y-50364862D01*
X135130000Y-49561988D01*
X135139940Y-49579205D01*
X135195795Y-49635060D01*
X135264204Y-49674556D01*
X135340504Y-49695000D01*
X135419496Y-49695000D01*
X135495796Y-49674556D01*
X135564205Y-49635060D01*
X135620060Y-49579205D01*
X135630000Y-49561988D01*
X135630000Y-50389000D01*
X135615648Y-50423648D01*
X135581000Y-50438000D01*
X135486729Y-50438000D01*
X135477800Y-50440782D01*
X135332326Y-50528724D01*
X135212124Y-50648926D01*
X135124181Y-50794401D01*
X135073610Y-50956688D01*
X135073609Y-50956694D01*
X135067200Y-51027229D01*
X135067200Y-51108800D01*
X136168200Y-51108800D01*
X136202848Y-51123152D01*
X136217200Y-51157800D01*
X136217200Y-52039899D01*
X136216684Y-52046994D01*
X136159763Y-52435949D01*
X136140545Y-52468154D01*
X136113277Y-52477813D01*
X135059901Y-52520807D01*
X135024697Y-52507880D01*
X135012633Y-52490600D01*
X134993176Y-52443626D01*
X134936774Y-52387224D01*
X134936772Y-52387223D01*
X134933981Y-52384431D01*
X134933977Y-52384428D01*
X134239918Y-51690368D01*
X135067201Y-51690368D01*
X135073609Y-51760906D01*
X135073610Y-51760911D01*
X135124181Y-51923198D01*
X135212124Y-52068673D01*
X135332326Y-52188875D01*
X135477801Y-52276818D01*
X135640088Y-52327389D01*
X135640093Y-52327390D01*
X135710619Y-52333799D01*
X135717200Y-52333798D01*
X135717200Y-51608800D01*
X135067201Y-51608800D01*
X135067201Y-51690368D01*
X134239918Y-51690368D01*
X133690252Y-51140702D01*
X133675900Y-51106054D01*
X133675900Y-50959655D01*
X133675900Y-50959652D01*
X133664267Y-50901169D01*
X133619952Y-50834848D01*
X133612909Y-50830142D01*
X133592074Y-50798961D01*
X133599389Y-50762178D01*
X133612908Y-50748658D01*
X133619952Y-50743952D01*
X133664267Y-50677631D01*
X133675900Y-50619148D01*
X133675900Y-50319652D01*
X133664267Y-50261169D01*
X133629330Y-50208883D01*
X133619952Y-50194847D01*
X133576027Y-50165498D01*
X133553631Y-50150533D01*
X133495148Y-50138900D01*
X133495145Y-50138900D01*
X133419457Y-50138900D01*
X133384809Y-50124548D01*
X132464298Y-49204037D01*
X132449946Y-49169389D01*
X132464298Y-49134741D01*
X132475846Y-49126176D01*
X132610625Y-49054136D01*
X132755357Y-48935357D01*
X132874136Y-48790625D01*
X132962396Y-48625501D01*
X133016747Y-48446331D01*
X133035099Y-48260000D01*
X133016747Y-48073669D01*
X132962396Y-47894499D01*
X132874136Y-47729375D01*
X132874131Y-47729368D01*
X132815181Y-47657539D01*
X132755357Y-47584643D01*
X132687282Y-47528775D01*
X132610631Y-47465868D01*
X132610624Y-47465863D01*
X132445502Y-47377604D01*
X132266331Y-47323253D01*
X132080000Y-47304901D01*
X131893668Y-47323253D01*
X131893667Y-47323253D01*
X131714497Y-47377604D01*
X131549375Y-47465863D01*
X131549368Y-47465868D01*
X131404643Y-47584643D01*
X131285868Y-47729368D01*
X131285863Y-47729375D01*
X131197604Y-47894497D01*
X131143253Y-48073667D01*
X131143253Y-48073668D01*
X131124901Y-48259999D01*
X131124901Y-48260000D01*
X131143253Y-48446331D01*
X131143253Y-48446332D01*
X131197604Y-48625502D01*
X131285863Y-48790624D01*
X131285868Y-48790631D01*
X131303890Y-48812590D01*
X131404643Y-48935357D01*
X131487590Y-49003430D01*
X131549368Y-49054131D01*
X131549375Y-49054136D01*
X131714499Y-49142396D01*
X131794725Y-49166732D01*
X131823714Y-49190522D01*
X131829500Y-49213621D01*
X131829500Y-49223828D01*
X131867636Y-49315897D01*
X131867637Y-49315898D01*
X131867637Y-49315899D01*
X133060548Y-50508809D01*
X133074900Y-50543457D01*
X133074900Y-50619148D01*
X133086533Y-50677631D01*
X133104013Y-50703791D01*
X133124398Y-50734300D01*
X133130848Y-50743952D01*
X133137891Y-50748658D01*
X133158726Y-50779841D01*
X133151409Y-50816624D01*
X133137891Y-50830141D01*
X133137318Y-50830524D01*
X133130847Y-50834848D01*
X133105866Y-50872235D01*
X133086533Y-50901169D01*
X133074900Y-50959652D01*
X133074900Y-51259148D01*
X133086533Y-51317631D01*
X133103659Y-51343262D01*
X133130847Y-51383952D01*
X133157412Y-51401701D01*
X133197169Y-51428267D01*
X133255652Y-51439900D01*
X133402054Y-51439900D01*
X133436702Y-51454252D01*
X134022349Y-52039899D01*
X134283848Y-52301397D01*
X134298200Y-52336045D01*
X134298200Y-54197704D01*
X134285200Y-54229088D01*
X134285200Y-55711999D01*
X134308516Y-55711999D01*
X134407803Y-55701856D01*
X134558287Y-55651991D01*
X134595691Y-55654716D01*
X134620213Y-55683091D01*
X134622700Y-55698504D01*
X134622700Y-56030654D01*
X134608348Y-56065302D01*
X132982426Y-57691224D01*
X132954225Y-57719425D01*
X132926024Y-57747625D01*
X132895500Y-57821316D01*
X132895500Y-57821318D01*
X132895500Y-66704518D01*
X132895500Y-66784282D01*
X132926024Y-66857974D01*
X132926025Y-66857975D01*
X132926025Y-66857976D01*
X133417748Y-67349698D01*
X133432100Y-67384346D01*
X133432100Y-68155677D01*
X133446633Y-68228739D01*
X133501998Y-68311601D01*
X133578484Y-68362706D01*
X133584860Y-68366966D01*
X133592658Y-68368517D01*
X133623840Y-68389350D01*
X133632100Y-68416575D01*
X133632100Y-70051342D01*
X133632100Y-70131106D01*
X133662624Y-70204798D01*
X133662625Y-70204799D01*
X133662625Y-70204800D01*
X134882578Y-71424752D01*
X134896930Y-71459400D01*
X134882578Y-71494048D01*
X134847931Y-71508400D01*
X134766365Y-71508400D01*
X134766349Y-71508401D01*
X134730086Y-71511254D01*
X134574801Y-71556369D01*
X134435626Y-71638677D01*
X134435621Y-71638681D01*
X134321281Y-71753021D01*
X134321277Y-71753026D01*
X134238968Y-71892202D01*
X134196494Y-72038399D01*
X134196495Y-72038400D01*
X135202000Y-72038400D01*
X135236648Y-72052752D01*
X135251000Y-72087400D01*
X135251000Y-72489400D01*
X135236648Y-72524048D01*
X135202000Y-72538400D01*
X134196495Y-72538400D01*
X134238968Y-72684597D01*
X134321277Y-72823773D01*
X134321281Y-72823778D01*
X134435620Y-72938117D01*
X134521443Y-72988872D01*
X134543960Y-73018863D01*
X134545500Y-73031049D01*
X134545500Y-73526134D01*
X134531148Y-73560782D01*
X134496500Y-73575134D01*
X134461852Y-73560782D01*
X132604852Y-71703782D01*
X132590500Y-71669134D01*
X132590500Y-55035316D01*
X133085201Y-55035316D01*
X133095343Y-55134603D01*
X133148653Y-55295484D01*
X133237628Y-55439733D01*
X133357466Y-55559571D01*
X133501715Y-55648546D01*
X133662596Y-55701856D01*
X133761870Y-55711998D01*
X133761894Y-55711999D01*
X133785199Y-55711998D01*
X133785200Y-55711998D01*
X133785200Y-54987000D01*
X133085201Y-54987000D01*
X133085201Y-55035316D01*
X132590500Y-55035316D01*
X132590500Y-54438682D01*
X133085200Y-54438682D01*
X133085200Y-54487000D01*
X133785200Y-54487000D01*
X133785200Y-53752296D01*
X133798200Y-53720911D01*
X133798200Y-53463000D01*
X133098201Y-53463000D01*
X133098201Y-53511316D01*
X133108343Y-53610603D01*
X133161653Y-53771484D01*
X133250628Y-53915733D01*
X133268747Y-53933852D01*
X133283099Y-53968500D01*
X133268747Y-54003148D01*
X133237628Y-54034266D01*
X133148653Y-54178515D01*
X133095343Y-54339396D01*
X133085200Y-54438682D01*
X132590500Y-54438682D01*
X132590500Y-53610120D01*
X132590499Y-53610116D01*
X132577235Y-53578094D01*
X132559976Y-53536426D01*
X132503574Y-53480024D01*
X131938232Y-52914682D01*
X133098200Y-52914682D01*
X133098200Y-52963000D01*
X133798200Y-52963000D01*
X133798200Y-52238000D01*
X133798199Y-52237999D01*
X133774884Y-52238000D01*
X133675596Y-52248143D01*
X133514715Y-52301453D01*
X133370466Y-52390428D01*
X133250628Y-52510266D01*
X133161653Y-52654515D01*
X133108343Y-52815396D01*
X133098200Y-52914682D01*
X131938232Y-52914682D01*
X130366812Y-51343262D01*
X130352460Y-51308614D01*
X130358244Y-51285520D01*
X130422396Y-51165501D01*
X130476747Y-50986331D01*
X130495099Y-50800000D01*
X130476747Y-50613669D01*
X130422396Y-50434499D01*
X130341191Y-50282575D01*
X130334136Y-50269375D01*
X130334131Y-50269368D01*
X130265720Y-50186010D01*
X130215357Y-50124643D01*
X130142866Y-50065151D01*
X130070631Y-50005868D01*
X130070624Y-50005863D01*
X129905502Y-49917604D01*
X129726331Y-49863253D01*
X129540000Y-49844901D01*
X129353668Y-49863253D01*
X129353667Y-49863253D01*
X129174497Y-49917604D01*
X129009375Y-50005863D01*
X129009368Y-50005868D01*
X128864643Y-50124643D01*
X128745868Y-50269368D01*
X128745863Y-50269375D01*
X128657604Y-50434497D01*
X128603253Y-50613667D01*
X128603253Y-50613668D01*
X128584901Y-50799999D01*
X128584901Y-50800000D01*
X128603253Y-50986331D01*
X128603253Y-50986332D01*
X128657604Y-51165502D01*
X128745863Y-51330624D01*
X128745868Y-51330631D01*
X128808775Y-51407282D01*
X128864643Y-51475357D01*
X128947590Y-51543430D01*
X129009368Y-51594131D01*
X129009375Y-51594136D01*
X129174499Y-51682396D01*
X129353669Y-51736747D01*
X129540000Y-51755099D01*
X129726331Y-51736747D01*
X129905501Y-51682396D01*
X130025518Y-51618245D01*
X130062838Y-51614570D01*
X130083262Y-51626812D01*
X132175148Y-53718698D01*
X132189500Y-53753346D01*
X132189500Y-55587654D01*
X132175148Y-55622302D01*
X132140500Y-55636654D01*
X132105852Y-55622302D01*
X130366812Y-53883262D01*
X130352460Y-53848614D01*
X130358244Y-53825520D01*
X130422396Y-53705501D01*
X130476747Y-53526331D01*
X130495099Y-53340000D01*
X130476747Y-53153669D01*
X130422396Y-52974499D01*
X130379450Y-52894153D01*
X130334136Y-52809375D01*
X130334131Y-52809368D01*
X130283430Y-52747590D01*
X130215357Y-52664643D01*
X130097469Y-52567894D01*
X130070631Y-52545868D01*
X130070624Y-52545863D01*
X129905502Y-52457604D01*
X129726331Y-52403253D01*
X129540000Y-52384901D01*
X129353668Y-52403253D01*
X129353667Y-52403253D01*
X129174497Y-52457604D01*
X129009375Y-52545863D01*
X129009368Y-52545868D01*
X128864643Y-52664643D01*
X128745868Y-52809368D01*
X128745863Y-52809375D01*
X128657604Y-52974497D01*
X128603253Y-53153667D01*
X128603253Y-53153668D01*
X128584901Y-53339999D01*
X128584901Y-53340000D01*
X128603253Y-53526331D01*
X128603253Y-53526332D01*
X128657604Y-53705502D01*
X128745863Y-53870624D01*
X128745868Y-53870631D01*
X128797753Y-53933852D01*
X128864643Y-54015357D01*
X128887684Y-54034266D01*
X129009368Y-54134131D01*
X129009375Y-54134136D01*
X129174499Y-54222396D01*
X129353669Y-54276747D01*
X129540000Y-54295099D01*
X129726331Y-54276747D01*
X129905501Y-54222396D01*
X130025518Y-54158245D01*
X130062838Y-54154570D01*
X130083262Y-54166812D01*
X131875148Y-55958698D01*
X131889500Y-55993346D01*
X131889500Y-57827654D01*
X131875148Y-57862302D01*
X131840500Y-57876654D01*
X131805852Y-57862302D01*
X130366812Y-56423262D01*
X130352460Y-56388614D01*
X130358244Y-56365520D01*
X130422396Y-56245501D01*
X130476747Y-56066331D01*
X130495099Y-55880000D01*
X130476747Y-55693669D01*
X130422396Y-55514499D01*
X130334136Y-55349375D01*
X130334131Y-55349368D01*
X130283430Y-55287590D01*
X130215357Y-55204643D01*
X130147282Y-55148775D01*
X130070631Y-55085868D01*
X130070624Y-55085863D01*
X129905502Y-54997604D01*
X129726331Y-54943253D01*
X129540000Y-54924901D01*
X129353668Y-54943253D01*
X129353667Y-54943253D01*
X129174497Y-54997604D01*
X129009375Y-55085863D01*
X129009368Y-55085868D01*
X128864643Y-55204643D01*
X128745868Y-55349368D01*
X128745863Y-55349375D01*
X128657604Y-55514497D01*
X128603253Y-55693667D01*
X128603253Y-55693668D01*
X128584901Y-55879999D01*
X128584901Y-55880000D01*
X128603253Y-56066331D01*
X128603253Y-56066332D01*
X128657604Y-56245502D01*
X128745863Y-56410624D01*
X128745868Y-56410631D01*
X128808775Y-56487282D01*
X128864643Y-56555357D01*
X128947590Y-56623430D01*
X129009368Y-56674131D01*
X129009375Y-56674136D01*
X129174499Y-56762396D01*
X129353669Y-56816747D01*
X129540000Y-56835099D01*
X129726331Y-56816747D01*
X129905501Y-56762396D01*
X130025518Y-56698245D01*
X130062838Y-56694570D01*
X130083262Y-56706812D01*
X131575148Y-58198698D01*
X131589500Y-58233346D01*
X131589500Y-60067654D01*
X131575148Y-60102302D01*
X131540500Y-60116654D01*
X131505852Y-60102302D01*
X130366812Y-58963263D01*
X130352460Y-58928615D01*
X130358246Y-58905516D01*
X130400346Y-58826753D01*
X130422396Y-58785501D01*
X130476747Y-58606331D01*
X130495099Y-58420000D01*
X130476747Y-58233669D01*
X130422396Y-58054499D01*
X130334136Y-57889375D01*
X130334131Y-57889368D01*
X130274310Y-57816477D01*
X130215357Y-57744643D01*
X130116899Y-57663840D01*
X130070631Y-57625868D01*
X130070624Y-57625863D01*
X129905502Y-57537604D01*
X129726331Y-57483253D01*
X129540000Y-57464901D01*
X129353668Y-57483253D01*
X129353667Y-57483253D01*
X129174497Y-57537604D01*
X129009375Y-57625863D01*
X129009368Y-57625868D01*
X128864643Y-57744643D01*
X128745868Y-57889368D01*
X128745863Y-57889375D01*
X128657604Y-58054497D01*
X128603253Y-58233667D01*
X128603253Y-58233668D01*
X128584901Y-58419999D01*
X128584901Y-58420000D01*
X128603253Y-58606331D01*
X128603253Y-58606332D01*
X128657604Y-58785502D01*
X128745863Y-58950624D01*
X128745868Y-58950631D01*
X128788000Y-59001968D01*
X128864643Y-59095357D01*
X128947590Y-59163430D01*
X129009368Y-59214131D01*
X129009375Y-59214136D01*
X129091871Y-59258231D01*
X129174499Y-59302396D01*
X129353669Y-59356747D01*
X129540000Y-59375099D01*
X129726331Y-59356747D01*
X129905501Y-59302396D01*
X130025516Y-59238245D01*
X130062839Y-59234570D01*
X130083263Y-59246812D01*
X131275148Y-60438697D01*
X131289500Y-60473345D01*
X131289500Y-64847654D01*
X131275148Y-64882302D01*
X131240500Y-64896654D01*
X131205852Y-64882302D01*
X130366812Y-64043263D01*
X130352460Y-64008615D01*
X130358246Y-63985516D01*
X130422396Y-63865501D01*
X130476747Y-63686331D01*
X130495099Y-63500000D01*
X130476747Y-63313669D01*
X130422396Y-63134499D01*
X130334136Y-62969375D01*
X130334131Y-62969368D01*
X130283430Y-62907590D01*
X130215357Y-62824643D01*
X130147282Y-62768775D01*
X130070631Y-62705868D01*
X130070624Y-62705863D01*
X129905502Y-62617604D01*
X129726331Y-62563253D01*
X129540000Y-62544901D01*
X129353668Y-62563253D01*
X129353667Y-62563253D01*
X129174497Y-62617604D01*
X129009375Y-62705863D01*
X129009368Y-62705868D01*
X128864643Y-62824643D01*
X128745868Y-62969368D01*
X128745863Y-62969375D01*
X128657604Y-63134497D01*
X128603253Y-63313667D01*
X128603253Y-63313668D01*
X128584901Y-63499999D01*
X128584901Y-63500000D01*
X128603253Y-63686331D01*
X128603253Y-63686332D01*
X128657604Y-63865502D01*
X128745863Y-64030624D01*
X128745868Y-64030631D01*
X128808775Y-64107282D01*
X128864643Y-64175357D01*
X128947590Y-64243430D01*
X129009368Y-64294131D01*
X129009375Y-64294136D01*
X129174499Y-64382396D01*
X129353669Y-64436747D01*
X129540000Y-64455099D01*
X129726331Y-64436747D01*
X129905501Y-64382396D01*
X130025516Y-64318245D01*
X130062839Y-64314570D01*
X130083263Y-64326812D01*
X130975148Y-65218697D01*
X130989500Y-65253345D01*
X130989500Y-67087654D01*
X130975148Y-67122302D01*
X130940500Y-67136654D01*
X130905852Y-67122302D01*
X130366812Y-66583262D01*
X130352460Y-66548614D01*
X130358244Y-66525520D01*
X130422396Y-66405501D01*
X130476747Y-66226331D01*
X130495099Y-66040000D01*
X130476747Y-65853669D01*
X130422396Y-65674499D01*
X130334136Y-65509375D01*
X130334131Y-65509368D01*
X130283430Y-65447590D01*
X130215357Y-65364643D01*
X130147282Y-65308775D01*
X130070631Y-65245868D01*
X130070624Y-65245863D01*
X129905502Y-65157604D01*
X129726331Y-65103253D01*
X129540000Y-65084901D01*
X129353668Y-65103253D01*
X129353667Y-65103253D01*
X129174497Y-65157604D01*
X129009375Y-65245863D01*
X129009368Y-65245868D01*
X128864643Y-65364643D01*
X128745868Y-65509368D01*
X128745863Y-65509375D01*
X128657604Y-65674497D01*
X128603253Y-65853667D01*
X128603253Y-65853668D01*
X128584901Y-66039999D01*
X128584901Y-66040000D01*
X128603253Y-66226331D01*
X128603253Y-66226332D01*
X128657604Y-66405502D01*
X128745863Y-66570624D01*
X128745868Y-66570631D01*
X128766091Y-66595272D01*
X128864643Y-66715357D01*
X128908492Y-66751343D01*
X129009368Y-66834131D01*
X129009375Y-66834136D01*
X129174499Y-66922396D01*
X129353669Y-66976747D01*
X129540000Y-66995099D01*
X129726331Y-66976747D01*
X129905501Y-66922396D01*
X130025518Y-66858245D01*
X130062838Y-66854570D01*
X130083262Y-66866812D01*
X130675148Y-67458698D01*
X130689500Y-67493346D01*
X130689500Y-69327654D01*
X130675148Y-69362302D01*
X130640500Y-69376654D01*
X130605852Y-69362302D01*
X130366812Y-69123262D01*
X130352460Y-69088614D01*
X130358244Y-69065520D01*
X130422396Y-68945501D01*
X130476747Y-68766331D01*
X130495099Y-68580000D01*
X130494331Y-68572207D01*
X130488626Y-68514278D01*
X130476747Y-68393669D01*
X130422396Y-68214499D01*
X130334136Y-68049375D01*
X130334131Y-68049368D01*
X130278631Y-67981742D01*
X130215357Y-67904643D01*
X130142365Y-67844740D01*
X130070631Y-67785868D01*
X130070624Y-67785863D01*
X129905502Y-67697604D01*
X129726331Y-67643253D01*
X129540000Y-67624901D01*
X129353668Y-67643253D01*
X129353667Y-67643253D01*
X129174497Y-67697604D01*
X129009375Y-67785863D01*
X129009368Y-67785868D01*
X128864643Y-67904643D01*
X128745868Y-68049368D01*
X128745863Y-68049375D01*
X128657604Y-68214497D01*
X128603253Y-68393667D01*
X128603253Y-68393668D01*
X128584901Y-68579999D01*
X128584901Y-68580000D01*
X128603253Y-68766331D01*
X128603253Y-68766332D01*
X128657604Y-68945502D01*
X128745863Y-69110624D01*
X128745868Y-69110631D01*
X128808775Y-69187282D01*
X128864643Y-69255357D01*
X128947590Y-69323430D01*
X129009368Y-69374131D01*
X129009375Y-69374136D01*
X129174499Y-69462396D01*
X129353669Y-69516747D01*
X129540000Y-69535099D01*
X129726331Y-69516747D01*
X129905501Y-69462396D01*
X130025518Y-69398245D01*
X130062838Y-69394570D01*
X130083262Y-69406812D01*
X130375148Y-69698698D01*
X130389500Y-69733346D01*
X130389500Y-70519890D01*
X130375148Y-70554538D01*
X130340500Y-70568890D01*
X130305852Y-70554538D01*
X130302623Y-70550976D01*
X130252784Y-70490248D01*
X130215357Y-70444643D01*
X130120993Y-70367200D01*
X130070631Y-70325868D01*
X130070624Y-70325863D01*
X129905502Y-70237604D01*
X129726331Y-70183253D01*
X129540000Y-70164901D01*
X129353668Y-70183253D01*
X129353667Y-70183253D01*
X129174497Y-70237604D01*
X129009375Y-70325863D01*
X129009368Y-70325868D01*
X128864643Y-70444643D01*
X128745868Y-70589368D01*
X128745863Y-70589375D01*
X128657604Y-70754497D01*
X128603253Y-70933667D01*
X128603253Y-70933668D01*
X128584901Y-71119999D01*
X128584901Y-71120000D01*
X128603253Y-71306331D01*
X128603253Y-71306332D01*
X128657604Y-71485502D01*
X128745863Y-71650624D01*
X128745868Y-71650631D01*
X128801569Y-71718502D01*
X128864643Y-71795357D01*
X128946235Y-71862318D01*
X129009368Y-71914131D01*
X129009375Y-71914136D01*
X129174499Y-72002396D01*
X129353669Y-72056747D01*
X129394044Y-72060723D01*
X129423889Y-72074839D01*
X129775648Y-72426598D01*
X129790000Y-72461246D01*
X129790000Y-73226988D01*
X129732993Y-73194075D01*
X129605826Y-73160000D01*
X129474174Y-73160000D01*
X129347007Y-73194075D01*
X129290000Y-73226988D01*
X129290000Y-72329363D01*
X129289999Y-72329363D01*
X129076516Y-72386566D01*
X129076511Y-72386567D01*
X128862423Y-72486398D01*
X128862411Y-72486405D01*
X128668927Y-72621885D01*
X128668920Y-72621891D01*
X128501891Y-72788920D01*
X128501885Y-72788927D01*
X128366405Y-72982411D01*
X128366398Y-72982423D01*
X128266567Y-73196511D01*
X128266566Y-73196516D01*
X128209363Y-73409999D01*
X127500500Y-73409999D01*
X127500500Y-60709999D01*
X128209363Y-60709999D01*
X128209364Y-60710000D01*
X129106988Y-60710000D01*
X129074075Y-60767007D01*
X129040000Y-60894174D01*
X129040000Y-61025826D01*
X129074075Y-61152993D01*
X129106988Y-61210000D01*
X128209363Y-61210000D01*
X128266566Y-61423483D01*
X128266568Y-61423488D01*
X128366398Y-61637577D01*
X128366405Y-61637589D01*
X128501885Y-61831072D01*
X128501891Y-61831079D01*
X128668920Y-61998108D01*
X128668927Y-61998114D01*
X128862410Y-62133594D01*
X128862422Y-62133601D01*
X129076511Y-62233431D01*
X129076516Y-62233433D01*
X129290000Y-62290634D01*
X129290000Y-61393012D01*
X129347007Y-61425925D01*
X129474174Y-61460000D01*
X129605826Y-61460000D01*
X129732993Y-61425925D01*
X129790000Y-61393012D01*
X129790000Y-62290634D01*
X130003483Y-62233433D01*
X130003488Y-62233431D01*
X130217577Y-62133601D01*
X130217589Y-62133594D01*
X130411072Y-61998114D01*
X130411079Y-61998108D01*
X130578108Y-61831079D01*
X130578114Y-61831072D01*
X130713594Y-61637589D01*
X130713601Y-61637577D01*
X130813431Y-61423488D01*
X130813433Y-61423483D01*
X130870636Y-61210000D01*
X129973012Y-61210000D01*
X130005925Y-61152993D01*
X130040000Y-61025826D01*
X130040000Y-60894174D01*
X130005925Y-60767007D01*
X129973012Y-60710000D01*
X130870636Y-60710000D01*
X130870636Y-60709999D01*
X130813433Y-60496516D01*
X130813432Y-60496511D01*
X130713601Y-60282423D01*
X130713594Y-60282411D01*
X130578114Y-60088927D01*
X130578108Y-60088920D01*
X130411079Y-59921891D01*
X130411072Y-59921885D01*
X130217589Y-59786405D01*
X130217577Y-59786398D01*
X130003488Y-59686568D01*
X130003483Y-59686566D01*
X129790000Y-59629363D01*
X129790000Y-60526988D01*
X129732993Y-60494075D01*
X129605826Y-60460000D01*
X129474174Y-60460000D01*
X129347007Y-60494075D01*
X129290000Y-60526988D01*
X129290000Y-59629363D01*
X129289999Y-59629363D01*
X129076516Y-59686566D01*
X129076511Y-59686567D01*
X128862423Y-59786398D01*
X128862411Y-59786405D01*
X128668927Y-59921885D01*
X128668920Y-59921891D01*
X128501891Y-60088920D01*
X128501885Y-60088927D01*
X128366405Y-60282411D01*
X128366398Y-60282423D01*
X128266567Y-60496511D01*
X128266566Y-60496516D01*
X128209363Y-60709999D01*
X127500500Y-60709999D01*
X127500500Y-47362165D01*
X128190000Y-47362165D01*
X128190000Y-48010000D01*
X129106988Y-48010000D01*
X129074075Y-48067007D01*
X129040000Y-48194174D01*
X129040000Y-48325826D01*
X129074075Y-48452993D01*
X129106988Y-48510000D01*
X128190000Y-48510000D01*
X128190000Y-49157834D01*
X128196401Y-49217372D01*
X128196401Y-49217373D01*
X128246648Y-49352091D01*
X128332811Y-49467188D01*
X128447908Y-49553351D01*
X128582626Y-49603598D01*
X128642166Y-49610000D01*
X129290000Y-49610000D01*
X129290000Y-48693012D01*
X129347007Y-48725925D01*
X129474174Y-48760000D01*
X129605826Y-48760000D01*
X129732993Y-48725925D01*
X129790000Y-48693012D01*
X129790000Y-49610000D01*
X130437834Y-49610000D01*
X130497372Y-49603598D01*
X130497373Y-49603598D01*
X130632091Y-49553351D01*
X130747188Y-49467188D01*
X130833351Y-49352091D01*
X130883598Y-49217373D01*
X130883598Y-49217372D01*
X130890000Y-49157834D01*
X130890000Y-48510000D01*
X129973012Y-48510000D01*
X130005925Y-48452993D01*
X130040000Y-48325826D01*
X130040000Y-48194174D01*
X130005925Y-48067007D01*
X129973012Y-48010000D01*
X130890000Y-48010000D01*
X130890000Y-47362165D01*
X130883598Y-47302627D01*
X130883598Y-47302626D01*
X130833351Y-47167908D01*
X130747188Y-47052811D01*
X130632091Y-46966648D01*
X130497373Y-46916401D01*
X130437834Y-46910000D01*
X129790000Y-46910000D01*
X129790000Y-47826988D01*
X129732993Y-47794075D01*
X129605826Y-47760000D01*
X129474174Y-47760000D01*
X129347007Y-47794075D01*
X129290000Y-47826988D01*
X129290000Y-46910000D01*
X128642166Y-46910000D01*
X128582627Y-46916401D01*
X128582626Y-46916401D01*
X128447908Y-46966648D01*
X128332811Y-47052811D01*
X128246648Y-47167908D01*
X128196401Y-47302626D01*
X128196401Y-47302627D01*
X128190000Y-47362165D01*
X127500500Y-47362165D01*
X127500500Y-44822165D01*
X130730000Y-44822165D01*
X130730000Y-45470000D01*
X131646988Y-45470000D01*
X131614075Y-45527007D01*
X131580000Y-45654174D01*
X131580000Y-45785826D01*
X131614075Y-45912993D01*
X131646988Y-45970000D01*
X130730000Y-45970000D01*
X130730000Y-46617834D01*
X130736401Y-46677372D01*
X130736401Y-46677373D01*
X130786648Y-46812091D01*
X130872811Y-46927188D01*
X130987908Y-47013351D01*
X131122626Y-47063598D01*
X131182166Y-47070000D01*
X131830000Y-47070000D01*
X131830000Y-46153012D01*
X131887007Y-46185925D01*
X132014174Y-46220000D01*
X132145826Y-46220000D01*
X132272993Y-46185925D01*
X132330000Y-46153012D01*
X132330000Y-47070000D01*
X132977834Y-47070000D01*
X133037372Y-47063598D01*
X133037373Y-47063598D01*
X133172091Y-47013351D01*
X133287188Y-46927188D01*
X133373351Y-46812091D01*
X133423598Y-46677373D01*
X133423598Y-46677372D01*
X133430000Y-46617834D01*
X133430000Y-45970000D01*
X132513012Y-45970000D01*
X132545925Y-45912993D01*
X132580000Y-45785826D01*
X132580000Y-45654174D01*
X132545925Y-45527007D01*
X132513012Y-45470000D01*
X133430000Y-45470000D01*
X133430000Y-44822165D01*
X133423598Y-44762627D01*
X133423598Y-44762626D01*
X133373351Y-44627908D01*
X133287188Y-44512811D01*
X133172091Y-44426648D01*
X133037373Y-44376401D01*
X132977834Y-44370000D01*
X132330000Y-44370000D01*
X132330000Y-45286988D01*
X132272993Y-45254075D01*
X132145826Y-45220000D01*
X132014174Y-45220000D01*
X131887007Y-45254075D01*
X131830000Y-45286988D01*
X131830000Y-44370000D01*
X131182166Y-44370000D01*
X131122627Y-44376401D01*
X131122626Y-44376401D01*
X130987908Y-44426648D01*
X130872811Y-44512811D01*
X130786648Y-44627908D01*
X130736401Y-44762626D01*
X130736401Y-44762627D01*
X130730000Y-44822165D01*
X127500500Y-44822165D01*
X127500500Y-43729500D01*
X127514852Y-43694852D01*
X127549500Y-43680500D01*
X134462824Y-43680500D01*
X134497472Y-43694852D01*
G37*
%TD.AperFunction*%
%TD*%
M02*
