%TF.GenerationSoftware,KiCad,Pcbnew,8.0.3*%
%TF.CreationDate,2024-07-23T22:42:39-04:00*%
%TF.ProjectId,RP2040 Custom,52503230-3430-4204-9375-73746f6d2e6b,rev?*%
%TF.SameCoordinates,Original*%
%TF.FileFunction,Drillmap*%
%TF.FilePolarity,Positive*%
%FSLAX45Y45*%
G04 Gerber Fmt 4.5, Leading zero omitted, Abs format (unit mm)*
G04 Created by KiCad (PCBNEW 8.0.3) date 2024-07-23 22:42:39*
%MOMM*%
%LPD*%
G01*
G04 APERTURE LIST*
%ADD10C,0.050000*%
%ADD11C,0.200000*%
%ADD12C,0.100000*%
G04 APERTURE END LIST*
D10*
X12700000Y-4318000D02*
X15240000Y-4318000D01*
X15240000Y-9906000D01*
X12700000Y-9906000D01*
X12700000Y-4318000D01*
D11*
D12*
X13066000Y-6271500D02*
X13096000Y-6301500D01*
X13096000Y-6271500D02*
X13066000Y-6301500D01*
X13081240Y-5854940D02*
X13111240Y-5884940D01*
X13111240Y-5854940D02*
X13081240Y-5884940D01*
X13093940Y-5611100D02*
X13123940Y-5641100D01*
X13123940Y-5611100D02*
X13093940Y-5641100D01*
X13114260Y-5377420D02*
X13144260Y-5407420D01*
X13144260Y-5377420D02*
X13114260Y-5407420D01*
X13137120Y-5077700D02*
X13167120Y-5107700D01*
X13167120Y-5077700D02*
X13137120Y-5107700D01*
X13142200Y-8031720D02*
X13172200Y-8061720D01*
X13172200Y-8031720D02*
X13142200Y-8061720D01*
X13144740Y-8765780D02*
X13174740Y-8795780D01*
X13174740Y-8765780D02*
X13144740Y-8795780D01*
X13149820Y-9009620D02*
X13179820Y-9039620D01*
X13179820Y-9009620D02*
X13149820Y-9039620D01*
X13154900Y-8384780D02*
X13184900Y-8414780D01*
X13184900Y-8384780D02*
X13154900Y-8414780D01*
X13175220Y-9258540D02*
X13205220Y-9288540D01*
X13205220Y-9258540D02*
X13175220Y-9288540D01*
X13182840Y-7592300D02*
X13212840Y-7622300D01*
X13212840Y-7592300D02*
X13182840Y-7622300D01*
X13241260Y-9746220D02*
X13271260Y-9776220D01*
X13271260Y-9746220D02*
X13241260Y-9776220D01*
X13340320Y-7102080D02*
X13370320Y-7132080D01*
X13370320Y-7102080D02*
X13340320Y-7132080D01*
X13360640Y-6449300D02*
X13390640Y-6479300D01*
X13390640Y-6449300D02*
X13360640Y-6479300D01*
X13495260Y-6218160D02*
X13525260Y-6248160D01*
X13525260Y-6218160D02*
X13495260Y-6248160D01*
X13596860Y-7358620D02*
X13626860Y-7388620D01*
X13626860Y-7358620D02*
X13596860Y-7388620D01*
X13637500Y-4930380D02*
X13667500Y-4960380D01*
X13667500Y-4930380D02*
X13637500Y-4960380D01*
X13680680Y-7803120D02*
X13710680Y-7833120D01*
X13710680Y-7803120D02*
X13680680Y-7833120D01*
X13759420Y-5666980D02*
X13789420Y-5696980D01*
X13789420Y-5666980D02*
X13759420Y-5696980D01*
X13759420Y-6444220D02*
X13789420Y-6474220D01*
X13789420Y-6444220D02*
X13759420Y-6474220D01*
X13944840Y-7952980D02*
X13974840Y-7982980D01*
X13974840Y-7952980D02*
X13944840Y-7982980D01*
X13985480Y-7455140D02*
X14015480Y-7485140D01*
X14015480Y-7455140D02*
X13985480Y-7485140D01*
X14137880Y-7963140D02*
X14167880Y-7993140D01*
X14167880Y-7963140D02*
X14137880Y-7993140D01*
X14191220Y-5524740D02*
X14221220Y-5554740D01*
X14221220Y-5524740D02*
X14191220Y-5554740D01*
X14196300Y-6149580D02*
X14226300Y-6179580D01*
X14226300Y-6149580D02*
X14196300Y-6179580D01*
X14216620Y-7803120D02*
X14246620Y-7833120D01*
X14246620Y-7803120D02*
X14216620Y-7833120D01*
X14277580Y-4930380D02*
X14307580Y-4960380D01*
X14307580Y-4930380D02*
X14277580Y-4960380D01*
X14300440Y-7345920D02*
X14330440Y-7375920D01*
X14330440Y-7345920D02*
X14300440Y-7375920D01*
X14419820Y-8191740D02*
X14449820Y-8221740D01*
X14449820Y-8191740D02*
X14419820Y-8221740D01*
X14480780Y-5722860D02*
X14510780Y-5752860D01*
X14510780Y-5722860D02*
X14480780Y-5752860D01*
X14640800Y-5994640D02*
X14670800Y-6024640D01*
X14670800Y-5994640D02*
X14640800Y-6024640D01*
X14689060Y-5331700D02*
X14719060Y-5361700D01*
X14719060Y-5331700D02*
X14689060Y-5361700D01*
X14701760Y-9786860D02*
X14731760Y-9816860D01*
X14731760Y-9786860D02*
X14701760Y-9816860D01*
X14704300Y-6380720D02*
X14734300Y-6410720D01*
X14734300Y-6380720D02*
X14704300Y-6410720D01*
X14710032Y-7472857D02*
X14740032Y-7502857D01*
X14740032Y-7472857D02*
X14710032Y-7502857D01*
X14717000Y-6921740D02*
X14747000Y-6951740D01*
X14747000Y-6921740D02*
X14717000Y-6951740D01*
X14724620Y-8773400D02*
X14754620Y-8803400D01*
X14754620Y-8773400D02*
X14724620Y-8803400D01*
X14727160Y-7681200D02*
X14757160Y-7711200D01*
X14757160Y-7681200D02*
X14727160Y-7711200D01*
X14729700Y-6708380D02*
X14759700Y-6738380D01*
X14759700Y-6708380D02*
X14729700Y-6738380D01*
X14734780Y-9002000D02*
X14764780Y-9032000D01*
X14764780Y-9002000D02*
X14734780Y-9032000D01*
X14739860Y-8402560D02*
X14769860Y-8432560D01*
X14769860Y-8402560D02*
X14739860Y-8432560D01*
X14739860Y-9296640D02*
X14769860Y-9326640D01*
X14769860Y-9296640D02*
X14739860Y-9326640D01*
X14767800Y-7173200D02*
X14797800Y-7203200D01*
X14797800Y-7173200D02*
X14767800Y-7203200D01*
X14767800Y-7930120D02*
X14797800Y-7960120D01*
X14797800Y-7930120D02*
X14767800Y-7960120D01*
X14770340Y-8191740D02*
X14800340Y-8221740D01*
X14800340Y-8191740D02*
X14770340Y-8221740D01*
X13568000Y-4464500D02*
G75*
G02*
X13508000Y-4464500I-30000J0D01*
G01*
X13508000Y-4464500D02*
G75*
G02*
X13568000Y-4464500I30000J0D01*
G01*
X13568000Y-4504500D02*
X13568000Y-4424500D01*
X13508000Y-4424500D02*
G75*
G02*
X13568000Y-4424500I30000J0D01*
G01*
X13508000Y-4424500D02*
X13508000Y-4504500D01*
X13508000Y-4504500D02*
G75*
G03*
X13568000Y-4504500I30000J0D01*
G01*
X13568000Y-4884500D02*
G75*
G02*
X13508000Y-4884500I-30000J0D01*
G01*
X13508000Y-4884500D02*
G75*
G02*
X13568000Y-4884500I30000J0D01*
G01*
X13568000Y-4939500D02*
X13568000Y-4829500D01*
X13508000Y-4829500D02*
G75*
G02*
X13568000Y-4829500I30000J0D01*
G01*
X13508000Y-4829500D02*
X13508000Y-4939500D01*
X13508000Y-4939500D02*
G75*
G03*
X13568000Y-4939500I30000J0D01*
G01*
X14432000Y-4464500D02*
G75*
G02*
X14372000Y-4464500I-30000J0D01*
G01*
X14372000Y-4464500D02*
G75*
G02*
X14432000Y-4464500I30000J0D01*
G01*
X14432000Y-4504500D02*
X14432000Y-4424500D01*
X14372000Y-4424500D02*
G75*
G02*
X14432000Y-4424500I30000J0D01*
G01*
X14372000Y-4424500D02*
X14372000Y-4504500D01*
X14372000Y-4504500D02*
G75*
G03*
X14432000Y-4504500I30000J0D01*
G01*
X14432000Y-4884500D02*
G75*
G02*
X14372000Y-4884500I-30000J0D01*
G01*
X14372000Y-4884500D02*
G75*
G02*
X14432000Y-4884500I30000J0D01*
G01*
X14432000Y-4939500D02*
X14432000Y-4829500D01*
X14372000Y-4829500D02*
G75*
G02*
X14432000Y-4829500I30000J0D01*
G01*
X14372000Y-4829500D02*
X14372000Y-4939500D01*
X14372000Y-4939500D02*
G75*
G03*
X14432000Y-4939500I30000J0D01*
G01*
X12954000Y-4776000D02*
X12954000Y-4876000D01*
X12904000Y-4826000D02*
X13004000Y-4826000D01*
X12954000Y-5030000D02*
X12954000Y-5130000D01*
X12904000Y-5080000D02*
X13004000Y-5080000D01*
X12954000Y-5284000D02*
X12954000Y-5384000D01*
X12904000Y-5334000D02*
X13004000Y-5334000D01*
X12954000Y-5538000D02*
X12954000Y-5638000D01*
X12904000Y-5588000D02*
X13004000Y-5588000D01*
X12954000Y-5792000D02*
X12954000Y-5892000D01*
X12904000Y-5842000D02*
X13004000Y-5842000D01*
X12954000Y-6046000D02*
X12954000Y-6146000D01*
X12904000Y-6096000D02*
X13004000Y-6096000D01*
X12954000Y-6300000D02*
X12954000Y-6400000D01*
X12904000Y-6350000D02*
X13004000Y-6350000D01*
X12954000Y-6554000D02*
X12954000Y-6654000D01*
X12904000Y-6604000D02*
X13004000Y-6604000D01*
X12954000Y-6808000D02*
X12954000Y-6908000D01*
X12904000Y-6858000D02*
X13004000Y-6858000D01*
X12954000Y-7062000D02*
X12954000Y-7162000D01*
X12904000Y-7112000D02*
X13004000Y-7112000D01*
X12954000Y-7316000D02*
X12954000Y-7416000D01*
X12904000Y-7366000D02*
X13004000Y-7366000D01*
X12954000Y-7570000D02*
X12954000Y-7670000D01*
X12904000Y-7620000D02*
X13004000Y-7620000D01*
X12954000Y-7824000D02*
X12954000Y-7924000D01*
X12904000Y-7874000D02*
X13004000Y-7874000D01*
X12954000Y-8078000D02*
X12954000Y-8178000D01*
X12904000Y-8128000D02*
X13004000Y-8128000D01*
X12954000Y-8332000D02*
X12954000Y-8432000D01*
X12904000Y-8382000D02*
X13004000Y-8382000D01*
X12954000Y-8586000D02*
X12954000Y-8686000D01*
X12904000Y-8636000D02*
X13004000Y-8636000D01*
X12954000Y-8840000D02*
X12954000Y-8940000D01*
X12904000Y-8890000D02*
X13004000Y-8890000D01*
X12954000Y-9094000D02*
X12954000Y-9194000D01*
X12904000Y-9144000D02*
X13004000Y-9144000D01*
X12954000Y-9348000D02*
X12954000Y-9448000D01*
X12904000Y-9398000D02*
X13004000Y-9398000D01*
X12954000Y-9602000D02*
X12954000Y-9702000D01*
X12904000Y-9652000D02*
X13004000Y-9652000D01*
X13208000Y-4522000D02*
X13208000Y-4622000D01*
X13158000Y-4572000D02*
X13258000Y-4572000D01*
X13208000Y-4776000D02*
X13208000Y-4876000D01*
X13158000Y-4826000D02*
X13258000Y-4826000D01*
X13952220Y-9246400D02*
X13952220Y-9346400D01*
X13902220Y-9296400D02*
X14002220Y-9296400D01*
X14206220Y-9246400D02*
X14206220Y-9346400D01*
X14156220Y-9296400D02*
X14256220Y-9296400D01*
X14460220Y-9246400D02*
X14460220Y-9346400D01*
X14410220Y-9296400D02*
X14510220Y-9296400D01*
X14986000Y-4776000D02*
X14986000Y-4876000D01*
X14936000Y-4826000D02*
X15036000Y-4826000D01*
X14986000Y-5030000D02*
X14986000Y-5130000D01*
X14936000Y-5080000D02*
X15036000Y-5080000D01*
X14986000Y-5284000D02*
X14986000Y-5384000D01*
X14936000Y-5334000D02*
X15036000Y-5334000D01*
X14986000Y-5538000D02*
X14986000Y-5638000D01*
X14936000Y-5588000D02*
X15036000Y-5588000D01*
X14986000Y-5792000D02*
X14986000Y-5892000D01*
X14936000Y-5842000D02*
X15036000Y-5842000D01*
X14986000Y-6046000D02*
X14986000Y-6146000D01*
X14936000Y-6096000D02*
X15036000Y-6096000D01*
X14986000Y-6300000D02*
X14986000Y-6400000D01*
X14936000Y-6350000D02*
X15036000Y-6350000D01*
X14986000Y-6554000D02*
X14986000Y-6654000D01*
X14936000Y-6604000D02*
X15036000Y-6604000D01*
X14986000Y-6808000D02*
X14986000Y-6908000D01*
X14936000Y-6858000D02*
X15036000Y-6858000D01*
X14986000Y-7062000D02*
X14986000Y-7162000D01*
X14936000Y-7112000D02*
X15036000Y-7112000D01*
X14986000Y-7316000D02*
X14986000Y-7416000D01*
X14936000Y-7366000D02*
X15036000Y-7366000D01*
X14986000Y-7570000D02*
X14986000Y-7670000D01*
X14936000Y-7620000D02*
X15036000Y-7620000D01*
X14986000Y-7824000D02*
X14986000Y-7924000D01*
X14936000Y-7874000D02*
X15036000Y-7874000D01*
X14986000Y-8078000D02*
X14986000Y-8178000D01*
X14936000Y-8128000D02*
X15036000Y-8128000D01*
X14986000Y-8332000D02*
X14986000Y-8432000D01*
X14936000Y-8382000D02*
X15036000Y-8382000D01*
X14986000Y-8586000D02*
X14986000Y-8686000D01*
X14936000Y-8636000D02*
X15036000Y-8636000D01*
X14986000Y-8840000D02*
X14986000Y-8940000D01*
X14936000Y-8890000D02*
X15036000Y-8890000D01*
X14986000Y-9094000D02*
X14986000Y-9194000D01*
X14936000Y-9144000D02*
X15036000Y-9144000D01*
X14986000Y-9348000D02*
X14986000Y-9448000D01*
X14936000Y-9398000D02*
X15036000Y-9398000D01*
X14986000Y-9602000D02*
X14986000Y-9702000D01*
X14936000Y-9652000D02*
X15036000Y-9652000D01*
D11*
X12958277Y-10219984D02*
X12958277Y-10019984D01*
X12958277Y-10019984D02*
X13005896Y-10019984D01*
X13005896Y-10019984D02*
X13034467Y-10029508D01*
X13034467Y-10029508D02*
X13053515Y-10048555D01*
X13053515Y-10048555D02*
X13063039Y-10067603D01*
X13063039Y-10067603D02*
X13072562Y-10105698D01*
X13072562Y-10105698D02*
X13072562Y-10134270D01*
X13072562Y-10134270D02*
X13063039Y-10172365D01*
X13063039Y-10172365D02*
X13053515Y-10191412D01*
X13053515Y-10191412D02*
X13034467Y-10210460D01*
X13034467Y-10210460D02*
X13005896Y-10219984D01*
X13005896Y-10219984D02*
X12958277Y-10219984D01*
X13158277Y-10219984D02*
X13158277Y-10086650D01*
X13158277Y-10124746D02*
X13167801Y-10105698D01*
X13167801Y-10105698D02*
X13177324Y-10096174D01*
X13177324Y-10096174D02*
X13196372Y-10086650D01*
X13196372Y-10086650D02*
X13215420Y-10086650D01*
X13282086Y-10219984D02*
X13282086Y-10086650D01*
X13282086Y-10019984D02*
X13272562Y-10029508D01*
X13272562Y-10029508D02*
X13282086Y-10039031D01*
X13282086Y-10039031D02*
X13291610Y-10029508D01*
X13291610Y-10029508D02*
X13282086Y-10019984D01*
X13282086Y-10019984D02*
X13282086Y-10039031D01*
X13405896Y-10219984D02*
X13386848Y-10210460D01*
X13386848Y-10210460D02*
X13377324Y-10191412D01*
X13377324Y-10191412D02*
X13377324Y-10019984D01*
X13510658Y-10219984D02*
X13491610Y-10210460D01*
X13491610Y-10210460D02*
X13482086Y-10191412D01*
X13482086Y-10191412D02*
X13482086Y-10019984D01*
X13739229Y-10219984D02*
X13739229Y-10019984D01*
X13739229Y-10019984D02*
X13805896Y-10162841D01*
X13805896Y-10162841D02*
X13872562Y-10019984D01*
X13872562Y-10019984D02*
X13872562Y-10219984D01*
X14053515Y-10219984D02*
X14053515Y-10115222D01*
X14053515Y-10115222D02*
X14043991Y-10096174D01*
X14043991Y-10096174D02*
X14024943Y-10086650D01*
X14024943Y-10086650D02*
X13986848Y-10086650D01*
X13986848Y-10086650D02*
X13967801Y-10096174D01*
X14053515Y-10210460D02*
X14034467Y-10219984D01*
X14034467Y-10219984D02*
X13986848Y-10219984D01*
X13986848Y-10219984D02*
X13967801Y-10210460D01*
X13967801Y-10210460D02*
X13958277Y-10191412D01*
X13958277Y-10191412D02*
X13958277Y-10172365D01*
X13958277Y-10172365D02*
X13967801Y-10153317D01*
X13967801Y-10153317D02*
X13986848Y-10143793D01*
X13986848Y-10143793D02*
X14034467Y-10143793D01*
X14034467Y-10143793D02*
X14053515Y-10134270D01*
X14148753Y-10086650D02*
X14148753Y-10286650D01*
X14148753Y-10096174D02*
X14167801Y-10086650D01*
X14167801Y-10086650D02*
X14205896Y-10086650D01*
X14205896Y-10086650D02*
X14224943Y-10096174D01*
X14224943Y-10096174D02*
X14234467Y-10105698D01*
X14234467Y-10105698D02*
X14243991Y-10124746D01*
X14243991Y-10124746D02*
X14243991Y-10181889D01*
X14243991Y-10181889D02*
X14234467Y-10200936D01*
X14234467Y-10200936D02*
X14224943Y-10210460D01*
X14224943Y-10210460D02*
X14205896Y-10219984D01*
X14205896Y-10219984D02*
X14167801Y-10219984D01*
X14167801Y-10219984D02*
X14148753Y-10210460D01*
X14329705Y-10200936D02*
X14339229Y-10210460D01*
X14339229Y-10210460D02*
X14329705Y-10219984D01*
X14329705Y-10219984D02*
X14320182Y-10210460D01*
X14320182Y-10210460D02*
X14329705Y-10200936D01*
X14329705Y-10200936D02*
X14329705Y-10219984D01*
X14329705Y-10096174D02*
X14339229Y-10105698D01*
X14339229Y-10105698D02*
X14329705Y-10115222D01*
X14329705Y-10115222D02*
X14320182Y-10105698D01*
X14320182Y-10105698D02*
X14329705Y-10096174D01*
X14329705Y-10096174D02*
X14329705Y-10115222D01*
D12*
X12667500Y-10533500D02*
X12697500Y-10563500D01*
X12697500Y-10533500D02*
X12667500Y-10563500D01*
D11*
X12996372Y-10439984D02*
X13015420Y-10439984D01*
X13015420Y-10439984D02*
X13034467Y-10449508D01*
X13034467Y-10449508D02*
X13043991Y-10459031D01*
X13043991Y-10459031D02*
X13053515Y-10478079D01*
X13053515Y-10478079D02*
X13063039Y-10516174D01*
X13063039Y-10516174D02*
X13063039Y-10563793D01*
X13063039Y-10563793D02*
X13053515Y-10601889D01*
X13053515Y-10601889D02*
X13043991Y-10620936D01*
X13043991Y-10620936D02*
X13034467Y-10630460D01*
X13034467Y-10630460D02*
X13015420Y-10639984D01*
X13015420Y-10639984D02*
X12996372Y-10639984D01*
X12996372Y-10639984D02*
X12977324Y-10630460D01*
X12977324Y-10630460D02*
X12967801Y-10620936D01*
X12967801Y-10620936D02*
X12958277Y-10601889D01*
X12958277Y-10601889D02*
X12948753Y-10563793D01*
X12948753Y-10563793D02*
X12948753Y-10516174D01*
X12948753Y-10516174D02*
X12958277Y-10478079D01*
X12958277Y-10478079D02*
X12967801Y-10459031D01*
X12967801Y-10459031D02*
X12977324Y-10449508D01*
X12977324Y-10449508D02*
X12996372Y-10439984D01*
X13148753Y-10620936D02*
X13158277Y-10630460D01*
X13158277Y-10630460D02*
X13148753Y-10639984D01*
X13148753Y-10639984D02*
X13139229Y-10630460D01*
X13139229Y-10630460D02*
X13148753Y-10620936D01*
X13148753Y-10620936D02*
X13148753Y-10639984D01*
X13224943Y-10439984D02*
X13348753Y-10439984D01*
X13348753Y-10439984D02*
X13282086Y-10516174D01*
X13282086Y-10516174D02*
X13310658Y-10516174D01*
X13310658Y-10516174D02*
X13329705Y-10525698D01*
X13329705Y-10525698D02*
X13339229Y-10535222D01*
X13339229Y-10535222D02*
X13348753Y-10554270D01*
X13348753Y-10554270D02*
X13348753Y-10601889D01*
X13348753Y-10601889D02*
X13339229Y-10620936D01*
X13339229Y-10620936D02*
X13329705Y-10630460D01*
X13329705Y-10630460D02*
X13310658Y-10639984D01*
X13310658Y-10639984D02*
X13253515Y-10639984D01*
X13253515Y-10639984D02*
X13234467Y-10630460D01*
X13234467Y-10630460D02*
X13224943Y-10620936D01*
X13472562Y-10439984D02*
X13491610Y-10439984D01*
X13491610Y-10439984D02*
X13510658Y-10449508D01*
X13510658Y-10449508D02*
X13520182Y-10459031D01*
X13520182Y-10459031D02*
X13529705Y-10478079D01*
X13529705Y-10478079D02*
X13539229Y-10516174D01*
X13539229Y-10516174D02*
X13539229Y-10563793D01*
X13539229Y-10563793D02*
X13529705Y-10601889D01*
X13529705Y-10601889D02*
X13520182Y-10620936D01*
X13520182Y-10620936D02*
X13510658Y-10630460D01*
X13510658Y-10630460D02*
X13491610Y-10639984D01*
X13491610Y-10639984D02*
X13472562Y-10639984D01*
X13472562Y-10639984D02*
X13453515Y-10630460D01*
X13453515Y-10630460D02*
X13443991Y-10620936D01*
X13443991Y-10620936D02*
X13434467Y-10601889D01*
X13434467Y-10601889D02*
X13424943Y-10563793D01*
X13424943Y-10563793D02*
X13424943Y-10516174D01*
X13424943Y-10516174D02*
X13434467Y-10478079D01*
X13434467Y-10478079D02*
X13443991Y-10459031D01*
X13443991Y-10459031D02*
X13453515Y-10449508D01*
X13453515Y-10449508D02*
X13472562Y-10439984D01*
X13663039Y-10439984D02*
X13682086Y-10439984D01*
X13682086Y-10439984D02*
X13701134Y-10449508D01*
X13701134Y-10449508D02*
X13710658Y-10459031D01*
X13710658Y-10459031D02*
X13720182Y-10478079D01*
X13720182Y-10478079D02*
X13729705Y-10516174D01*
X13729705Y-10516174D02*
X13729705Y-10563793D01*
X13729705Y-10563793D02*
X13720182Y-10601889D01*
X13720182Y-10601889D02*
X13710658Y-10620936D01*
X13710658Y-10620936D02*
X13701134Y-10630460D01*
X13701134Y-10630460D02*
X13682086Y-10639984D01*
X13682086Y-10639984D02*
X13663039Y-10639984D01*
X13663039Y-10639984D02*
X13643991Y-10630460D01*
X13643991Y-10630460D02*
X13634467Y-10620936D01*
X13634467Y-10620936D02*
X13624943Y-10601889D01*
X13624943Y-10601889D02*
X13615420Y-10563793D01*
X13615420Y-10563793D02*
X13615420Y-10516174D01*
X13615420Y-10516174D02*
X13624943Y-10478079D01*
X13624943Y-10478079D02*
X13634467Y-10459031D01*
X13634467Y-10459031D02*
X13643991Y-10449508D01*
X13643991Y-10449508D02*
X13663039Y-10439984D01*
X13815420Y-10639984D02*
X13815420Y-10506650D01*
X13815420Y-10525698D02*
X13824943Y-10516174D01*
X13824943Y-10516174D02*
X13843991Y-10506650D01*
X13843991Y-10506650D02*
X13872563Y-10506650D01*
X13872563Y-10506650D02*
X13891610Y-10516174D01*
X13891610Y-10516174D02*
X13901134Y-10535222D01*
X13901134Y-10535222D02*
X13901134Y-10639984D01*
X13901134Y-10535222D02*
X13910658Y-10516174D01*
X13910658Y-10516174D02*
X13929705Y-10506650D01*
X13929705Y-10506650D02*
X13958277Y-10506650D01*
X13958277Y-10506650D02*
X13977324Y-10516174D01*
X13977324Y-10516174D02*
X13986848Y-10535222D01*
X13986848Y-10535222D02*
X13986848Y-10639984D01*
X14082086Y-10639984D02*
X14082086Y-10506650D01*
X14082086Y-10525698D02*
X14091610Y-10516174D01*
X14091610Y-10516174D02*
X14110658Y-10506650D01*
X14110658Y-10506650D02*
X14139229Y-10506650D01*
X14139229Y-10506650D02*
X14158277Y-10516174D01*
X14158277Y-10516174D02*
X14167801Y-10535222D01*
X14167801Y-10535222D02*
X14167801Y-10639984D01*
X14167801Y-10535222D02*
X14177324Y-10516174D01*
X14177324Y-10516174D02*
X14196372Y-10506650D01*
X14196372Y-10506650D02*
X14224943Y-10506650D01*
X14224943Y-10506650D02*
X14243991Y-10516174D01*
X14243991Y-10516174D02*
X14253515Y-10535222D01*
X14253515Y-10535222D02*
X14253515Y-10639984D01*
X14643991Y-10430460D02*
X14472563Y-10687603D01*
X14901134Y-10439984D02*
X14920182Y-10439984D01*
X14920182Y-10439984D02*
X14939229Y-10449508D01*
X14939229Y-10449508D02*
X14948753Y-10459031D01*
X14948753Y-10459031D02*
X14958277Y-10478079D01*
X14958277Y-10478079D02*
X14967801Y-10516174D01*
X14967801Y-10516174D02*
X14967801Y-10563793D01*
X14967801Y-10563793D02*
X14958277Y-10601889D01*
X14958277Y-10601889D02*
X14948753Y-10620936D01*
X14948753Y-10620936D02*
X14939229Y-10630460D01*
X14939229Y-10630460D02*
X14920182Y-10639984D01*
X14920182Y-10639984D02*
X14901134Y-10639984D01*
X14901134Y-10639984D02*
X14882086Y-10630460D01*
X14882086Y-10630460D02*
X14872563Y-10620936D01*
X14872563Y-10620936D02*
X14863039Y-10601889D01*
X14863039Y-10601889D02*
X14853515Y-10563793D01*
X14853515Y-10563793D02*
X14853515Y-10516174D01*
X14853515Y-10516174D02*
X14863039Y-10478079D01*
X14863039Y-10478079D02*
X14872563Y-10459031D01*
X14872563Y-10459031D02*
X14882086Y-10449508D01*
X14882086Y-10449508D02*
X14901134Y-10439984D01*
X15053515Y-10620936D02*
X15063039Y-10630460D01*
X15063039Y-10630460D02*
X15053515Y-10639984D01*
X15053515Y-10639984D02*
X15043991Y-10630460D01*
X15043991Y-10630460D02*
X15053515Y-10620936D01*
X15053515Y-10620936D02*
X15053515Y-10639984D01*
X15186848Y-10439984D02*
X15205896Y-10439984D01*
X15205896Y-10439984D02*
X15224944Y-10449508D01*
X15224944Y-10449508D02*
X15234467Y-10459031D01*
X15234467Y-10459031D02*
X15243991Y-10478079D01*
X15243991Y-10478079D02*
X15253515Y-10516174D01*
X15253515Y-10516174D02*
X15253515Y-10563793D01*
X15253515Y-10563793D02*
X15243991Y-10601889D01*
X15243991Y-10601889D02*
X15234467Y-10620936D01*
X15234467Y-10620936D02*
X15224944Y-10630460D01*
X15224944Y-10630460D02*
X15205896Y-10639984D01*
X15205896Y-10639984D02*
X15186848Y-10639984D01*
X15186848Y-10639984D02*
X15167801Y-10630460D01*
X15167801Y-10630460D02*
X15158277Y-10620936D01*
X15158277Y-10620936D02*
X15148753Y-10601889D01*
X15148753Y-10601889D02*
X15139229Y-10563793D01*
X15139229Y-10563793D02*
X15139229Y-10516174D01*
X15139229Y-10516174D02*
X15148753Y-10478079D01*
X15148753Y-10478079D02*
X15158277Y-10459031D01*
X15158277Y-10459031D02*
X15167801Y-10449508D01*
X15167801Y-10449508D02*
X15186848Y-10439984D01*
X15443991Y-10639984D02*
X15329706Y-10639984D01*
X15386848Y-10639984D02*
X15386848Y-10439984D01*
X15386848Y-10439984D02*
X15367801Y-10468555D01*
X15367801Y-10468555D02*
X15348753Y-10487603D01*
X15348753Y-10487603D02*
X15329706Y-10497127D01*
X15634467Y-10639984D02*
X15520182Y-10639984D01*
X15577325Y-10639984D02*
X15577325Y-10439984D01*
X15577325Y-10439984D02*
X15558277Y-10468555D01*
X15558277Y-10468555D02*
X15539229Y-10487603D01*
X15539229Y-10487603D02*
X15520182Y-10497127D01*
X15748753Y-10525698D02*
X15729706Y-10516174D01*
X15729706Y-10516174D02*
X15720182Y-10506650D01*
X15720182Y-10506650D02*
X15710658Y-10487603D01*
X15710658Y-10487603D02*
X15710658Y-10478079D01*
X15710658Y-10478079D02*
X15720182Y-10459031D01*
X15720182Y-10459031D02*
X15729706Y-10449508D01*
X15729706Y-10449508D02*
X15748753Y-10439984D01*
X15748753Y-10439984D02*
X15786848Y-10439984D01*
X15786848Y-10439984D02*
X15805896Y-10449508D01*
X15805896Y-10449508D02*
X15815420Y-10459031D01*
X15815420Y-10459031D02*
X15824944Y-10478079D01*
X15824944Y-10478079D02*
X15824944Y-10487603D01*
X15824944Y-10487603D02*
X15815420Y-10506650D01*
X15815420Y-10506650D02*
X15805896Y-10516174D01*
X15805896Y-10516174D02*
X15786848Y-10525698D01*
X15786848Y-10525698D02*
X15748753Y-10525698D01*
X15748753Y-10525698D02*
X15729706Y-10535222D01*
X15729706Y-10535222D02*
X15720182Y-10544746D01*
X15720182Y-10544746D02*
X15710658Y-10563793D01*
X15710658Y-10563793D02*
X15710658Y-10601889D01*
X15710658Y-10601889D02*
X15720182Y-10620936D01*
X15720182Y-10620936D02*
X15729706Y-10630460D01*
X15729706Y-10630460D02*
X15748753Y-10639984D01*
X15748753Y-10639984D02*
X15786848Y-10639984D01*
X15786848Y-10639984D02*
X15805896Y-10630460D01*
X15805896Y-10630460D02*
X15815420Y-10620936D01*
X15815420Y-10620936D02*
X15824944Y-10601889D01*
X15824944Y-10601889D02*
X15824944Y-10563793D01*
X15824944Y-10563793D02*
X15815420Y-10544746D01*
X15815420Y-10544746D02*
X15805896Y-10535222D01*
X15805896Y-10535222D02*
X15786848Y-10525698D01*
X15901134Y-10439984D02*
X15901134Y-10478079D01*
X15977325Y-10439984D02*
X15977325Y-10478079D01*
X16272563Y-10716174D02*
X16263039Y-10706650D01*
X16263039Y-10706650D02*
X16243991Y-10678079D01*
X16243991Y-10678079D02*
X16234468Y-10659031D01*
X16234468Y-10659031D02*
X16224944Y-10630460D01*
X16224944Y-10630460D02*
X16215420Y-10582841D01*
X16215420Y-10582841D02*
X16215420Y-10544746D01*
X16215420Y-10544746D02*
X16224944Y-10497127D01*
X16224944Y-10497127D02*
X16234468Y-10468555D01*
X16234468Y-10468555D02*
X16243991Y-10449508D01*
X16243991Y-10449508D02*
X16263039Y-10420936D01*
X16263039Y-10420936D02*
X16272563Y-10411412D01*
X16434468Y-10506650D02*
X16434468Y-10639984D01*
X16386848Y-10430460D02*
X16339229Y-10573317D01*
X16339229Y-10573317D02*
X16463039Y-10573317D01*
X16634468Y-10439984D02*
X16539229Y-10439984D01*
X16539229Y-10439984D02*
X16529706Y-10535222D01*
X16529706Y-10535222D02*
X16539229Y-10525698D01*
X16539229Y-10525698D02*
X16558277Y-10516174D01*
X16558277Y-10516174D02*
X16605896Y-10516174D01*
X16605896Y-10516174D02*
X16624944Y-10525698D01*
X16624944Y-10525698D02*
X16634468Y-10535222D01*
X16634468Y-10535222D02*
X16643991Y-10554270D01*
X16643991Y-10554270D02*
X16643991Y-10601889D01*
X16643991Y-10601889D02*
X16634468Y-10620936D01*
X16634468Y-10620936D02*
X16624944Y-10630460D01*
X16624944Y-10630460D02*
X16605896Y-10639984D01*
X16605896Y-10639984D02*
X16558277Y-10639984D01*
X16558277Y-10639984D02*
X16539229Y-10630460D01*
X16539229Y-10630460D02*
X16529706Y-10620936D01*
X16882087Y-10639984D02*
X16882087Y-10439984D01*
X16967801Y-10639984D02*
X16967801Y-10535222D01*
X16967801Y-10535222D02*
X16958277Y-10516174D01*
X16958277Y-10516174D02*
X16939230Y-10506650D01*
X16939230Y-10506650D02*
X16910658Y-10506650D01*
X16910658Y-10506650D02*
X16891611Y-10516174D01*
X16891611Y-10516174D02*
X16882087Y-10525698D01*
X17091611Y-10639984D02*
X17072563Y-10630460D01*
X17072563Y-10630460D02*
X17063039Y-10620936D01*
X17063039Y-10620936D02*
X17053515Y-10601889D01*
X17053515Y-10601889D02*
X17053515Y-10544746D01*
X17053515Y-10544746D02*
X17063039Y-10525698D01*
X17063039Y-10525698D02*
X17072563Y-10516174D01*
X17072563Y-10516174D02*
X17091611Y-10506650D01*
X17091611Y-10506650D02*
X17120182Y-10506650D01*
X17120182Y-10506650D02*
X17139230Y-10516174D01*
X17139230Y-10516174D02*
X17148753Y-10525698D01*
X17148753Y-10525698D02*
X17158277Y-10544746D01*
X17158277Y-10544746D02*
X17158277Y-10601889D01*
X17158277Y-10601889D02*
X17148753Y-10620936D01*
X17148753Y-10620936D02*
X17139230Y-10630460D01*
X17139230Y-10630460D02*
X17120182Y-10639984D01*
X17120182Y-10639984D02*
X17091611Y-10639984D01*
X17272563Y-10639984D02*
X17253515Y-10630460D01*
X17253515Y-10630460D02*
X17243992Y-10611412D01*
X17243992Y-10611412D02*
X17243992Y-10439984D01*
X17424944Y-10630460D02*
X17405896Y-10639984D01*
X17405896Y-10639984D02*
X17367801Y-10639984D01*
X17367801Y-10639984D02*
X17348753Y-10630460D01*
X17348753Y-10630460D02*
X17339230Y-10611412D01*
X17339230Y-10611412D02*
X17339230Y-10535222D01*
X17339230Y-10535222D02*
X17348753Y-10516174D01*
X17348753Y-10516174D02*
X17367801Y-10506650D01*
X17367801Y-10506650D02*
X17405896Y-10506650D01*
X17405896Y-10506650D02*
X17424944Y-10516174D01*
X17424944Y-10516174D02*
X17434468Y-10535222D01*
X17434468Y-10535222D02*
X17434468Y-10554270D01*
X17434468Y-10554270D02*
X17339230Y-10573317D01*
X17510658Y-10630460D02*
X17529706Y-10639984D01*
X17529706Y-10639984D02*
X17567801Y-10639984D01*
X17567801Y-10639984D02*
X17586849Y-10630460D01*
X17586849Y-10630460D02*
X17596373Y-10611412D01*
X17596373Y-10611412D02*
X17596373Y-10601889D01*
X17596373Y-10601889D02*
X17586849Y-10582841D01*
X17586849Y-10582841D02*
X17567801Y-10573317D01*
X17567801Y-10573317D02*
X17539230Y-10573317D01*
X17539230Y-10573317D02*
X17520182Y-10563793D01*
X17520182Y-10563793D02*
X17510658Y-10544746D01*
X17510658Y-10544746D02*
X17510658Y-10535222D01*
X17510658Y-10535222D02*
X17520182Y-10516174D01*
X17520182Y-10516174D02*
X17539230Y-10506650D01*
X17539230Y-10506650D02*
X17567801Y-10506650D01*
X17567801Y-10506650D02*
X17586849Y-10516174D01*
X17663039Y-10716174D02*
X17672563Y-10706650D01*
X17672563Y-10706650D02*
X17691611Y-10678079D01*
X17691611Y-10678079D02*
X17701134Y-10659031D01*
X17701134Y-10659031D02*
X17710658Y-10630460D01*
X17710658Y-10630460D02*
X17720182Y-10582841D01*
X17720182Y-10582841D02*
X17720182Y-10544746D01*
X17720182Y-10544746D02*
X17710658Y-10497127D01*
X17710658Y-10497127D02*
X17701134Y-10468555D01*
X17701134Y-10468555D02*
X17691611Y-10449508D01*
X17691611Y-10449508D02*
X17672563Y-10420936D01*
X17672563Y-10420936D02*
X17663039Y-10411412D01*
D12*
X12697500Y-10812500D02*
G75*
G02*
X12637500Y-10812500I-30000J0D01*
G01*
X12637500Y-10812500D02*
G75*
G02*
X12697500Y-10812500I30000J0D01*
G01*
D11*
X12996372Y-10703984D02*
X13015420Y-10703984D01*
X13015420Y-10703984D02*
X13034467Y-10713508D01*
X13034467Y-10713508D02*
X13043991Y-10723031D01*
X13043991Y-10723031D02*
X13053515Y-10742079D01*
X13053515Y-10742079D02*
X13063039Y-10780174D01*
X13063039Y-10780174D02*
X13063039Y-10827793D01*
X13063039Y-10827793D02*
X13053515Y-10865889D01*
X13053515Y-10865889D02*
X13043991Y-10884936D01*
X13043991Y-10884936D02*
X13034467Y-10894460D01*
X13034467Y-10894460D02*
X13015420Y-10903984D01*
X13015420Y-10903984D02*
X12996372Y-10903984D01*
X12996372Y-10903984D02*
X12977324Y-10894460D01*
X12977324Y-10894460D02*
X12967801Y-10884936D01*
X12967801Y-10884936D02*
X12958277Y-10865889D01*
X12958277Y-10865889D02*
X12948753Y-10827793D01*
X12948753Y-10827793D02*
X12948753Y-10780174D01*
X12948753Y-10780174D02*
X12958277Y-10742079D01*
X12958277Y-10742079D02*
X12967801Y-10723031D01*
X12967801Y-10723031D02*
X12977324Y-10713508D01*
X12977324Y-10713508D02*
X12996372Y-10703984D01*
X13148753Y-10884936D02*
X13158277Y-10894460D01*
X13158277Y-10894460D02*
X13148753Y-10903984D01*
X13148753Y-10903984D02*
X13139229Y-10894460D01*
X13139229Y-10894460D02*
X13148753Y-10884936D01*
X13148753Y-10884936D02*
X13148753Y-10903984D01*
X13329705Y-10703984D02*
X13291610Y-10703984D01*
X13291610Y-10703984D02*
X13272562Y-10713508D01*
X13272562Y-10713508D02*
X13263039Y-10723031D01*
X13263039Y-10723031D02*
X13243991Y-10751603D01*
X13243991Y-10751603D02*
X13234467Y-10789698D01*
X13234467Y-10789698D02*
X13234467Y-10865889D01*
X13234467Y-10865889D02*
X13243991Y-10884936D01*
X13243991Y-10884936D02*
X13253515Y-10894460D01*
X13253515Y-10894460D02*
X13272562Y-10903984D01*
X13272562Y-10903984D02*
X13310658Y-10903984D01*
X13310658Y-10903984D02*
X13329705Y-10894460D01*
X13329705Y-10894460D02*
X13339229Y-10884936D01*
X13339229Y-10884936D02*
X13348753Y-10865889D01*
X13348753Y-10865889D02*
X13348753Y-10818270D01*
X13348753Y-10818270D02*
X13339229Y-10799222D01*
X13339229Y-10799222D02*
X13329705Y-10789698D01*
X13329705Y-10789698D02*
X13310658Y-10780174D01*
X13310658Y-10780174D02*
X13272562Y-10780174D01*
X13272562Y-10780174D02*
X13253515Y-10789698D01*
X13253515Y-10789698D02*
X13243991Y-10799222D01*
X13243991Y-10799222D02*
X13234467Y-10818270D01*
X13472562Y-10703984D02*
X13491610Y-10703984D01*
X13491610Y-10703984D02*
X13510658Y-10713508D01*
X13510658Y-10713508D02*
X13520182Y-10723031D01*
X13520182Y-10723031D02*
X13529705Y-10742079D01*
X13529705Y-10742079D02*
X13539229Y-10780174D01*
X13539229Y-10780174D02*
X13539229Y-10827793D01*
X13539229Y-10827793D02*
X13529705Y-10865889D01*
X13529705Y-10865889D02*
X13520182Y-10884936D01*
X13520182Y-10884936D02*
X13510658Y-10894460D01*
X13510658Y-10894460D02*
X13491610Y-10903984D01*
X13491610Y-10903984D02*
X13472562Y-10903984D01*
X13472562Y-10903984D02*
X13453515Y-10894460D01*
X13453515Y-10894460D02*
X13443991Y-10884936D01*
X13443991Y-10884936D02*
X13434467Y-10865889D01*
X13434467Y-10865889D02*
X13424943Y-10827793D01*
X13424943Y-10827793D02*
X13424943Y-10780174D01*
X13424943Y-10780174D02*
X13434467Y-10742079D01*
X13434467Y-10742079D02*
X13443991Y-10723031D01*
X13443991Y-10723031D02*
X13453515Y-10713508D01*
X13453515Y-10713508D02*
X13472562Y-10703984D01*
X13663039Y-10703984D02*
X13682086Y-10703984D01*
X13682086Y-10703984D02*
X13701134Y-10713508D01*
X13701134Y-10713508D02*
X13710658Y-10723031D01*
X13710658Y-10723031D02*
X13720182Y-10742079D01*
X13720182Y-10742079D02*
X13729705Y-10780174D01*
X13729705Y-10780174D02*
X13729705Y-10827793D01*
X13729705Y-10827793D02*
X13720182Y-10865889D01*
X13720182Y-10865889D02*
X13710658Y-10884936D01*
X13710658Y-10884936D02*
X13701134Y-10894460D01*
X13701134Y-10894460D02*
X13682086Y-10903984D01*
X13682086Y-10903984D02*
X13663039Y-10903984D01*
X13663039Y-10903984D02*
X13643991Y-10894460D01*
X13643991Y-10894460D02*
X13634467Y-10884936D01*
X13634467Y-10884936D02*
X13624943Y-10865889D01*
X13624943Y-10865889D02*
X13615420Y-10827793D01*
X13615420Y-10827793D02*
X13615420Y-10780174D01*
X13615420Y-10780174D02*
X13624943Y-10742079D01*
X13624943Y-10742079D02*
X13634467Y-10723031D01*
X13634467Y-10723031D02*
X13643991Y-10713508D01*
X13643991Y-10713508D02*
X13663039Y-10703984D01*
X13815420Y-10903984D02*
X13815420Y-10770650D01*
X13815420Y-10789698D02*
X13824943Y-10780174D01*
X13824943Y-10780174D02*
X13843991Y-10770650D01*
X13843991Y-10770650D02*
X13872563Y-10770650D01*
X13872563Y-10770650D02*
X13891610Y-10780174D01*
X13891610Y-10780174D02*
X13901134Y-10799222D01*
X13901134Y-10799222D02*
X13901134Y-10903984D01*
X13901134Y-10799222D02*
X13910658Y-10780174D01*
X13910658Y-10780174D02*
X13929705Y-10770650D01*
X13929705Y-10770650D02*
X13958277Y-10770650D01*
X13958277Y-10770650D02*
X13977324Y-10780174D01*
X13977324Y-10780174D02*
X13986848Y-10799222D01*
X13986848Y-10799222D02*
X13986848Y-10903984D01*
X14082086Y-10903984D02*
X14082086Y-10770650D01*
X14082086Y-10789698D02*
X14091610Y-10780174D01*
X14091610Y-10780174D02*
X14110658Y-10770650D01*
X14110658Y-10770650D02*
X14139229Y-10770650D01*
X14139229Y-10770650D02*
X14158277Y-10780174D01*
X14158277Y-10780174D02*
X14167801Y-10799222D01*
X14167801Y-10799222D02*
X14167801Y-10903984D01*
X14167801Y-10799222D02*
X14177324Y-10780174D01*
X14177324Y-10780174D02*
X14196372Y-10770650D01*
X14196372Y-10770650D02*
X14224943Y-10770650D01*
X14224943Y-10770650D02*
X14243991Y-10780174D01*
X14243991Y-10780174D02*
X14253515Y-10799222D01*
X14253515Y-10799222D02*
X14253515Y-10903984D01*
X14643991Y-10694460D02*
X14472563Y-10951603D01*
X14901134Y-10703984D02*
X14920182Y-10703984D01*
X14920182Y-10703984D02*
X14939229Y-10713508D01*
X14939229Y-10713508D02*
X14948753Y-10723031D01*
X14948753Y-10723031D02*
X14958277Y-10742079D01*
X14958277Y-10742079D02*
X14967801Y-10780174D01*
X14967801Y-10780174D02*
X14967801Y-10827793D01*
X14967801Y-10827793D02*
X14958277Y-10865889D01*
X14958277Y-10865889D02*
X14948753Y-10884936D01*
X14948753Y-10884936D02*
X14939229Y-10894460D01*
X14939229Y-10894460D02*
X14920182Y-10903984D01*
X14920182Y-10903984D02*
X14901134Y-10903984D01*
X14901134Y-10903984D02*
X14882086Y-10894460D01*
X14882086Y-10894460D02*
X14872563Y-10884936D01*
X14872563Y-10884936D02*
X14863039Y-10865889D01*
X14863039Y-10865889D02*
X14853515Y-10827793D01*
X14853515Y-10827793D02*
X14853515Y-10780174D01*
X14853515Y-10780174D02*
X14863039Y-10742079D01*
X14863039Y-10742079D02*
X14872563Y-10723031D01*
X14872563Y-10723031D02*
X14882086Y-10713508D01*
X14882086Y-10713508D02*
X14901134Y-10703984D01*
X15053515Y-10884936D02*
X15063039Y-10894460D01*
X15063039Y-10894460D02*
X15053515Y-10903984D01*
X15053515Y-10903984D02*
X15043991Y-10894460D01*
X15043991Y-10894460D02*
X15053515Y-10884936D01*
X15053515Y-10884936D02*
X15053515Y-10903984D01*
X15186848Y-10703984D02*
X15205896Y-10703984D01*
X15205896Y-10703984D02*
X15224944Y-10713508D01*
X15224944Y-10713508D02*
X15234467Y-10723031D01*
X15234467Y-10723031D02*
X15243991Y-10742079D01*
X15243991Y-10742079D02*
X15253515Y-10780174D01*
X15253515Y-10780174D02*
X15253515Y-10827793D01*
X15253515Y-10827793D02*
X15243991Y-10865889D01*
X15243991Y-10865889D02*
X15234467Y-10884936D01*
X15234467Y-10884936D02*
X15224944Y-10894460D01*
X15224944Y-10894460D02*
X15205896Y-10903984D01*
X15205896Y-10903984D02*
X15186848Y-10903984D01*
X15186848Y-10903984D02*
X15167801Y-10894460D01*
X15167801Y-10894460D02*
X15158277Y-10884936D01*
X15158277Y-10884936D02*
X15148753Y-10865889D01*
X15148753Y-10865889D02*
X15139229Y-10827793D01*
X15139229Y-10827793D02*
X15139229Y-10780174D01*
X15139229Y-10780174D02*
X15148753Y-10742079D01*
X15148753Y-10742079D02*
X15158277Y-10723031D01*
X15158277Y-10723031D02*
X15167801Y-10713508D01*
X15167801Y-10713508D02*
X15186848Y-10703984D01*
X15329706Y-10723031D02*
X15339229Y-10713508D01*
X15339229Y-10713508D02*
X15358277Y-10703984D01*
X15358277Y-10703984D02*
X15405896Y-10703984D01*
X15405896Y-10703984D02*
X15424944Y-10713508D01*
X15424944Y-10713508D02*
X15434467Y-10723031D01*
X15434467Y-10723031D02*
X15443991Y-10742079D01*
X15443991Y-10742079D02*
X15443991Y-10761127D01*
X15443991Y-10761127D02*
X15434467Y-10789698D01*
X15434467Y-10789698D02*
X15320182Y-10903984D01*
X15320182Y-10903984D02*
X15443991Y-10903984D01*
X15510658Y-10703984D02*
X15634467Y-10703984D01*
X15634467Y-10703984D02*
X15567801Y-10780174D01*
X15567801Y-10780174D02*
X15596372Y-10780174D01*
X15596372Y-10780174D02*
X15615420Y-10789698D01*
X15615420Y-10789698D02*
X15624944Y-10799222D01*
X15624944Y-10799222D02*
X15634467Y-10818270D01*
X15634467Y-10818270D02*
X15634467Y-10865889D01*
X15634467Y-10865889D02*
X15624944Y-10884936D01*
X15624944Y-10884936D02*
X15615420Y-10894460D01*
X15615420Y-10894460D02*
X15596372Y-10903984D01*
X15596372Y-10903984D02*
X15539229Y-10903984D01*
X15539229Y-10903984D02*
X15520182Y-10894460D01*
X15520182Y-10894460D02*
X15510658Y-10884936D01*
X15805896Y-10703984D02*
X15767801Y-10703984D01*
X15767801Y-10703984D02*
X15748753Y-10713508D01*
X15748753Y-10713508D02*
X15739229Y-10723031D01*
X15739229Y-10723031D02*
X15720182Y-10751603D01*
X15720182Y-10751603D02*
X15710658Y-10789698D01*
X15710658Y-10789698D02*
X15710658Y-10865889D01*
X15710658Y-10865889D02*
X15720182Y-10884936D01*
X15720182Y-10884936D02*
X15729706Y-10894460D01*
X15729706Y-10894460D02*
X15748753Y-10903984D01*
X15748753Y-10903984D02*
X15786848Y-10903984D01*
X15786848Y-10903984D02*
X15805896Y-10894460D01*
X15805896Y-10894460D02*
X15815420Y-10884936D01*
X15815420Y-10884936D02*
X15824944Y-10865889D01*
X15824944Y-10865889D02*
X15824944Y-10818270D01*
X15824944Y-10818270D02*
X15815420Y-10799222D01*
X15815420Y-10799222D02*
X15805896Y-10789698D01*
X15805896Y-10789698D02*
X15786848Y-10780174D01*
X15786848Y-10780174D02*
X15748753Y-10780174D01*
X15748753Y-10780174D02*
X15729706Y-10789698D01*
X15729706Y-10789698D02*
X15720182Y-10799222D01*
X15720182Y-10799222D02*
X15710658Y-10818270D01*
X15901134Y-10703984D02*
X15901134Y-10742079D01*
X15977325Y-10703984D02*
X15977325Y-10742079D01*
X16272563Y-10980174D02*
X16263039Y-10970650D01*
X16263039Y-10970650D02*
X16243991Y-10942079D01*
X16243991Y-10942079D02*
X16234468Y-10923031D01*
X16234468Y-10923031D02*
X16224944Y-10894460D01*
X16224944Y-10894460D02*
X16215420Y-10846841D01*
X16215420Y-10846841D02*
X16215420Y-10808746D01*
X16215420Y-10808746D02*
X16224944Y-10761127D01*
X16224944Y-10761127D02*
X16234468Y-10732555D01*
X16234468Y-10732555D02*
X16243991Y-10713508D01*
X16243991Y-10713508D02*
X16263039Y-10684936D01*
X16263039Y-10684936D02*
X16272563Y-10675412D01*
X16386848Y-10703984D02*
X16405896Y-10703984D01*
X16405896Y-10703984D02*
X16424944Y-10713508D01*
X16424944Y-10713508D02*
X16434468Y-10723031D01*
X16434468Y-10723031D02*
X16443991Y-10742079D01*
X16443991Y-10742079D02*
X16453515Y-10780174D01*
X16453515Y-10780174D02*
X16453515Y-10827793D01*
X16453515Y-10827793D02*
X16443991Y-10865889D01*
X16443991Y-10865889D02*
X16434468Y-10884936D01*
X16434468Y-10884936D02*
X16424944Y-10894460D01*
X16424944Y-10894460D02*
X16405896Y-10903984D01*
X16405896Y-10903984D02*
X16386848Y-10903984D01*
X16386848Y-10903984D02*
X16367801Y-10894460D01*
X16367801Y-10894460D02*
X16358277Y-10884936D01*
X16358277Y-10884936D02*
X16348753Y-10865889D01*
X16348753Y-10865889D02*
X16339229Y-10827793D01*
X16339229Y-10827793D02*
X16339229Y-10780174D01*
X16339229Y-10780174D02*
X16348753Y-10742079D01*
X16348753Y-10742079D02*
X16358277Y-10723031D01*
X16358277Y-10723031D02*
X16367801Y-10713508D01*
X16367801Y-10713508D02*
X16386848Y-10703984D01*
X16691610Y-10903984D02*
X16691610Y-10703984D01*
X16777325Y-10903984D02*
X16777325Y-10799222D01*
X16777325Y-10799222D02*
X16767801Y-10780174D01*
X16767801Y-10780174D02*
X16748753Y-10770650D01*
X16748753Y-10770650D02*
X16720182Y-10770650D01*
X16720182Y-10770650D02*
X16701134Y-10780174D01*
X16701134Y-10780174D02*
X16691610Y-10789698D01*
X16901134Y-10903984D02*
X16882087Y-10894460D01*
X16882087Y-10894460D02*
X16872563Y-10884936D01*
X16872563Y-10884936D02*
X16863039Y-10865889D01*
X16863039Y-10865889D02*
X16863039Y-10808746D01*
X16863039Y-10808746D02*
X16872563Y-10789698D01*
X16872563Y-10789698D02*
X16882087Y-10780174D01*
X16882087Y-10780174D02*
X16901134Y-10770650D01*
X16901134Y-10770650D02*
X16929706Y-10770650D01*
X16929706Y-10770650D02*
X16948753Y-10780174D01*
X16948753Y-10780174D02*
X16958277Y-10789698D01*
X16958277Y-10789698D02*
X16967801Y-10808746D01*
X16967801Y-10808746D02*
X16967801Y-10865889D01*
X16967801Y-10865889D02*
X16958277Y-10884936D01*
X16958277Y-10884936D02*
X16948753Y-10894460D01*
X16948753Y-10894460D02*
X16929706Y-10903984D01*
X16929706Y-10903984D02*
X16901134Y-10903984D01*
X17082087Y-10903984D02*
X17063039Y-10894460D01*
X17063039Y-10894460D02*
X17053515Y-10875412D01*
X17053515Y-10875412D02*
X17053515Y-10703984D01*
X17234468Y-10894460D02*
X17215420Y-10903984D01*
X17215420Y-10903984D02*
X17177325Y-10903984D01*
X17177325Y-10903984D02*
X17158277Y-10894460D01*
X17158277Y-10894460D02*
X17148753Y-10875412D01*
X17148753Y-10875412D02*
X17148753Y-10799222D01*
X17148753Y-10799222D02*
X17158277Y-10780174D01*
X17158277Y-10780174D02*
X17177325Y-10770650D01*
X17177325Y-10770650D02*
X17215420Y-10770650D01*
X17215420Y-10770650D02*
X17234468Y-10780174D01*
X17234468Y-10780174D02*
X17243992Y-10799222D01*
X17243992Y-10799222D02*
X17243992Y-10818270D01*
X17243992Y-10818270D02*
X17148753Y-10837317D01*
X17320182Y-10894460D02*
X17339230Y-10903984D01*
X17339230Y-10903984D02*
X17377325Y-10903984D01*
X17377325Y-10903984D02*
X17396373Y-10894460D01*
X17396373Y-10894460D02*
X17405896Y-10875412D01*
X17405896Y-10875412D02*
X17405896Y-10865889D01*
X17405896Y-10865889D02*
X17396373Y-10846841D01*
X17396373Y-10846841D02*
X17377325Y-10837317D01*
X17377325Y-10837317D02*
X17348753Y-10837317D01*
X17348753Y-10837317D02*
X17329706Y-10827793D01*
X17329706Y-10827793D02*
X17320182Y-10808746D01*
X17320182Y-10808746D02*
X17320182Y-10799222D01*
X17320182Y-10799222D02*
X17329706Y-10780174D01*
X17329706Y-10780174D02*
X17348753Y-10770650D01*
X17348753Y-10770650D02*
X17377325Y-10770650D01*
X17377325Y-10770650D02*
X17396373Y-10780174D01*
X17643992Y-10827793D02*
X17796373Y-10827793D01*
X17720182Y-10903984D02*
X17720182Y-10751603D01*
X18129706Y-10770650D02*
X18129706Y-10903984D01*
X18082087Y-10694460D02*
X18034468Y-10837317D01*
X18034468Y-10837317D02*
X18158277Y-10837317D01*
X18377325Y-10894460D02*
X18396373Y-10903984D01*
X18396373Y-10903984D02*
X18434468Y-10903984D01*
X18434468Y-10903984D02*
X18453516Y-10894460D01*
X18453516Y-10894460D02*
X18463039Y-10875412D01*
X18463039Y-10875412D02*
X18463039Y-10865889D01*
X18463039Y-10865889D02*
X18453516Y-10846841D01*
X18453516Y-10846841D02*
X18434468Y-10837317D01*
X18434468Y-10837317D02*
X18405896Y-10837317D01*
X18405896Y-10837317D02*
X18386849Y-10827793D01*
X18386849Y-10827793D02*
X18377325Y-10808746D01*
X18377325Y-10808746D02*
X18377325Y-10799222D01*
X18377325Y-10799222D02*
X18386849Y-10780174D01*
X18386849Y-10780174D02*
X18405896Y-10770650D01*
X18405896Y-10770650D02*
X18434468Y-10770650D01*
X18434468Y-10770650D02*
X18453516Y-10780174D01*
X18577325Y-10903984D02*
X18558277Y-10894460D01*
X18558277Y-10894460D02*
X18548754Y-10875412D01*
X18548754Y-10875412D02*
X18548754Y-10703984D01*
X18682087Y-10903984D02*
X18663039Y-10894460D01*
X18663039Y-10894460D02*
X18653516Y-10884936D01*
X18653516Y-10884936D02*
X18643992Y-10865889D01*
X18643992Y-10865889D02*
X18643992Y-10808746D01*
X18643992Y-10808746D02*
X18653516Y-10789698D01*
X18653516Y-10789698D02*
X18663039Y-10780174D01*
X18663039Y-10780174D02*
X18682087Y-10770650D01*
X18682087Y-10770650D02*
X18710658Y-10770650D01*
X18710658Y-10770650D02*
X18729706Y-10780174D01*
X18729706Y-10780174D02*
X18739230Y-10789698D01*
X18739230Y-10789698D02*
X18748754Y-10808746D01*
X18748754Y-10808746D02*
X18748754Y-10865889D01*
X18748754Y-10865889D02*
X18739230Y-10884936D01*
X18739230Y-10884936D02*
X18729706Y-10894460D01*
X18729706Y-10894460D02*
X18710658Y-10903984D01*
X18710658Y-10903984D02*
X18682087Y-10903984D01*
X18805897Y-10770650D02*
X18882087Y-10770650D01*
X18834468Y-10703984D02*
X18834468Y-10875412D01*
X18834468Y-10875412D02*
X18843992Y-10894460D01*
X18843992Y-10894460D02*
X18863039Y-10903984D01*
X18863039Y-10903984D02*
X18882087Y-10903984D01*
X18939230Y-10894460D02*
X18958277Y-10903984D01*
X18958277Y-10903984D02*
X18996373Y-10903984D01*
X18996373Y-10903984D02*
X19015420Y-10894460D01*
X19015420Y-10894460D02*
X19024944Y-10875412D01*
X19024944Y-10875412D02*
X19024944Y-10865889D01*
X19024944Y-10865889D02*
X19015420Y-10846841D01*
X19015420Y-10846841D02*
X18996373Y-10837317D01*
X18996373Y-10837317D02*
X18967801Y-10837317D01*
X18967801Y-10837317D02*
X18948754Y-10827793D01*
X18948754Y-10827793D02*
X18939230Y-10808746D01*
X18939230Y-10808746D02*
X18939230Y-10799222D01*
X18939230Y-10799222D02*
X18948754Y-10780174D01*
X18948754Y-10780174D02*
X18967801Y-10770650D01*
X18967801Y-10770650D02*
X18996373Y-10770650D01*
X18996373Y-10770650D02*
X19015420Y-10780174D01*
X19091611Y-10980174D02*
X19101135Y-10970650D01*
X19101135Y-10970650D02*
X19120182Y-10942079D01*
X19120182Y-10942079D02*
X19129706Y-10923031D01*
X19129706Y-10923031D02*
X19139230Y-10894460D01*
X19139230Y-10894460D02*
X19148754Y-10846841D01*
X19148754Y-10846841D02*
X19148754Y-10808746D01*
X19148754Y-10808746D02*
X19139230Y-10761127D01*
X19139230Y-10761127D02*
X19129706Y-10732555D01*
X19129706Y-10732555D02*
X19120182Y-10713508D01*
X19120182Y-10713508D02*
X19101135Y-10684936D01*
X19101135Y-10684936D02*
X19091611Y-10675412D01*
D12*
X12647500Y-11026500D02*
X12647500Y-11126500D01*
X12597500Y-11076500D02*
X12697500Y-11076500D01*
D11*
X13063039Y-11167984D02*
X12948753Y-11167984D01*
X13005896Y-11167984D02*
X13005896Y-10967984D01*
X13005896Y-10967984D02*
X12986848Y-10996555D01*
X12986848Y-10996555D02*
X12967801Y-11015603D01*
X12967801Y-11015603D02*
X12948753Y-11025127D01*
X13148753Y-11148936D02*
X13158277Y-11158460D01*
X13158277Y-11158460D02*
X13148753Y-11167984D01*
X13148753Y-11167984D02*
X13139229Y-11158460D01*
X13139229Y-11158460D02*
X13148753Y-11148936D01*
X13148753Y-11148936D02*
X13148753Y-11167984D01*
X13282086Y-10967984D02*
X13301134Y-10967984D01*
X13301134Y-10967984D02*
X13320182Y-10977508D01*
X13320182Y-10977508D02*
X13329705Y-10987031D01*
X13329705Y-10987031D02*
X13339229Y-11006079D01*
X13339229Y-11006079D02*
X13348753Y-11044174D01*
X13348753Y-11044174D02*
X13348753Y-11091793D01*
X13348753Y-11091793D02*
X13339229Y-11129889D01*
X13339229Y-11129889D02*
X13329705Y-11148936D01*
X13329705Y-11148936D02*
X13320182Y-11158460D01*
X13320182Y-11158460D02*
X13301134Y-11167984D01*
X13301134Y-11167984D02*
X13282086Y-11167984D01*
X13282086Y-11167984D02*
X13263039Y-11158460D01*
X13263039Y-11158460D02*
X13253515Y-11148936D01*
X13253515Y-11148936D02*
X13243991Y-11129889D01*
X13243991Y-11129889D02*
X13234467Y-11091793D01*
X13234467Y-11091793D02*
X13234467Y-11044174D01*
X13234467Y-11044174D02*
X13243991Y-11006079D01*
X13243991Y-11006079D02*
X13253515Y-10987031D01*
X13253515Y-10987031D02*
X13263039Y-10977508D01*
X13263039Y-10977508D02*
X13282086Y-10967984D01*
X13472562Y-10967984D02*
X13491610Y-10967984D01*
X13491610Y-10967984D02*
X13510658Y-10977508D01*
X13510658Y-10977508D02*
X13520182Y-10987031D01*
X13520182Y-10987031D02*
X13529705Y-11006079D01*
X13529705Y-11006079D02*
X13539229Y-11044174D01*
X13539229Y-11044174D02*
X13539229Y-11091793D01*
X13539229Y-11091793D02*
X13529705Y-11129889D01*
X13529705Y-11129889D02*
X13520182Y-11148936D01*
X13520182Y-11148936D02*
X13510658Y-11158460D01*
X13510658Y-11158460D02*
X13491610Y-11167984D01*
X13491610Y-11167984D02*
X13472562Y-11167984D01*
X13472562Y-11167984D02*
X13453515Y-11158460D01*
X13453515Y-11158460D02*
X13443991Y-11148936D01*
X13443991Y-11148936D02*
X13434467Y-11129889D01*
X13434467Y-11129889D02*
X13424943Y-11091793D01*
X13424943Y-11091793D02*
X13424943Y-11044174D01*
X13424943Y-11044174D02*
X13434467Y-11006079D01*
X13434467Y-11006079D02*
X13443991Y-10987031D01*
X13443991Y-10987031D02*
X13453515Y-10977508D01*
X13453515Y-10977508D02*
X13472562Y-10967984D01*
X13663039Y-10967984D02*
X13682086Y-10967984D01*
X13682086Y-10967984D02*
X13701134Y-10977508D01*
X13701134Y-10977508D02*
X13710658Y-10987031D01*
X13710658Y-10987031D02*
X13720182Y-11006079D01*
X13720182Y-11006079D02*
X13729705Y-11044174D01*
X13729705Y-11044174D02*
X13729705Y-11091793D01*
X13729705Y-11091793D02*
X13720182Y-11129889D01*
X13720182Y-11129889D02*
X13710658Y-11148936D01*
X13710658Y-11148936D02*
X13701134Y-11158460D01*
X13701134Y-11158460D02*
X13682086Y-11167984D01*
X13682086Y-11167984D02*
X13663039Y-11167984D01*
X13663039Y-11167984D02*
X13643991Y-11158460D01*
X13643991Y-11158460D02*
X13634467Y-11148936D01*
X13634467Y-11148936D02*
X13624943Y-11129889D01*
X13624943Y-11129889D02*
X13615420Y-11091793D01*
X13615420Y-11091793D02*
X13615420Y-11044174D01*
X13615420Y-11044174D02*
X13624943Y-11006079D01*
X13624943Y-11006079D02*
X13634467Y-10987031D01*
X13634467Y-10987031D02*
X13643991Y-10977508D01*
X13643991Y-10977508D02*
X13663039Y-10967984D01*
X13815420Y-11167984D02*
X13815420Y-11034650D01*
X13815420Y-11053698D02*
X13824943Y-11044174D01*
X13824943Y-11044174D02*
X13843991Y-11034650D01*
X13843991Y-11034650D02*
X13872563Y-11034650D01*
X13872563Y-11034650D02*
X13891610Y-11044174D01*
X13891610Y-11044174D02*
X13901134Y-11063222D01*
X13901134Y-11063222D02*
X13901134Y-11167984D01*
X13901134Y-11063222D02*
X13910658Y-11044174D01*
X13910658Y-11044174D02*
X13929705Y-11034650D01*
X13929705Y-11034650D02*
X13958277Y-11034650D01*
X13958277Y-11034650D02*
X13977324Y-11044174D01*
X13977324Y-11044174D02*
X13986848Y-11063222D01*
X13986848Y-11063222D02*
X13986848Y-11167984D01*
X14082086Y-11167984D02*
X14082086Y-11034650D01*
X14082086Y-11053698D02*
X14091610Y-11044174D01*
X14091610Y-11044174D02*
X14110658Y-11034650D01*
X14110658Y-11034650D02*
X14139229Y-11034650D01*
X14139229Y-11034650D02*
X14158277Y-11044174D01*
X14158277Y-11044174D02*
X14167801Y-11063222D01*
X14167801Y-11063222D02*
X14167801Y-11167984D01*
X14167801Y-11063222D02*
X14177324Y-11044174D01*
X14177324Y-11044174D02*
X14196372Y-11034650D01*
X14196372Y-11034650D02*
X14224943Y-11034650D01*
X14224943Y-11034650D02*
X14243991Y-11044174D01*
X14243991Y-11044174D02*
X14253515Y-11063222D01*
X14253515Y-11063222D02*
X14253515Y-11167984D01*
X14643991Y-10958460D02*
X14472563Y-11215603D01*
X14901134Y-10967984D02*
X14920182Y-10967984D01*
X14920182Y-10967984D02*
X14939229Y-10977508D01*
X14939229Y-10977508D02*
X14948753Y-10987031D01*
X14948753Y-10987031D02*
X14958277Y-11006079D01*
X14958277Y-11006079D02*
X14967801Y-11044174D01*
X14967801Y-11044174D02*
X14967801Y-11091793D01*
X14967801Y-11091793D02*
X14958277Y-11129889D01*
X14958277Y-11129889D02*
X14948753Y-11148936D01*
X14948753Y-11148936D02*
X14939229Y-11158460D01*
X14939229Y-11158460D02*
X14920182Y-11167984D01*
X14920182Y-11167984D02*
X14901134Y-11167984D01*
X14901134Y-11167984D02*
X14882086Y-11158460D01*
X14882086Y-11158460D02*
X14872563Y-11148936D01*
X14872563Y-11148936D02*
X14863039Y-11129889D01*
X14863039Y-11129889D02*
X14853515Y-11091793D01*
X14853515Y-11091793D02*
X14853515Y-11044174D01*
X14853515Y-11044174D02*
X14863039Y-11006079D01*
X14863039Y-11006079D02*
X14872563Y-10987031D01*
X14872563Y-10987031D02*
X14882086Y-10977508D01*
X14882086Y-10977508D02*
X14901134Y-10967984D01*
X15053515Y-11148936D02*
X15063039Y-11158460D01*
X15063039Y-11158460D02*
X15053515Y-11167984D01*
X15053515Y-11167984D02*
X15043991Y-11158460D01*
X15043991Y-11158460D02*
X15053515Y-11148936D01*
X15053515Y-11148936D02*
X15053515Y-11167984D01*
X15186848Y-10967984D02*
X15205896Y-10967984D01*
X15205896Y-10967984D02*
X15224944Y-10977508D01*
X15224944Y-10977508D02*
X15234467Y-10987031D01*
X15234467Y-10987031D02*
X15243991Y-11006079D01*
X15243991Y-11006079D02*
X15253515Y-11044174D01*
X15253515Y-11044174D02*
X15253515Y-11091793D01*
X15253515Y-11091793D02*
X15243991Y-11129889D01*
X15243991Y-11129889D02*
X15234467Y-11148936D01*
X15234467Y-11148936D02*
X15224944Y-11158460D01*
X15224944Y-11158460D02*
X15205896Y-11167984D01*
X15205896Y-11167984D02*
X15186848Y-11167984D01*
X15186848Y-11167984D02*
X15167801Y-11158460D01*
X15167801Y-11158460D02*
X15158277Y-11148936D01*
X15158277Y-11148936D02*
X15148753Y-11129889D01*
X15148753Y-11129889D02*
X15139229Y-11091793D01*
X15139229Y-11091793D02*
X15139229Y-11044174D01*
X15139229Y-11044174D02*
X15148753Y-11006079D01*
X15148753Y-11006079D02*
X15158277Y-10987031D01*
X15158277Y-10987031D02*
X15167801Y-10977508D01*
X15167801Y-10977508D02*
X15186848Y-10967984D01*
X15320182Y-10967984D02*
X15443991Y-10967984D01*
X15443991Y-10967984D02*
X15377325Y-11044174D01*
X15377325Y-11044174D02*
X15405896Y-11044174D01*
X15405896Y-11044174D02*
X15424944Y-11053698D01*
X15424944Y-11053698D02*
X15434467Y-11063222D01*
X15434467Y-11063222D02*
X15443991Y-11082270D01*
X15443991Y-11082270D02*
X15443991Y-11129889D01*
X15443991Y-11129889D02*
X15434467Y-11148936D01*
X15434467Y-11148936D02*
X15424944Y-11158460D01*
X15424944Y-11158460D02*
X15405896Y-11167984D01*
X15405896Y-11167984D02*
X15348753Y-11167984D01*
X15348753Y-11167984D02*
X15329706Y-11158460D01*
X15329706Y-11158460D02*
X15320182Y-11148936D01*
X15539229Y-11167984D02*
X15577325Y-11167984D01*
X15577325Y-11167984D02*
X15596372Y-11158460D01*
X15596372Y-11158460D02*
X15605896Y-11148936D01*
X15605896Y-11148936D02*
X15624944Y-11120365D01*
X15624944Y-11120365D02*
X15634467Y-11082270D01*
X15634467Y-11082270D02*
X15634467Y-11006079D01*
X15634467Y-11006079D02*
X15624944Y-10987031D01*
X15624944Y-10987031D02*
X15615420Y-10977508D01*
X15615420Y-10977508D02*
X15596372Y-10967984D01*
X15596372Y-10967984D02*
X15558277Y-10967984D01*
X15558277Y-10967984D02*
X15539229Y-10977508D01*
X15539229Y-10977508D02*
X15529706Y-10987031D01*
X15529706Y-10987031D02*
X15520182Y-11006079D01*
X15520182Y-11006079D02*
X15520182Y-11053698D01*
X15520182Y-11053698D02*
X15529706Y-11072746D01*
X15529706Y-11072746D02*
X15539229Y-11082270D01*
X15539229Y-11082270D02*
X15558277Y-11091793D01*
X15558277Y-11091793D02*
X15596372Y-11091793D01*
X15596372Y-11091793D02*
X15615420Y-11082270D01*
X15615420Y-11082270D02*
X15624944Y-11072746D01*
X15624944Y-11072746D02*
X15634467Y-11053698D01*
X15805896Y-11034650D02*
X15805896Y-11167984D01*
X15758277Y-10958460D02*
X15710658Y-11101317D01*
X15710658Y-11101317D02*
X15834467Y-11101317D01*
X15901134Y-10967984D02*
X15901134Y-11006079D01*
X15977325Y-10967984D02*
X15977325Y-11006079D01*
X16272563Y-11244174D02*
X16263039Y-11234650D01*
X16263039Y-11234650D02*
X16243991Y-11206079D01*
X16243991Y-11206079D02*
X16234468Y-11187031D01*
X16234468Y-11187031D02*
X16224944Y-11158460D01*
X16224944Y-11158460D02*
X16215420Y-11110841D01*
X16215420Y-11110841D02*
X16215420Y-11072746D01*
X16215420Y-11072746D02*
X16224944Y-11025127D01*
X16224944Y-11025127D02*
X16234468Y-10996555D01*
X16234468Y-10996555D02*
X16243991Y-10977508D01*
X16243991Y-10977508D02*
X16263039Y-10948936D01*
X16263039Y-10948936D02*
X16272563Y-10939412D01*
X16434468Y-11034650D02*
X16434468Y-11167984D01*
X16386848Y-10958460D02*
X16339229Y-11101317D01*
X16339229Y-11101317D02*
X16463039Y-11101317D01*
X16634468Y-10967984D02*
X16539229Y-10967984D01*
X16539229Y-10967984D02*
X16529706Y-11063222D01*
X16529706Y-11063222D02*
X16539229Y-11053698D01*
X16539229Y-11053698D02*
X16558277Y-11044174D01*
X16558277Y-11044174D02*
X16605896Y-11044174D01*
X16605896Y-11044174D02*
X16624944Y-11053698D01*
X16624944Y-11053698D02*
X16634468Y-11063222D01*
X16634468Y-11063222D02*
X16643991Y-11082270D01*
X16643991Y-11082270D02*
X16643991Y-11129889D01*
X16643991Y-11129889D02*
X16634468Y-11148936D01*
X16634468Y-11148936D02*
X16624944Y-11158460D01*
X16624944Y-11158460D02*
X16605896Y-11167984D01*
X16605896Y-11167984D02*
X16558277Y-11167984D01*
X16558277Y-11167984D02*
X16539229Y-11158460D01*
X16539229Y-11158460D02*
X16529706Y-11148936D01*
X16882087Y-11167984D02*
X16882087Y-10967984D01*
X16967801Y-11167984D02*
X16967801Y-11063222D01*
X16967801Y-11063222D02*
X16958277Y-11044174D01*
X16958277Y-11044174D02*
X16939230Y-11034650D01*
X16939230Y-11034650D02*
X16910658Y-11034650D01*
X16910658Y-11034650D02*
X16891611Y-11044174D01*
X16891611Y-11044174D02*
X16882087Y-11053698D01*
X17091611Y-11167984D02*
X17072563Y-11158460D01*
X17072563Y-11158460D02*
X17063039Y-11148936D01*
X17063039Y-11148936D02*
X17053515Y-11129889D01*
X17053515Y-11129889D02*
X17053515Y-11072746D01*
X17053515Y-11072746D02*
X17063039Y-11053698D01*
X17063039Y-11053698D02*
X17072563Y-11044174D01*
X17072563Y-11044174D02*
X17091611Y-11034650D01*
X17091611Y-11034650D02*
X17120182Y-11034650D01*
X17120182Y-11034650D02*
X17139230Y-11044174D01*
X17139230Y-11044174D02*
X17148753Y-11053698D01*
X17148753Y-11053698D02*
X17158277Y-11072746D01*
X17158277Y-11072746D02*
X17158277Y-11129889D01*
X17158277Y-11129889D02*
X17148753Y-11148936D01*
X17148753Y-11148936D02*
X17139230Y-11158460D01*
X17139230Y-11158460D02*
X17120182Y-11167984D01*
X17120182Y-11167984D02*
X17091611Y-11167984D01*
X17272563Y-11167984D02*
X17253515Y-11158460D01*
X17253515Y-11158460D02*
X17243992Y-11139412D01*
X17243992Y-11139412D02*
X17243992Y-10967984D01*
X17424944Y-11158460D02*
X17405896Y-11167984D01*
X17405896Y-11167984D02*
X17367801Y-11167984D01*
X17367801Y-11167984D02*
X17348753Y-11158460D01*
X17348753Y-11158460D02*
X17339230Y-11139412D01*
X17339230Y-11139412D02*
X17339230Y-11063222D01*
X17339230Y-11063222D02*
X17348753Y-11044174D01*
X17348753Y-11044174D02*
X17367801Y-11034650D01*
X17367801Y-11034650D02*
X17405896Y-11034650D01*
X17405896Y-11034650D02*
X17424944Y-11044174D01*
X17424944Y-11044174D02*
X17434468Y-11063222D01*
X17434468Y-11063222D02*
X17434468Y-11082270D01*
X17434468Y-11082270D02*
X17339230Y-11101317D01*
X17510658Y-11158460D02*
X17529706Y-11167984D01*
X17529706Y-11167984D02*
X17567801Y-11167984D01*
X17567801Y-11167984D02*
X17586849Y-11158460D01*
X17586849Y-11158460D02*
X17596373Y-11139412D01*
X17596373Y-11139412D02*
X17596373Y-11129889D01*
X17596373Y-11129889D02*
X17586849Y-11110841D01*
X17586849Y-11110841D02*
X17567801Y-11101317D01*
X17567801Y-11101317D02*
X17539230Y-11101317D01*
X17539230Y-11101317D02*
X17520182Y-11091793D01*
X17520182Y-11091793D02*
X17510658Y-11072746D01*
X17510658Y-11072746D02*
X17510658Y-11063222D01*
X17510658Y-11063222D02*
X17520182Y-11044174D01*
X17520182Y-11044174D02*
X17539230Y-11034650D01*
X17539230Y-11034650D02*
X17567801Y-11034650D01*
X17567801Y-11034650D02*
X17586849Y-11044174D01*
X17663039Y-11244174D02*
X17672563Y-11234650D01*
X17672563Y-11234650D02*
X17691611Y-11206079D01*
X17691611Y-11206079D02*
X17701134Y-11187031D01*
X17701134Y-11187031D02*
X17710658Y-11158460D01*
X17710658Y-11158460D02*
X17720182Y-11110841D01*
X17720182Y-11110841D02*
X17720182Y-11072746D01*
X17720182Y-11072746D02*
X17710658Y-11025127D01*
X17710658Y-11025127D02*
X17701134Y-10996555D01*
X17701134Y-10996555D02*
X17691611Y-10977508D01*
X17691611Y-10977508D02*
X17672563Y-10948936D01*
X17672563Y-10948936D02*
X17663039Y-10939412D01*
M02*
