%TF.GenerationSoftware,KiCad,Pcbnew,8.0.3*%
%TF.CreationDate,2024-07-23T22:42:35-04:00*%
%TF.ProjectId,RP2040 Custom,52503230-3430-4204-9375-73746f6d2e6b,rev?*%
%TF.SameCoordinates,Original*%
%TF.FileFunction,Soldermask,Top*%
%TF.FilePolarity,Negative*%
%FSLAX46Y46*%
G04 Gerber Fmt 4.6, Leading zero omitted, Abs format (unit mm)*
G04 Created by KiCad (PCBNEW 8.0.3) date 2024-07-23 22:42:35*
%MOMM*%
%LPD*%
G01*
G04 APERTURE LIST*
G04 Aperture macros list*
%AMRoundRect*
0 Rectangle with rounded corners*
0 $1 Rounding radius*
0 $2 $3 $4 $5 $6 $7 $8 $9 X,Y pos of 4 corners*
0 Add a 4 corners polygon primitive as box body*
4,1,4,$2,$3,$4,$5,$6,$7,$8,$9,$2,$3,0*
0 Add four circle primitives for the rounded corners*
1,1,$1+$1,$2,$3*
1,1,$1+$1,$4,$5*
1,1,$1+$1,$6,$7*
1,1,$1+$1,$8,$9*
0 Add four rect primitives between the rounded corners*
20,1,$1+$1,$2,$3,$4,$5,0*
20,1,$1+$1,$4,$5,$6,$7,0*
20,1,$1+$1,$6,$7,$8,$9,0*
20,1,$1+$1,$8,$9,$2,$3,0*%
%AMFreePoly0*
4,1,6,0.180000,0.075000,0.000000,-0.105000,-0.180000,-0.105000,-0.180000,0.105000,0.180000,0.105000,0.180000,0.075000,0.180000,0.075000,$1*%
%AMFreePoly1*
4,1,6,0.180000,-0.075000,0.180000,-0.105000,-0.180000,-0.105000,-0.180000,0.105000,0.000000,0.105000,0.180000,-0.075000,0.180000,-0.075000,$1*%
%AMFreePoly2*
4,1,6,0.180000,-0.105000,0.000000,-0.105000,-0.180000,0.075000,-0.180000,0.105000,0.180000,0.105000,0.180000,-0.105000,0.180000,-0.105000,$1*%
%AMFreePoly3*
4,1,6,0.180000,-0.105000,-0.180000,-0.105000,-0.180000,-0.075000,0.000000,0.105000,0.180000,0.105000,0.180000,-0.105000,0.180000,-0.105000,$1*%
G04 Aperture macros list end*
%ADD10C,0.100000*%
%ADD11RoundRect,0.140000X-0.170000X0.140000X-0.170000X-0.140000X0.170000X-0.140000X0.170000X0.140000X0*%
%ADD12R,1.700000X1.700000*%
%ADD13C,1.700000*%
%ADD14RoundRect,0.140000X0.170000X-0.140000X0.170000X0.140000X-0.170000X0.140000X-0.170000X-0.140000X0*%
%ADD15RoundRect,0.140000X-0.140000X-0.170000X0.140000X-0.170000X0.140000X0.170000X-0.140000X0.170000X0*%
%ADD16O,1.700000X1.700000*%
%ADD17RoundRect,0.140000X0.140000X0.170000X-0.140000X0.170000X-0.140000X-0.170000X0.140000X-0.170000X0*%
%ADD18R,1.400000X1.200000*%
%ADD19RoundRect,0.050000X-0.387500X-0.050000X0.387500X-0.050000X0.387500X0.050000X-0.387500X0.050000X0*%
%ADD20RoundRect,0.050000X-0.050000X-0.387500X0.050000X-0.387500X0.050000X0.387500X-0.050000X0.387500X0*%
%ADD21R,3.200000X3.200000*%
%ADD22RoundRect,0.100000X-0.100000X0.130000X-0.100000X-0.130000X0.100000X-0.130000X0.100000X0.130000X0*%
%ADD23RoundRect,0.225000X-0.225000X-0.250000X0.225000X-0.250000X0.225000X0.250000X-0.225000X0.250000X0*%
%ADD24RoundRect,0.200000X0.200000X0.275000X-0.200000X0.275000X-0.200000X-0.275000X0.200000X-0.275000X0*%
%ADD25FreePoly0,90.000000*%
%ADD26FreePoly1,90.000000*%
%ADD27FreePoly2,90.000000*%
%ADD28FreePoly3,90.000000*%
%ADD29RoundRect,0.120000X0.169706X0.000000X0.000000X0.169706X-0.169706X0.000000X0.000000X-0.169706X0*%
%ADD30RoundRect,0.150000X0.150000X-0.650000X0.150000X0.650000X-0.150000X0.650000X-0.150000X-0.650000X0*%
%ADD31C,0.650000*%
%ADD32R,0.600000X1.240000*%
%ADD33R,0.300000X1.240000*%
%ADD34O,1.000000X2.100000*%
%ADD35O,1.000000X1.800000*%
%ADD36RoundRect,0.200000X-0.275000X0.200000X-0.275000X-0.200000X0.275000X-0.200000X0.275000X0.200000X0*%
G04 APERTURE END LIST*
D10*
X128066800Y-44881800D02*
X130708400Y-44881800D01*
X130708400Y-49555400D01*
X128066800Y-49555400D01*
X128066800Y-44881800D01*
G36*
X128066800Y-44881800D02*
G01*
X130708400Y-44881800D01*
X130708400Y-49555400D01*
X128066800Y-49555400D01*
X128066800Y-44881800D01*
G37*
X128270000Y-72415400D02*
X132943600Y-72415400D01*
X132943600Y-75057000D01*
X128270000Y-75057000D01*
X128270000Y-72415400D01*
G36*
X128270000Y-72415400D02*
G01*
X132943600Y-72415400D01*
X132943600Y-75057000D01*
X128270000Y-75057000D01*
X128270000Y-72415400D01*
G37*
X146354800Y-59613800D02*
X151028400Y-59613800D01*
X151028400Y-62255400D01*
X146354800Y-62255400D01*
X146354800Y-59613800D01*
G36*
X146354800Y-59613800D02*
G01*
X151028400Y-59613800D01*
X151028400Y-62255400D01*
X146354800Y-62255400D01*
X146354800Y-59613800D01*
G37*
X128066800Y-44221400D02*
X133400800Y-44221400D01*
X133400800Y-46863000D01*
X128066800Y-46863000D01*
X128066800Y-44221400D01*
G36*
X128066800Y-44221400D02*
G01*
X133400800Y-44221400D01*
X133400800Y-46863000D01*
X128066800Y-46863000D01*
X128066800Y-44221400D01*
G37*
X146405600Y-84937600D02*
X151079200Y-84937600D01*
X151079200Y-87579200D01*
X146405600Y-87579200D01*
X146405600Y-84937600D01*
G36*
X146405600Y-84937600D02*
G01*
X151079200Y-84937600D01*
X151079200Y-87579200D01*
X146405600Y-87579200D01*
X146405600Y-84937600D01*
G37*
X146380200Y-51943000D02*
X151053800Y-51943000D01*
X151053800Y-54584600D01*
X146380200Y-54584600D01*
X146380200Y-51943000D01*
G36*
X146380200Y-51943000D02*
G01*
X151053800Y-51943000D01*
X151053800Y-54584600D01*
X146380200Y-54584600D01*
X146380200Y-51943000D01*
G37*
X128143000Y-59690000D02*
X132816600Y-59690000D01*
X132816600Y-62331600D01*
X128143000Y-62331600D01*
X128143000Y-59690000D01*
G36*
X128143000Y-59690000D02*
G01*
X132816600Y-59690000D01*
X132816600Y-62331600D01*
X128143000Y-62331600D01*
X128143000Y-59690000D01*
G37*
X128371600Y-85039200D02*
X133045200Y-85039200D01*
X133045200Y-87680800D01*
X128371600Y-87680800D01*
X128371600Y-85039200D01*
G36*
X128371600Y-85039200D02*
G01*
X133045200Y-85039200D01*
X133045200Y-87680800D01*
X128371600Y-87680800D01*
X128371600Y-85039200D01*
G37*
X146481800Y-72263000D02*
X151155400Y-72263000D01*
X151155400Y-74904600D01*
X146481800Y-74904600D01*
X146481800Y-72263000D01*
G36*
X146481800Y-72263000D02*
G01*
X151155400Y-72263000D01*
X151155400Y-74904600D01*
X146481800Y-74904600D01*
X146481800Y-72263000D01*
G37*
D11*
%TO.C,C5*%
X139471400Y-82857400D03*
X139471400Y-83817400D03*
%TD*%
D12*
%TO.C,J4*%
X132080000Y-45720000D03*
D13*
X132080000Y-48260000D03*
%TD*%
D14*
%TO.C,C3*%
X139319000Y-71216400D03*
X139319000Y-70256400D03*
%TD*%
D15*
%TO.C,C14*%
X138712000Y-85115400D03*
X139672000Y-85115400D03*
%TD*%
D12*
%TO.C,J2*%
X129540000Y-48260000D03*
D16*
X129540000Y-50800000D03*
X129540000Y-53340000D03*
X129540000Y-55880000D03*
X129540000Y-58420000D03*
X129540000Y-60960000D03*
X129540000Y-63500000D03*
X129540000Y-66040000D03*
X129540000Y-68580000D03*
X129540000Y-71120000D03*
X129540000Y-73660000D03*
X129540000Y-76200000D03*
X129540000Y-78740000D03*
X129540000Y-81280000D03*
X129540000Y-83820000D03*
X129540000Y-86360000D03*
X129540000Y-88900000D03*
X129540000Y-91440000D03*
X129540000Y-93980000D03*
X129540000Y-96520000D03*
%TD*%
D11*
%TO.C,C16*%
X144957800Y-70637400D03*
X144957800Y-71597400D03*
%TD*%
D17*
%TO.C,C6*%
X134386200Y-77647800D03*
X133426200Y-77647800D03*
%TD*%
D14*
%TO.C,C12*%
X140436600Y-83817400D03*
X140436600Y-82857400D03*
%TD*%
D12*
%TO.C,J1*%
X149860000Y-48260000D03*
X149860000Y-50800000D03*
D16*
X149860000Y-53340000D03*
X149860000Y-55880000D03*
X149860000Y-58420000D03*
X149860000Y-60960000D03*
X149860000Y-63500000D03*
X149860000Y-66040000D03*
X149860000Y-68580000D03*
X149860000Y-71120000D03*
X149860000Y-73660000D03*
X149860000Y-76200000D03*
X149860000Y-78740000D03*
X149860000Y-81280000D03*
X149860000Y-83820000D03*
X149860000Y-86360000D03*
X149860000Y-88900000D03*
X149860000Y-91440000D03*
X149860000Y-93980000D03*
X149860000Y-96520000D03*
%TD*%
D11*
%TO.C,C9*%
X138379200Y-70256400D03*
X138379200Y-71216400D03*
%TD*%
D18*
%TO.C,Y1*%
X138811900Y-86593700D03*
X136611900Y-86593700D03*
X136611900Y-88293700D03*
X138811900Y-88293700D03*
%TD*%
D17*
%TO.C,C8*%
X134874000Y-58496200D03*
X133914000Y-58496200D03*
%TD*%
D11*
%TO.C,C17*%
X143967200Y-70617200D03*
X143967200Y-71577200D03*
%TD*%
%TO.C,C15*%
X135001000Y-72288400D03*
X135001000Y-73248400D03*
%TD*%
D19*
%TO.C,U1*%
X136271900Y-74573700D03*
X136271900Y-74973700D03*
X136271900Y-75373700D03*
X136271900Y-75773700D03*
X136271900Y-76173700D03*
X136271900Y-76573700D03*
X136271900Y-76973700D03*
X136271900Y-77373700D03*
X136271900Y-77773700D03*
X136271900Y-78173700D03*
X136271900Y-78573700D03*
X136271900Y-78973700D03*
X136271900Y-79373700D03*
X136271900Y-79773700D03*
D20*
X137109400Y-80611200D03*
X137509400Y-80611200D03*
X137909400Y-80611200D03*
X138309400Y-80611200D03*
X138709400Y-80611200D03*
X139109400Y-80611200D03*
X139509400Y-80611200D03*
X139909400Y-80611200D03*
X140309400Y-80611200D03*
X140709400Y-80611200D03*
X141109400Y-80611200D03*
X141509400Y-80611200D03*
X141909400Y-80611200D03*
X142309400Y-80611200D03*
D19*
X143146900Y-79773700D03*
X143146900Y-79373700D03*
X143146900Y-78973700D03*
X143146900Y-78573700D03*
X143146900Y-78173700D03*
X143146900Y-77773700D03*
X143146900Y-77373700D03*
X143146900Y-76973700D03*
X143146900Y-76573700D03*
X143146900Y-76173700D03*
X143146900Y-75773700D03*
X143146900Y-75373700D03*
X143146900Y-74973700D03*
X143146900Y-74573700D03*
D20*
X142309400Y-73736200D03*
X141909400Y-73736200D03*
X141509400Y-73736200D03*
X141109400Y-73736200D03*
X140709400Y-73736200D03*
X140309400Y-73736200D03*
X139909400Y-73736200D03*
X139509400Y-73736200D03*
X139109400Y-73736200D03*
X138709400Y-73736200D03*
X138309400Y-73736200D03*
X137909400Y-73736200D03*
X137509400Y-73736200D03*
X137109400Y-73736200D03*
D21*
X139709400Y-77173700D03*
%TD*%
D22*
%TO.C,R5*%
X133375400Y-50469400D03*
X133375400Y-51109400D03*
%TD*%
%TO.C,R1*%
X140462000Y-70124800D03*
X140462000Y-70764800D03*
%TD*%
D14*
%TO.C,C11*%
X143002000Y-71597400D03*
X143002000Y-70637400D03*
%TD*%
D23*
%TO.C,C2*%
X134035200Y-54737000D03*
X135585200Y-54737000D03*
%TD*%
D17*
%TO.C,C13*%
X137535800Y-85115400D03*
X136575800Y-85115400D03*
%TD*%
D24*
%TO.C,R3*%
X137617200Y-51358800D03*
X135967200Y-51358800D03*
%TD*%
D23*
%TO.C,C1*%
X134048200Y-53213000D03*
X135598200Y-53213000D03*
%TD*%
D14*
%TO.C,C7*%
X142189200Y-84274600D03*
X142189200Y-83314600D03*
%TD*%
D25*
%TO.C,U3*%
X136855200Y-54327000D03*
D26*
X137505200Y-54327000D03*
D27*
X136855200Y-53467000D03*
D28*
X137505200Y-53467000D03*
D29*
X137180200Y-53897000D03*
%TD*%
D12*
%TO.C,J5*%
X139522200Y-92964000D03*
D16*
X142062200Y-92964000D03*
X144602200Y-92964000D03*
%TD*%
D30*
%TO.C,U2*%
X133832600Y-67481000D03*
X135102600Y-67481000D03*
X136372600Y-67481000D03*
X137642600Y-67481000D03*
X137642600Y-60281000D03*
X136372600Y-60281000D03*
X135102600Y-60281000D03*
X133832600Y-60281000D03*
%TD*%
D31*
%TO.C,USB1*%
X142590000Y-48325000D03*
X136810000Y-48325000D03*
D32*
X142900000Y-49445000D03*
X142100000Y-49445000D03*
D33*
X140950000Y-49445000D03*
X139950000Y-49445000D03*
X139450000Y-49445000D03*
X138450000Y-49445000D03*
D32*
X137300000Y-49445000D03*
X136500000Y-49445000D03*
X136500000Y-49445000D03*
X137300000Y-49445000D03*
D33*
X137950000Y-49445000D03*
X138950000Y-49445000D03*
X140450000Y-49445000D03*
X141450000Y-49445000D03*
D32*
X142100000Y-49445000D03*
X142900000Y-49445000D03*
D34*
X144020000Y-48845000D03*
D35*
X144020000Y-44645000D03*
D34*
X135380000Y-48845000D03*
D35*
X135380000Y-44645000D03*
%TD*%
D15*
%TO.C,C4*%
X145265200Y-78333600D03*
X146225200Y-78333600D03*
%TD*%
D11*
%TO.C,C10*%
X142062200Y-70617200D03*
X142062200Y-71577200D03*
%TD*%
D22*
%TO.C,R2*%
X141198600Y-70124800D03*
X141198600Y-70764800D03*
%TD*%
D36*
%TO.C,R4*%
X141401800Y-51245000D03*
X141401800Y-52895000D03*
%TD*%
M02*
