M48
; DRILL file {KiCad 8.0.3} date 2024-07-23T22:42:39-0400
; FORMAT={-:-/ absolute / inch / decimal}
; #@! TF.CreationDate,2024-07-23T22:42:39-04:00
; #@! TF.GenerationSoftware,Kicad,Pcbnew,8.0.3
; #@! TF.FileFunction,Plated,1,4,PTH
FMAT,2
INCH
; #@! TA.AperFunction,Plated,PTH,ViaDrill
T1C0.0118
; #@! TA.AperFunction,Plated,PTH,ComponentDrill
T2C0.0236
; #@! TA.AperFunction,Plated,PTH,ComponentDrill
T3C0.0394
%
G90
G05
T1
X5.15Y-2.475
X5.156Y-2.311
X5.161Y-2.215
X5.169Y-2.123
X5.178Y-2.005
X5.18Y-3.168
X5.181Y-3.457
X5.183Y-3.553
X5.185Y-3.307
X5.193Y-3.651
X5.196Y-2.995
X5.219Y-3.843
X5.258Y-2.802
X5.266Y-2.545
X5.319Y-2.454
X5.359Y-2.903
X5.375Y-1.947
X5.392Y-3.078
X5.423Y-2.237
X5.423Y-2.543
X5.496Y-3.137
X5.512Y-2.941
X5.572Y-3.141
X5.593Y-2.181
X5.595Y-2.427
X5.603Y-3.078
X5.627Y-1.947
X5.636Y-2.898
X5.683Y-3.231
X5.707Y-2.259
X5.77Y-2.366
X5.789Y-2.105
X5.794Y-3.859
X5.795Y-2.518
X5.7973Y-2.948
X5.8Y-2.731
X5.803Y-3.46
X5.804Y-3.03
X5.805Y-2.647
X5.807Y-3.55
X5.809Y-3.314
X5.809Y-3.666
X5.82Y-2.83
X5.82Y-3.128
X5.821Y-3.231
T3
X5.1Y-1.9
X5.1Y-2.0
X5.1Y-2.1
X5.1Y-2.2
X5.1Y-2.3
X5.1Y-2.4
X5.1Y-2.5
X5.1Y-2.6
X5.1Y-2.7
X5.1Y-2.8
X5.1Y-2.9
X5.1Y-3.0
X5.1Y-3.1
X5.1Y-3.2
X5.1Y-3.3
X5.1Y-3.4
X5.1Y-3.5
X5.1Y-3.6
X5.1Y-3.7
X5.1Y-3.8
X5.2Y-1.8
X5.2Y-1.9
X5.493Y-3.66
X5.593Y-3.66
X5.693Y-3.66
X5.9Y-1.9
X5.9Y-2.0
X5.9Y-2.1
X5.9Y-2.2
X5.9Y-2.3
X5.9Y-2.4
X5.9Y-2.5
X5.9Y-2.6
X5.9Y-2.7
X5.9Y-2.8
X5.9Y-2.9
X5.9Y-3.0
X5.9Y-3.1
X5.9Y-3.2
X5.9Y-3.3
X5.9Y-3.4
X5.9Y-3.5
X5.9Y-3.6
X5.9Y-3.7
X5.9Y-3.8
T2
G00X5.3299Y-1.7734
M15
G01X5.3299Y-1.7419
M16
G05
G00X5.3299Y-1.9447
M15
G01X5.3299Y-1.9014
M16
G05
G00X5.6701Y-1.7734
M15
G01X5.6701Y-1.7419
M16
G05
G00X5.6701Y-1.9447
M15
G01X5.6701Y-1.9014
M16
G05
M30
